<?xml version="1.0" encoding="UTF-8"?>
<svg version="1.1" xmlns="http://www.w3.org/2000/svg" width="512" height="512">
<path d="M0 0 C0.99 0.33257812 0.99 0.33257812 2 0.671875 C19.03720469 6.57993791 34.40254899 16.24004237 48 28 C51.62696011 26.97991747 53.90370544 25.3098197 56.625 22.8125 C61.37580335 18.53058414 66.49922959 15.24189891 72 12 C73.63388672 11.02353516 73.63388672 11.02353516 75.30078125 10.02734375 C104.98111342 -7.08988485 141.88589121 -11.35620811 174.9375 -2.75 C199.1081853 3.97712438 218.90571572 15.7780297 237 33 C237.77085937 33.69480469 238.54171875 34.38960937 239.3359375 35.10546875 C256.2801894 50.91806484 270.20186684 75.47086297 273.94921875 98.45703125 C275.1123973 107.70390062 275.1123973 107.70390062 279.52148438 115.57617188 C283.11732473 118.11185248 287.09030211 119.65289824 291.17871094 121.21826172 C308.26087832 128.55031265 320.37984961 148.53006579 327.19140625 164.85546875 C334.95890009 185.17706701 335.04904817 210.26636988 326.1640625 230.2734375 C315.39654521 253.18885572 298.70061559 270.79043933 274.7109375 279.71484375 C250.47539071 288.10799627 225.94785969 286.10883897 202.8125 275.25 C180.88232902 263.72486982 165.94416495 244.27701749 158.5625 220.875 C153.62287457 203.81889427 154.05311293 183.72909354 160 167 C160.42410156 165.80503906 160.84820312 164.61007813 161.28515625 163.37890625 C170.60363529 139.68037879 188.956124 123.30103744 211.89453125 113.21484375 C222.38317798 109.11173792 232.76325481 107.9034118 243.9375 107.4375 C244.90751953 107.39431641 245.87753906 107.35113281 246.87695312 107.30664062 C249.25118601 107.20137907 251.62550921 107.09924293 254 107 C244.51073168 74.66930705 227.26634439 46.68092683 197.18359375 29.80859375 C169.58917231 15.03892279 138.56128639 11.07542119 108.41015625 19.87890625 C103.10949536 21.62150611 98.04580649 23.61796953 93 26 C91.83984375 26.54140625 90.6796875 27.0828125 89.484375 27.640625 C79.15957043 32.68512688 70.64667348 39.49660614 62 47 C61.10410156 47.77730469 60.20820313 48.55460937 59.28515625 49.35546875 C57.97605122 50.50359884 56.67332747 51.65913835 55.3828125 52.828125 C53.2886138 54.60286966 52.01163471 54.99867787 49.25 55.3125 C43.79188075 54.78768084 40.60138439 51.69229826 36.9375 47.875 C20.14949633 30.72044603 -4.02435232 18.37047364 -28 16 C-29.24265625 15.86851563 -30.4853125 15.73703125 -31.765625 15.6015625 C-61.64529365 12.90853009 -91.34009141 21.75201018 -114.8125 40.4375 C-116.56019639 41.93700282 -118.28989789 43.45776067 -120 45 C-120.84046875 45.75796875 -121.6809375 46.5159375 -122.546875 47.296875 C-132.40181359 56.6621272 -139.98557092 67.84433158 -146 80 C-146.64195312 81.25103516 -146.64195312 81.25103516 -147.296875 82.52734375 C-149.97927376 88.03288441 -151.94097578 93.64457844 -153.6875 99.5 C-153.88996338 100.17562988 -154.09242676 100.85125977 -154.30102539 101.54736328 C-159.65165286 120.24221925 -160.92084165 141.59395793 -154 160 C-153.76442383 160.63470215 -153.52884766 161.2694043 -153.28613281 161.92333984 C-150.48062733 169.41385611 -147.24935884 176.6889426 -144 184 C-97.965 184.495 -97.965 184.495 -51 185 C-49.68 179.72 -48.36 174.44 -47 169 C-46.27739337 166.28050484 -45.54411595 163.56376104 -44.78930664 160.85302734 C-44.60168259 160.17757874 -44.41405853 159.50213013 -44.2207489 158.80621338 C-42.30883688 151.93727451 -40.3697712 145.07587304 -38.42797852 138.21533203 C-37.511158 134.97280002 -36.60313229 131.72799214 -35.70239258 128.48095703 C-34.6025392 124.51640389 -33.48777083 120.55633389 -32.36227226 116.59898758 C-31.9396863 115.10381988 -31.52226337 113.60718221 -31.11030769 112.10905075 C-30.53451929 110.01936354 -29.93964773 107.93599922 -29.34008789 105.85302734 C-29.00795792 104.67106781 -28.67582794 103.48910828 -28.33363342 102.27133179 C-26.6017807 98.02318925 -24.24334649 94.12167324 -20 92 C-13.03007038 91.42869429 -13.03007038 91.42869429 -9.60229492 93.32983398 C-5.70571013 97.32804657 -4.73217081 101.86466213 -3.1953125 107.1484375 C-2.49924642 109.43073208 -1.8029508 111.71295667 -1.10644531 113.99511719 C-0.75650513 115.16328979 -0.40656494 116.3314624 -0.04602051 117.53503418 C1.55767533 122.84731175 3.25510498 128.12882365 4.9453125 133.4140625 C13.25083003 159.60364497 21.47030694 185.82034808 29.62640381 212.05682373 C30.62413694 215.26609325 31.6237829 218.47475715 32.62506104 221.68292236 C33.80765142 225.472654 34.98600841 229.26367597 36.16107178 233.05574799 C36.5971323 234.4606463 37.03462996 235.86509944 37.47363281 237.26908112 C38.07508685 239.19361637 38.67075504 241.11995699 39.26611328 243.04638672 C39.60264923 244.12910858 39.93918518 245.21183044 40.28591919 246.32736206 C41 249 41 249 41 252 C41.66 252 42.32 252 43 252 C43.10567291 251.40882385 43.21134583 250.81764771 43.32022095 250.20855713 C44.57038033 243.56505653 46.32591833 237.18455431 48.3359375 230.734375 C48.65656158 229.69734436 48.97718567 228.66031372 49.30752563 227.59185791 C49.98230214 225.4162052 50.65978007 223.24138866 51.33984375 221.06738281 C52.37540864 217.74869041 53.39504952 214.42536905 54.4140625 211.1015625 C55.07455528 208.97886599 55.73598155 206.85645966 56.3984375 204.734375 C56.69962494 203.74677185 57.00081238 202.7591687 57.31112671 201.74163818 C59.36031159 195.26177379 61.1406779 189.90621474 67 186 C69.60494995 185.73257446 69.60494995 185.73257446 72.76904297 185.70947266 C73.95392303 185.69671295 75.1388031 185.68395325 76.35958862 185.67080688 C77.64084625 185.66858124 78.92210388 185.66635559 80.2421875 185.6640625 C81.55784698 185.6574057 82.87350647 185.6507489 84.22903442 185.64389038 C87.01486491 185.63191675 89.80057138 185.62820958 92.58642578 185.62939453 C96.14984434 185.62959762 99.71246445 185.60230775 103.27569389 185.56785011 C106.68120367 185.5402123 110.08656702 185.54143129 113.4921875 185.5390625 C114.76939667 185.52469147 116.04660583 185.51032043 117.36251831 185.49551392 C118.5537027 185.50166718 119.74488708 185.50782043 120.97216797 185.51416016 C122.01790985 185.51131012 123.06365173 185.50846008 124.14108276 185.50552368 C127.7268963 186.12572347 129.39898132 187.50741914 132 190 C133.73765543 193.47531087 133.59585352 197.2088001 133 201 C130.47031526 204.28175318 128.92268669 205.69243777 125 207 C123.48165793 207.11400952 121.95910409 207.17612677 120.43676758 207.20532227 C119.51603958 207.22526749 118.59531158 207.24521271 117.64668274 207.26576233 C116.16061775 207.29083107 116.16061775 207.29083107 114.64453125 207.31640625 C113.62775803 207.33718735 112.6109848 207.35796844 111.56340027 207.37937927 C108.31316937 207.44480048 105.06285723 207.50372537 101.8125 207.5625 C99.61001762 207.60569227 97.40754347 207.64930679 95.20507812 207.69335938 C89.80347147 207.80047427 84.40178388 207.90225457 79 208 C78.72295731 208.88124039 78.44591461 209.76248077 78.16047668 210.67042542 C75.52912522 219.03964433 72.8965255 227.4084694 70.26257801 235.77687168 C68.90899996 240.07751817 67.55587846 244.37830711 66.20385742 248.67944336 C64.89522035 252.84250166 63.58530954 257.00515732 62.27457237 261.16755486 C61.77865365 262.74314495 61.28316804 264.31887144 60.78815651 265.89474678 C59.42359353 270.2383086 58.04711607 274.57778574 56.65954971 278.91405106 C55.98641756 281.04295699 55.33505656 283.17776226 54.68539429 285.31393433 C54.25906081 286.67679846 53.83229156 288.03952637 53.4050293 289.40209961 C52.85325264 291.20220741 52.85325264 291.20220741 52.29032898 293.03868103 C50.91290444 296.19988526 49.96474067 297.32795157 47 299 C43.2781231 300.15791726 41.1854352 300.04476022 37.375 299.125 C29.23985471 294.00287148 27.56841929 280.70738978 24.84375 271.87109375 C24.34358348 270.26341933 23.84291994 268.65589947 23.34179688 267.04852295 C21.99963497 262.73897125 20.66401244 258.42741861 19.32955933 254.1154747 C17.94054448 249.63147158 16.54527009 245.14941784 15.15039062 240.66723633 C13.15914893 234.26705018 11.16966575 227.86632296 9.18262482 221.46483135 C4.41174284 206.09523986 -0.3871335 190.7344405 -5.19067383 175.37503052 C-6.48422851 171.23853014 -7.77638708 167.10159444 -9.06835938 162.96459961 C-9.46898167 161.68206398 -9.8696161 160.39953213 -10.27026367 159.11700439 C-11.00563152 156.76293434 -11.74083135 154.40881179 -12.47583008 152.05462646 C-12.79640381 151.02879456 -13.11697754 150.00296265 -13.44726562 148.94604492 C-13.8637738 147.61255257 -13.8637738 147.61255257 -14.28869629 146.25212097 C-14.84324453 144.49631722 -15.41773111 142.74680666 -16 141 C-16.20187424 141.72805344 -16.40374847 142.45610687 -16.61174011 143.20622253 C-18.52140264 150.08185889 -20.44702031 156.95273023 -22.39051342 163.81887341 C-23.38902068 167.34862261 -24.38136655 170.87986199 -25.35961914 174.4152832 C-26.30472611 177.83002787 -27.26603068 181.23983195 -28.23851967 184.64687538 C-28.78409489 186.57412182 -29.31299157 188.50606463 -29.84159851 190.43803406 C-33.01221571 201.45064227 -33.01221571 201.45064227 -38 205 C-41.84773857 206.28257952 -45.49885763 206.17721415 -49.51049805 206.20532227 C-50.37900391 206.21522186 -51.24750977 206.22512146 -52.14233398 206.23532104 C-55.01543443 206.26692944 -57.88855142 206.29169092 -60.76171875 206.31640625 C-62.75283744 206.33697634 -64.74395177 206.35797283 -66.73506165 206.37937927 C-71.97767608 206.43459421 -77.22032988 206.48400608 -82.4630127 206.53222656 C-87.81196602 206.58244577 -93.16086211 206.63812965 -98.50976562 206.69335938 C-109.00646154 206.8009339 -119.50320712 206.90238048 -130 207 C-127.82466895 210.14847932 -125.64149378 213.29144466 -123.45703125 216.43359375 C-122.85056763 217.31156616 -122.244104 218.18953857 -121.6192627 219.09411621 C-116.00420229 227.15681473 -109.86972923 234.69895144 -103.52197266 242.18994141 C-101.43112167 244.67655822 -99.40579724 247.21424777 -97.375 249.75 C-93.05542276 255.04470569 -88.4288829 260.02576049 -83.765625 265.015625 C-81.65797695 267.27522631 -79.62126663 269.5782758 -77.625 271.9375 C-73.70223569 276.48829307 -69.38123843 280.64585258 -65.11157227 284.86694336 C-62.13497771 287.82135114 -59.24298782 290.76949 -56.5625 294 C-52.67384995 298.59746727 -48.18659897 302.56745944 -43.765625 306.64086914 C-39.77270879 310.32492735 -35.88015914 314.07192045 -32.0625 317.9375 C-28.56414354 321.47181607 -25.00678114 324.83062927 -21.2265625 328.05859375 C-18.26046515 330.64482249 -15.38378885 333.32269355 -12.5 336 C-7.7338537 340.41524781 -2.93091959 344.76850163 2 349 C2.49048828 349.42216797 2.98097656 349.84433594 3.48632812 350.27929688 C20.33867076 364.80996799 20.33867076 364.80996799 37.49609375 378.9765625 C39.11123383 380.2817771 40.70924576 381.60861773 42.28515625 382.9609375 C42.97480469 383.53070313 43.66445312 384.10046875 44.375 384.6875 C44.96023437 385.18636719 45.54546875 385.68523437 46.1484375 386.19921875 C48.03594926 387.23032614 48.03594926 387.23032614 50.32421875 386.484375 C53.74731122 384.58543319 56.54105833 382.16211152 59.4375 379.5625 C64.22048995 375.35724856 69.07503699 371.31781281 74.125 367.4375 C79.20428983 363.51509678 83.98120895 359.38159494 88.66137695 354.99291992 C91.93852911 351.93120356 95.31741065 349.05940425 98.8125 346.25 C102.55843127 343.233935 106.00171926 340.11644332 109.34375 336.6640625 C111.67813947 334.31866176 114.17642591 332.1882061 116.6875 330.03515625 C118.49294549 328.44624223 120.25220141 326.83423143 122 325.18359375 C122.52634033 324.68956055 123.05268066 324.19552734 123.5949707 323.68652344 C124.63537135 322.70721025 125.67062389 321.7223909 126.69995117 320.73144531 C130.8131833 316.87610251 133.81890345 314.96105185 139.5 315.0625 C143.84291002 316.22577947 145.44923694 317.28979918 148 321 C148.86198778 324.20952895 148.82484357 326.78202477 148 330 C146.1398121 333.17363138 143.67881134 335.5018842 141 338 C140.08089844 338.86753906 139.16179687 339.73507812 138.21484375 340.62890625 C135.17970653 343.46034299 132.09360292 346.23278638 129 349 C127.31246898 350.52079891 125.624967 352.04163006 123.9375 353.5625 C123.13054687 354.28566406 122.32359375 355.00882812 121.4921875 355.75390625 C119.75995546 357.31508716 118.03660424 358.88615558 116.3203125 360.46484375 C111.016522 365.34042453 105.61099443 370.00498387 100.00390625 374.52734375 C96.50333074 377.40883178 93.09731467 380.38732379 89.6875 383.375 C83.769317 388.54319149 77.71805386 393.48440201 71.49609375 398.28125 C69.03643964 400.17831995 66.62084084 402.11957084 64.22265625 404.09375 C63.5994751 404.60083496 62.97629395 405.10791992 62.33422852 405.63037109 C61.14637148 406.59830145 59.96535072 407.57470786 58.79272461 408.56103516 C55.2397303 411.43078171 52.60825132 412.98812306 48 413 C41.85339516 411.12742969 37.57773984 407.51016426 32.75 403.375 C31.23971458 402.10531261 29.72929804 400.83578119 28.21875 399.56640625 C27.49300781 398.95168457 26.76726562 398.33696289 26.01953125 397.70361328 C23.45568282 395.54083109 20.85604011 393.42415898 18.25 391.3125 C9.46331771 384.12582055 0.8324631 376.79781897 -7.5625 369.15625 C-10.02443513 366.97838431 -12.55553647 364.92445305 -15.125 362.875 C-21.44766475 357.76305829 -27.29554438 352.174969 -33.1953125 346.5859375 C-36.23061984 343.71251322 -39.31173015 340.90021623 -42.4375 338.125 C-46.40302761 334.59123001 -50.14218971 330.87844069 -53.87109375 327.09765625 C-55.75243436 325.24393165 -57.67345407 323.5186663 -59.6875 321.8125 C-68.05531347 314.62088521 -75.91362801 306.61244032 -83.03125 298.1875 C-85.89841443 295.00176175 -88.95468776 292.01456743 -92 289 C-96.88211982 284.15713977 -101.57331308 279.26623099 -106 274 C-106.87371653 272.9884733 -107.74885192 271.97817131 -108.625 270.96875 C-145.0165958 228.9668084 -145.0165958 228.9668084 -156 207 C-159.28871634 206.70033611 -162.53453698 206.58453114 -165.83398438 206.52148438 C-170.56474744 206.34238808 -173.89861634 205.60102742 -178 203 C-180.6790573 198.98141405 -180.69610694 195.72358279 -180 191 C-178.20606332 188.12970131 -177.01736724 186.50868362 -174 185 C-172.00039988 184.960008 -169.99952758 184.95653201 -168 185 C-168.22139648 184.45287354 -168.44279297 183.90574707 -168.67089844 183.34204102 C-179.48233863 156.40625467 -184.5476956 129.80059587 -177 101 C-176.80132324 100.21898926 -176.60264648 99.43797852 -176.39794922 98.63330078 C-166.86456032 62.0065205 -144.26400043 31.27371154 -111.74853516 11.76806641 C-95.92016072 2.55216004 -78.24526406 -3.88739048 -60 -6 C-58.43765625 -6.20109375 -58.43765625 -6.20109375 -56.84375 -6.40625 C-37.81411823 -8.29206936 -18.10061252 -6.10133006 0 0 Z M191.6953125 153.46875 C186.35810483 159.67199514 182.98423505 166.41390717 180 174 C179.65839844 174.825 179.31679688 175.65 178.96484375 176.5 C173.54894614 192.21869818 176.14358014 211.48193597 183.1875 226.125 C191.38184657 242.15580423 204.77193571 253.93920804 221.54296875 260.35546875 C239.03373573 265.93077652 256.12212618 265.06243865 272.984375 257.578125 C290.96518903 248.16847621 302.73650817 234.24625151 309.125 215.05859375 C314.17686155 197.39963129 311.31832609 179.48301814 303.375 163.25 C293.92022644 147.11126055 277.77172914 134.90925291 259.75 130.0625 C232.81157608 124.77337043 209.97756934 133.88504437 191.6953125 153.46875 Z " fill="#000000" transform="translate(180,53)"/>
<path d="M0 0 C3.4174424 2.66234329 4.8481311 4.08676169 5.56762695 8.41333008 C5.54144287 9.68587646 5.51525879 10.95842285 5.48828125 12.26953125 C5.48120651 12.95053391 5.47413177 13.63153656 5.46684265 14.33317566 C5.43900069 16.49409995 5.37629527 18.65236822 5.3125 20.8125 C5.28740332 22.28316552 5.26459253 23.75387193 5.24414062 25.22460938 C5.18921188 28.81725957 5.10301647 32.40837028 5 36 C5.88260498 35.98428955 6.76520996 35.9685791 7.67456055 35.95239258 C10.96400886 35.90112002 14.25302961 35.86358083 17.54272461 35.83520508 C18.96369141 35.8201624 20.38461213 35.79972296 21.80541992 35.77368164 C23.85346886 35.73709653 25.9009015 35.72022903 27.94921875 35.70703125 C29.79519653 35.68346558 29.79519653 35.68346558 31.6784668 35.65942383 C35.28161915 36.02887605 37.12216776 36.84908856 40 39 C42.52584773 42.64678607 42.13464762 45.64275584 41.54296875 49.875 C40.77233665 52.89099901 39.54586865 54.2542615 37 56 C33.50434967 57.18775132 30.15295951 57.11433163 26.484375 57.09765625 C24.60878906 57.09282227 24.60878906 57.09282227 22.6953125 57.08789062 C20.74238281 57.07532227 20.74238281 57.07532227 18.75 57.0625 C17.43257813 57.05798828 16.11515625 57.05347656 14.7578125 57.04882812 C11.50516259 57.03704316 8.25260416 57.02059011 5 57 C5.02094727 57.88260498 5.04189453 58.76520996 5.06347656 59.67456055 C5.13184095 62.96405569 5.18188949 66.25279094 5.21972656 69.54272461 C5.23978421 70.96374457 5.26703778 72.38468259 5.30175781 73.80541992 C5.35054011 75.85355895 5.37302539 77.90060275 5.390625 79.94921875 C5.41157227 81.17987061 5.43251953 82.41052246 5.45410156 83.6784668 C4.91705347 87.6067137 3.75963324 89.21246252 1 92 C-2.20173254 93.60086627 -5.52577059 93.49917089 -9 93 C-11.8100346 91.20636089 -13.50940468 89.98119065 -15 87 C-15.08573394 84.74879258 -15.10712188 82.49500697 -15.09765625 80.2421875 C-15.0962413 79.57913605 -15.09482635 78.91608459 -15.09336853 78.23294067 C-15.08776754 76.11358137 -15.075215 73.99432741 -15.0625 71.875 C-15.05748512 70.43880361 -15.05292219 69.00260556 -15.04882812 67.56640625 C-15.03779782 64.04423655 -15.02053259 60.52212855 -15 57 C-15.82201904 57.01047363 -16.64403809 57.02094727 -17.4909668 57.03173828 C-21.22311331 57.07336759 -24.9552109 57.09934853 -28.6875 57.125 C-29.98107422 57.14175781 -31.27464844 57.15851563 -32.60742188 57.17578125 C-33.85458984 57.18222656 -35.10175781 57.18867188 -36.38671875 57.1953125 C-37.53358154 57.20578613 -38.68044434 57.21625977 -39.86206055 57.22705078 C-43.76919066 56.94434394 -46.64833534 56.03927994 -49.7578125 53.6484375 C-52.11234614 50.5238677 -52.11377603 46.80815062 -52 43 C-50.81673736 40.0729819 -49.93723553 38.62346063 -47.32128906 36.88330078 C-44.15209094 35.67735223 -41.43353546 35.77598699 -38.046875 35.8046875 C-37.38665344 35.8075174 -36.72643188 35.81034729 -36.04620361 35.81326294 C-33.94728103 35.82441585 -31.84879258 35.84951054 -29.75 35.875 C-28.32292285 35.88503616 -26.89583898 35.8941609 -25.46875 35.90234375 C-21.97902672 35.92433889 -18.48955577 35.95883464 -15 36 C-15.02618408 35.08710205 -15.05236816 34.1742041 -15.0793457 33.23364258 C-15.16478542 29.83227656 -15.22734999 26.43205742 -15.2746582 23.0300293 C-15.29973644 21.56044475 -15.33380856 20.09098413 -15.37719727 18.62182617 C-15.43815499 16.50408319 -15.46627316 14.38799424 -15.48828125 12.26953125 C-15.51446533 10.99698486 -15.54064941 9.72443848 -15.56762695 8.41333008 C-14.85012446 4.09874841 -13.38004836 2.68186323 -10 0 C-6.1544104 -1.2818632 -3.93271581 -0.94927623 0 0 Z " fill="#000000" transform="translate(429,203)"/>
<path d="M0 0 C2.8100346 1.79363911 4.50940468 3.01880935 6 6 C6.42071592 9.05920574 6.48514117 11.9467746 6 15 C3.81840855 17.75569447 2.12822506 19.43588747 -1 21 C-5.25512922 21.04107268 -8.89960772 20.71525498 -12.5 18.375 C-14.54204843 15.14175665 -14.93414637 12.81951043 -15 9 C-12.26148975 1.50512983 -8.07460241 -1.4899564 0 0 Z " fill="#000000" transform="translate(350,341)"/>
</svg>
