<?xml version="1.0" encoding="UTF-8"?>
<svg version="1.1" xmlns="http://www.w3.org/2000/svg" width="512" height="512">
<path d="M0 0 C1.10794922 0.49306641 1.10794922 0.49306641 2.23828125 0.99609375 C12.26266586 5.99962942 20.26646231 13.82096977 25 24 C25 24.66 25 25.32 25 26 C25.79148437 25.67773438 26.58296875 25.35546875 27.3984375 25.0234375 C40.13851766 21.40315442 54.27973286 23.49651957 65.8515625 29.47265625 C77.75142181 36.40604535 85.90954083 46.63073028 89.54450989 60.00315857 C91.25587471 67.61637429 91.29191521 75.10783793 91.265625 82.87890625 C91.26697596 84.30036993 91.26892006 85.72183317 91.27142334 87.14329529 C91.27435341 90.10591073 91.27014515 93.06840466 91.26074219 96.03100586 C91.24933836 99.80546757 91.25592641 103.57964504 91.26788712 107.35409641 C91.27515437 110.28397214 91.27279577 113.21378175 91.26763153 116.14365959 C91.266309 117.53455579 91.26789308 118.92545823 91.27259064 120.31634712 C91.2924821 127.85740683 91.00298704 134.71157371 89 142 C89.94101562 141.95359375 90.88203125 141.9071875 91.8515625 141.859375 C102.02827225 141.56439791 102.02827225 141.56439791 106.625 143.625 C111.79321992 148.79321992 113.45287572 152.57358419 113.58000183 159.76441956 C113.57713921 161.25968422 113.57713921 161.25968422 113.57421875 162.78515625 C113.59546562 164.36241737 113.59546562 164.36241737 113.61714172 165.97154236 C113.65894766 169.33529718 113.67421892 172.69852285 113.6875 176.0625 C113.72652669 180.44929321 113.77520395 184.83596449 113.82421875 189.22265625 C113.83518082 190.30216049 113.84614288 191.38166473 113.85743713 192.49388123 C114.0286938 207.33778233 114.51501388 222.1099072 116.6875 236.8125 C116.82349609 237.85212891 116.95949219 238.89175781 117.09960938 239.96289062 C120.65645272 264.7436963 128.94083965 288.90712954 136.01287842 312.85308838 C137.59744875 318.22219467 139.17535402 323.59326258 140.75419426 328.96405602 C142.03793257 333.33046852 143.32285145 337.69652411 144.61087036 342.06167603 C147.0001562 350.1634932 149.3728875 358.26929571 151.69677734 366.39013672 C152.11527889 367.84863101 152.53379156 369.3071221 152.95231628 370.76560974 C153.72227207 373.44990765 154.48540727 376.13601573 155.24458313 378.82337952 C155.58112411 379.99791183 155.9176651 381.17244415 156.2644043 382.38256836 C156.5534111 383.40184921 156.84241791 384.42113007 157.1401825 385.47129822 C157.94652808 388.19855067 157.94652808 388.19855067 160 391 C160.46921285 395.27653994 160.3703519 399.57551127 160.375 403.875 C160.39949219 405.05964844 160.42398437 406.24429687 160.44921875 407.46484375 C160.45308594 408.60824219 160.45695312 409.75164062 160.4609375 410.9296875 C160.46915527 411.97366699 160.47737305 413.01764648 160.48583984 414.09326172 C159.87215556 417.76488236 158.59859012 419.37284767 156 422 C152.24203896 424.59534821 148.21699616 424.28045192 143.82520485 424.25726891 C142.57242581 424.26252802 142.57242581 424.26252802 141.29433811 424.26789337 C138.47721674 424.27724621 135.66030035 424.27227408 132.84317017 424.26742554 C130.8104658 424.27115984 128.77776287 424.27576047 126.74506223 424.28115618 C121.14469106 424.29342874 115.54437943 424.29312072 109.94399786 424.29076743 C103.90980444 424.29036034 97.87563039 424.30138806 91.84144592 424.31088257 C80.0141196 424.32751661 68.18681256 424.33301907 56.35947753 424.33410732 C46.74911309 424.33502582 37.13875513 424.33913942 27.52839279 424.34550858 C24.76373558 424.34730362 21.99907836 424.34908324 19.23442113 424.35085833 C18.54715272 424.35130043 17.85988431 424.35174252 17.15178959 424.35219802 C-2.18390854 424.3645091 -21.51960441 424.37239887 -40.85530663 424.37151146 C-41.58454136 424.3714803 -42.31377609 424.37144914 -43.06510885 424.37141704 C-46.76131656 424.37125082 -50.45752427 424.37105274 -54.15373199 424.37084763 C-54.8878347 424.37080774 -55.62193741 424.37076785 -56.37828566 424.37072675 C-57.86282051 424.37064587 -59.34735536 424.37056228 -60.83189021 424.37047596 C-83.93287385 424.36925024 -107.03379879 424.38426646 -130.13476562 424.41162109 C-156.07815132 424.44232875 -182.02149845 424.4595544 -207.96490347 424.45769465 C-210.7301894 424.45754538 -213.49547533 424.45744797 -216.26076126 424.45738602 C-216.94166391 424.45736271 -217.62256656 424.4573394 -218.32410262 424.45731538 C-229.29103143 424.45725379 -240.25790938 424.47003626 -251.22482306 424.48725055 C-262.24281584 424.50418757 -273.26074895 424.50585225 -284.2787516 424.4930319 C-290.25007578 424.4864821 -296.22121521 424.48645751 -302.19252205 424.5037384 C-307.6552385 424.51938526 -313.1176224 424.51669169 -318.58033033 424.49917014 C-320.56011744 424.49608168 -322.53992887 424.49980144 -324.51968734 424.51089029 C-327.20470558 424.52493735 -329.88854533 424.51448373 -332.57352257 424.49777794 C-333.3475594 424.5077143 -334.12159623 424.51765066 -334.91908872 424.52788812 C-340.08299772 424.45965946 -343.01592688 423.25256167 -347 420 C-350.25638341 415.40489423 -349.36858184 409.52266964 -349.375 404.125 C-349.39949219 403.04863281 -349.42398437 401.97226562 -349.44921875 400.86328125 C-349.4715969 394.81372181 -349.42067322 390.56753944 -345 386 C-339.71294172 382.59342578 -335.21462131 382.58769015 -329.13916016 382.65942383 C-328.16292694 382.65898575 -327.18669373 382.65854767 -326.18087769 382.65809631 C-322.96673307 382.66017977 -319.75311556 382.68349035 -316.5390625 382.70703125 C-314.3056161 382.71262877 -312.07216601 382.71689813 -309.8387146 382.71989441 C-303.96964287 382.73133085 -298.10079501 382.76078795 -292.23181152 382.79400635 C-286.23920724 382.82473297 -280.24656666 382.8384053 -274.25390625 382.85351562 C-262.50250598 382.88565859 -250.75127163 382.93684063 -239 383 C-238.76205215 382.01979385 -238.52410431 381.03958771 -238.27894592 380.02967834 C-235.96592088 370.58863545 -233.39890139 361.2497559 -230.62109375 351.93359375 C-230.20775807 350.53786653 -229.79477308 349.14203541 -229.3821106 347.74610901 C-228.51550844 344.81603226 -227.64720664 341.88646728 -226.77761841 338.95727539 C-225.41948199 334.38010817 -224.06896559 329.80071554 -222.72045898 325.22070312 C-222.49663953 324.46053705 -222.27282007 323.70037098 -222.04221821 322.91716957 C-221.59257975 321.38979682 -221.14298727 319.86241053 -220.69344139 318.33501053 C-219.80886315 315.32955224 -218.92396795 312.32418733 -218.03900623 309.31884193 C-217.61516657 307.87947094 -217.19136756 306.44008798 -216.7676115 305.00069237 C-215.53787587 300.82413976 -214.30534016 296.64842459 -213.07128906 292.47314453 C-205.2404362 265.93428462 -198.6751375 239.73022965 -197.45703125 211.9375 C-197.39380424 210.52682251 -197.39380424 210.52682251 -197.32929993 209.08764648 C-197.03043865 201.91291203 -196.89685722 194.74273219 -196.82421875 187.5625 C-196.81222443 186.52947754 -196.8002301 185.49645508 -196.78787231 184.43212891 C-196.73944837 180.20538068 -196.69154711 175.97895992 -196.67407227 171.75195312 C-196.65864138 168.60500284 -196.61857941 165.45915785 -196.57421875 162.3125 C-196.57612717 161.3625415 -196.57803558 160.41258301 -196.58000183 159.43383789 C-196.47530453 153.78638533 -195.78990833 150.46846992 -192 146 C-186.70158481 141.09896595 -180.88502946 141.22281649 -174 141 C-174.16371094 140.28457031 -174.32742187 139.56914062 -174.49609375 138.83203125 C-174.99257742 136.04171606 -175.10021933 133.5164497 -175.0625 130.6875 C-175.05347656 129.80449219 -175.04445312 128.92148438 -175.03515625 128.01171875 C-175.02355469 127.34785156 -175.01195312 126.68398437 -175 126 C-175.99 126.33 -176.98 126.66 -178 127 C-180.74134352 127.12343222 -183.44619362 127.1851429 -186.1875 127.1875 C-186.91775391 127.19974609 -187.64800781 127.21199219 -188.40039062 127.22460938 C-193.58254359 127.23837949 -198.01738301 126.42763545 -203 125 C-203.14244141 125.61713867 -203.28488281 126.23427734 -203.43164062 126.87011719 C-205.8386624 135.89024519 -214.25462267 143.18028303 -221.96484375 147.76171875 C-234.89022238 154.49334721 -248.68218769 156.38842625 -262.875 152.4375 C-269.92812238 149.95076551 -276.98215261 146.33400283 -282.05078125 140.734375 C-283.80756003 138.77394238 -283.80756003 138.77394238 -285.9453125 139.046875 C-286.66460937 139.27890625 -287.38390625 139.5109375 -288.125 139.75 C-301.25812914 142.97023551 -316.02345439 142.20343715 -327.84375 135.3515625 C-332.33791798 132.32460818 -336.37267867 129.04187234 -340 125 C-340.825 124.113125 -341.65 123.22625 -342.5 122.3125 C-350.00923174 113.18735764 -351.24629556 103.96454321 -351.375 92.5625 C-351.41238281 91.34111328 -351.44976562 90.11972656 -351.48828125 88.86132812 C-351.60956891 76.20024429 -347.72794647 66.98438716 -339.453125 57.4765625 C-330.42792173 48.36513118 -319.06857414 42.90603934 -306.23632812 42.81445312 C-305.39521484 42.81380859 -304.55410156 42.81316406 -303.6875 42.8125 C-302.44323242 42.79413086 -302.44323242 42.79413086 -301.17382812 42.77539062 C-296.05320079 42.76326601 -291.84992526 43.3440876 -287 45 C-286.72414063 44.40703125 -286.44828125 43.8140625 -286.1640625 43.203125 C-281.26525185 33.93155048 -271.14217703 30.01746258 -262 26 C-259.00658255 25.08081532 -256.3173623 24.87145086 -253.19140625 24.8671875 C-252.27939453 24.86589844 -251.36738281 24.86460938 -250.42773438 24.86328125 C-249.48220703 24.86714844 -248.53667969 24.87101562 -247.5625 24.875 C-246.62083984 24.87113281 -245.67917969 24.86726563 -244.70898438 24.86328125 C-243.3390332 24.86521484 -243.3390332 24.86521484 -241.94140625 24.8671875 C-241.11326416 24.86831543 -240.28512207 24.86944336 -239.43188477 24.87060547 C-236.87366544 25.00672195 -234.49684349 25.43970554 -232 26 C-231.5875 25.29875 -231.175 24.5975 -230.75 23.875 C-222.6024148 10.48968145 -212.46202071 1.81122411 -197 -2 C-193.5502203 -2.41667266 -190.15968654 -2.47792238 -186.6875 -2.4375 C-185.76541748 -2.42920166 -184.84333496 -2.42090332 -183.89331055 -2.41235352 C-169.52025202 -2.05716669 -158.52897899 3.69921544 -148.60546875 14.0234375 C-145.60237839 17.72067284 -143.28815902 21.83437717 -141 26 C-140.27329102 25.83918945 -139.54658203 25.67837891 -138.79785156 25.51269531 C-134.45316935 24.71654936 -130.15671357 24.7747221 -125.75 24.75 C-124.84636719 24.729375 -123.94273437 24.70875 -123.01171875 24.6875 C-117.48657203 24.65570059 -113.03443836 25.33209178 -107.88378906 27.36474609 C-104.34669228 28.55753067 -101.47006553 27.56600445 -98.09643555 26.26708984 C-92.20719216 24.05602883 -87.06624153 23.59850891 -80.8125 23.75 C-79.94947266 23.75515625 -79.08644531 23.7603125 -78.19726562 23.765625 C-73.69867897 23.82069569 -69.42509416 24.10194488 -65 25 C-64.67128906 24.38253906 -64.34257812 23.76507813 -64.00390625 23.12890625 C-57.03467221 10.72027004 -47.32698529 1.99785418 -33.6796875 -2.2734375 C-22.98052707 -4.38601058 -10.04153894 -4.6533961 0 0 Z M-43.625 22.0625 C-47.34957114 25.95910676 -49.69800404 30.55118998 -52.12890625 35.328125 C-54.40691743 38.5810679 -56.31626089 39.59914146 -60 41 C-64.73497226 41.7807667 -69.30372265 40.99955886 -73.9375 39.9375 C-79.13594729 38.77050163 -83.77335854 39.17708198 -89 40 C-88.54109375 40.66644531 -88.0821875 41.33289063 -87.609375 42.01953125 C-80.66614459 52.44896349 -76.87913144 62.21918879 -76.87060547 74.828125 C-76.86885315 75.4826062 -76.86710083 76.1370874 -76.86529541 76.81140137 C-76.86092293 78.95762853 -76.86379857 81.10377212 -76.8671875 83.25 C-76.86651314 84.75162776 -76.86554201 86.25325542 -76.86428833 87.75488281 C-76.86281759 90.89519291 -76.86494583 94.03547448 -76.86962891 97.17578125 C-76.87532581 101.19047314 -76.87204347 105.20509816 -76.86605644 109.2197876 C-76.86243398 112.31852721 -76.86359716 115.41725111 -76.86618423 118.51599121 C-76.86684884 119.99589038 -76.86604146 121.475791 -76.86370468 122.95568848 C-76.86115043 125.02778882 -76.86505761 127.09978255 -76.87060547 129.171875 C-76.87140106 130.3484668 -76.87219666 131.52505859 -76.87301636 132.73730469 C-76.99641113 135.90778823 -77.40484292 138.88667751 -78 142 C-76.98679687 142.02578125 -75.97359375 142.0515625 -74.9296875 142.078125 C-73.57808403 142.13444181 -72.22652319 142.19178833 -70.875 142.25 C-70.20984375 142.26417969 -69.5446875 142.27835938 -68.859375 142.29296875 C-63.78974825 142.54147987 -60.78748261 143.63096447 -57 147 C-52.34174414 154.14648376 -52.44259617 160.532326 -52.49609375 168.90234375 C-52.48869958 170.26592808 -52.47913693 171.62950215 -52.46754456 172.99305725 C-52.43554982 177.30793415 -52.43580667 181.62252776 -52.4375 185.9375 C-52.42530055 209.74742792 -51.99968288 233.32348939 -46.4375 256.625 C-46.22931641 257.55054688 -46.02113281 258.47609375 -45.80664062 259.4296875 C-44.68871041 264.33596433 -43.43373392 269.17683982 -42 274 C-39.68390411 269.66701385 -38.68405766 265.25714451 -37.5625 260.5 C-37.34368164 259.57598389 -37.12486328 258.65196777 -36.89941406 257.69995117 C-34.71829597 248.21273182 -33.19605399 238.65714505 -32 229 C-31.86744308 227.95052689 -31.86744308 227.95052689 -31.73220825 226.87985229 C-30.95347654 220.02047489 -30.83698476 213.20319856 -30.80076981 206.3041172 C-30.78878899 204.22199807 -30.769298 202.14006916 -30.74765015 200.05802917 C-30.68662656 194.14625399 -30.63193035 188.2345122 -30.59863281 182.32250977 C-30.57761813 178.68627909 -30.54228385 175.05042083 -30.49787521 171.41440392 C-30.48379458 170.0386462 -30.47501086 168.66282291 -30.47182083 167.28699684 C-30.43720494 153.80330723 -30.43720494 153.80330723 -27 148 C-20.47088533 141.94862543 -14.71844816 142.55481034 -6 142 C-6.99 133.585 -6.99 133.585 -8 125 C-9.43472656 125.01160156 -10.86945313 125.02320313 -12.34765625 125.03515625 C-14.25260286 125.04454022 -16.15755088 125.05363977 -18.0625 125.0625 C-19.00544922 125.07087891 -19.94839844 125.07925781 -20.91992188 125.08789062 C-26.0630768 125.10581103 -30.93258427 124.89259611 -36 124 C-36.45375 124.969375 -36.9075 125.93875 -37.375 126.9375 C-39 130 -39 130 -41 131 C-47.31147541 131.45901639 -47.31147541 131.45901639 -49.875 129.75 C-51.17000269 127.73555136 -51.65058168 126.37436061 -52 124 C-50.60628739 118.66456032 -48.53080524 113.36156518 -44 110 C-40.91493912 108.97164637 -38.7305728 108.86631566 -35.5 108.875 C-34.5409375 108.87242187 -33.581875 108.86984375 -32.59375 108.8671875 C-30 109 -30 109 -27 110 C-25.15004316 110.03644797 -23.29865201 110.01417455 -21.44921875 109.95703125 C-20.35802734 109.93576172 -19.26683594 109.91449219 -18.14257812 109.89257812 C-15.85060238 109.83945715 -13.55886903 109.77447074 -11.26757812 109.69726562 C-6.38863495 109.61973092 -2.882439 109.59941285 1.60546875 111.63671875 C6.48139317 116.44900957 7.33518716 120.72824382 7.5 127.4375 C7.65051211 133.5520544 8.42916298 136.00138029 11 142 C31.13 142 51.26 142 72 142 C74.7012728 133.46566428 74.7012728 133.46566428 75.38818359 125.24023438 C75.40236832 123.39782166 75.40236832 123.39782166 75.4168396 121.51818848 C75.41076691 120.22312378 75.40469421 118.92805908 75.3984375 117.59375 C75.40046442 116.21952155 75.40338097 114.84529415 75.40713501 113.47106934 C75.41152938 110.60674688 75.40522166 107.74270725 75.39111328 104.87841797 C75.37402273 101.23396023 75.38387961 97.59016562 75.40183067 93.94573212 C75.41274741 91.11272315 75.40918638 88.2798676 75.4014473 85.44685364 C75.39851457 83.45850181 75.4075161 81.47014366 75.4168396 79.48181152 C75.32154321 67.10403894 72.84017495 57.52754547 64.40625 48.24609375 C57.52619238 41.7716999 48.37439898 38.80438654 39 39 C36.72555593 39.3940289 34.52813819 39.93027869 32.29296875 40.50390625 C26.80452397 41.69135512 21.96395987 42.04594031 16.94140625 39.37109375 C13.66340649 36.72866897 12.1389397 34.36531692 10.125 30.6875 C4.7177818 21.37622349 -1.53643904 15.92154054 -12 13 C-23.97630679 10.49803729 -34.6144704 13.81625639 -43.625 22.0625 Z M-210.26953125 23.11328125 C-214.09840468 27.22630113 -216.83184598 31.2325706 -219.13671875 36.33984375 C-220.92754697 39.78374418 -223.46207153 40.82069051 -227 42 C-231.62368618 42.39923395 -235.89230876 42.13073436 -240.375 40.9375 C-249.54925941 38.75920964 -257.09581485 40.84454048 -265.26953125 45.25390625 C-269.11184831 47.71101029 -272.01899608 50.58061315 -275 54 C-280.69549355 59.92392244 -280.69549355 59.92392244 -284.27734375 60.1328125 C-285.15519531 60.13023438 -286.03304687 60.12765625 -286.9375 60.125 C-287.81277344 60.12757812 -288.68804687 60.13015625 -289.58984375 60.1328125 C-292 60 -292 60 -295 59 C-303.965313 58.38552349 -312.19067373 57.97636527 -320 63 C-321.04220703 63.63615234 -321.04220703 63.63615234 -322.10546875 64.28515625 C-329.80868478 69.47362633 -334.59001601 76.93639086 -336.40234375 86.015625 C-338.05136286 96.61381526 -334.77026676 105.45549006 -328.875 114.125 C-323.39473688 120.33483375 -314.75361136 124.63267549 -306.5625 125.265625 C-304.7990625 125.25789063 -304.7990625 125.25789063 -303 125.25 C-301.824375 125.25515625 -300.64875 125.2603125 -299.4375 125.265625 C-295.95948173 124.99686904 -293.28045659 124.13164744 -290 123 C-285.30845341 122.49896104 -280.73774328 122.31298521 -276.3125 124.0625 C-274.92571641 125.22439977 -273.55307419 126.4039897 -272.2109375 127.6171875 C-263.34653111 135.5917307 -255.8807908 138.52283445 -243.86328125 138.26953125 C-235.3216032 137.67360022 -229.28250004 134.21838032 -223.09375 128.421875 C-219.98891037 124.83045602 -217.89091317 120.79351534 -215.59765625 116.65625 C-213.46964839 113.11824182 -211.87814506 111.49159425 -208 110 C-203.7361112 109.59598721 -199.33484449 109.33683409 -195.17773438 110.51757812 C-192.56481319 111.09640461 -190.24488676 111.04378528 -187.5703125 110.95703125 C-186.52746094 110.93576172 -185.48460937 110.91449219 -184.41015625 110.89257812 C-182.22754201 110.83937528 -180.04518257 110.77435076 -177.86328125 110.69726562 C-171.7567712 110.59561595 -167.66546965 110.58205526 -163 115 C-159.79708026 118.98494898 -159.59563751 122.34520705 -159.4375 127.375 C-159.25253817 132.87901565 -158.56481539 136.52314612 -157 142 C-136.21 142 -115.42 142 -94 142 C-92.47284195 136.65494682 -91.74691552 133.58145595 -91.7253418 128.30541992 C-91.71580978 127.01685593 -91.70627777 125.72829193 -91.69645691 124.40068054 C-91.69671843 123.01060966 -91.69765592 121.62053877 -91.69921875 120.23046875 C-91.69532466 118.78469217 -91.69098854 117.33891671 -91.68623352 115.8931427 C-91.67879567 112.86972336 -91.67904425 109.84642083 -91.68432617 106.82299805 C-91.69010932 102.97335212 -91.6732063 99.12418913 -91.6499815 95.27462292 C-91.63515339 92.28979253 -91.63438484 89.30507593 -91.63749123 86.32021523 C-91.63698229 84.90222533 -91.63182599 83.48422833 -91.62167931 82.06627464 C-91.53755182 68.66409484 -93.17255157 59.10901132 -102.62890625 49.3125 C-109.87170205 42.59064775 -118.1590327 39.81459047 -128 40 C-130.31639219 40.38353379 -132.53792839 40.91475858 -134.80859375 41.5078125 C-141.24914774 42.95435404 -146.34412808 42.55533156 -152 39 C-154.08984375 36.109375 -154.08984375 36.109375 -155.9375 32.75 C-161.54020279 23.10956542 -167.20203937 17.50715433 -178 14 C-190.3714618 11.39279111 -200.99781312 14.47989139 -210.26953125 23.11328125 Z M-181 158 C-181.10794197 159.89748043 -181.14628534 161.79894906 -181.15771484 163.69946289 C-181.16797699 164.92327164 -181.17823914 166.14708038 -181.18881226 167.40797424 C-181.19225018 168.06860933 -181.1956881 168.72924442 -181.19923019 169.40989876 C-181.21106982 171.49597097 -181.23055357 173.58184079 -181.25234985 175.66783142 C-181.31366455 181.60294404 -181.36719725 187.53805334 -181.40136719 193.47338867 C-181.64392131 233.18394851 -189.29478744 269.30887139 -200.56390381 307.24859619 C-201.69875459 311.07595389 -202.8235493 314.90626219 -203.94921875 318.73632812 C-207.34069528 330.26546583 -210.74546725 341.79064138 -214.17522049 353.30845356 C-215.1179324 356.47671991 -216.05751988 359.64590788 -216.9965744 362.81525993 C-217.44344072 364.32041911 -217.89180798 365.82513356 -218.34174347 367.32937813 C-218.96163747 369.40202925 -219.57657636 371.47609033 -220.19042969 373.55053711 C-220.54095398 374.72732529 -220.89147827 375.90411346 -221.25262451 377.11656189 C-222.12545237 379.98755221 -222.12545237 379.98755221 -222 383 C-221.12263184 383.01401855 -221.12263184 383.01401855 -220.22753906 383.02832031 C-217.5675142 383.08213279 -214.90922778 383.16575449 -212.25 383.25 C-211.32960938 383.26417969 -210.40921875 383.27835938 -209.4609375 383.29296875 C-202.64568932 383.53989803 -202.64568932 383.53989803 -199.390625 385.859375 C-197.47199001 388.81277942 -197.42432588 390.54595531 -198 394 C-200.04847989 396.61164001 -201.24597185 397.84913635 -204.53806686 398.50780869 C-205.50041874 398.51149586 -206.46277061 398.51518303 -207.45428467 398.51898193 C-208.56203751 398.53289474 -209.66979034 398.54680756 -210.81111145 398.56114197 C-212.02167709 398.5561116 -213.23224274 398.55108124 -214.47949219 398.54589844 C-216.39694496 398.56140495 -216.39694496 398.56140495 -218.35313416 398.57722473 C-221.85493781 398.60509476 -225.35638839 398.60848922 -228.85828686 398.60750484 C-232.51923221 398.61063313 -236.18001834 398.63624952 -239.84088135 398.65948486 C-246.77165082 398.70005502 -253.70232618 398.72038789 -260.63319612 398.73345876 C-268.52439608 398.74932542 -276.41543582 398.78773957 -284.30654287 398.82805204 C-300.53765329 398.91046485 -316.76872011 398.96374845 -333 399 C-333 402.3 -333 405.6 -333 409 C-175.26 409 -17.52 409 145 409 C145 405.7 145 402.4 145 399 C144.31979693 398.99902319 143.63959386 398.99804638 142.93877858 398.99703997 C102.65597992 398.9388126 62.37323665 398.8650498 22.09050496 398.77101372 C17.25752114 398.75974508 12.42453704 398.7486067 7.59155273 398.73754883 C6.1482662 398.7342433 6.1482662 398.7342433 4.67582235 398.730871 C-10.91940433 398.69546453 -26.51463097 398.67061933 -42.10988299 398.64965298 C-58.10299524 398.62791757 -74.09605518 398.59488876 -90.08912295 398.55129844 C-99.96375325 398.52474268 -109.8383183 398.50707625 -119.71298256 398.50065396 C-126.47741999 398.49541204 -133.24177521 398.47923557 -140.00616864 398.45433434 C-143.91331953 398.4402781 -147.82032314 398.4311638 -151.72750092 398.43499184 C-155.95678204 398.43900998 -160.18564221 398.42006454 -164.41487122 398.39872742 C-165.65901804 398.40357499 -166.90316487 398.40842257 -168.18501312 398.41341704 C-169.31263964 398.4039605 -170.44026616 398.39450396 -171.60206318 398.38476086 C-173.06759379 398.38191295 -173.06759379 398.38191295 -174.56273109 398.37900752 C-177.40912702 397.9363787 -178.29929996 397.28295481 -180 395 C-180.43359375 393.0625 -180.43359375 393.0625 -180.4375 391 C-180.45683594 390.319375 -180.47617188 389.63875 -180.49609375 388.9375 C-179.77187699 386.10906288 -178.47998554 385.47984165 -176 384 C-173.18082047 383.61523914 -173.18082047 383.61523914 -169.86236572 383.60127258 C-168.60315811 383.58873444 -167.3439505 383.57619629 -166.04658508 383.5632782 C-164.65377782 383.56445223 -163.26097077 383.56591137 -161.86816406 383.56762695 C-160.39960403 383.55860961 -158.93105154 383.54828246 -157.46250916 383.53674316 C-153.4773161 383.5091435 -149.49226574 383.49988466 -145.50698948 383.49388909 C-141.34157712 383.48451311 -137.17627168 383.45831037 -133.01092529 383.43388367 C-125.12394376 383.39019356 -117.23698295 383.36166205 -109.34991717 383.33856028 C-100.37049007 383.31152205 -91.39117038 383.26760971 -82.41181993 383.22227156 C-63.94126997 383.12938934 -45.47069161 383.057725 -27 383 C-27.59686643 378.62369025 -28.31431137 374.53097063 -29.62890625 370.3125 C-29.94150391 369.28382813 -30.25410156 368.25515625 -30.57617188 367.1953125 C-31.2340647 365.0640003 -31.89552858 362.93378716 -32.56054688 360.8046875 C-34.20190178 355.38108 -35.59525388 350.67780624 -35 345 C-33.5625 342.5 -33.5625 342.5 -31 341 C-27.86371217 340.97840766 -25.11480065 341.4503293 -22 342 C-21.01 345.63 -20.02 349.26 -19 353 C-16.03 362.9 -13.06 372.8 -10 383 C39.17 383 88.34 383 139 383 C137.39859286 374.8601277 137.39859286 374.8601277 135.31103516 366.93164062 C134.82817299 365.30196854 134.82817299 365.30196854 134.33555603 363.63937378 C133.99021317 362.48994293 133.6448703 361.34051208 133.2890625 360.15625 C132.73055012 358.27650704 132.17204183 356.39676286 131.61371136 354.51696587 C131.0242493 352.53503431 130.43272454 350.55372866 129.84066772 348.5725708 C127.99251488 342.38593369 126.16153585 336.19420336 124.32871819 330.0030098 C123.71501127 327.93025329 123.1008991 325.85761721 122.48670959 323.78500366 C109.31074471 279.31216779 98.6573356 237.93522509 98.38873291 191.27880859 C98.35211889 185.3697932 98.29198404 179.46098018 98.23024368 173.55218315 C98.21122955 171.50411419 98.19947063 169.45610168 98.18881226 167.40797424 C98.17341904 165.57226112 98.17341904 165.57226112 98.15771484 163.69946289 C98.14797134 162.07930016 98.14797134 162.07930016 98.13803101 160.42640686 C98.27303036 158.05109531 98.27303036 158.05109531 97 157 C95.56018786 156.9022606 94.11561097 156.87368287 92.67248535 156.87301636 C91.73858475 156.87019653 90.80468414 156.86737671 89.84248352 156.86447144 C88.80971786 156.86649567 87.77695221 156.8685199 86.71289062 156.87060547 C85.63170456 156.86885315 84.55051849 156.86710083 83.43656921 156.86529541 C79.84311341 156.86087442 76.24970635 156.86381576 72.65625 156.8671875 C70.17142731 156.86651453 67.68660469 156.86554457 65.20178223 156.86428833 C59.31686625 156.86262142 53.43196813 156.86613423 47.54705477 156.8714391 C42.84630402 156.87519392 38.14557419 156.87386633 33.44482422 156.86962891 C26.9792571 156.86384963 20.51371029 156.86291547 14.04814148 156.86618423 C11.57606502 156.86685375 9.1039877 156.86602423 6.63191223 156.86370468 C3.18362102 156.86117961 -0.26460435 156.8650167 -3.71289062 156.87060547 C-5.26203911 156.86756912 -5.26203911 156.86756912 -6.84248352 156.86447144 C-8.24333443 156.86870117 -8.24333443 156.86870117 -9.67248535 156.87301636 C-10.89698269 156.8735819 -10.89698269 156.8735819 -12.14621735 156.87415886 C-14.01618788 156.79699037 -14.01618788 156.79699037 -15 158 C-15.10770634 159.76434318 -15.1462677 161.53294652 -15.15771484 163.30053711 C-15.16797699 164.43780746 -15.17823914 165.57507782 -15.18881226 166.74681091 C-15.19611359 167.99438675 -15.20341492 169.24196259 -15.2109375 170.52734375 C-15.23184513 172.50225192 -15.25277123 174.47716005 -15.27463722 176.45205784 C-15.3273569 181.31179769 -15.37120571 186.17156156 -15.40136719 191.03149414 C-15.59314999 220.29326321 -17.98049256 248.93891649 -26.359375 277.11328125 C-26.56565521 277.80870529 -26.77193542 278.50412933 -26.98446655 279.22062683 C-28.00868155 282.65479897 -29.05606924 286.07942992 -30.14111328 289.49487305 C-32.48748171 297.13017057 -33.61290379 302.26523098 -31.4375 310 C-30.56844932 313.97280312 -30.11110855 318.32679257 -32.0625 322 C-35.13215135 323.58433618 -37.61681143 323.36248449 -41 323 C-43.90620468 320.80788629 -44.7275419 318.46273709 -45.76171875 315.0390625 C-46.07197998 314.02521484 -46.38224121 313.01136719 -46.7019043 311.96679688 C-47.02715088 310.86400391 -47.35239746 309.76121094 -47.6875 308.625 C-48.20534058 306.89733398 -48.20534058 306.89733398 -48.73364258 305.13476562 C-49.83649057 301.42715987 -50.92028741 297.7144041 -52 294 C-52.35320312 292.79698242 -52.70640625 291.59396484 -53.0703125 290.35449219 C-56.82808407 277.48412455 -60.29176212 264.59928935 -62.875 251.4375 C-63.06602295 250.47714844 -63.2570459 249.51679688 -63.45385742 248.52734375 C-67.08051962 228.9483021 -67.35710038 209.25294606 -67.54260254 189.40771484 C-67.5891829 184.50277435 -67.64354529 179.5979331 -67.70530701 174.69316101 C-67.73722527 172.09573613 -67.76412735 169.49824381 -67.78553772 166.90071106 C-67.79902756 165.74407455 -67.8125174 164.58743805 -67.82641602 163.39575195 C-67.83592789 162.37463821 -67.84543976 161.35352448 -67.85523987 160.3014679 C-67.74302961 158.03652921 -67.74302961 158.03652921 -69 157 C-70.43981214 156.9022606 -71.88438903 156.87368287 -73.32751465 156.87301636 C-74.26141525 156.87019653 -75.19531586 156.86737671 -76.15751648 156.86447144 C-77.19028214 156.86649567 -78.22304779 156.8685199 -79.28710938 156.87060547 C-80.36829544 156.86885315 -81.44948151 156.86710083 -82.56343079 156.86529541 C-86.15688659 156.86087442 -89.75029365 156.86381576 -93.34375 156.8671875 C-95.82857269 156.86651453 -98.31339531 156.86554457 -100.79821777 156.86428833 C-106.68313375 156.86262142 -112.56803187 156.86613423 -118.45294523 156.8714391 C-123.15369598 156.87519392 -127.85442581 156.87386633 -132.55517578 156.86962891 C-139.0207429 156.86384963 -145.48628971 156.86291547 -151.95185852 156.86618423 C-154.42393498 156.86685375 -156.8960123 156.86602423 -159.36808777 156.86370468 C-162.81637898 156.86117961 -166.26460435 156.8650167 -169.71289062 156.87060547 C-171.26203911 156.86756912 -171.26203911 156.86756912 -172.84248352 156.86447144 C-174.24333443 156.86870117 -174.24333443 156.86870117 -175.67248535 156.87301636 C-176.89698269 156.8735819 -176.89698269 156.8735819 -178.14621735 156.87415886 C-180.01618788 156.79699037 -180.01618788 156.79699037 -181 158 Z " fill="#000000" transform="translate(351,46)"/>
</svg>
