<?xml version="1.0" encoding="UTF-8"?>
<svg version="1.1" xmlns="http://www.w3.org/2000/svg" width="512" height="512">
<path d="M0 0 C0.93569824 -0.0049649 1.87139648 -0.00992981 2.83544922 -0.01504517 C5.9274164 -0.0296335 9.01933219 -0.03646508 12.11132812 -0.04199219 C14.27022299 -0.04774863 16.42911784 -0.05350629 18.5880127 -0.05926514 C23.11727129 -0.06976723 27.64651219 -0.07561434 32.17578125 -0.07910156 C37.95098853 -0.08456897 43.725958 -0.10856288 49.501091 -0.13707352 C53.96407733 -0.15579684 58.42700764 -0.16091075 62.89002991 -0.16243744 C65.01727084 -0.16544525 67.14451123 -0.17340971 69.27171326 -0.18662262 C88.95447382 -0.3001023 105.2618525 1.27335253 120.28320312 15.48144531 C132.11623442 28.92094775 134.11696537 43.61915922 133.83007812 60.84863281 C133.81499564 62.43651067 133.80131357 64.02440246 133.7890625 65.61230469 C133.75635811 69.46226502 133.70477636 73.31154066 133.64257812 77.16113281 C134.85843094 77.15447098 136.07428375 77.14780914 137.32698059 77.14094543 C148.81683483 77.07998135 160.30665601 77.03508685 171.79663563 77.0056963 C177.70295292 76.9900781 183.60913904 76.96891019 189.51538086 76.93481445 C195.22123685 76.90208375 200.92696711 76.88425091 206.63290977 76.87650108 C208.80367701 76.87098214 210.97443781 76.86020527 213.14515114 76.84394264 C231.96056109 76.70865882 247.07486624 78.26490365 261.31835938 91.77050781 C270.05816806 100.76002531 276.71486696 111.47258005 276.80273438 124.39892578 C276.77713952 125.90052533 276.74430449 127.40201501 276.70507812 128.90332031 C276.69614383 130.56346529 276.68971095 132.22362527 276.68554688 133.88378906 C276.67132923 136.46110546 276.64262524 139.03444263 276.57080078 141.61083984 C276.08444193 151.95723359 276.08444193 151.95723359 279.73779297 161.3137207 C282.25887942 163.78327477 284.8874294 165.96018675 287.64257812 168.16113281 C289.72886432 170.5925723 291.50610344 173.17540524 293.26757812 175.84863281 C293.72285889 176.52941895 294.17813965 177.21020508 294.6472168 177.91162109 C302.81816434 190.33237992 308.62314836 202.83070845 312.64257812 217.16113281 C313.15498047 218.94777344 313.15498047 218.94777344 313.67773438 220.77050781 C321.37272276 253.55473741 314.13981659 288.82366718 296.64257812 317.16113281 C293.57489593 321.71188231 290.16751302 325.95564118 286.64257812 330.16113281 C285.94390625 331.0003125 285.24523437 331.83949219 284.52539062 332.70410156 C280.03918306 337.96283034 280.03918306 337.96283034 277.64257812 339.16113281 C277.63323242 340.03213623 277.62388672 340.90313965 277.61425781 341.80053711 C277.56968657 345.09815382 277.50783499 348.39457945 277.43505859 351.69165039 C277.40719895 353.10624784 277.38581443 354.52099084 277.37158203 355.93579102 C277.19187192 372.81057031 273.10259972 386.42568481 261.39257812 398.97363281 C251.88614416 408.02660826 239.14955989 413.24878846 226.05062866 413.30830383 C224.96273544 413.31545914 223.87484222 413.32261444 222.75398254 413.32998657 C220.98639839 413.33401993 220.98639839 413.33401993 219.18310547 413.33813477 C217.93044388 413.34470596 216.67778229 413.35127716 215.38716125 413.35804749 C211.25094356 413.37772576 207.11476445 413.38943199 202.97851562 413.39941406 C201.55154018 413.40346435 200.12456493 413.40758135 198.69758987 413.41176414 C191.99884504 413.43078271 185.30011107 413.44502663 178.60134447 413.45337611 C170.87390678 413.46316837 163.14675401 413.48955319 155.41941679 413.52987701 C149.43966248 413.56001038 143.45999008 413.5748419 137.48016131 413.57815713 C133.9107721 413.58050868 130.3416885 413.58948394 126.77238083 413.6146183 C122.79591398 413.64217296 118.81982546 413.63807643 114.84326172 413.63110352 C113.06960487 413.6503186 113.06960487 413.6503186 111.26011658 413.66992188 C110.17786301 413.66297806 109.09560944 413.65603424 107.9805603 413.64888 C107.04075003 413.65126836 106.10093975 413.65365671 105.13265038 413.65611744 C101.86962206 413.0074821 100.69223996 411.72998205 98.64257812 409.16113281 C97.72723894 406.02282705 97.37088561 404.05030833 98.33007812 400.91113281 C99.94154796 398.76250637 101.15651539 398.16491582 103.64257812 397.16113281 C106.08744907 396.91059303 106.08744907 396.91059303 108.87098694 396.90957642 C109.9291864 396.90419357 110.98738586 396.89881073 112.07765198 396.89326477 C113.23353317 396.89738876 114.38941437 396.90151276 115.58032227 396.90576172 C117.41274979 396.90033104 117.41274979 396.90033104 119.28219604 396.89479065 C121.93794175 396.88789207 124.5934339 396.8845087 127.24916267 396.88673782 C131.457392 396.88957658 135.66545417 396.87519555 139.87364197 396.85775757 C151.8398078 396.81079204 163.80596288 396.78681152 175.7722168 396.78027344 C182.38260132 396.77650926 188.99279707 396.75836789 195.60310072 396.72517908 C199.7766253 396.70507762 203.94965918 396.70253958 208.12321198 396.71345925 C211.34857289 396.71670516 214.57377489 396.69391751 217.79907227 396.67529297 C219.51163963 396.68755165 219.51163963 396.68755165 221.25880432 396.70005798 C232.10282216 396.58917214 241.66024976 393.73995886 249.64257812 386.16113281 C257.77291843 377.40828386 260.13547487 368.67317377 259.78320312 356.87207031 C259.73679687 355.97746094 259.69039063 355.08285156 259.64257812 354.16113281 C259.16127441 354.4326416 258.6799707 354.70415039 258.18408203 354.98388672 C246.68617122 361.40847013 235.39324064 366.76309144 222.64257812 370.16113281 C221.99240723 370.33757324 221.34223633 370.51401367 220.67236328 370.69580078 C187.69157471 379.1741742 153.62813863 371.51385056 124.64257812 355.16113281 C123.31225106 354.48848721 121.97953858 353.82049535 120.64257812 353.16113281 C109.97659898 361.73297618 109.97659898 361.73297618 105.33007812 373.91113281 C105.26770462 375.41786308 105.26770462 375.41786308 105.20407104 376.95503235 C104.54374831 380.7254468 103.53610063 382.0057341 100.90478516 384.73608398 C100.08423645 385.59777191 99.26368774 386.45945984 98.41827393 387.34725952 C97.50229431 388.27583771 96.5863147 389.20441589 95.64257812 390.16113281 C94.66638898 391.16378369 93.69054859 392.16677422 92.71502686 393.17007446 C89.42053747 396.5413373 86.09179027 399.87780826 82.75976562 403.21191406 C81.53379441 404.44110762 80.30789449 405.6703723 79.08206177 406.89970398 C76.53058965 409.45711803 73.97710635 412.01250409 71.42236328 414.56665039 C68.16159631 417.82731526 64.90779621 421.09483933 61.65566826 424.36411762 C59.13340183 426.89753136 56.60657421 429.42635794 54.07846451 431.95393944 C52.87686326 433.15671391 51.67686721 434.3610944 50.47857285 435.56716347 C48.80214853 437.2534566 47.11942031 438.93321225 45.43505859 440.61157227 C44.95072357 441.10152679 44.46638855 441.59148132 43.96737671 442.09628296 C36.32994942 449.6652312 28.46629862 454.14733922 17.58007812 454.53613281 C8.87297266 454.20961636 1.20729057 450.87440699 -5.35742188 445.16113281 C-11.91053114 437.22178889 -14.90074338 428.94874107 -14.18164062 418.64160156 C-12.01140073 404.721376 -1.50194366 395.72444116 8.01757812 386.29003906 C9.43018228 384.87727968 10.84211773 383.46385139 12.25341797 382.04978943 C15.1991047 379.10272484 18.15158521 376.16269926 21.109375 373.2277832 C24.89405473 369.47157736 28.66286554 365.69990667 32.42697144 361.92309666 C35.33474081 359.00836613 38.24984269 356.10106111 41.16729736 353.19602776 C42.55997597 351.80785291 43.9505862 350.41759966 45.33905029 349.02520943 C47.27932526 347.08201573 49.22905441 345.14882993 51.18164062 343.21801758 C51.74908997 342.64606659 52.31653931 342.0741156 52.90118408 341.48483276 C56.60346365 337.85070203 60.50095975 334.23530255 65.95898438 334.10644531 C66.70019531 334.16574219 67.44140625 334.22503906 68.20507812 334.28613281 C75.38237867 333.88069751 79.584565 327.93326741 84.15039062 322.96972656 C84.9728125 322.04289062 85.79523438 321.11605469 86.64257812 320.16113281 C85.38918868 315.97297784 83.8201787 312.63764445 81.45507812 308.97363281 C74.22606939 296.82467241 69.95532318 283.05610512 67.64257812 269.16113281 C67.51238281 268.43023437 67.3821875 267.69933594 67.24804688 266.94628906 C66.33149991 260.97040284 66.64257812 255.31269962 66.64257812 249.16113281 C25.72257812 249.16113281 -15.19742188 249.16113281 -57.35742188 249.16113281 C-57.35742188 258.40113281 -57.35742188 267.64113281 -57.35742188 277.16113281 C-60.27856289 288.84569686 -61.71842952 294.51591004 -71.48242188 300.59863281 C-78.83264094 304.80039356 -86.85826703 305.52230975 -95.11914062 303.47753906 C-103.86856175 300.24842652 -109.07207077 295.50103391 -113.41210938 287.30957031 C-115.42041133 282.7452477 -115.49139967 278.48624351 -115.45507812 273.55175781 C-115.45366318 272.82494812 -115.45224823 272.09813843 -115.45079041 271.3493042 C-115.4452098 269.03653787 -115.43266092 266.72386969 -115.41992188 264.41113281 C-115.41490437 262.83951963 -115.4103419 261.26790493 -115.40625 259.69628906 C-115.39524672 255.85119938 -115.37799549 252.00618272 -115.35742188 248.16113281 C-117.22479004 248.18276489 -117.22479004 248.18276489 -119.12988281 248.20483398 C-139.12009267 248.43640579 -157.54308377 235.97111841 -171.56835938 222.96972656 C-173.66736318 220.85602385 -175.60754039 218.74944594 -177.53173828 216.4855957 C-178.06344635 215.86125137 -178.59515442 215.23690704 -179.14297485 214.59364319 C-179.74412613 213.88455055 -179.74412613 213.88455055 -180.35742188 213.16113281 C-180.40424184 232.12029274 -180.43945957 251.07944085 -180.46104622 270.0386467 C-180.47133781 278.84267871 -180.48535746 287.64667471 -180.50830078 296.45068359 C-180.52829969 304.12853148 -180.54115368 311.80635326 -180.54559886 319.48422647 C-180.54819528 323.5457077 -180.55425338 327.60711428 -180.56888199 331.66857147 C-180.58256889 335.50001796 -180.58662234 339.33135983 -180.58363724 343.16282845 C-180.58418248 344.56071862 -180.58809324 345.9586127 -180.59583282 347.35648155 C-180.67202182 361.84126582 -179.90821201 375.31779732 -169.73242188 386.47363281 C-163.17275802 392.63422966 -154.45878296 396.27917721 -145.46827698 396.29243469 C-144.4855481 396.29644287 -143.50281921 396.30045105 -142.49031067 396.30458069 C-141.41851059 396.30405197 -140.34671051 396.30352325 -139.24243164 396.30297852 C-138.10871124 396.30645294 -136.97499084 396.30992737 -135.80691528 396.31350708 C-133.34441684 396.32085993 -130.88191179 396.32620783 -128.41940498 396.32979774 C-124.52368403 396.33696029 -120.62808924 396.35262438 -116.73240662 396.37113953 C-115.39747339 396.3774764 -114.06254011 396.38380203 -112.72760677 396.39011669 C-112.05920234 396.3932825 -111.3907979 396.39644831 -110.70213878 396.39971006 C-101.63567027 396.44175552 -92.56924512 396.47476991 -83.50268555 396.48706055 C-76.72875539 396.49633749 -69.95515351 396.52641527 -63.1813488 396.56838036 C-60.59816836 396.5807115 -58.014943 396.58580778 -55.43173409 396.58358192 C-51.82141092 396.58123599 -48.21200596 396.60334236 -44.60180664 396.63110352 C-43.53203079 396.62450211 -42.46225494 396.6179007 -41.36006165 396.61109924 C-34.11741717 396.70272208 -34.11741717 396.70272208 -30.19395447 399.06925964 C-28.21010829 401.328928 -27.69653779 402.1980357 -27.79492188 405.16113281 C-27.79298828 406.15113281 -27.79298828 406.15113281 -27.79101562 407.16113281 C-28.68062491 410.30237386 -29.6591188 411.23496281 -32.35742188 413.16113281 C-36.11494166 413.77789211 -39.85243152 413.69653486 -43.65258789 413.6628418 C-44.80593124 413.66824478 -45.9592746 413.67364777 -47.14756775 413.67921448 C-50.96908059 413.6917434 -54.78984579 413.67517484 -58.61132812 413.65722656 C-61.26969932 413.65738153 -63.92804361 413.65881646 -66.58641052 413.66163635 C-72.16585004 413.66433909 -77.74507456 413.65086672 -83.32446289 413.62768555 C-89.75120927 413.60116646 -96.17759415 413.59929927 -102.60437638 413.61107391 C-108.80552588 413.62190854 -115.00654615 413.61561447 -121.20768547 413.60151863 C-123.836167 413.59701732 -126.46465911 413.59665573 -129.09314156 413.60058403 C-132.7811425 413.60351382 -136.46856634 413.58690051 -140.15649414 413.56518555 C-141.23275055 413.56968719 -142.30900696 413.57418884 -143.4178772 413.5788269 C-158.0503966 413.43660496 -171.6910793 408.34614224 -182.35742188 398.16113281 C-189.84363549 389.60739054 -196.46406376 378.44718129 -196.49164295 366.76688385 C-196.4961008 365.88850436 -196.50055864 365.01012486 -196.50515157 364.10512781 C-196.50496721 363.14444564 -196.50478284 362.18376348 -196.5045929 361.19396973 C-196.50826958 360.16996362 -196.51194627 359.14595752 -196.51573437 358.09092093 C-196.52677498 354.64882505 -196.53061574 351.20675937 -196.53442383 347.76464844 C-196.54068828 345.30080062 -196.54733506 342.83695375 -196.55433655 340.37310791 C-196.57356676 332.97087108 -196.58416611 325.56864227 -196.59306434 318.1663878 C-196.59745073 314.67726443 -196.60281671 311.18814256 -196.60805321 307.69902039 C-196.62506552 296.09408127 -196.6395578 284.48914309 -196.64680195 272.88419342 C-196.64871173 269.87364196 -196.65063208 266.8630905 -196.65258789 263.85253906 C-196.65307163 263.10431387 -196.65355537 262.35608868 -196.65405377 261.58519 C-196.66234698 249.4752331 -196.68767187 237.36537522 -196.72016857 225.25546151 C-196.75328806 212.8115784 -196.77125521 200.36774551 -196.77444619 187.92381811 C-196.776607 180.94148462 -196.78529228 173.95929542 -196.81090736 166.977005 C-196.83496535 160.40408808 -196.8384094 153.83138338 -196.82814598 147.25841522 C-196.82765119 144.85105781 -196.83395463 142.44368753 -196.84770203 140.03636932 C-196.94859141 121.31606632 -195.22101687 106.3304586 -182.11132812 91.81738281 C-170.74258466 81.08164288 -157.60015801 76.81051347 -142.24780273 76.93408203 C-141.28088501 76.93378998 -140.31396729 76.93349792 -139.31774902 76.93319702 C-136.1524935 76.93457961 -132.98747953 76.95009003 -129.82226562 76.96582031 C-127.6155256 76.96955425 -125.40878391 76.97239943 -123.20204163 76.97439575 C-117.41691444 76.98200218 -111.63188898 77.00162485 -105.84680176 77.02380371 C-99.93434017 77.04432674 -94.02186201 77.05341124 -88.109375 77.06347656 C-76.52534613 77.08487367 -64.94139249 77.1189733 -53.35742188 77.16113281 C-53.37836914 76.16895752 -53.39931641 75.17678223 -53.42089844 74.15454102 C-53.49427782 70.41038932 -53.53957024 66.66629855 -53.57714844 62.92163086 C-53.59704425 61.31279755 -53.62417117 59.7040344 -53.65917969 58.09545898 C-54.01733294 41.19378584 -50.9275158 27.15605127 -39.04492188 14.34863281 C-28.18305363 4.23669311 -14.52896269 0.01849868 0 0 Z M-31.07617188 30.29785156 C-35.89012689 37.29863371 -37.51726591 43.32194861 -37.45507812 51.77050781 C-37.45366318 52.4973175 -37.45224823 53.2241272 -37.45079041 53.97296143 C-37.4452098 56.28572775 -37.43266092 58.59839593 -37.41992188 60.91113281 C-37.41490437 62.48274599 -37.4103419 64.0543607 -37.40625 65.62597656 C-37.39609921 69.47109654 -37.37652019 73.31600529 -37.35742188 77.16113281 C-32.40742188 77.16113281 -27.45742187 77.16113281 -22.35742188 77.16113281 C-22.34324219 74.94394531 -22.3290625 72.72675781 -22.31445312 70.44238281 C-22.28375037 68.2710092 -22.24468375 66.09993373 -22.20483398 63.92871094 C-22.18178144 62.43142406 -22.16728841 60.93397795 -22.16186523 59.43652344 C-22.09086512 43.05188057 -22.09086512 43.05188057 -16.35742188 37.16113281 C-10.42194431 32.53146031 -5.8344516 32.00956298 1.48510742 32 C2.84174248 31.99255264 2.84174248 31.99255264 4.2257843 31.98495483 C7.2227962 31.97033124 10.21975513 31.96352992 13.21679688 31.95800781 C15.30084739 31.95225534 17.38489788 31.94649762 19.46894836 31.94073486 C23.84282681 31.9302235 28.21668687 31.92438211 32.59057617 31.92089844 C38.18473417 31.91542163 43.7786478 31.89141145 49.3727293 31.86292648 C53.68024902 31.84426399 57.98771038 31.83909252 62.29526711 31.83756256 C64.35686386 31.83454231 66.41845973 31.82653503 68.48001671 31.81337738 C71.37122299 31.79624592 74.26183916 31.79821481 77.15307617 31.8046875 C77.99857025 31.79547272 78.84406433 31.78625793 79.71517944 31.77676392 C85.58078099 31.81772022 91.57012234 32.45659207 96.17142773 36.50690842 C100.83834837 41.80852175 101.8858601 46.51405278 102.05664062 53.43066406 C102.08568985 54.45216805 102.08568985 54.45216805 102.11532593 55.49430847 C102.17475944 57.65395874 102.22136012 59.81366338 102.26757812 61.97363281 C102.3057914 63.44435825 102.34484506 64.9150621 102.38476562 66.38574219 C102.48200231 69.97742213 102.56185362 73.56889248 102.64257812 77.16113281 C107.59257812 77.16113281 112.54257812 77.16113281 117.64257812 77.16113281 C117.73522505 72.80415363 117.81459654 68.45069138 117.86230469 64.09350586 C117.882223 62.61649903 117.9093682 61.13956898 117.94433594 59.6628418 C118.23045139 47.25468776 116.87911531 36.98913662 108.61914062 27.16503906 C100.92857505 19.36808226 91.35269484 15.86970779 80.4806366 15.75454712 C79.22565117 15.76365616 79.22565117 15.76365616 77.9453125 15.77294922 C77.03332596 15.76769226 76.12133942 15.7624353 75.18171692 15.75701904 C72.19974075 15.74393284 69.21830869 15.75251655 66.23632812 15.76269531 C64.14465229 15.76067131 62.05297715 15.75775716 59.96130371 15.7539978 C55.59050742 15.74958985 51.21989581 15.75595619 46.84912109 15.77001953 C41.26764979 15.78711034 35.68661139 15.77726095 30.10515594 15.75930214 C25.78982323 15.74842296 21.47459188 15.75192958 17.15925598 15.75968552 C15.10211637 15.7616761 13.04496733 15.75926871 10.98783875 15.75224686 C8.10492838 15.74456406 5.22270352 15.75633157 2.33984375 15.77294922 C1.5031868 15.76687653 0.66652985 15.76080383 -0.19548035 15.75454712 C-12.5295526 15.88519395 -23.31351392 20.57296618 -31.07617188 30.29785156 Z M-6.35742188 49.16113281 C-6.35742188 58.40113281 -6.35742188 67.64113281 -6.35742188 77.16113281 C24.33257812 77.16113281 55.02257812 77.16113281 86.64257812 77.16113281 C86.64257812 67.92113281 86.64257812 58.68113281 86.64257812 49.16113281 C84.05500845 46.57356314 82.29390084 46.91663494 78.76789856 46.89007568 C77.53507393 46.89614838 77.53507393 46.89614838 76.27734375 46.90234375 C74.97962288 46.89708679 74.97962288 46.89708679 73.65568542 46.89172363 C70.78665215 46.88289774 67.91786405 46.88875848 65.04882812 46.89550781 C63.06107536 46.89416141 61.07332292 46.89222108 59.08557129 46.88970947 C54.91590241 46.88675705 50.74631911 46.89105966 46.57666016 46.90039062 C41.22293537 46.91178521 35.86941109 46.90522637 30.51569366 46.8932457 C26.40999837 46.8860303 22.30435088 46.88831355 18.19865417 46.89350128 C16.22421749 46.89483867 14.24977652 46.89318698 12.27534485 46.88854218 C9.51938322 46.8834822 6.7637496 46.89117968 4.0078125 46.90234375 C3.18592941 46.89829529 2.36404633 46.89424683 1.51725769 46.89007568 C-2.8892984 46.74509904 -2.8892984 46.74509904 -6.35742188 49.16113281 Z M-171.35742188 104.16113281 C-180.99513179 116.83942043 -181.57168614 128.68813753 -181.54492188 144.09863281 C-181.54398529 144.78988251 -181.54304871 145.4811322 -181.54208374 146.19332886 C-181.46659699 171.85770761 -177.36197476 194.13839488 -158.66601562 213.11035156 C-147.40378179 223.89448758 -131.11954505 232.40533472 -115.35742188 232.16113281 C-115.25945312 231.24332031 -115.16148438 230.32550781 -115.06054688 229.37988281 C-114.17274045 222.09374733 -113.10238484 216.48075781 -109.35742188 210.16113281 C-109.06867188 209.47277344 -108.77992187 208.78441406 -108.48242188 208.07519531 C-107.07652902 205.68322483 -105.89112955 205.21101168 -103.35742188 204.16113281 C-102.70902344 203.81953125 -102.060625 203.47792969 -101.39257812 203.12597656 C-94.28796111 199.42594829 -87.63318443 197.88449056 -79.67773438 199.80957031 C-72.30066019 202.20047801 -66.41963301 205.57238658 -62.04882812 212.12207031 C-58.56932885 218.97910552 -58.48982234 225.23432953 -57.35742188 233.16113281 C-16.10742188 233.16113281 25.14257812 233.16113281 67.64257812 233.16113281 C70.11757813 222.27113281 70.11757813 222.27113281 72.64257812 211.16113281 C84.55201315 177.55006062 106.34968354 151.75681998 138.55273438 136.25488281 C147.35990617 132.15316211 156.13453133 129.24724231 165.64257812 127.16113281 C166.61582031 126.93554688 167.5890625 126.70996094 168.59179688 126.47753906 C197.43942429 120.89288489 226.66653564 126.88214475 252.28710938 140.42675781 C255.04201284 141.85071257 257.74150968 143.07806726 260.64257812 144.16113281 C260.76053794 140.7030955 260.83040564 137.24558724 260.89257812 133.78613281 C260.94285156 132.33787109 260.94285156 132.33787109 260.99414062 130.86035156 C261.1447816 119.63759893 257.07253005 110.84361548 249.51757812 102.59863281 C242.68296113 95.94115492 234.57359368 93.04141538 225.1996603 93.02691174 C224.55169336 93.02455951 223.90372643 93.02220728 223.23612413 93.01978377 C221.05587239 93.01310487 218.87568041 93.01355165 216.69541931 93.01396179 C215.12000725 93.01066247 213.54459603 93.00693676 211.96918589 93.00282031 C207.63265599 92.99279987 203.29613993 92.98908344 198.95960009 92.986431 C194.28524539 92.98252806 189.61090166 92.97294969 184.93655396 92.96421814 C173.64404142 92.94445304 162.35152799 92.93438728 151.05900249 92.92549035 C145.74122916 92.92110737 140.42345682 92.91574057 135.10568428 92.91050148 C117.42812144 92.89348886 99.75055923 92.8789948 82.07298946 92.87175274 C77.48526445 92.86984284 72.89753945 92.86792251 68.30981445 92.8659668 C67.16955642 92.86548306 66.02929838 92.86499932 64.85448707 92.86450092 C46.38404222 92.85620105 27.91366215 92.83086498 9.44324558 92.79838612 C-9.51967357 92.76531308 -28.4825598 92.74730374 -47.44550794 92.7441085 C-58.0925841 92.74194359 -68.7395658 92.73319773 -79.38661385 92.70764732 C-88.4544372 92.68593698 -97.52214316 92.67789156 -106.58998955 92.68761411 C-111.21515546 92.69215787 -115.84007919 92.69026811 -120.46521187 92.67085266 C-124.70385123 92.65321362 -128.94207187 92.65422465 -133.18071573 92.66974995 C-134.70972361 92.67212491 -136.23876053 92.6678083 -137.76772404 92.6559213 C-150.73473543 92.56139672 -161.96421058 94.53795589 -171.35742188 104.16113281 Z M121.64257812 165.16113281 C120.78921875 165.84820312 119.93585938 166.53527344 119.05664062 167.24316406 C98.51327549 184.7082647 85.08961539 211.35267637 82.64257812 238.16113281 C81.44072721 258.2483289 84.06577182 276.88880634 92.64257812 295.16113281 C93.155625 296.25683594 93.66867187 297.35253906 94.19726562 298.48144531 C107.01371612 323.93037812 129.93895452 343.43243434 156.92236328 352.39233398 C185.49357277 361.44137067 215.72084941 358.99290097 242.29882812 345.31347656 C250.12181128 341.122555 257.06927854 336.13434185 263.64257812 330.16113281 C264.16207031 329.69078613 264.6815625 329.22043945 265.21679688 328.73583984 C284.33862321 311.19803653 298.1497611 286.45852664 299.83544922 260.15112305 C300.67140979 227.14081321 293.8422144 198.76667671 270.74462891 174.30566406 C269.39100358 172.91070304 268.0170267 171.53558139 266.64257812 170.16113281 C265.83046875 169.34902344 265.01835937 168.53691406 264.18164062 167.70019531 C241.82977501 146.50570786 212.42094437 139.25085661 182.47021484 140.02929688 C159.95882684 141.07886945 138.89080274 151.16773846 121.64257812 165.16113281 Z M-96.66992188 219.16113281 C-99.71157165 222.76605107 -99.47560239 226.04323927 -99.45507812 230.57910156 C-99.45185547 231.83271484 -99.44863281 233.08632813 -99.4453125 234.37792969 C-99.43693359 235.68826172 -99.42855469 236.99859375 -99.41992188 238.34863281 C-99.41490505 239.68391762 -99.41034246 241.01920422 -99.40625 242.35449219 C-99.39444892 245.62339161 -99.37651323 248.89226783 -99.35742188 252.16113281 C-90.77742188 252.16113281 -82.19742188 252.16113281 -73.35742188 252.16113281 C-73.26460937 245.94269531 -73.26460937 245.94269531 -73.16992188 239.59863281 C-73.14260986 238.30497803 -73.11529785 237.01132324 -73.0871582 235.6784668 C-73.03248227 228.10202931 -73.18917191 222.50539667 -78.60742188 216.78613281 C-85.58286578 212.6642796 -90.77285738 214.06096892 -96.66992188 219.16113281 Z M-99.35742188 268.16113281 C-99.85926825 277.20416858 -99.85926825 277.20416858 -96.35742188 284.16113281 C-93.08454866 286.98770513 -91.10008098 288.06992906 -86.79492188 288.59863281 C-81.8245862 287.96604464 -79.47294088 286.36961174 -76.10742188 282.72363281 C-72.59859769 277.58571169 -73.35742188 274.90187996 -73.35742188 268.16113281 C-81.93742187 268.16113281 -90.51742187 268.16113281 -99.35742188 268.16113281 Z M95.13867188 334.56738281 C94.11661002 335.59612481 93.09719849 336.62750488 92.08007812 337.66113281 C91.55994141 338.18578125 91.03980469 338.71042969 90.50390625 339.25097656 C89.21456122 340.55215045 87.92828442 341.85636333 86.64257812 343.16113281 C88.0510253 346.37637586 89.74602598 348.48297149 92.26757812 350.91113281 C92.89921875 351.52472656 93.53085937 352.13832031 94.18164062 352.77050781 C94.66375 353.22941406 95.14585937 353.68832031 95.64257812 354.16113281 C99.82681704 350.65216012 103.83845979 347.08052746 107.64257812 343.16113281 C106.23956665 339.97439319 104.56492741 337.83891875 102.08007812 335.41113281 C101.46003906 334.79753906 100.84 334.18394531 100.20117188 333.55175781 C97.61169292 331.24134551 97.87661018 331.93622837 95.13867188 334.56738281 Z M65.91601562 351.69238281 C64.97628906 352.66691406 64.97628906 352.66691406 64.01757812 353.66113281 C63.3859375 354.31082031 62.75429688 354.96050781 62.10351562 355.62988281 C61.62140625 356.13519531 61.13929688 356.64050781 60.64257812 357.16113281 C62.15633894 360.72877567 64.24770941 362.99819568 66.99414062 365.70800781 C67.84492188 366.55234375 68.69570313 367.39667969 69.57226562 368.26660156 C70.46171875 369.13929688 71.35117187 370.01199219 72.26757812 370.91113281 C73.61335938 372.24337891 73.61335938 372.24337891 74.98632812 373.60253906 C77.20064817 375.79330251 79.41950247 377.97926045 81.64257812 380.16113281 C82.79776731 379.25628489 83.94143218 378.33671221 85.08007812 377.41113281 C85.71816406 376.90066406 86.35625 376.39019531 87.01367188 375.86425781 C88.92613259 373.8646586 89.6234368 372.94473591 89.64257812 370.16113281 C87.94066506 367.73049646 87.94066506 367.73049646 85.43554688 365.39550781 C84.53900391 364.50605469 83.64246094 363.61660156 82.71875 362.70019531 C82.24493896 362.24290039 81.77112793 361.78560547 81.28295898 361.31445312 C79.83374299 359.91467267 78.40408481 358.49705969 76.9765625 357.07519531 C72.05033726 350.87605465 72.05033726 350.87605465 65.91601562 351.69238281 Z M43.51586914 373.98144531 C42.66481094 374.81651611 41.81375275 375.65158691 40.93690491 376.51196289 C40.01606613 377.42743896 39.09522736 378.34291504 38.14648438 379.28613281 C37.19253534 380.23111537 36.23850898 381.17601988 35.28440857 382.12084961 C33.28082223 384.10791691 31.28169984 386.09936405 29.28491211 388.09326172 C26.73683409 390.63598026 24.17305419 393.16219416 21.60485935 395.68457031 C19.62565895 397.63387123 17.65796151 399.59448583 15.6931591 401.55828857 C14.29894842 402.94629106 12.89317187 404.32264491 11.48719788 405.69873047 C6.15604191 411.06781774 1.70806922 415.76630405 1.61132812 423.73535156 C3.23700775 430.20220948 5.83132379 433.24436849 11.39257812 437.03613281 C15.86562229 438.58449426 19.11640564 438.44373619 23.64257812 437.16113281 C30.26653762 433.28863598 35.60956117 427.45743511 40.95507812 422.04394531 C42.23656738 420.75821121 42.23656738 420.75821121 43.54394531 419.44650269 C46.24825734 416.7310734 48.94549806 414.00874338 51.64257812 411.28613281 C53.48456178 409.43410845 55.32700513 407.58254117 57.16992188 405.73144531 C61.66613794 401.21328112 66.15658255 396.68944367 70.64257812 392.16113281 C66.24629573 386.97120048 61.7001974 382.0359747 56.89257812 377.22363281 C56.22097656 376.53978516 55.549375 375.8559375 54.85742188 375.15136719 C54.21417969 374.50619141 53.5709375 373.86101562 52.90820312 373.19628906 C52.03856934 372.32049194 52.03856934 372.32049194 51.15136719 371.42700195 C47.78656175 368.60394108 46.10391392 371.43009598 43.51586914 373.98144531 Z " fill="#000000" transform="translate(196.357421875,28.8388671875)"/>
<path d="M0 0 C14.5741392 12.49823391 27.78143694 30.64888838 30.5390625 50.10546875 C30.79262162 54.19577774 30.74097206 55.95757781 28.0625 59.1875 C24.70114699 60.8681765 22.89282093 61.25569292 19.1875 60.625 C14.91896291 57.37159259 13.85007205 53.47776892 12.3125 48.5625 C5.78416755 29.09102091 -5.99619749 13.87888372 -24.4375 4.3125 C-43.52972491 -5.03001969 -62.85721537 -5.48563544 -83.1171875 0.62109375 C-101.49014618 6.9877425 -115.34838758 20.2865824 -124.24609375 37.37890625 C-133.18892218 56.03412402 -133.93977237 75.36046566 -127.74609375 95.0078125 C-121.06986683 113.64836688 -108.35123103 128.20925682 -90.5 136.9375 C-71.81511116 144.87581372 -51.08557788 147.08232656 -31.8125 139.625 C-11.47271255 131.20579586 1.79409191 117.21571211 10.6953125 97.26171875 C11.96879026 94.15803342 12.96131077 91.17488826 13.8125 87.9375 C14.6932166 84.75418699 15.238955 83.56353987 17.4375 80.9375 C21.14609897 79.16748685 23.27076615 79.53701838 27.1875 80.625 C30.07211402 82.89914919 30.17087034 83.50027757 30.6875 87.375 C29.99723519 106.63966333 16.34167576 125.37128898 3.0390625 138.1796875 C-17.57644051 155.85818734 -42.00880756 162.58624579 -68.8125 160.625 C-92.01301513 158.21230931 -113.55376821 145.85563965 -128.6875 128.34375 C-144.38027139 108.26623366 -151.39825679 83.69195124 -148.33984375 58.41796875 C-145.48584678 38.24926388 -137.0421534 21.28432322 -122.8125 6.625 C-122.20019531 5.93921875 -121.58789062 5.2534375 -120.95703125 4.546875 C-89.63510362 -29.37964789 -34.36797017 -27.13008524 0 0 Z " fill="#000000" transform="translate(445.8125,207.375)"/>
</svg>
