<?xml version="1.0" encoding="UTF-8"?>
<svg version="1.1" xmlns="http://www.w3.org/2000/svg" width="512" height="512">
<path d="M0 0 C1.3839574 -0.00571085 2.7679101 -0.01267786 4.15185547 -0.02079773 C7.89167186 -0.03866702 11.63125282 -0.03757242 15.371099 -0.03185534 C18.50208841 -0.02875396 21.63303322 -0.03486657 24.76401627 -0.04089409 C32.15554114 -0.0549177 39.54695039 -0.05339655 46.93847656 -0.04199219 C54.54346011 -0.03051718 62.14809075 -0.04458101 69.7530278 -0.07138866 C76.30108703 -0.0935997 82.84903593 -0.10017079 89.39713013 -0.09431225 C93.29975027 -0.09095385 97.20214434 -0.09328266 101.10473251 -0.11056328 C104.77720058 -0.12611662 108.44914913 -0.12198516 112.12159729 -0.10325813 C114.09723742 -0.09786018 116.07290134 -0.11202293 118.04849243 -0.12695312 C129.89598905 -0.02961781 137.90119345 2.99691484 146.21533203 11.40405273 C147.12283203 12.27030273 148.03033203 13.13655273 148.96533203 14.02905273 C157.11453188 24.63771117 155.69601853 39.17134198 155.46533203 51.71655273 C155.44522339 53.63254956 155.42698039 55.54856691 155.41064453 57.46459961 C155.36702446 62.11160025 155.29824187 66.75759385 155.21533203 71.40405273 C155.76271719 71.40128736 156.31010235 71.39852198 156.87407494 71.3956728 C170.22987116 71.32924754 183.5856382 71.2798839 196.94156456 71.24861622 C203.40055895 71.23298513 209.85943378 71.21179332 216.31835938 71.17773438 C222.55588577 71.14505012 228.79329742 71.1271805 235.03090286 71.11942101 C237.4062442 71.11389379 239.78157953 71.10310058 242.1568718 71.08686256 C245.4933893 71.06496817 248.82943742 71.06209087 252.16601562 71.06347656 C253.13994263 71.05269073 254.11386963 71.04190491 255.11730957 71.03079224 C266.75797123 71.08283266 275.56613013 74.56281609 284.21533203 82.40405273 C292.28633374 91.81287076 294.8585963 101.43651572 297.09814453 113.37670898 C297.36003612 114.74573069 297.62240467 116.11466123 297.88522339 117.48350525 C298.43327163 120.34790143 298.97553114 123.21331633 299.51367188 126.07958984 C300.1963787 129.71334548 300.89334456 133.34418542 301.59482002 136.97435856 C302.13952656 139.80207829 302.67639508 142.63124559 303.21108627 145.46087456 C303.58620857 147.4387745 303.96769827 149.41546352 304.34939575 151.3921051 C307.02447121 165.75636151 309.67260667 180.19052971 301.46533203 193.21655273 C295.67222175 201.06345517 289.32523158 206.59547298 280.21533203 210.40405273 C278.89533203 210.40405273 277.57533203 210.40405273 276.21533203 210.40405273 C276.2190192 211.31735289 276.22270638 212.23065304 276.22650528 213.17162895 C276.31492075 235.41506203 276.38107304 257.65846473 276.42258072 279.90203667 C276.4431881 290.65895787 276.47127388 301.41576162 276.51708984 312.17260742 C276.55701339 321.55049537 276.5827781 330.92829824 276.59168601 340.30626881 C276.5968914 345.26984703 276.60908799 350.2331819 276.63825226 355.19668198 C276.66550854 359.873584 276.67375644 364.55014363 276.66776276 369.22711754 C276.66885844 370.93869707 276.67675131 372.65028867 276.69215393 374.36179924 C276.80695454 387.78247909 275.20966814 397.17918018 265.66064453 407.20092773 C259.94604978 412.34954026 253.753347 415.49281414 246.01385498 415.56227112 C244.76872635 415.57695435 244.76872635 415.57695435 243.4984436 415.5919342 C242.59645233 415.59768967 241.69446106 415.60344513 240.76513672 415.609375 C239.8087027 415.6192746 238.85226868 415.62917419 237.86685181 415.63937378 C234.70699536 415.67094924 231.54712387 415.69573066 228.38720703 415.72045898 C226.19573578 415.74103192 224.00426847 415.76202848 221.81280518 415.78343201 C216.04576813 415.83861758 210.27869548 415.88804241 204.51159668 415.9362793 C198.62635124 415.98651994 192.74115749 416.04219264 186.85595703 416.09741211 C175.30912619 416.20495072 163.76225046 416.30640528 152.21533203 416.40405273 C154.2971104 418.49936867 156.38068511 420.59284397 158.46533203 422.68530273 C159.05185547 423.27601563 159.63837891 423.86672852 160.24267578 424.4753418 C163.15152908 427.39236603 166.06422066 430.24524569 169.21533203 432.90405273 C172.92840834 436.08555616 176.46253614 439.43195762 179.96533203 442.84155273 C180.52091797 443.36749023 181.07650391 443.89342773 181.64892578 444.43530273 C188.3361838 451.0254093 191.31379657 458.17908274 191.52783203 467.52905273 C191.40945302 478.10029862 187.67821131 485.09382326 180.21533203 492.40405273 C174.28093484 498.03412187 168.32069086 499.59027108 160.34033203 499.84155273 C147.507123 499.48583479 140.46719131 493.9689239 131.80126953 484.92895508 C128.73553426 481.68800566 125.73072185 478.39370975 122.73876953 475.0847168 C120.29011183 472.38334506 117.81504514 469.70653716 115.34033203 467.02905273 C114.85137451 466.49900635 114.36241699 465.96895996 113.85864258 465.42285156 C109.97312074 461.21369365 106.06499571 457.0259409 102.15283203 452.84155273 C97.08762359 447.42388619 92.06274495 441.97239863 87.05908203 436.49780273 C83.80168426 432.94427789 80.5082717 429.42461292 77.21533203 425.90405273 C72.12216058 420.45844125 67.06619293 414.9818416 62.03564453 409.47827148 C56.79608658 403.75567403 51.50067236 398.0843231 46.21533203 392.40405273 C42.46143529 394.14269965 40.41769779 395.81501224 38.21533203 399.40405273 C38.42462655 402.17366431 38.42462655 402.17366431 39.21533203 405.40405273 C39.87344164 412.82799097 39.48917907 419.11965937 35.21533203 425.40405273 C30.25624565 431.06732938 24.79972166 435.33652817 17.21533203 436.40405273 C10.05976246 436.62926379 4.23227806 435.31968436 -1.78466797 431.40405273 C-3.48068024 429.62054928 -4.94757335 427.73593926 -6.45943165 425.79506397 C-11.00383428 420.18448897 -15.27640337 416.2484568 -22.56729126 415.0675354 C-29.54308039 414.45291406 -36.50071918 414.66408987 -43.49169922 414.86108398 C-46.06943963 414.87681275 -48.64723346 414.88528729 -51.22502136 414.8868866 C-57.28823825 414.90558709 -63.34727806 414.98768033 -69.4092986 415.10455197 C-80.90996782 415.32306384 -92.41232783 415.38287479 -103.91467857 415.45166588 C-107.67654525 415.48549803 -111.43666162 415.55211631 -115.19795227 415.62495422 C-117.51436781 415.65441419 -119.83078912 415.68342459 -122.1472168 415.71191406 C-123.18173477 415.7405101 -124.21625275 415.76910614 -125.28211975 415.79856873 C-136.15971896 415.88505913 -143.76260073 412.29948945 -151.58154297 404.84936523 C-157.88539958 397.85253148 -159.91141185 391.39431118 -159.90492249 382.12750244 C-159.90577691 381.39312887 -159.90663134 380.6587553 -159.90751165 379.90212798 C-159.90915906 377.44083071 -159.90365716 374.97960155 -159.89819336 372.51831055 C-159.8979113 370.75419618 -159.89806958 368.9900817 -159.89863586 367.22596741 C-159.89892312 362.43502449 -159.893038 357.64410655 -159.88606191 352.85316944 C-159.87981639 347.8469995 -159.87922362 342.840829 -159.8780365 337.83465576 C-159.87492673 328.353929 -159.86671808 318.87321375 -159.85668701 309.39249206 C-159.84551491 298.59937767 -159.84001265 287.80626274 -159.83499157 277.01314402 C-159.82453519 254.81010716 -159.80694257 232.60708067 -159.78466797 210.40405273 C-161.20392578 210.18120605 -161.20392578 210.18120605 -162.65185547 209.95385742 C-171.17599081 208.4578823 -177.96489006 203.21410375 -182.90966797 196.27905273 C-194.86239348 177.0603283 -189.06821375 155.64977164 -184.98730469 134.78881836 C-184.29140986 131.22994475 -183.62697407 127.66601986 -182.97127342 124.09955025 C-182.45399714 121.30685386 -181.91950685 118.51765396 -181.38011551 115.72915268 C-181.00826664 113.79037899 -180.65089289 111.84884633 -180.29403687 109.90725708 C-177.94506894 98.12986277 -173.57562228 86.02419414 -163.49951172 78.75561523 C-154.52377151 73.06774277 -146.51661945 70.94565619 -135.94067383 71.06347656 C-134.89572754 71.06303848 -133.85078125 71.0626004 -132.77416992 71.06214905 C-129.3490882 71.06422507 -125.92450704 71.08750037 -122.49951172 71.11108398 C-120.11341113 71.11668415 -117.72730707 71.12095226 -115.34120178 71.12394714 C-109.0825537 71.13536275 -102.82411681 71.16480178 -96.56555176 71.19805908 C-90.17052059 71.22883079 -83.77545507 71.24246764 -77.38037109 71.25756836 C-64.84838032 71.28967452 -52.31653542 71.34024871 -39.78466797 71.40405273 C-39.80823364 69.47541382 -39.80823364 69.47541382 -39.83227539 67.5078125 C-39.88686699 62.70514268 -39.92112391 57.90249991 -39.94946289 53.09960938 C-39.96448318 51.0269712 -39.98490544 48.95436445 -40.01098633 46.88183594 C-40.04766821 43.89046437 -40.06446232 40.89951564 -40.07763672 37.90795898 C-40.09312057 36.99196426 -40.10860443 36.07596954 -40.1245575 35.13221741 C-40.12725968 24.63519481 -36.97421057 17.03934698 -29.78466797 9.40405273 C-20.68877203 1.05402027 -11.9887214 -0.04205381 0 0 Z M-18.59716797 23.34155273 C-19.18111328 24.01057617 -19.76505859 24.67959961 -20.36669922 25.36889648 C-22.61701376 28.59868677 -22.91044285 31.6591887 -22.89819336 35.5300293 C-22.89811783 36.33055725 -22.8980423 37.13108521 -22.89796448 37.95587158 C-22.89280319 38.81017761 -22.88764191 39.66448364 -22.88232422 40.54467773 C-22.88090927 41.42685974 -22.87949432 42.30904175 -22.8780365 43.21795654 C-22.87244798 46.03002339 -22.85989758 48.84201003 -22.84716797 51.65405273 C-22.84215148 53.56290575 -22.83758884 55.47176002 -22.83349609 57.38061523 C-22.82248231 62.05512521 -22.80522555 66.72957538 -22.78466797 71.40405273 C-19.48466797 71.40405273 -16.18466797 71.40405273 -12.78466797 71.40405273 C-12.77008545 70.17775146 -12.75550293 68.9514502 -12.74047852 67.68798828 C-12.68254714 63.14228007 -12.60531416 58.59706993 -12.5222168 54.05175781 C-12.48894311 52.08374102 -12.46091882 50.11562824 -12.43823242 48.14746094 C-12.40473119 45.31981461 -12.35241834 42.49304991 -12.29638672 39.66577148 C-12.2899968 38.78443039 -12.28360687 37.90308929 -12.27702332 36.99504089 C-12.25722916 36.17441666 -12.237435 35.35379242 -12.21704102 34.50830078 C-12.20593796 33.78660202 -12.1948349 33.06490326 -12.18339539 32.32133484 C-11.6521778 29.76697332 -10.84157402 28.99784349 -8.78466797 27.40405273 C-6.34679413 27.02652931 -6.34679413 27.02652931 -3.39489746 27.02310181 C-2.27602646 27.01464233 -1.15715546 27.00618286 -0.00437927 26.99746704 C1.83784462 27.00657608 1.83784462 27.00657608 3.71728516 27.01586914 C5.01012924 27.01061218 6.30297333 27.00535522 7.63499451 26.99993896 C11.18251141 26.98624959 14.7297669 26.99157054 18.27728844 27.00107622 C21.9874785 27.00866449 25.69764598 27.00162953 29.40783691 26.99691772 C35.63879419 26.99145773 41.86964484 26.99865813 48.10058594 27.01293945 C55.30736413 27.02926651 62.51388772 27.02397817 69.72065973 27.00746024 C75.90502685 26.99385226 82.08931726 26.99192231 88.27369452 26.99977624 C91.96876544 27.00445658 95.66371664 27.0050678 99.35877991 26.99516678 C103.47713331 26.98490263 107.59504685 26.99912319 111.71337891 27.01586914 C112.94152817 27.00979645 114.16967743 27.00372375 115.43504333 26.99746704 C116.55391434 27.00592651 117.67278534 27.01438599 118.82556152 27.02310181 C120.28675037 27.02479842 120.28675037 27.02479842 121.77745819 27.02652931 C124.62427616 27.46738086 125.5153237 28.12028851 127.21533203 30.40405273 C127.61405945 32.32133484 127.61405945 32.32133484 127.64770508 34.50830078 C127.66749924 35.32892502 127.6872934 36.14954926 127.70768738 36.99504089 C127.71727226 38.31705254 127.71727226 38.31705254 127.72705078 39.66577148 C127.74500198 40.57156448 127.76295319 41.47735748 127.78144836 42.41059875 C127.83563862 45.3042027 127.86947489 48.19764088 127.90283203 51.09155273 C127.93599742 53.05316439 127.97048635 55.01475414 128.00634766 56.97631836 C128.09137009 61.78544371 128.15813963 66.59451915 128.21533203 71.40405273 C131.84533203 71.40405273 135.47533203 71.40405273 139.21533203 71.40405273 C139.28978114 65.83564135 139.34407521 60.26752309 139.38012695 54.69873047 C139.39516449 52.80642649 139.41559988 50.91415707 139.44165039 49.02197266 C139.47825602 46.29377688 139.49510893 43.56604402 139.50830078 40.83764648 C139.52378464 39.99882431 139.53926849 39.16000214 139.55522156 38.29576111 C139.55700562 31.99464201 138.60251668 27.08963547 134.27783203 22.22436523 C133.59720703 21.66491211 132.91658203 21.10545898 132.21533203 20.52905273 C131.53470703 19.95413086 130.85408203 19.37920898 130.15283203 18.78686523 C126.75380545 16.36094707 123.85535311 16.27592682 119.80778503 16.26361084 C118.68483536 16.2579007 117.56188568 16.25219055 116.40490723 16.24630737 C115.17212036 16.24518951 113.9393335 16.24407166 112.66918945 16.24291992 C111.37141068 16.23795502 110.0736319 16.23299011 108.73652649 16.22787476 C105.17443191 16.21475761 101.61235618 16.20830709 98.05024123 16.2038641 C95.82413909 16.20093213 93.59804208 16.19682708 91.37194252 16.19235992 C84.40514404 16.1786865 77.43835732 16.16901921 70.47154635 16.16515803 C62.43286036 16.16067817 54.39434448 16.14313309 46.35571021 16.11415744 C40.1398926 16.09253098 33.92412281 16.08245323 27.70826799 16.08111691 C23.99686888 16.08006953 20.28562971 16.07417606 16.57427025 16.0562973 C12.43262814 16.03673386 8.29134142 16.04110941 4.1496582 16.04760742 C2.92294403 16.03839264 1.69622986 16.02917786 0.43234253 16.01968384 C-7.68025669 16.05961661 -13.12555738 16.90654344 -18.59716797 23.34155273 Z M3.21533203 42.40405273 C3.21533203 51.97405273 3.21533203 61.54405273 3.21533203 71.40405273 C39.18533203 71.40405273 75.15533203 71.40405273 112.21533203 71.40405273 C112.21533203 61.83405273 112.21533203 52.26405273 112.21533203 42.40405273 C76.24533203 42.40405273 40.27533203 42.40405273 3.21533203 42.40405273 Z M-157.22216797 96.59155273 C-162.95845986 104.07796639 -163.8209192 114.96368273 -165.51904297 123.97045898 C-165.76132629 125.2445311 -166.00360962 126.51860321 -166.25323486 127.83128357 C-166.76134727 130.51064938 -167.26483136 133.19083926 -167.765625 135.87158203 C-168.40423573 139.28525037 -169.0598217 142.69542082 -169.71957016 146.10505772 C-170.35181501 149.39136403 -170.96543903 152.68108893 -171.58154297 155.97045898 C-171.81790466 157.18318985 -172.05426636 158.39592072 -172.29779053 159.645401 C-173.92551779 168.51948765 -174.58555295 176.3829092 -170.07763672 184.55249023 C-166.25601825 190.02514025 -161.08439956 193.3263167 -154.78466797 195.40405273 C-151.09211462 195.83246652 -151.09211462 195.83246652 -147.19702148 195.74462891 C-146.47423508 195.74506699 -145.75144867 195.74550507 -145.00675964 195.74595642 C-142.64207977 195.74388349 -140.27812865 195.72062471 -137.91357422 195.69702148 C-136.26448453 195.69142018 -134.61538982 195.68715261 -132.96629333 195.68415833 C-128.64419563 195.67275159 -124.32240454 195.64332081 -120.00042725 195.61004639 C-115.58284654 195.57925512 -111.16521588 195.5656337 -106.74755859 195.55053711 C-98.09312165 195.51844669 -89.43893304 195.46730142 -80.78466797 195.40405273 C-80.66567139 194.16123535 -80.5466748 192.91841797 -80.42407227 191.63793945 C-80.25694643 189.99482864 -80.08936036 188.35176459 -79.92138672 186.70874023 C-79.84432495 185.89107178 -79.76726318 185.07340332 -79.68786621 184.23095703 C-79.0801665 178.41293121 -78.2150712 173.56909328 -73.78466797 169.40405273 C-71.49510939 167.74116213 -69.36949692 166.62331168 -66.78466797 165.40405273 C-66.12466797 165.07405273 -65.46466797 164.74405273 -64.78466797 164.40405273 C-64.78466797 139.32405273 -64.78466797 114.24405273 -64.78466797 88.40405273 C-78.58149228 88.25844792 -78.58149228 88.25844792 -92.37841797 88.15991211 C-98.01179771 88.13010628 -103.6447683 88.0949751 -109.27783203 88.02685547 C-113.82310574 87.97223881 -118.36794028 87.94257013 -122.913517 87.92966652 C-124.64137809 87.92047954 -126.36921711 87.90254002 -128.0968895 87.87540245 C-139.31758687 87.70627813 -148.92484681 88.08510323 -157.22216797 96.59155273 Z M-48.78466797 88.40405273 C-48.78466797 113.15405273 -48.78466797 137.90405273 -48.78466797 163.40405273 C-37.56466797 163.40405273 -26.34466797 163.40405273 -14.78466797 163.40405273 C-14.78466797 138.65405273 -14.78466797 113.90405273 -14.78466797 88.40405273 C-26.00466797 88.40405273 -37.22466797 88.40405273 -48.78466797 88.40405273 Z M2.21533203 88.40405273 C2.02970703 100.82030273 1.84408203 113.23655273 1.65283203 126.02905273 C1.570896 129.94216309 1.48895996 133.85527344 1.40454102 137.88696289 C1.37443186 141.41016649 1.37443186 141.41016649 1.3563385 144.93344116 C1.34256234 146.49674563 1.31099576 148.05995728 1.26515198 149.62265015 C0.6220577 158.69847981 0.6220577 158.69847981 4.13821411 166.55413818 C6.44874695 168.09045882 6.44874695 168.09045882 8.88685608 169.01303101 C11.21533203 170.40405273 11.21533203 170.40405273 15.21533203 177.40405273 C15.87533203 183.34405273 16.53533203 189.28405273 17.21533203 195.40405273 C44.27533203 195.40405273 71.33533203 195.40405273 99.21533203 195.40405273 C99.87533203 189.46405273 100.53533203 183.52405273 101.21533203 177.40405273 C103.7105062 171.75321712 104.79354532 169.93080738 110.34619141 167.77441406 C112.59409425 166.5435416 112.59409425 166.5435416 114.21533203 164.40405273 C115.39833144 158.71530484 115.14694714 153.07580828 114.99658203 147.29077148 C114.98481258 145.7867672 114.97665555 144.28273017 114.97216797 142.77868652 C114.93030672 137.2158073 114.81861487 131.65363061 114.71533203 126.09155273 C114.55033203 113.65467773 114.38533203 101.21780273 114.21533203 88.40405273 C77.25533203 88.40405273 40.29533203 88.40405273 2.21533203 88.40405273 Z M131.21533203 88.40405273 C131.21533203 113.15405273 131.21533203 137.90405273 131.21533203 163.40405273 C142.43533203 163.40405273 153.65533203 163.40405273 165.21533203 163.40405273 C165.21533203 138.65405273 165.21533203 113.90405273 165.21533203 88.40405273 C153.99533203 88.40405273 142.77533203 88.40405273 131.21533203 88.40405273 Z M181.21533203 88.40405273 C181.21533203 113.48405273 181.21533203 138.56405273 181.21533203 164.40405273 C184.18533203 166.05405273 187.15533203 167.70405273 190.21533203 169.40405273 C195.17569894 174.78657853 195.67243297 179.66768197 196.34423828 186.70483398 C196.43032349 187.54163696 196.51640869 188.37843994 196.60510254 189.24060059 C196.81539085 191.29439198 197.01629774 193.34914018 197.21533203 195.40405273 C206.82130818 195.52031146 216.42703919 195.60895179 226.03356743 195.66311359 C230.49512602 195.68911917 234.95620045 195.72434984 239.41748047 195.78125 C243.72933786 195.83589524 248.04073193 195.86554113 252.35290909 195.87843895 C253.99145925 195.88762092 255.62998634 195.90555048 257.26833725 195.93270302 C267.39862169 196.09379446 276.27638482 195.88377481 284.13717651 188.6308136 C288.82785123 183.68421216 290.45353252 178.79406011 290.38952637 171.97216797 C289.99932357 166.21947954 288.79384521 160.56344851 287.73095703 154.90405273 C287.47121824 153.49980732 287.21176281 152.09550946 286.95257568 150.69116211 C286.40940966 147.75856582 285.86058186 144.82709611 285.30810547 141.89624023 C284.60460699 138.15997203 283.91880168 134.42070009 283.23767471 130.68029785 C282.70729348 127.78232465 282.16571508 124.88652551 281.62102509 121.99121094 C281.36366937 120.61416382 281.11011141 119.2364008 280.86060333 117.85791016 C278.68217597 104.61536005 278.68217597 104.61536005 270.90283203 94.09155273 C270.10425781 93.41672852 270.10425781 93.41672852 269.28955078 92.72827148 C263.63053218 89.1154517 258.83912087 87.9626471 252.16870117 88.06347656 C251.39714691 88.06303848 250.62559265 88.0626004 249.83065796 88.06214905 C247.30366901 88.06422379 244.77736 88.0874917 242.25048828 88.11108398 C240.4892971 88.11668463 238.72810122 88.12095252 236.96690369 88.12394714 C232.34889649 88.13535901 227.73117584 88.16479442 223.11328125 88.19805908 C217.56322907 88.23425819 212.01308067 88.24793856 206.46294403 88.26541901 C198.04687455 88.29443419 189.63143284 88.35194663 181.21533203 88.40405273 Z M-62.78466797 182.40405273 C-63.09680936 184.44246727 -63.09680936 184.44246727 -63.05932617 186.80615234 C-63.06885818 187.7172728 -63.0783902 188.62839325 -63.08821106 189.56712341 C-63.08729965 190.55358353 -63.08638824 191.54004364 -63.08544922 192.55639648 C-63.08973434 193.56746964 -63.09401947 194.57854279 -63.09843445 195.62025452 C-63.10418457 197.76131439 -63.10467301 199.90239381 -63.1003418 202.04345703 C-63.09718409 205.32480116 -63.12062511 208.6052422 -63.14599609 211.88647461 C-63.14826918 213.96394743 -63.14897254 216.04142268 -63.14794922 218.11889648 C-63.15715897 219.10333237 -63.16636871 220.08776825 -63.17585754 221.10203552 C-63.16962875 222.01630814 -63.16339996 222.93058075 -63.15698242 223.87255859 C-63.15761185 224.67704941 -63.15824127 225.48154022 -63.15888977 226.31040955 C-62.91982579 228.45684457 -62.91982579 228.45684457 -61.60673523 230.16300964 C-59.08340653 231.88169463 -57.30110542 231.78495349 -54.25927734 231.79223633 C-52.56236755 231.80642105 -52.56236755 231.80642105 -50.83117676 231.82089233 C-49.60926636 231.81481964 -48.38735596 231.80874695 -47.12841797 231.80249023 C-45.24769592 231.8067955 -45.24769592 231.8067955 -43.32897949 231.81118774 C-40.67571046 231.81323101 -38.02326825 231.80918741 -35.37011719 231.79516602 C-31.97025163 231.7780736 -28.57109651 231.7879159 -25.17125702 231.80588341 C-21.92778519 231.81933363 -18.68439907 231.80991507 -15.44091797 231.80249023 C-13.60805237 231.81159927 -13.60805237 231.81159927 -11.73815918 231.82089233 C-10.60688599 231.81143585 -9.47561279 231.80197937 -8.31005859 231.79223633 C-6.81472595 231.78865616 -6.81472595 231.78865616 -5.28918457 231.78500366 C-2.77038197 231.58648601 -2.77038197 231.58648601 -0.96260071 230.16300964 C0.53952369 227.91995111 0.58975174 226.56336141 0.58764648 223.87255859 C0.59387527 222.95828598 0.60010406 222.04401337 0.60652161 221.10203552 C0.59731186 220.11759964 0.58810211 219.13316376 0.57861328 218.11889648 C0.57911179 217.10686661 0.57961029 216.09483673 0.5801239 215.05213928 C0.57778316 212.91283199 0.56805464 210.77352197 0.55151367 208.63427734 C0.52789931 205.35090658 0.53095551 202.06834631 0.53759766 198.78491211 C0.53202178 196.70873537 0.52491248 194.63256206 0.51611328 192.55639648 C0.51702469 191.56993637 0.5179361 190.58347626 0.51887512 189.56712341 C0.5045771 188.20044273 0.5045771 188.20044273 0.48999023 186.80615234 C0.48538284 186.00245712 0.48077545 185.1987619 0.47602844 184.37071228 C0.38718598 182.17053659 0.38718598 182.17053659 -1.78466797 180.40405273 C-4.35957469 180.09705046 -4.35957469 180.09705046 -7.39599609 180.14526367 C-8.57061401 180.13895935 -9.74523193 180.13265503 -10.95544434 180.12615967 C-12.22940063 180.13020813 -13.50335693 180.13425659 -14.81591797 180.13842773 C-16.76890808 180.13555756 -16.76890808 180.13555756 -18.76135254 180.13262939 C-21.51868425 180.12967882 -24.27588645 180.13397349 -27.03320312 180.14331055 C-30.5709387 180.1547052 -34.10837084 180.14814535 -37.64609528 180.13616562 C-41.01522731 180.1272088 -44.38427731 180.13347633 -47.75341797 180.13842773 C-49.66435242 180.13235504 -49.66435242 180.13235504 -51.6138916 180.12615967 C-52.78850952 180.13246399 -53.96312744 180.13876831 -55.17333984 180.14526367 C-56.21099487 180.14685486 -57.2486499 180.14844604 -58.31774902 180.15008545 C-60.9613283 180.16006252 -60.9613283 180.16006252 -62.78466797 182.40405273 Z M116.21533203 182.40405273 C115.90319064 184.44246727 115.90319064 184.44246727 115.94067383 186.80615234 C115.93114182 187.7172728 115.9216098 188.62839325 115.91178894 189.56712341 C115.91270035 190.55358353 115.91361176 191.54004364 115.91455078 192.55639648 C115.91026566 193.56746964 115.90598053 194.57854279 115.90156555 195.62025452 C115.89581543 197.76131439 115.89532699 199.90239381 115.8996582 202.04345703 C115.90281591 205.32480116 115.87937489 208.6052422 115.85400391 211.88647461 C115.85173082 213.96394743 115.85102746 216.04142268 115.85205078 218.11889648 C115.84284103 219.10333237 115.83363129 220.08776825 115.82414246 221.10203552 C115.83037125 222.01630814 115.83660004 222.93058075 115.84301758 223.87255859 C115.84238815 224.67704941 115.84175873 225.48154022 115.84111023 226.31040955 C116.08074548 228.45587761 116.08074548 228.45587761 117.38752747 230.16300964 C119.93655125 231.8937463 121.76317529 231.78501628 124.83251953 231.79223633 C126.55946045 231.80642105 126.55946045 231.80642105 128.32128906 231.82089233 C130.18696533 231.81178329 130.18696533 231.81178329 132.09033203 231.80249023 C133.36634277 231.80536041 134.64235352 231.80823059 135.95703125 231.81118774 C138.65737319 231.81323108 141.35690284 231.80918665 144.05712891 231.79516602 C147.51752433 231.77807362 150.97722174 231.78791581 154.43759155 231.80588341 C157.73853009 231.81933289 161.03938439 231.80991518 164.34033203 231.80249023 C165.58411621 231.80856293 166.82790039 231.81463562 168.109375 231.82089233 C169.26066895 231.81143585 170.41196289 231.80197937 171.59814453 231.79223633 C172.61279785 231.78984955 173.62745117 231.78746277 174.67285156 231.78500366 C177.22499865 231.59017965 177.22499865 231.59017965 179.0431366 230.16300964 C180.53788825 227.92003576 180.58974871 226.55948659 180.58764648 223.87255859 C180.59387527 222.95828598 180.60010406 222.04401337 180.60652161 221.10203552 C180.59731186 220.11759964 180.58810211 219.13316376 180.57861328 218.11889648 C180.57911179 217.10686661 180.57961029 216.09483673 180.5801239 215.05213928 C180.57778316 212.91283199 180.56805464 210.77352197 180.55151367 208.63427734 C180.52789931 205.35090658 180.53095551 202.06834631 180.53759766 198.78491211 C180.53202178 196.70873537 180.52491248 194.63256206 180.51611328 192.55639648 C180.51702469 191.56993637 180.5179361 190.58347626 180.51887512 189.56712341 C180.50934311 188.65600296 180.4998111 187.74488251 180.48999023 186.80615234 C180.48538284 186.00245712 180.48077545 185.1987619 180.47602844 184.37071228 C180.38718598 182.17053659 180.38718598 182.17053659 178.21533203 180.40405273 C175.59974735 180.09694931 175.59974735 180.09694931 172.51220703 180.14526367 C171.31756836 180.13895935 170.12292969 180.13265503 168.89208984 180.12615967 C167.59625977 180.13020813 166.30042969 180.13425659 164.96533203 180.13842773 C163.62776621 180.13708095 162.29020086 180.13514031 160.95263672 180.13262939 C158.14822737 180.12967873 155.34394534 180.1339738 152.53955078 180.14331055 C148.94128281 180.1547052 145.34331317 180.1481454 141.74505615 180.13616562 C138.98272445 180.12894537 136.2204637 180.13123567 133.45812988 180.1364212 C131.4849427 180.13840799 129.51175277 180.13232432 127.53857422 180.12615967 C126.34393555 180.13246399 125.14929688 180.13876831 123.91845703 180.14526367 C122.33532715 180.14765045 122.33532715 180.14765045 120.72021484 180.15008545 C118.04304863 180.15488744 118.04304863 180.15488744 116.21533203 182.40405273 Z M-143.78466797 211.40405273 C-143.85238203 233.98721337 -143.90764808 256.57029185 -143.94010448 279.15352821 C-143.95557494 289.63925434 -143.97666791 300.12491293 -144.01098633 310.6105957 C-144.04088317 319.74966011 -144.06024167 328.88867561 -144.06693345 338.02778757 C-144.07084522 342.86711391 -144.0800422 347.70630031 -144.10185814 352.54558182 C-144.12222774 357.10095848 -144.12850079 361.6561376 -144.12399101 366.21155548 C-144.124816 367.88288064 -144.13077885 369.55421244 -144.14228439 371.2254982 C-144.15723618 373.50951162 -144.15361216 375.7927817 -144.14543152 378.07681274 C-144.1481969 379.35441782 -144.15096228 380.6320229 -144.15381145 381.94834328 C-143.53522152 387.73922725 -141.18805369 391.5220454 -136.78466797 395.21655273 C-136.10404297 395.80049805 -135.42341797 396.38444336 -134.72216797 396.98608398 C-131.78729016 399.13398851 -129.30931756 399.52892156 -125.77937317 399.52430725 C-124.96749039 399.52568192 -124.1556076 399.52705658 -123.31912231 399.5284729 C-121.98879471 399.52307999 -121.98879471 399.52307999 -120.6315918 399.51757812 C-119.22642052 399.51779716 -119.22642052 399.51779716 -117.79286194 399.51802063 C-114.69245092 399.51732324 -111.59209976 399.50953891 -108.49169922 399.50170898 C-106.34364352 399.49984419 -104.1955874 399.49842058 -102.04753113 399.49742126 C-96.39058256 399.49360093 -90.73365962 399.48377475 -85.07672119 399.47271729 C-79.30554552 399.46249278 -73.53436571 399.45792141 -67.76318359 399.45288086 C-56.43700045 399.44215208 -45.11083634 399.42508143 -33.78466797 399.40405273 C-34.73831226 398.28297737 -35.69316682 397.16293143 -36.64852905 396.0433197 C-37.18013327 395.41948363 -37.71173748 394.79564756 -38.25945091 394.15290737 C-40.06099456 392.08720928 -41.96503073 390.17374139 -43.94873047 388.28295898 C-44.67833984 387.57461914 -45.40794922 386.8662793 -46.15966797 386.13647461 C-47.66177557 384.68782744 -49.16962752 383.24511347 -50.68310547 381.80834961 C-57.31000324 375.34007439 -61.27847714 369.17462821 -62.09716797 359.84155273 C-61.96570812 353.43587271 -60.09620909 347.15822939 -55.94873047 342.21655273 C-49.29081162 336.09432851 -43.64103563 335.17842534 -34.78466797 335.23608398 C-31.78466797 335.40405273 -31.78466797 335.40405273 -28.85107422 336.27124023 C-24.79065238 336.44710564 -23.52830039 335.11119391 -20.58447266 332.47973633 C-19.96991211 331.89788574 -19.35535156 331.31603516 -18.72216797 330.71655273 C-18.07022461 330.12438965 -17.41828125 329.53222656 -16.74658203 328.92211914 C-15.39975986 327.69455706 -14.06008765 326.45910625 -12.72753906 325.21606445 C-10.93462921 323.54391354 -9.12445675 321.89397182 -7.30419922 320.25170898 C1.66505371 312.12468917 10.72104977 303.80689176 18.44189453 294.46655273 C20.21533203 292.40405273 20.21533203 292.40405273 22.67626953 290.02905273 C26.58757885 285.98536063 29.11411633 283.29850515 29.42236328 277.52905273 C29.26743679 275.45055887 29.026836 273.39608539 28.76831055 271.328125 C27.97909056 264.8273425 28.78843556 260.00660827 32.21533203 254.40405273 C36.05276427 249.90667992 40.29424478 246.4288563 46.21533203 245.40405273 C54.5043002 244.77005234 61.76381832 244.74786931 68.39041138 250.19052124 C74.85887913 256.08099996 81.13480859 262.1443036 87.33251953 268.31811523 C87.83688663 268.81965496 88.34125374 269.32119469 88.86090469 269.83793259 C91.5201165 272.48231725 94.17657069 275.12943338 96.83056641 277.77905273 C99.55380038 280.4967656 102.28622662 283.20504059 105.02081108 285.91132545 C107.14320727 288.01504373 109.25881303 290.12549311 111.37265396 292.23780441 C112.37720018 293.23934514 113.38422159 294.23841016 114.39385605 295.23482132 C122.16467421 302.91091231 128.21430991 309.20925411 128.52783203 320.52905273 C128.45031487 326.97159026 127.09863115 333.02670517 122.82470703 338.03295898 C116.31722787 343.76981561 109.67713325 345.34504436 101.21533203 345.40405273 C99.66928285 345.11401088 98.12696275 344.802943 96.59033203 344.46655273 C93.3561267 343.96358409 92.44140666 344.25287611 89.65673828 346.11499023 C87.39483223 348.12635755 85.2707417 350.18343283 83.21533203 352.40405273 C87.17727418 357.30434961 91.40987077 361.47164099 96.12939453 365.63842773 C99.96158669 369.04311416 103.67675465 372.57166641 107.40283203 376.09155273 C113.80175784 382.13224166 120.21882633 388.15253906 126.6574707 394.15087891 C131.12765404 398.31637475 131.12765404 398.31637475 132.21533203 399.40405273 C133.68177738 399.50620723 135.15310289 399.5392387 136.62309265 399.54449463 C138.05096855 399.55305984 138.05096855 399.55305984 139.50769043 399.5617981 C140.56065308 399.56291595 141.61361572 399.56403381 142.69848633 399.56518555 C144.3521093 399.5726329 144.3521093 399.5726329 146.03913879 399.58023071 C149.70594902 399.59489986 153.37271596 399.60166312 157.03955078 399.60717773 C159.57965599 399.61292639 162.11976117 399.61868416 164.65986633 399.62445068 C169.31265841 399.63362782 173.96543741 399.63992186 178.61823624 399.64294744 C185.46272466 399.64742249 192.3070128 399.66494022 199.15144032 399.69394803 C205.07971231 399.71819925 211.00793461 399.72589335 216.93625832 399.72762299 C219.45724386 399.73065202 221.97822852 399.73868895 224.49918175 399.75180817 C228.0280103 399.76885748 231.55635208 399.76699052 235.08520508 399.76049805 C236.64946732 399.77432022 236.64946732 399.77432022 238.24533081 399.78842163 C244.7583141 399.75087382 249.31200163 399.05681429 254.29736328 394.50170898 C255.15394531 393.49430664 255.15394531 393.49430664 256.02783203 392.46655273 C256.61177734 391.7975293 257.19572266 391.12850586 257.79736328 390.43920898 C260.64285768 386.35517983 260.3391152 382.2248207 260.33558655 377.35528564 C260.33644097 376.64541339 260.3372954 375.93554113 260.33817571 375.20415759 C260.33982268 372.82577665 260.33432195 370.44746624 260.32885742 368.0690918 C260.32857536 366.36408998 260.32873366 364.65908805 260.32929993 362.9540863 C260.32958714 358.32429492 260.32370263 353.69452937 260.31672597 349.064744 C260.31047984 344.2267374 260.30988763 339.38873022 260.30870056 334.55072021 C260.30559097 325.38873696 260.29738257 316.22676563 260.28735107 307.06478763 C260.27617841 296.63442335 260.27067657 286.20405851 260.26565564 275.77368975 C260.25519967 254.31713595 260.23685879 232.86059848 260.21533203 211.40405273 C239.42533203 211.40405273 218.63533203 211.40405273 197.21533203 211.40405273 C196.88533203 217.01405273 196.55533203 222.62405273 196.21533203 228.40405273 C194.66211945 234.84988495 192.94665557 238.78275998 188.21533203 243.40405273 C187.19052734 243.77916992 186.16572266 244.15428711 185.10986328 244.54077148 C184.15466797 245.1556543 183.19947266 245.77053711 182.21533203 246.40405273 C181.57467371 249.40713864 181.30172901 251.81982626 181.21533203 254.84155273 C180.46214522 265.33169566 177.72092543 273.3764022 170.02783203 280.90405273 C162.5424939 286.9123509 154.59055097 289.10156149 145.06298828 288.72045898 C136.37427321 287.7550462 128.25335961 283.99631939 122.42236328 277.36499023 C116.94326893 269.70778677 115.2028632 262.40710034 115.02783203 253.09155273 C114.93016869 248.37211313 114.93016869 248.37211313 112.52001953 244.57592773 C110.46389798 243.37715576 108.37408329 242.40137057 106.21533203 241.40405273 C98.17677667 233.36549737 99.81399085 222.17991143 99.21533203 211.40405273 C72.15533203 211.40405273 45.09533203 211.40405273 17.21533203 211.40405273 C16.88533203 217.34405273 16.55533203 223.28405273 16.21533203 229.40405273 C14.65559673 236.68281746 12.45139372 240.3137327 6.21533203 244.40405273 C5.49345703 244.6528418 4.77158203 244.90163086 4.02783203 245.15795898 C3.42970703 245.56916992 2.83158203 245.98038086 2.21533203 246.40405273 C1.61710143 249.40899762 1.61710143 249.40899762 1.65283203 252.90405273 C1.17403741 263.09405128 -0.91022128 271.58605454 -7.78466797 279.40405273 C-15.78569848 286.3051299 -24.39691213 289.00377535 -34.86669922 288.68530273 C-43.5748953 287.84595853 -51.75465213 283.987208 -57.57763672 277.36499023 C-63.05673107 269.70778677 -64.7971368 262.40710034 -64.97216797 253.09155273 C-65.06983131 248.37211313 -65.06983131 248.37211313 -67.47998047 244.57592773 C-69.53630425 243.37703785 -71.62404375 242.39802411 -73.78466797 241.40405273 C-81.71513512 233.68228209 -80.18519646 221.5950683 -80.78466797 211.40405273 C-101.57466797 211.40405273 -122.36466797 211.40405273 -143.78466797 211.40405273 Z M-48.78466797 247.40405273 C-49.39057164 259.46514959 -49.39057164 259.46514959 -43.78466797 268.40405273 C-39.62076109 271.93432161 -36.25448455 273.30974555 -30.78466797 273.40405273 C-24.56766049 271.95658153 -19.8121504 269.13066703 -15.97216797 263.96655273 C-14.09950781 258.97443971 -14.09950781 258.97443971 -14.78466797 247.40405273 C-26.00466797 247.40405273 -37.22466797 247.40405273 -48.78466797 247.40405273 Z M131.21533203 247.40405273 C130.43843624 258.99425525 130.43843624 258.99425525 135.21533203 267.40405273 C139.43086479 271.39002678 143.27979194 273.40405273 149.21533203 273.40405273 C155.43429754 271.9414662 160.18167999 269.1389641 164.02783203 263.96655273 C165.90049219 258.97443971 165.90049219 258.97443971 165.21533203 247.40405273 C153.99533203 247.40405273 142.77533203 247.40405273 131.21533203 247.40405273 Z M45.21533203 263.40405273 C43.46430505 265.79181681 43.15196232 266.85937034 43.49517822 269.80941772 C44.28090655 272.64031052 45.13683426 273.90246247 47.11279297 276.04321289 C47.74697144 276.73263977 48.3811499 277.42206665 49.0345459 278.13238525 C53.25797429 282.53181938 57.53863005 286.87036994 61.85595703 291.17749023 C62.87024249 292.19245091 63.8843796 293.20755985 64.89837646 294.22280884 C67.00794437 296.33384012 69.11928281 298.4430795 71.23193359 300.55102539 C73.93764542 303.25100391 76.63879285 305.95549757 79.33865738 308.66132164 C81.42491242 310.75118797 83.51354037 312.83866966 85.60289764 314.92543411 C86.60037336 315.92224404 87.59711032 316.91979379 88.59308624 317.91810226 C89.98069855 319.30825438 91.3718614 320.69485972 92.76318359 322.08129883 C93.55259338 322.86991302 94.34200317 323.65852722 95.15533447 324.47103882 C97.9955583 327.13618381 99.67980413 328.33463245 103.59033203 328.84155273 C107.3221724 328.68833435 107.3221724 328.68833435 110.15283203 326.27905273 C112.63361432 322.82099257 112.79741453 321.57489758 112.21533203 317.40405273 C110.59217823 315.19317337 109.11020202 313.48666868 107.16992188 311.59814453 C106.63335968 311.05267471 106.09679749 310.5072049 105.54397583 309.94520569 C103.76936698 308.14931772 101.97386882 306.37612464 100.17626953 304.60327148 C98.93415845 303.35965783 97.69301152 302.11508051 96.45278931 300.86958313 C93.85105762 298.26351976 91.23904957 295.66835191 88.61914062 293.08056641 C85.26452079 289.76570578 81.93499699 286.42691156 78.61260033 283.07979107 C76.05329783 280.50629289 73.48197781 277.94508284 70.90678787 275.38749123 C69.67449747 274.16104416 68.445758 272.93101839 67.22068405 271.6973629 C65.50471743 269.97338917 63.77344263 268.26641549 62.03710938 266.56298828 C61.53503967 266.05236847 61.03296997 265.54174866 60.51568604 265.01565552 C55.50858302 260.17089131 50.83771198 258.87491333 45.21533203 263.40405273 Z M40.21533203 293.40405273 C38.41308411 295.44496846 36.65164558 297.50550691 34.90283203 299.59155273 C20.2984633 316.81800939 4.46175584 331.86552778 -12.78466797 346.40405273 C-11.37957698 349.58665124 -9.71545454 351.71753739 -7.25292969 354.1628418 C-6.17203568 355.24350922 -6.17203568 355.24350922 -5.06930542 356.3460083 C-3.90360519 357.49622467 -3.90360519 357.49622467 -2.71435547 358.66967773 C-1.91812775 359.46307556 -1.12190002 360.25647339 -0.30154419 361.07391357 C2.24109151 363.60535977 4.79059551 366.12976077 7.34033203 368.65405273 C9.06604956 370.3697389 10.79131558 372.08587935 12.51611328 373.80249023 C16.74396235 378.00829521 20.97747072 382.2083378 25.21533203 386.40405273 C28.79223475 384.73616851 30.79993848 382.90046206 33.40283203 379.90405273 C34.20076172 378.9978418 34.99869141 378.09163086 35.82080078 377.15795898 C36.61099609 376.24916992 37.40119141 375.34038086 38.21533203 374.40405273 C43.8430702 367.9360236 49.72720562 361.78875117 55.77783203 355.71655273 C56.48617187 355.00362061 57.19451172 354.29068848 57.92431641 353.55615234 C62.52524089 348.96855306 67.28160306 344.62994916 72.21533203 340.40405273 C73.05064453 339.6731543 73.88595703 338.94225586 74.74658203 338.18920898 C76.5694987 336.5941569 78.39241536 334.99910482 80.21533203 333.40405273 C75.84971018 328.18472058 71.26294671 323.30467636 66.44580078 318.50170898 C65.72419266 317.77914413 65.00258453 317.05657928 64.2591095 316.31211853 C62.74680286 314.79913582 61.23325045 313.28739738 59.71850586 311.77685547 C57.38880216 309.4525554 55.06454352 307.12290473 52.74072266 304.79272461 C51.26773632 303.32039823 49.79444026 301.84838164 48.32080078 300.37670898 C47.27402412 299.32689598 47.27402412 299.32689598 46.20610046 298.25587463 C45.56485733 297.61778366 44.9236142 296.97969269 44.26293945 296.32226562 C43.69701584 295.7571376 43.13109222 295.19200958 42.54801941 294.60975647 C41.39126626 293.29223696 41.39126626 293.29223696 40.21533203 293.40405273 Z M-44.78466797 353.40405273 C-46.53569495 355.79181681 -46.84803768 356.85937034 -46.50482178 359.80941772 C-45.71909345 362.64031052 -44.86316574 363.90246247 -42.88720703 366.04321289 C-42.25302856 366.73263977 -41.6188501 367.42206665 -40.9654541 368.13238525 C-36.74202571 372.53181938 -32.46136995 376.87036994 -28.14404297 381.17749023 C-27.12975751 382.19245091 -26.1156204 383.20755985 -25.10162354 384.22280884 C-22.99205563 386.33384012 -20.88071719 388.4430795 -18.76806641 390.55102539 C-16.06235458 393.25100391 -13.36120715 395.95549757 -10.66134262 398.66132164 C-8.57508758 400.75118797 -6.48645963 402.83866966 -4.39710236 404.92543411 C-3.39962664 405.92224404 -2.40288968 406.91979379 -1.40691376 407.91810226 C-0.01930145 409.30825438 1.3718614 410.69485972 2.76318359 412.08129883 C3.55259338 412.86991302 4.34200317 413.65852722 5.15533447 414.47103882 C8.053803 417.19083816 9.63531083 418.35132353 13.65283203 418.71655273 C17.10324491 418.60955817 17.10324491 418.60955817 19.59033203 417.34155273 C22.16739619 414.26889931 22.41220281 412.40709191 22.21533203 408.40405273 C21.06519295 406.60052588 21.06519295 406.60052588 19.40307617 404.88232422 C18.76129425 404.18195038 18.11951233 403.48157654 17.45828247 402.75997925 C13.0272299 398.10573721 8.54615282 393.50457199 4.02392578 388.93920898 C3.23389506 388.14119275 3.23389506 388.14119275 2.42790413 387.32705498 C-0.35096697 384.52167956 -3.13334913 381.719836 -5.91821289 378.92041016 C-8.2130354 376.61216954 -10.50033501 374.29684103 -12.78149414 371.97509766 C-15.553605 369.15370525 -18.33775824 366.34475359 -21.13105583 363.54434013 C-22.18823801 362.4804552 -23.24116899 361.41232768 -24.28964424 360.33986092 C-25.75375318 358.84412792 -27.2328624 357.36494807 -28.71655273 355.88867188 C-29.55259537 355.04454239 -30.388638 354.2004129 -31.25001526 353.33070374 C-36.08886878 349.65257381 -40.08020601 349.61434727 -44.78466797 353.40405273 Z M70.21533203 364.40405273 C65.92533203 368.69405273 61.63533203 372.98405273 57.21533203 377.40405273 C58.78376691 380.54092248 59.69511023 382.14511667 61.98095703 384.54858398 C62.53396484 385.13510742 63.08697266 385.72163086 63.65673828 386.32592773 C64.25357422 386.94983398 64.85041016 387.57374023 65.46533203 388.21655273 C66.74149617 389.5666974 68.01753437 390.91696111 69.29345703 392.26733398 C69.94636719 392.95520996 70.59927734 393.64308594 71.27197266 394.35180664 C74.27117595 397.51905574 77.24264948 400.71193584 80.21533203 403.90405273 C81.37923167 405.15160053 82.54329478 406.39899583 83.70751953 407.64624023 C84.28469727 408.26466797 84.861875 408.8830957 85.45654297 409.52026367 C87.23228766 411.42221342 89.00886805 413.32337937 90.78564453 415.22436523 C96.25840319 421.08122978 101.72294726 426.94489479 107.15283203 432.84155273 C111.60704053 437.67763578 116.09112374 442.48481439 120.59033203 447.27905273 C121.53199219 448.28258789 121.53199219 448.28258789 122.49267578 449.30639648 C123.76461116 450.66173746 125.03658388 452.01704339 126.30859375 453.37231445 C129.42541144 456.69346129 132.54084716 460.01587655 135.65283203 463.34155273 C136.23597168 463.96304199 136.81911133 464.58453125 137.41992188 465.22485352 C140.60619324 468.6328901 143.69020276 472.10081741 146.71533203 475.65405273 C150.76516857 480.21011884 153.95945618 482.11297198 160.09033203 482.90405273 C164.9894747 482.69717915 168.56414995 480.56841054 172.21533203 477.40405273 C175.86174297 472.50418803 175.90938873 467.29361961 175.21533203 461.40405273 C173.59221218 457.04191812 170.31545526 454.60571921 166.84033203 451.67358398 C163.46429179 448.75471586 160.21853851 445.70846809 156.96533203 442.65405273 C150.42323084 436.52442887 143.8339154 430.45099058 137.21533203 424.40405273 C135.2145954 422.57152254 133.21496917 420.73778253 131.21533203 418.90405273 C130.21535229 417.98736397 129.21535231 417.07069728 128.21533203 416.15405273 C126.21533203 414.3207194 124.21533203 412.48738607 122.21533203 410.65405273 C121.7204126 410.2003833 121.22549316 409.74671387 120.71557617 409.27929688 C119.71473535 408.36184588 118.71392158 407.44436537 117.71313477 406.52685547 C115.22621942 404.24694722 112.73884888 401.96753981 110.25048828 399.68920898 C105.61140438 395.44078478 100.97662083 391.18789584 96.35595703 386.91943359 C95.26658629 385.91322464 94.17674611 384.90752366 93.08642578 383.90234375 C90.36222401 381.39056095 87.64445522 378.8724432 84.93798828 376.34155273 C83.88463911 375.36234707 82.83125507 374.38317893 81.77783203 373.40405273 C80.85099609 372.53780273 79.92416016 371.67155273 78.96923828 370.77905273 C75.80949388 367.95533903 75.80949388 367.95533903 70.21533203 364.40405273 Z " fill="#000000" transform="translate(197.78466796875,6.595947265625)"/>
<path d="M0 0 C1.03025299 -0.00852997 2.06050598 -0.01705994 3.12197876 -0.02584839 C4.80137291 -0.02448883 4.80137291 -0.02448883 6.51469421 -0.02310181 C7.70226318 -0.02981903 8.88983215 -0.03653625 10.11338806 -0.04345703 C13.36356548 -0.05918363 16.61358939 -0.06581115 19.86380029 -0.0670886 C21.89730114 -0.06851267 23.93077541 -0.07278714 25.96426964 -0.07808304 C33.06686979 -0.09657433 40.169395 -0.10475492 47.27201843 -0.10317993 C53.87894122 -0.10197927 60.48553694 -0.12306877 67.09237701 -0.15466726 C72.77579854 -0.18087468 78.45911355 -0.19154534 84.14259499 -0.19026911 C87.53214444 -0.18976072 90.92140318 -0.1953752 94.31089211 -0.21662521 C98.09524688 -0.23624981 101.87876305 -0.23045972 105.66313171 -0.21841431 C106.77665512 -0.22965332 107.89017853 -0.24089233 109.03744507 -0.25247192 C117.08436768 -0.18748238 122.3641102 1.39244602 128.53300476 6.57992554 C135.34901469 14.72127073 136.01191929 21.83355076 136.09550476 32.14242554 C136.12450867 33.32707397 136.15351257 34.51172241 136.18339539 35.73226929 C136.19177429 36.87566772 136.2001532 38.01906616 136.20878601 39.19711304 C136.23065979 40.76308228 136.23065979 40.76308228 136.25297546 42.36068726 C135.64814067 46.10155121 134.4516995 47.59839286 131.78300476 50.26742554 C128.94376373 50.89383793 128.94376373 50.89383793 125.59635925 50.89561462 C124.32610397 50.90826859 123.05584869 50.92092255 121.74710083 50.93395996 C120.34174703 50.92264393 118.93639728 50.91081645 117.53105164 50.89852905 C116.04927717 50.90366777 114.56750881 50.9109487 113.08575439 50.92021179 C109.06289388 50.93874053 105.04069535 50.92577845 101.01786232 50.90612149 C96.80899397 50.88974557 92.60016791 50.8985464 88.39128113 50.90364075 C81.32301753 50.90816291 74.25501846 50.89228445 67.18681335 50.86434937 C59.01374204 50.83229677 50.84114785 50.83231271 42.66804266 50.84956414 C34.80738178 50.86542525 26.9468959 50.85869839 19.08624268 50.84162712 C15.74019719 50.8347526 12.39429182 50.83579314 9.04824829 50.84317207 C5.10824685 50.85083058 1.1687887 50.83872367 -2.77112007 50.81132317 C-4.21750335 50.80443357 -5.66393732 50.80434757 -7.11031914 50.8115387 C-9.08366799 50.82021962 -11.05708079 50.80185595 -13.03034973 50.78208923 C-14.68731495 50.77787885 -14.68731495 50.77787885 -16.37775421 50.77358341 C-19.88809069 50.14778784 -21.07052932 49.06599586 -23.21699524 46.26742554 C-24.05451078 41.76822304 -23.8193219 37.2107776 -23.77949524 32.64242554 C-23.8033429 31.40879272 -23.82719055 30.17515991 -23.85176086 28.90414429 C-23.83921409 21.03313398 -22.91039914 14.75322623 -18.21699524 8.26742554 C-12.8975302 3.24021093 -7.45762206 0.02802059 0 0 Z M-5.21699524 19.26742554 C-8.03688683 24.16185273 -8.03688683 24.16185273 -7.21699524 34.26742554 C34.69300476 34.26742554 76.60300476 34.26742554 119.78300476 34.26742554 C119.9688269 25.54670004 119.9688269 25.54670004 116.78300476 18.26742554 C113.83823173 16.35905355 111.51672082 16.01538585 108.04571533 16.00672913 C107.09664307 15.99964432 106.1475708 15.99255951 105.16973877 15.98526001 C104.13534164 15.98773743 103.10094452 15.99021484 102.03520203 15.99276733 C100.94049591 15.9876564 99.84578979 15.98254547 98.71791077 15.97727966 C95.09502208 15.96336626 91.47232325 15.96434174 87.84941101 15.96664429 C85.33361744 15.96275841 82.81782453 15.95842397 80.30203247 15.95365906 C75.02703737 15.94619315 69.75209151 15.9463528 64.47709656 15.95175171 C58.38425513 15.95779189 52.29164462 15.94547844 46.19884259 15.92418164 C40.3319422 15.90443033 34.4651322 15.9013932 28.59820366 15.90491676 C26.10430802 15.90440287 23.61040874 15.89915245 21.11653328 15.88910484 C17.63090793 15.87678515 14.14581863 15.8835057 10.66020203 15.89511108 C9.62782913 15.88746735 8.59545624 15.87982361 7.53179932 15.87194824 C0.62299472 15.85478273 0.62299472 15.85478273 -5.21699524 19.26742554 Z " fill="#000000" transform="translate(91.21699523925781,452.7325744628906)"/>
</svg>
