<?xml version="1.0" encoding="UTF-8"?>
<svg version="1.1" xmlns="http://www.w3.org/2000/svg" width="512" height="512">
<path d="M0 0 C3.47775179 1.51553404 5.9557984 3.5773456 8.75 6.125 C9.94882812 7.21167969 9.94882812 7.21167969 11.171875 8.3203125 C11.77515625 8.87460938 12.3784375 9.42890625 13 10 C12.41992188 10.86753906 11.83984375 11.73507813 11.2421875 12.62890625 C10.49450008 13.75241017 9.74710995 14.87611199 9 16 C8.36320313 16.95777344 7.72640625 17.91554688 7.0703125 18.90234375 C-6.27339532 39.72174331 -11.3072968 62.82243859 -6.41064453 87.25512695 C-2.95826304 102.76390201 4.4252295 117.17320749 15 129 C15.73863281 129.83273438 16.47726563 130.66546875 17.23828125 131.5234375 C30.74116627 145.8882088 48.8338609 154.16677218 68 158 C68 184.07 68 210.14 68 237 C55.13 237 42.26 237 29 237 C29 244.92 29 252.84 29 261 C41.87 261 54.74 261 68 261 C68 290.04 68 319.08 68 349 C64.63860857 347.65544343 61.68404867 346.37682824 58.54296875 344.671875 C57.26256714 343.97698975 57.26256714 343.97698975 55.95629883 343.26806641 C55.04259521 342.76710449 54.1288916 342.26614258 53.1875 341.75 C52.23061279 341.22712402 51.27372559 340.70424805 50.2878418 340.16552734 C41.90214041 335.55396887 33.62686277 330.76157778 25.38549805 325.89746094 C18.99358792 322.12980674 12.53548965 318.51281576 6 315 C4.97489076 322.65233349 4.24722041 330.64583046 7 338 C11.85741258 343.44911242 19.24632946 345.84729897 25.83886719 348.59570312 C31.04116475 350.90676395 35.82362353 353.87014495 40.6875 356.8125 C42.67635418 357.97873136 44.66728386 359.14142963 46.66015625 360.30078125 C49.97460964 362.23303259 53.28715133 364.16826518 56.59326172 366.11474609 C59.66048832 367.91780887 62.74012817 369.69796958 65.82827759 371.4649353 C67.01691333 372.14969043 68.20141266 372.84168136 69.38143921 373.54116821 C71.0270474 374.51519663 72.68905634 375.46135268 74.3515625 376.40625 C75.29854004 376.95603516 76.24551758 377.50582031 77.22119141 378.07226562 C80.91733064 379.30626045 82.48956651 378.58636912 86 377 C87.93543355 376.00585575 89.84374535 374.95770361 91.7265625 373.8671875 C92.82742188 373.23353271 93.92828125 372.59987793 95.0625 371.94702148 C96.25003867 371.25641414 97.43753767 370.56573858 98.625 369.875 C99.86165246 369.16097358 101.09863751 368.4475229 102.3359375 367.73461914 C104.91695179 366.24696326 107.49650455 364.75681613 110.07519531 363.26513672 C113.92559422 361.04012974 117.78536156 358.83181474 121.6484375 356.62890625 C122.26852692 356.27526001 122.88861633 355.92161377 123.52749634 355.55725098 C125.35157684 354.51718062 127.17578602 353.47733623 129 352.4375 C131.22956528 351.16606333 133.45874782 349.8939552 135.6875 348.62109375 C137.24984375 347.72946533 137.24984375 347.72946533 138.84375 346.81982422 C143.13370237 344.34633219 147.3878486 341.81311811 151.63671875 339.26977539 C154 338 154 338 156 338 C156 330.41 156 322.82 156 315 C141.61459195 322.92529425 127.2791999 330.90677322 113.1328125 339.25439453 C94.89079877 350 94.89079877 350 92 350 C92 320.63 92 291.26 92 261 C105.53 261 119.06 261 133 261 C133 253.08 133 245.16 133 237 C119.47 237 105.94 237 92 237 C92 211.26 92 185.52 92 159 C95.15820832 157.94726389 98.32275004 156.90768347 101.5234375 155.9921875 C115.24683076 152.06205566 128.21902348 146.58309024 139 137 C143.13621084 140.3810038 146.81316569 143.66590534 150 148 C146.7458927 156.79005814 132.71627028 162.42016136 124.77734375 166.39453125 C119.64086157 168.57766897 114.29476964 170.23507679 109 172 C108.67 188.17 108.34 204.34 108 221 C121.53 221 135.06 221 149 221 C149 239.48 149 257.96 149 277 C135.47 277 121.94 277 108 277 C108.33 291.85 108.66 306.7 109 322 C112.403125 319.999375 115.80625 317.99875 119.3125 315.9375 C129.70271982 309.85313704 140.18517918 303.95348738 150.7355957 298.15209961 C156.59984815 294.92101237 162.38039524 291.6120328 168.06103516 288.06640625 C170 287 170 287 172 287 C172.20892707 294.71877336 172.36864028 302.43725234 172.46630955 310.15821266 C172.5132002 313.74402645 172.57673688 317.32790051 172.67895508 320.91259766 C172.77706869 324.3751959 172.83061876 327.83593483 172.85389519 331.29981613 C172.87851477 333.25792634 172.94873008 335.21529205 173.01966858 337.17227173 C173.02458653 345.85956024 173.02458653 345.85956024 170.14907837 349.06021118 C167.83251473 350.63513162 165.54706182 351.84128324 163 353 C161.43233887 353.92449951 161.43233887 353.92449951 159.83300781 354.86767578 C158.88264648 355.3882959 157.93228516 355.90891602 156.953125 356.4453125 C155.87232666 357.04077881 154.79152832 357.63624512 153.67797852 358.24975586 C151.98112915 359.17800171 151.98112915 359.17800171 150.25 360.125 C147.82561871 361.46006076 145.40301454 362.79833091 142.98046875 364.13671875 C142.38012314 364.46799271 141.77977753 364.79926666 141.16123962 365.14057922 C133.36733478 369.44582759 125.65031141 373.8837255 117.93017578 378.31933594 C114.50696068 380.28279309 111.07995558 382.23954422 107.65234375 384.1953125 C106.37231373 384.92586136 105.09228443 385.65641149 103.81225586 386.38696289 C101.92183294 387.46584138 100.03135216 388.54461763 98.14065552 389.62301636 C96.38514017 390.62445948 94.63006245 391.62666963 92.875 392.62890625 C91.86179687 393.20713135 90.84859375 393.78535645 89.8046875 394.38110352 C86.98422088 395.9471539 86.98422088 395.9471539 84.4453125 397.83569336 C82 399 82 399 79.52563477 398.36962891 C78.27544556 397.6916626 78.27544556 397.6916626 77 397 C76.14140381 396.55446777 75.28280762 396.10893555 74.39819336 395.64990234 C73.47143799 395.13379395 72.54468262 394.61768555 71.58984375 394.0859375 C70.53200684 393.49804443 69.47416992 392.91015137 68.38427734 392.30444336 C67.24684082 391.66772705 66.1094043 391.03101074 64.9375 390.375 C63.73393301 389.70377442 62.53031883 389.03263343 61.32666016 388.36157227 C51.64347436 382.95439285 42.01230883 377.45729323 32.39160156 371.93994141 C21.52062516 365.70816663 10.59189458 359.5831748 -0.35473633 353.48535156 C-3.5797487 351.67446321 -6.78867137 349.83504493 -10 348 C-10 327.87 -10 307.74 -10 287 C-6.23589007 288.50564397 -2.96459936 290.03201369 0.55078125 291.984375 C1.63085449 292.5834668 2.71092773 293.18255859 3.82373047 293.79980469 C4.97502441 294.44336914 6.12631836 295.08693359 7.3125 295.75 C8.19714935 296.24288513 8.19714935 296.24288513 9.09967041 296.74572754 C23.19819913 304.60205439 37.16020779 312.69612467 51 321 C51.33 306.48 51.66 291.96 52 277 C39.13 277 26.26 277 13 277 C13 258.52 13 240.04 13 221 C25.87 221 38.74 221 52 221 C52 204.5 52 188 52 171 C48.37 170.01 44.74 169.02 41 168 C38.25603669 166.85904818 35.68720647 165.72801484 33.0625 164.375 C32.38429199 164.02945068 31.70608398 163.68390137 31.00732422 163.32788086 C24.44781722 159.88132097 18.70797677 155.73623251 13 151 C12.15050781 150.31421875 11.30101562 149.6284375 10.42578125 148.921875 C-5.14985047 135.71804277 -17.8894732 116.15385154 -22 96 C-22 94.68 -22 93.36 -22 92 C-28.05115473 92.04412459 -34.10126324 92.1139288 -40.15185547 92.20751953 C-42.21003898 92.23574049 -44.2683311 92.25694941 -46.32666016 92.27099609 C-49.28604785 92.2924099 -52.2441282 92.33905221 -55.203125 92.390625 C-56.58301605 92.39246796 -56.58301605 92.39246796 -57.99078369 92.39434814 C-63.20214737 92.45987923 -63.20214737 92.45987923 -67.61230469 95.03808594 C-68.07024414 95.68551758 -68.52818359 96.33294922 -69 97 C-66.70633671 104.17869799 -64.00103778 111.12349801 -61.140625 118.09375 C-60.67315857 119.23928345 -60.20569214 120.38481689 -59.72406006 121.56506348 C-58.23539789 125.21114867 -56.74274215 128.85558358 -55.25 132.5 C-54.26276222 134.91656103 -53.27578078 137.3332268 -52.2890625 139.75 C-47.21372626 152.1753401 -42.11758338 164.59200454 -37 177 C-29.74 177.33 -22.48 177.66 -15 178 C-15 183.28 -15 188.56 -15 194 C-17.64 194.33 -20.28 194.66 -23 195 C-23.14695313 195.83660156 -23.29390625 196.67320312 -23.4453125 197.53515625 C-27.21846545 217.11651898 -35.41787291 234.11721542 -51.96875 246.16015625 C-69.77538381 257.72150223 -89.83494147 261.52730758 -110.625 257.875 C-129.46584248 253.61101986 -145.46475733 243.2278469 -156.1875 227.0625 C-161.92187773 217.32552661 -165.71081113 206.23224328 -167 195 C-169.64 194.67 -172.28 194.34 -175 194 C-175 188.72 -175 183.44 -175 178 C-167.74 177.67 -160.48 177.34 -153 177 C-151.02044078 172.17483317 -151.02044078 172.17483317 -149.04090881 167.34965515 C-147.30924265 163.12863088 -145.57744827 158.90765927 -143.84545898 154.68676758 C-140.40928997 146.31241551 -136.97388926 137.93775255 -133.54263306 129.56138611 C-132.07038608 125.96745543 -130.59759111 122.37374944 -129.12475586 118.78005981 C-128.41679822 117.0522063 -127.70911575 115.32424001 -127.00170898 113.59616089 C-126.01354671 111.18231403 -125.02445306 108.7688508 -124.03515625 106.35546875 C-123.7410939 105.63643372 -123.44703156 104.91739868 -123.14405823 104.17657471 C-121.11386618 99.22773236 -121.11386618 99.22773236 -120 97 C-120.99 96.67 -121.98 96.34 -123 96 C-130.82863781 87.19278246 -133.66308329 77.95196572 -133.34765625 66.30859375 C-132.07435672 54.19078815 -126.39071763 45.2531369 -117.21484375 37.5390625 C-109.22321771 31.98579855 -99.57452319 30.07887379 -90 31 C-81.35099244 32.81483972 -72.883706 35.64220053 -67.50708008 43.05957031 C-63.65996337 46.03716147 -59.94291684 45.60304462 -55.203125 45.609375 C-54.25435486 45.62591125 -53.30558472 45.64244751 -52.32806396 45.65948486 C-49.30197712 45.70801439 -46.27639299 45.72934695 -43.25 45.75 C-41.19658922 45.77815551 -39.14320192 45.80808235 -37.08984375 45.83984375 C-32.05993721 45.91377484 -27.03031056 45.96331933 -22 46 C-21.78960083 44.13371948 -21.78960083 44.13371948 -21.57495117 42.22973633 C-19.81266251 26.59790186 -9.44464654 12.02618326 0 0 Z M-113.625 56.9921875 C-117.01616691 61.94406192 -117.71915348 67.1029415 -117 73 C-115.48817893 78.97003795 -113.12672268 83.92316769 -107.87109375 87.4140625 C-101.93269646 90.7410519 -96.76705085 92.271449 -90 91 C-82.93743329 88.81645497 -78.89207624 85.44965436 -75.05859375 79.18359375 C-72.51691196 73.94078887 -72.09796852 68.34383645 -73.61328125 62.7265625 C-76.37500937 55.59716744 -81.12631756 50.8561395 -88 47.5625 C-98.82172077 45.53342735 -106.72050769 48.32960687 -113.625 56.9921875 Z M-58 62 C-58 66.62 -58 71.24 -58 76 C-47.11 76 -36.22 76 -25 76 C-25 71.38 -25 66.76 -25 62 C-35.89 62 -46.78 62 -58 62 Z M-106 106 C-112.23982261 120.4029604 -118.29360494 134.87637388 -124.22387695 149.40942383 C-125.58874088 152.75175978 -126.95934581 156.09170773 -128.33007812 159.43164062 C-129.20086646 161.56235878 -130.07132247 163.69321279 -130.94140625 165.82421875 C-131.35064835 166.81983322 -131.75989044 167.81544769 -132.18153381 168.8412323 C-132.73858253 170.21085869 -132.73858253 170.21085869 -133.30688477 171.6081543 C-133.79911278 172.81220161 -133.79911278 172.81220161 -134.30128479 174.04057312 C-135.11195863 175.96725575 -135.11195863 175.96725575 -135 178 C-108.6 178 -82.2 178 -55 178 C-57.24616132 171.14669381 -57.24616132 171.14669381 -59.77416992 164.44018555 C-60.08847458 163.66454758 -60.40277924 162.88890961 -60.72660828 162.08976746 C-61.05788223 161.28026138 -61.38915619 160.47075531 -61.73046875 159.63671875 C-62.08458328 158.76465286 -62.43869781 157.89258698 -62.80354309 156.99409485 C-63.92889781 154.22415121 -65.05803437 151.45576958 -66.1875 148.6875 C-67.29366553 145.96962528 -68.3990186 143.25142502 -69.50320435 140.53274536 C-70.23623804 138.73150669 -70.97212662 136.93142714 -71.71090698 135.13253784 C-73.5998219 130.51996911 -75.42634268 125.89503377 -77.15869141 121.22119141 C-77.50853592 120.29522659 -77.85838043 119.36926178 -78.21882629 118.41523743 C-78.88396316 116.64828563 -79.53327247 114.87527082 -80.16435242 113.09587097 C-80.98592148 110.93534319 -81.7763276 108.96078274 -83 107 C-85.40403417 105.7904614 -85.40403417 105.7904614 -88 106 C-89.0988855 105.94380493 -89.0988855 105.94380493 -90.2199707 105.88647461 C-91.31184692 105.89432983 -91.31184692 105.89432983 -92.42578125 105.90234375 C-93.14419189 105.90484131 -93.86260254 105.90733887 -94.6027832 105.90991211 C-95.49698975 105.91901611 -96.39119629 105.92812012 -97.3125 105.9375 C-98.86222075 105.94899879 -100.41194431 105.96012376 -101.96166992 105.97094727 C-103.30777995 105.98063151 -104.65388997 105.99031576 -106 106 Z M-150 194 C-149.25501267 201.44987333 -148.78945798 205.78414506 -145.5 212 C-145.14325195 212.68642578 -144.78650391 213.37285156 -144.41894531 214.08007812 C-136.77201183 228.22923443 -124.56096988 237.51749473 -109.1875 242.1484375 C-94.61050862 245.51181846 -79.35703574 243.62127895 -66.46875 235.98046875 C-56.56930924 229.70886043 -49.93679854 222.35772708 -44.5625 212.0625 C-44.21985107 211.41853271 -43.87720215 210.77456543 -43.52416992 210.11108398 C-40.69495978 204.34809182 -40.69812856 200.98128559 -40 194 C-76.3 194 -112.6 194 -150 194 Z " fill="#000000" transform="translate(175,75)"/>
<path d="M0 0 C15.54552319 13.8226268 28.83176608 32.15883041 33 53 C33 54.32 33 55.64 33 57 C38.996577 57.03014889 44.99067964 57.01451204 50.98706055 56.95727539 C53.02477894 56.94417265 55.06261634 56.94336743 57.1003418 56.95532227 C60.03812727 56.97038783 62.9726385 56.94057062 65.91015625 56.90234375 C66.81459976 56.91659897 67.71904327 56.93085419 68.65089417 56.94554138 C73.70430457 56.83105345 76.34640591 56.19942759 79.96875 52.55029297 C80.76164429 51.61768143 80.76164429 51.61768143 81.57055664 50.66622925 C86.55645431 44.85442252 95.94941874 42.47375637 103.33203125 41.78125 C113.7766693 41.38649203 122.978344 44.27121163 131 51 C138.56070624 58.02257768 143.36823543 66.44989556 144.23828125 76.84765625 C144.47809806 87.23551049 142.2953688 95.67386707 136 104 C135.46375 104.78375 134.9275 105.5675 134.375 106.375 C133.694375 107.179375 133.694375 107.179375 133 108 C132.34 108 131.68 108 131 108 C131.36013184 108.86012695 131.72026367 109.72025391 132.09130859 110.60644531 C142.86436697 136.34867399 153.45945757 162.16178602 164 188 C171.26 188.33 178.52 188.66 186 189 C186 194.28 186 199.56 186 205 C183.36 205.33 180.72 205.66 178 206 C177.85304688 206.83660156 177.70609375 207.67320312 177.5546875 208.53515625 C173.78153455 228.11651898 165.58212709 245.11721542 149.03125 257.16015625 C131.22461619 268.72150223 111.16505853 272.52730758 90.375 268.875 C71.53415752 264.61101986 55.53524267 254.2278469 44.8125 238.0625 C39.07812227 228.32552661 35.28918887 217.23224328 34 206 C31.36 205.67 28.72 205.34 26 205 C26 199.72 26 194.44 26 189 C33.26 188.67 40.52 188.34 48 188 C48.969375 185.63714844 49.93875 183.27429688 50.9375 180.83984375 C51.27467041 180.01808151 51.61184082 179.19631927 51.95922852 178.34965515 C53.69095489 174.12897437 55.42209473 169.90805423 57.15234375 165.68676758 C60.58730545 157.30805722 64.0257598 148.93086963 67.4831543 140.56138611 C68.96722289 136.96832261 70.44879095 133.37423049 71.93017578 129.78005981 C72.6434381 128.05157472 73.35795687 126.32360756 74.07373047 124.59616089 C75.07313224 122.18388108 76.06827214 119.76988463 77.0625 117.35546875 C77.51133545 116.2769162 77.51133545 116.2769162 77.96923828 115.17657471 C79.48477798 111.70332518 79.48477798 111.70332518 80 108 C78.65048622 105.71050519 78.65048622 105.71050519 76 104 C72.74230029 103.37545876 69.51274353 103.39504526 66.203125 103.390625 C65.25435486 103.37408875 64.30558472 103.35755249 63.32806396 103.34051514 C60.30197712 103.29198561 57.27639299 103.27065305 54.25 103.25 C52.19658922 103.22184449 50.14320192 103.19191765 48.08984375 103.16015625 C43.05993721 103.08622516 38.03031056 103.03668067 33 103 C32.85755859 104.2478125 32.71511719 105.495625 32.56835938 106.78125 C30.91451732 121.26920574 21.09508112 138.64607064 11 149 C5.59510481 147.47987323 2.01507372 143.72614782 -2 140 C-0.58909012 136.92301569 1.18008762 134.18394065 3.07177734 131.38232422 C16.73872214 110.99801659 22.24590875 87.08799319 17.875 62.8125 C13.31982275 40.12911887 0.01302633 20.1522816 -19 7 C-39.83334547 -6.78407511 -63.98549484 -11.98576572 -88.64746094 -7.48291016 C-102.67536548 -4.59594305 -115.32477816 1.84673588 -126.30859375 10.99609375 C-126.86675781 11.32738281 -127.42492187 11.65867188 -128 12 C-131.78080393 10.73973202 -132.77295425 9.06453466 -135.1875 5.9375 C-135.90292969 5.01839844 -136.61835938 4.09929687 -137.35546875 3.15234375 C-137.89816406 2.44207031 -138.44085938 1.73179688 -139 1 C-134.9429418 -8.79216664 -119.29054877 -14.87064285 -110 -19 C-73.15654319 -33.38054139 -29.93343492 -25.58577663 0 0 Z M87.375 67.9921875 C83.98383309 72.94406192 83.28084652 78.1029415 84 84 C85.51182107 89.97003795 87.87327732 94.92316769 93.12890625 98.4140625 C99.06730354 101.7410519 104.23294915 103.271449 111 102 C118.06256671 99.81645497 122.10792376 96.44965436 125.94140625 90.18359375 C128.48308804 84.94078887 128.90203148 79.34383645 127.38671875 73.7265625 C124.62499063 66.59716744 119.87368244 61.8561395 113 58.5625 C102.17827923 56.53342735 94.27949231 59.32960687 87.375 67.9921875 Z M36 73 C36 77.62 36 82.24 36 87 C46.89 87 57.78 87 69 87 C69 82.38 69 77.76 69 73 C58.11 73 47.22 73 36 73 Z M95 117 C90.54406066 126.45525429 86.64904156 136.1193124 82.75 145.8125 C81.42143007 149.10711694 80.09155612 152.40120699 78.76171875 155.6953125 C78.43739365 156.49940048 78.11306854 157.30348846 77.77891541 158.13194275 C75.87719776 162.84298376 73.95872582 167.54644633 72.01953125 172.2421875 C71.3848291 173.77975708 71.3848291 173.77975708 70.73730469 175.34838867 C69.97382626 177.19346155 69.20769669 179.03744043 68.43847656 180.88012695 C66.65719078 184.80769895 66.65719078 184.80769895 66 189 C92.4 189 118.8 189 146 189 C143.75383868 182.14669381 143.75383868 182.14669381 141.22583008 175.44018555 C140.91152542 174.66454758 140.59722076 173.88890961 140.27339172 173.08976746 C139.94211777 172.28026138 139.61084381 171.47075531 139.26953125 170.63671875 C138.91541672 169.76465286 138.56130219 168.89258698 138.19645691 167.99409485 C137.07110219 165.22415121 135.94196563 162.45576958 134.8125 159.6875 C133.70633447 156.96962528 132.6009814 154.25142502 131.49679565 151.53274536 C130.76376196 149.73150669 130.02787338 147.93142714 129.28909302 146.13253784 C127.4001781 141.51996911 125.57365732 136.89503377 123.84130859 132.22119141 C123.49146408 131.29522659 123.14161957 130.36926178 122.78117371 129.41523743 C122.11603684 127.64828563 121.46672753 125.87527082 120.83564758 124.09587097 C120.01407852 121.93534319 119.2236724 119.96078274 118 118 C115.59596583 116.7904614 115.59596583 116.7904614 113 117 C111.9011145 116.94380493 111.9011145 116.94380493 110.7800293 116.88647461 C109.68815308 116.89432983 109.68815308 116.89432983 108.57421875 116.90234375 C107.77822266 116.90556641 106.98222656 116.90878906 106.16210938 116.91210938 C104.93717773 116.92467773 104.93717773 116.92467773 103.6875 116.9375 C102.43356445 116.94426758 102.43356445 116.94426758 101.15429688 116.95117188 C99.10283351 116.96289452 97.05140727 116.98082797 95 117 Z M51 205 C51.74498733 212.44987333 52.21054202 216.78414506 55.5 223 C55.85674805 223.68642578 56.21349609 224.37285156 56.58105469 225.08007812 C64.22798817 239.22923443 76.43903012 248.51749473 91.8125 253.1484375 C106.38949138 256.51181846 121.64296426 254.62127895 134.53125 246.98046875 C144.43069076 240.70886043 151.06320146 233.35772708 156.4375 223.0625 C156.78014893 222.41853271 157.12279785 221.77456543 157.47583008 221.11108398 C160.30504022 215.34809182 160.30187144 211.98128559 161 205 C124.7 205 88.4 205 51 205 Z " fill="#000000" transform="translate(326,64)"/>
<path d="M0 0 C14.65338458 11.68674844 22.16258288 26.93654102 25.91748047 45.02832031 C27.62430813 65.16888673 23.33534481 84.01225248 10.13232422 99.70019531 C-2.65300485 113.24686841 -17.86571093 121.81921003 -36.73095703 122.95410156 C-58.05023134 123.4905875 -75.41295771 117.31471836 -91.10986328 102.50878906 C-103.38394607 89.85704219 -110.03117971 73.17168823 -110.20751953 55.59082031 C-109.63351734 36.03647904 -102.55329101 17.36790496 -88.21142578 3.77832031 C-63.74526587 -16.89069158 -26.10378358 -18.93874505 0 0 Z M-79.77001953 18.71582031 C-90.012413 31.14497283 -95.08781547 44.49393789 -93.77001953 60.71582031 C-91.10204749 75.26007931 -85.62959286 87.49340146 -73.77001953 96.71582031 C-65.90204738 101.70935445 -57.16605049 106.03053442 -47.77001953 106.71582031 C-46.84060547 106.78414063 -45.91119141 106.85246094 -44.95361328 106.92285156 C-29.64425218 107.46177301 -15.71742342 102.56787639 -4.39501953 92.15332031 C5.73584084 81.29765042 10.95890936 66.5031913 10.51513672 51.72363281 C9.12332965 37.04292815 2.62697136 23.71697633 -8.75439453 14.22753906 C-30.83372148 -2.38219734 -59.95633198 -0.84586485 -79.77001953 18.71582031 Z " fill="#000000" transform="translate(297.77001953125,89.2841796875)"/>
<path d="M0 0 C5.28 0 10.56 0 16 0 C16 5.28 16 10.56 16 16 C10.72 16 5.44 16 0 16 C0 10.72 0 5.44 0 0 Z " fill="#000000" transform="translate(425,136)"/>
<path d="M0 0 C5.28 0 10.56 0 16 0 C16 5.28 16 10.56 16 16 C10.72 16 5.44 16 0 16 C0 10.72 0 5.44 0 0 Z " fill="#000000" transform="translate(73,136)"/>
</svg>
