<?xml version="1.0" encoding="UTF-8"?>
<svg version="1.1" xmlns="http://www.w3.org/2000/svg" width="512" height="512">
<path d="M0 0 C30.63015322 27.0490563 50.76227764 64.52343722 53.84179688 105.62646484 C56.04116762 148.29163892 44.71171878 190.02245315 15.75024414 222.2746582 C13.47949943 224.75637867 11.16202829 227.19090028 8.84179688 229.62646484 C8.12507812 230.40763672 7.40835938 231.18880859 6.66992188 231.99365234 C-17.4557421 257.47978609 -53.97869539 271.65344207 -88.61132812 272.84912109 C-128.98331681 273.72270879 -165.89565156 259.32408811 -195.21289062 231.50537109 C-225.06955298 202.58480871 -241.67437212 163.40922378 -242.51416016 121.89794922 C-242.75397073 79.91265157 -228.07190911 41.16776355 -199.15820312 10.62646484 C-198.33835938 9.74216797 -197.51851562 8.85787109 -196.67382812 7.94677734 C-145.03563338 -45.98305327 -56.05287601 -47.89269213 0 0 Z M-182.15820312 16.62646484 C-183.10308594 17.48884766 -184.04796875 18.35123047 -185.02148438 19.23974609 C-209.91825451 43.00964686 -225.43676641 77.78081342 -226.36132812 112.20849609 C-226.84737403 150.81973551 -215.60563847 185.92258283 -189.15820312 214.62646484 C-188.29582031 215.57134766 -187.4334375 216.51623047 -186.54492188 217.48974609 C-176.8279436 227.66738112 -165.06967334 236.86371825 -152.15820312 242.62646484 C-151.49820313 242.62646484 -150.83820313 242.62646484 -150.15820312 242.62646484 C-149.3296624 233.67573009 -148.73362896 224.73707059 -148.47070312 215.75146484 C-148.39142578 214.47271484 -148.31214844 213.19396484 -148.23046875 211.87646484 C-148.14806055 208.20450862 -148.18604361 205.17129391 -149.15820312 201.62646484 C-152.13981065 198.67838543 -155.3613266 197.29030111 -159.15820312 195.62646484 C-170.24603643 187.77891159 -176.38241457 175.78157214 -178.69354248 162.56504822 C-179.24220669 157.91442901 -179.31356844 153.365241 -179.31933594 148.68725586 C-179.32678329 147.22733215 -179.32678329 147.22733215 -179.3343811 145.73791504 C-179.34892261 142.53539307 -179.35579008 139.33292058 -179.36132812 136.13037109 C-179.36708462 133.89509582 -179.37284229 131.65982055 -179.37860107 129.42454529 C-179.38908717 124.74502331 -179.39494598 120.06551839 -179.3984375 115.38598633 C-179.40392792 109.39959989 -179.42797793 103.41344023 -179.45640945 97.42712498 C-179.47505803 92.81250859 -179.48024255 88.19794671 -179.48177338 83.58329582 C-179.48479361 81.37656345 -179.49280081 79.16983189 -179.50595856 76.96313667 C-179.52307097 73.87360576 -179.52112637 70.78462783 -179.51464844 67.69506836 C-179.52847061 66.33807076 -179.52847061 66.33807076 -179.54257202 64.95365906 C-179.50317345 58.93536656 -179.01742502 52.70231978 -174.70622635 48.06447697 C-170.03909538 44.07838404 -167.42818812 43.49909824 -161.39257812 43.49365234 C-160.72156067 43.49269562 -160.05054321 43.49173889 -159.35919189 43.49075317 C-157.9368887 43.49007217 -156.5145824 43.49192091 -155.09228516 43.49609375 C-152.93059149 43.50140979 -150.76910878 43.49616352 -148.60742188 43.48974609 C-147.22330684 43.49040754 -145.83919193 43.49169009 -144.45507812 43.49365234 C-143.20049805 43.49478027 -141.94591797 43.4959082 -140.65332031 43.49707031 C-137.15820312 43.62646484 -137.15820312 43.62646484 -133.82714844 44.19726562 C-131.193227 44.88712309 -131.193227 44.88712309 -129.15820312 43.62646484 C-126.89295915 43.5285463 -124.62478029 43.4956878 -122.35742188 43.49365234 C-121.34733818 43.49221725 -121.34733818 43.49221725 -120.31684875 43.49075317 C-118.89034939 43.49007226 -117.46384693 43.49192037 -116.03735352 43.49609375 C-113.86467418 43.50141835 -111.69220393 43.4961588 -109.51953125 43.48974609 C-108.132161 43.49040738 -106.74479089 43.49168959 -105.35742188 43.49365234 C-103.46769653 43.49534424 -103.46769653 43.49534424 -101.53979492 43.49707031 C-98.15820312 43.62646484 -98.15820312 43.62646484 -95.39575195 44.19726562 C-93.00083052 44.84583017 -93.00083052 44.84583017 -90.15820312 43.62646484 C-87.86028981 43.5307636 -85.55966998 43.49572566 -83.25976562 43.49365234 C-82.25180435 43.49221725 -82.25180435 43.49221725 -81.22348022 43.49075317 C-79.80295722 43.49007335 -78.38243108 43.49191387 -76.96191406 43.49609375 C-74.79810517 43.50142811 -72.63450543 43.49615079 -70.47070312 43.48974609 C-69.08789017 43.49040724 -67.70507734 43.49168915 -66.32226562 43.49365234 C-64.4420874 43.49534424 -64.4420874 43.49534424 -62.52392578 43.49707031 C-59.15820312 43.62646484 -59.15820312 43.62646484 -56.39794922 44.19726562 C-54.00115371 44.84584995 -54.00115371 44.84584995 -51.15820312 43.62646484 C-46.78053881 43.37578902 -42.40072851 43.35567861 -38.0168457 43.33129883 C-36.57468856 43.31978492 -35.13257383 43.29934194 -33.69067383 43.26977539 C-31.60013052 43.2269256 -29.51085079 43.21090738 -27.41992188 43.20068359 C-26.17170654 43.18610107 -24.92349121 43.17151855 -23.63745117 43.15649414 C-18.17546365 43.8942898 -15.15600205 46.332023 -11.84570312 50.62646484 C-9.68664224 54.4647953 -9.03468044 57.45629129 -9.02449036 61.82312012 C-9.01809288 63.06747833 -9.01809288 63.06747833 -9.01156616 64.3369751 C-9.01201935 65.23881531 -9.01247253 66.14065552 -9.01293945 67.06982422 C-9.00958084 68.02648987 -9.00622223 68.98315552 -9.00276184 69.96881104 C-8.99325374 73.13595882 -8.99130834 76.30305366 -8.99023438 79.47021484 C-8.9870201 81.67777529 -8.98365589 83.88533551 -8.98014832 86.09289551 C-8.97415627 90.72648613 -8.97230833 95.36005811 -8.97290039 99.99365234 C-8.97300165 105.90681614 -8.95938726 111.81985888 -8.94212818 117.73299408 C-8.93095808 122.29716531 -8.92898277 126.86130783 -8.92951012 131.42549133 C-8.92833609 133.60378941 -8.92394701 135.78208838 -8.91617775 137.96037292 C-8.85118652 158.07632927 -9.36548287 176.30353957 -24.15820312 191.62646484 C-28.83988388 195.83204247 -33.51864703 198.8481187 -39.15820312 201.62646484 C-39.18330882 205.53677369 -39.20125058 209.44705 -39.21313477 213.35742188 C-39.22051406 215.32602594 -39.23323371 217.2946077 -39.24609375 219.26318359 C-39.26600216 227.10709624 -38.96715907 234.82327767 -38.15820312 242.62646484 C-33.44582953 241.26479562 -29.54344078 239.24201536 -25.47070312 236.56396484 C-24.85984863 236.1647583 -24.24899414 235.76555176 -23.61962891 235.35424805 C6.71186446 215.20315286 27.85570178 184.00446176 35.27929688 148.31396484 C42.79570264 110.81168568 35.57824333 72.2959112 14.47460938 40.37646484 C10.37072477 34.40606364 5.74599386 28.94907892 0.84179688 23.62646484 C-0.02058594 22.68158203 -0.88296875 21.73669922 -1.77148438 20.76318359 C-24.30760254 -2.84131351 -56.07251727 -17.43566972 -88.74414062 -18.57666016 C-123.99421434 -19.15146921 -156.15317625 -7.33427561 -182.15820312 16.62646484 Z M-164.15820312 59.62646484 C-164.26202902 61.24226493 -164.29672555 62.86257109 -164.3034668 64.48168945 C-164.30984665 65.51623764 -164.3162265 66.55078583 -164.32279968 67.61668396 C-164.32391251 68.74268509 -164.32502533 69.86868622 -164.32617188 71.02880859 C-164.32950027 72.17684464 -164.33282867 73.32488068 -164.33625793 74.50770569 C-164.34133214 76.94141233 -164.34366611 79.37512596 -164.34350586 81.80883789 C-164.34569167 85.54438677 -164.36384058 89.27964019 -164.3828125 93.01513672 C-164.38574637 95.37385966 -164.38773121 97.73258401 -164.38867188 100.09130859 C-164.39585739 101.21528549 -164.40304291 102.33926239 -164.41044617 103.49729919 C-164.40736954 104.53499954 -164.40429291 105.57269989 -164.40112305 106.6418457 C-164.40254807 107.55816269 -164.40397308 108.47447968 -164.40544128 109.41856384 C-164.3675736 111.83311141 -164.3675736 111.83311141 -162.15820312 113.62646484 C-160.04287103 113.9199688 -160.04287103 113.9199688 -157.62304688 113.85693359 C-156.73166016 113.855 -155.84027344 113.85306641 -154.921875 113.85107422 C-153.98923828 113.83882812 -153.05660156 113.82658203 -152.09570312 113.81396484 C-151.15919922 113.81332031 -150.22269531 113.81267578 -149.2578125 113.81201172 C-144.87383781 114.18415951 -144.87383781 114.18415951 -141.15820312 112.62646484 C-141.06467149 110.93844499 -141.04075522 109.24651277 -141.04467773 107.5559082 C-141.04479103 105.93434059 -141.04479103 105.93434059 -141.04490662 104.28001404 C-141.0500679 103.10399124 -141.05522919 101.92796844 -141.06054688 100.71630859 C-141.06196182 99.51913712 -141.06337677 98.32196564 -141.06483459 97.08851624 C-141.07045333 93.24697418 -141.08300902 89.40548942 -141.09570312 85.56396484 C-141.10071571 82.96696047 -141.10527903 80.3699552 -141.109375 77.77294922 C-141.12042885 71.39076806 -141.13718521 65.00862054 -141.15820312 58.62646484 C-144.80401999 58.59758973 -148.44980776 58.57970899 -152.09570312 58.56396484 C-153.13662109 58.55558594 -154.17753906 58.54720703 -155.25 58.53857422 C-156.23935547 58.53535156 -157.22871094 58.53212891 -158.24804688 58.52880859 C-159.16448975 58.52357178 -160.08093262 58.51833496 -161.02514648 58.51293945 C-163.14183336 58.38725273 -163.14183336 58.38725273 -164.15820312 59.62646484 Z M-124.15820312 58.62646484 C-125.39662957 59.64283444 -125.39662957 59.64283444 -125.27845764 61.75880432 C-125.27623703 62.69812302 -125.27401642 63.63744171 -125.27172852 64.60522461 C-125.27165298 65.66624893 -125.27157745 66.72727325 -125.27149963 67.82044983 C-125.26633835 68.97459885 -125.26117706 70.12874786 -125.25585938 71.31787109 C-125.25444443 72.49284653 -125.25302948 73.66782196 -125.25157166 74.87840271 C-125.24595304 78.64861548 -125.23339738 82.41876988 -125.22070312 86.18896484 C-125.21569052 88.73779211 -125.2111272 91.28662031 -125.20703125 93.83544922 C-125.19597757 100.09914117 -125.17922134 106.36279884 -125.15820312 112.62646484 C-122.83476757 113.78818262 -121.46186997 113.75550453 -118.87695312 113.75927734 C-117.61431641 113.76121094 -117.61431641 113.76121094 -116.32617188 113.76318359 C-115.44574219 113.75931641 -114.5653125 113.75544922 -113.65820312 113.75146484 C-112.33755859 113.75726563 -112.33755859 113.75726563 -110.99023438 113.76318359 C-110.14847656 113.76189453 -109.30671875 113.76060547 -108.43945312 113.75927734 C-107.66666016 113.75814941 -106.89386719 113.75702148 -106.09765625 113.75585938 C-104.07611113 113.7465357 -104.07611113 113.7465357 -102.15820312 112.62646484 C-102.15820312 94.80646484 -102.15820312 76.98646484 -102.15820312 58.62646484 C-109.41820312 58.62646484 -116.67820312 58.62646484 -124.15820312 58.62646484 Z M-86.15820312 58.62646484 C-86.15820312 63.57646484 -86.15820312 68.52646484 -86.15820312 73.62646484 C-78.56820312 73.62646484 -70.97820312 73.62646484 -63.15820312 73.62646484 C-63.13757813 71.33708984 -63.11695313 69.04771484 -63.09570312 66.68896484 C-63.08410156 65.40119141 -63.0725 64.11341797 -63.06054688 62.78662109 C-62.79287763 59.76348081 -62.79287763 59.76348081 -64.15820312 58.62646484 C-65.79293194 58.53946142 -67.43134368 58.51945422 -69.06835938 58.52880859 C-70.55239258 58.53364258 -70.55239258 58.53364258 -72.06640625 58.53857422 C-73.6277832 58.55114258 -73.6277832 58.55114258 -75.22070312 58.56396484 C-76.78788086 58.57073242 -76.78788086 58.57073242 -78.38671875 58.57763672 C-80.97723767 58.58946557 -83.56772734 58.60740165 -86.15820312 58.62646484 Z M-47.15820312 58.62646484 C-47.15820312 63.57646484 -47.15820312 68.52646484 -47.15820312 73.62646484 C-39.56820312 73.95646484 -31.97820312 74.28646484 -24.15820312 74.62646484 C-24.13757813 72.17208984 -24.11695313 69.71771484 -24.09570312 67.18896484 C-24.08659912 66.41496338 -24.07749512 65.64096191 -24.06811523 64.84350586 C-24.06095399 63.10424768 -24.1079561 61.36501181 -24.15820312 59.62646484 C-25.17457289 58.38725273 -25.17457289 58.38725273 -27.29125977 58.51293945 C-28.66592407 58.52079468 -28.66592407 58.52079468 -30.06835938 58.52880859 C-31.55239258 58.53364258 -31.55239258 58.53364258 -33.06640625 58.53857422 C-34.6277832 58.55114258 -34.6277832 58.55114258 -36.22070312 58.56396484 C-37.78788086 58.57073242 -37.78788086 58.57073242 -39.38671875 58.57763672 C-41.97723767 58.58946557 -44.56772734 58.60740165 -47.15820312 58.62646484 Z M-86.15820312 89.62646484 C-86.0127002 90.8978833 -85.86719727 92.16930176 -85.71728516 93.47924805 C-85.63543976 94.19442093 -85.55359436 94.90959381 -85.4692688 95.6464386 C-84.60457465 101.15047604 -80.89569338 105.34755254 -76.53320312 108.56396484 C-70.93003067 111.98812579 -65.86252716 111.86950354 -59.49414062 111.88037109 C-55.28420103 112.02021174 -53.58174872 112.29922935 -50.13476562 114.96240234 C-48.15820312 117.62646484 -48.15820312 117.62646484 -47.90820312 121.00146484 C-49.34399132 125.16525062 -51.02201607 126.71627634 -54.18554688 129.62646484 C-66.06446894 141.67004524 -67.85342942 156.51288422 -68.92456055 172.53271484 C-69.15820312 174.62646484 -69.15820312 174.62646484 -70.15820312 177.62646484 C-71.76088133 177.73471328 -73.36566061 177.8121713 -74.97070312 177.87646484 C-75.86402344 177.92287109 -76.75734375 177.96927734 -77.67773438 178.01708984 C-80.15820312 177.62646484 -80.15820312 177.62646484 -81.95898438 176.03662109 C-86.35771432 167.19617688 -82.69067791 152.51331776 -80.15820312 143.62646484 C-78.42493717 138.84001097 -76.34609234 134.22174025 -74.15820312 129.62646484 C-75.929375 129.42730469 -75.929375 129.42730469 -77.73632812 129.22412109 C-79.29363575 129.04587504 -80.85092654 128.86748192 -82.40820312 128.68896484 C-83.18550781 128.60195312 -83.9628125 128.51494141 -84.76367188 128.42529297 C-85.51777344 128.33828125 -86.271875 128.25126953 -87.04882812 128.16162109 C-87.74008789 128.08306885 -88.43134766 128.0045166 -89.14355469 127.92358398 C-91.15820312 127.62646484 -91.15820312 127.62646484 -93.18994141 127.03540039 C-95.9671805 126.4583878 -98.18957252 127.3916093 -100.87011719 128.12841797 C-105.05996325 129.04042031 -109.26324747 128.91359489 -113.53320312 128.87646484 C-114.85578125 128.88806641 -114.85578125 128.88806641 -116.20507812 128.89990234 C-120.76655147 128.88652559 -124.87901816 128.54270406 -129.32226562 127.48583984 C-133.45040571 126.56784742 -136.0228339 126.85384914 -140.00585938 128.10205078 C-144.45979184 129.18724213 -149.10224458 128.82919117 -153.65820312 128.75146484 C-154.67140625 128.74244141 -155.68460938 128.73341797 -156.72851562 128.72412109 C-159.20533113 128.70075491 -161.68163692 128.66799653 -164.15820312 128.62646484 C-164.23351865 132.53669234 -164.28734164 136.44662716 -164.32299805 140.35742188 C-164.34513743 142.32616052 -164.38329665 144.29469846 -164.421875 146.26318359 C-164.51960074 159.0978314 -162.93199625 169.81545974 -154.15820312 179.62646484 C-149.09357579 184.44155762 -141.52551857 190.62646484 -134.15820312 190.62646484 C-134.15820312 210.09646484 -134.15820312 229.56646484 -134.15820312 249.62646484 C-126.81788239 252.77231659 -119.93698289 254.27545779 -112.15820312 255.62646484 C-110.99998047 255.82949219 -110.99998047 255.82949219 -109.81835938 256.03662109 C-92.5325485 258.46690341 -71.43211547 257.29675978 -55.15820312 250.62646484 C-53.89169328 249.58335779 -53.89169328 249.58335779 -54.03794861 247.26634216 C-54.04016922 246.22043411 -54.04238983 245.17452606 -54.04467773 244.09692383 C-54.04475327 242.91577499 -54.0448288 241.73462616 -54.04490662 240.51768494 C-54.0500679 239.23229324 -54.05522919 237.94690155 -54.06054688 236.62255859 C-54.06196182 235.31440689 -54.06337677 234.00625519 -54.06483459 232.65846252 C-54.06865903 229.17483625 -54.07848866 225.69125145 -54.08953857 222.2076416 C-54.0997543 218.65519776 -54.10433256 215.10274725 -54.109375 211.55029297 C-54.120111 204.57566652 -54.13718653 197.60106767 -54.15820312 190.62646484 C-53.54123566 190.42739532 -52.92426819 190.22832581 -52.28860474 190.02322388 C-51.47874115 189.75839203 -50.66887756 189.49356018 -49.83447266 189.22070312 C-48.63058395 188.82928635 -48.63058395 188.82928635 -47.40237427 188.42996216 C-38.47317924 185.23297593 -31.25502034 177.88866349 -27.09960938 169.48583984 C-24.73823052 163.56544502 -24.03798373 157.748133 -23.99707031 151.42504883 C-23.98746277 150.2203746 -23.97785522 149.01570038 -23.96795654 147.77452087 C-23.96370667 146.48687332 -23.95945679 145.19922577 -23.95507812 143.87255859 C-23.95225075 143.21131548 -23.94942337 142.55007236 -23.94651031 141.86879158 C-23.9315817 138.37468193 -23.92231028 134.88061296 -23.91796875 131.38647461 C-23.91246983 127.78631386 -23.88839443 124.18652857 -23.8599968 120.58648586 C-23.84134921 117.80775361 -23.83616387 115.02911187 -23.83463287 112.25032234 C-23.83015188 110.27999108 -23.81152592 108.30970834 -23.79266357 106.33946228 C-23.79716522 104.53717918 -23.79716522 104.53717918 -23.80175781 102.69848633 C-23.79811218 101.64402817 -23.79446655 100.58957001 -23.79071045 99.50315857 C-24.33631489 95.23222483 -26.15626079 92.62840717 -29.15820312 89.62646484 C-31.66656233 89.33350341 -31.66656233 89.33350341 -34.61767578 89.39941406 C-35.75870758 89.39956512 -36.89973938 89.39971619 -38.0753479 89.39987183 C-39.31183075 89.4101944 -40.5483136 89.42051697 -41.82226562 89.43115234 C-43.71578262 89.43539719 -43.71578262 89.43539719 -45.64755249 89.43972778 C-49.00467256 89.44904353 -52.36152224 89.46701649 -55.71856689 89.48913574 C-59.14373435 89.50958934 -62.56892971 89.51872845 -65.99414062 89.52880859 C-72.71556983 89.55090026 -79.43687086 89.58440108 -86.15820312 89.62646484 Z " fill="#000000" transform="translate(350.158203125,71.37353515625)"/>
<path d="M0 0 C4.45402341 1.78551926 7.56846283 5.63880875 10.81494141 9.05273438 C11.61174316 9.87394775 12.40854492 10.69516113 13.22949219 11.54125977 C19.35807714 17.94046243 25.02314976 24.45777926 30.00244141 31.80273438 C30.46811523 32.48352051 30.93378906 33.16430664 31.41357422 33.86572266 C47.32473779 57.39129297 57.77038239 82.90302124 63.00244141 110.80273438 C63.21642578 111.9396875 63.43041016 113.07664062 63.65087891 114.24804688 C65.08781286 122.72387468 65.64214519 131.22592687 66.00244141 139.80273438 C66.06625 141.22585937 66.06625 141.22585937 66.13134766 142.67773438 C66.84553591 175.43516905 59.01959386 209.20296917 43.00244141 237.80273438 C42.08398438 239.54103516 42.08398438 239.54103516 41.14697266 241.31445312 C33.88347853 254.68826809 24.55761832 266.85602076 14.00244141 277.80273438 C13.46248535 278.36847168 12.9225293 278.93420898 12.36621094 279.51708984 C-11.02364705 303.92362191 -39.29804046 320.56804642 -71.74755859 330.11523438 C-72.59858154 330.36998535 -73.44960449 330.62473633 -74.32641602 330.88720703 C-80.75457923 332.70681445 -86.11839964 333.17735629 -92.99755859 333.80273438 C-92.99755859 345.35273438 -92.99755859 356.90273438 -92.99755859 368.80273438 C-82.54217326 368.64522466 -82.54217326 368.64522466 -72.08764648 368.44238281 C-62.39542213 368.36888952 -55.89921872 369.59780275 -47.74755859 374.92773438 C-42.85320267 380.04456102 -39.39648183 386.57766093 -38.93505859 393.74414062 C-39.18505321 401.97833844 -41.41967179 408.63646289 -46.99755859 414.80273438 C-53.44663398 420.04123247 -58.43897897 421.95913918 -66.72802734 421.90039062 C-67.47844803 421.89897568 -68.22886871 421.89756073 -69.00202942 421.89610291 C-71.3964132 421.89050997 -73.79070312 421.87795881 -76.18505859 421.86523438 C-77.8094062 421.86021846 -79.43375527 421.85565571 -81.05810547 421.8515625 C-85.03795928 421.84054286 -89.01774303 421.82328311 -92.99755859 421.80273438 C-92.97399292 422.77714478 -92.97399292 422.77714478 -92.94995117 423.77124023 C-92.88696523 426.76081369 -92.84836838 429.75024686 -92.81005859 432.74023438 C-92.78492188 433.76181641 -92.75978516 434.78339844 -92.73388672 435.8359375 C-92.63512924 446.13963433 -94.52970562 453.33785774 -101.77880859 460.84960938 C-108.37995611 466.66047867 -114.97403041 467.4809886 -123.63037109 467.17382812 C-132.02784541 466.24835242 -136.69966891 462.68866553 -142.27099609 456.50976562 C-147.09514264 448.94611504 -147.4010409 441.51797667 -147.18505859 432.74023438 C-147.16475586 431.1556543 -147.16475586 431.1556543 -147.14404297 429.5390625 C-147.10902949 426.95973629 -147.05992534 424.38151944 -146.99755859 421.80273438 C-148.46394775 421.8420105 -148.46394775 421.8420105 -149.95996094 421.88208008 C-153.63127211 421.97345374 -157.30248564 422.03029475 -160.97460938 422.07739258 C-162.55551119 422.10234063 -164.13630002 422.13631243 -165.71679688 422.17993164 C-176.03694663 422.45735502 -184.83688619 422.48497751 -192.88696289 415.06005859 C-198.19641873 409.46172682 -200.96963872 402.53653816 -200.99755859 394.80273438 C-200.38512308 386.57479633 -197.37382149 379.83479681 -191.25927734 374.20117188 C-185.36556844 369.73188486 -179.53391126 368.49725856 -172.19287109 368.60742188 C-171.55019287 368.60943604 -170.90751465 368.6114502 -170.24536133 368.61352539 C-167.87101994 368.62389859 -165.49678122 368.65182042 -163.12255859 368.67773438 C-157.80130859 368.71898437 -152.48005859 368.76023437 -146.99755859 368.80273438 C-146.99755859 357.25273437 -146.99755859 345.70273437 -146.99755859 333.80273438 C-150.62755859 333.47273438 -154.25755859 333.14273437 -157.99755859 332.80273438 C-161.45679271 331.99019813 -164.79292889 331.13564685 -168.18505859 330.11523438 C-169.09433105 329.84614258 -170.00360352 329.57705078 -170.94042969 329.29980469 C-198.15680942 321.10572865 -221.86187931 307.86810589 -242.99755859 288.80273438 C-243.76583984 288.12082031 -244.53412109 287.43890625 -245.32568359 286.73632812 C-247.70024683 283.99004588 -247.57864488 282.20474245 -247.37646484 278.70898438 C-246.99755859 276.80273438 -246.99755859 276.80273438 -245.43505859 274.30273438 C-242.07855687 272.23719486 -239.89291644 272.44597104 -235.99755859 272.80273438 C-233.36474609 274.41992188 -233.36474609 274.41992188 -230.87255859 276.67773438 C-229.92123047 277.50273437 -228.96990234 278.32773437 -227.98974609 279.17773438 C-227.00232422 280.04398437 -226.01490234 280.91023438 -224.99755859 281.80273438 C-201.02590884 301.74714697 -172.65081885 313.34827879 -141.96630859 318.29101562 C-141.08974609 318.43925781 -140.21318359 318.5875 -139.31005859 318.74023438 C-138.56369141 318.85238281 -137.81732422 318.96453125 -137.04833984 319.08007812 C-134.20308957 320.08269013 -132.91516525 321.48476216 -130.99755859 323.80273438 C-130.49635315 326.3828125 -130.49635315 326.3828125 -130.49584961 329.33398438 C-130.48646866 330.44193359 -130.47708771 331.54988281 -130.46742249 332.69140625 C-130.47865646 333.88314453 -130.48989044 335.07488281 -130.50146484 336.30273438 C-130.50000961 337.53056641 -130.49855438 338.75839844 -130.49705505 340.0234375 C-130.49871491 342.61916476 -130.51028567 345.21490178 -130.53100586 347.81054688 C-130.55994797 351.78753391 -130.55161775 355.76318746 -130.53857422 359.74023438 C-130.54481184 362.2610742 -130.55320296 364.78190981 -130.56396484 367.30273438 C-130.56102921 368.49447266 -130.55809357 369.68621094 -130.55506897 370.9140625 C-130.56775314 372.02201172 -130.58043732 373.12996094 -130.59350586 374.27148438 C-130.59890884 375.24537109 -130.60431183 376.21925781 -130.60987854 377.22265625 C-131.0652575 380.25328237 -131.87831372 381.61394196 -133.99755859 383.80273438 C-137.95400775 385.12155076 -141.77266093 384.99795935 -145.89990234 385.04882812 C-147.69482921 385.08176057 -149.48975096 385.11497232 -151.28466797 385.1484375 C-154.11332764 385.19588091 -156.94196571 385.24033012 -159.77075195 385.27954102 C-162.50151831 385.31926212 -165.23186655 385.37079901 -167.96240234 385.42382812 C-168.80729721 385.43224228 -169.65219208 385.44065643 -170.52268982 385.44932556 C-171.3135347 385.46596756 -172.10437958 385.48260956 -172.91918945 385.49975586 C-173.6118541 385.51006332 -174.30451874 385.52037079 -175.01817322 385.5309906 C-177.39643022 385.85749424 -178.96350114 386.53172024 -180.99755859 387.80273438 C-183.01227456 390.82480832 -183.33474893 391.72000136 -183.43505859 395.17773438 C-183.47501953 395.92796875 -183.51498047 396.67820312 -183.55615234 397.45117188 C-182.68182853 401.13189172 -180.95223496 402.48314879 -177.99755859 404.80273438 C-174.89999435 405.50822759 -171.88205294 405.45368475 -168.71630859 405.40429688 C-167.82520386 405.41230316 -166.93409912 405.42030945 -166.01599121 405.42855835 C-163.17604826 405.45159348 -160.33753962 405.4421774 -157.49755859 405.42773438 C-154.65784661 405.42388327 -151.81876707 405.42735255 -148.97912598 405.44833374 C-147.21508547 405.46039518 -145.45086723 405.45779921 -143.68688965 405.43862915 C-138.97127882 405.4600616 -135.81743527 405.71202135 -131.99755859 408.80273438 C-130.51451812 411.76881532 -130.85044081 414.48029398 -130.82177734 417.78710938 C-130.79856832 419.21160314 -130.77445055 420.63608234 -130.74951172 422.06054688 C-130.71448624 424.30315752 -130.68510364 426.54523585 -130.67163086 428.78808594 C-130.65607023 430.9550831 -130.61580453 433.12052718 -130.57177734 435.28710938 C-130.55719482 436.58358398 -130.5426123 437.88005859 -130.52758789 439.21582031 C-129.91422333 443.36669647 -128.61126277 445.55889443 -125.99755859 448.80273438 C-122.78061496 450.41120619 -119.47618638 450.41582586 -115.99755859 449.80273438 C-113.30650661 447.62699022 -111.54222931 445.89207581 -109.99755859 442.80273438 C-109.87806351 440.45315761 -109.81828858 438.10044718 -109.78662109 435.74804688 C-109.75855094 434.31444174 -109.72988646 432.88084814 -109.70068359 431.44726562 C-109.65943636 429.1870152 -109.62254979 426.92697979 -109.59619141 424.66650391 C-109.56854599 422.484899 -109.52267649 420.30427328 -109.47412109 418.12304688 C-109.45430176 416.81609863 -109.43448242 415.50915039 -109.4140625 414.16259766 C-108.97967534 410.65847335 -108.50735386 409.23268932 -105.99755859 406.80273438 C-103.29441553 405.90168669 -101.74517439 405.67857547 -98.97265625 405.67675781 C-98.16817047 405.67295105 -97.36368469 405.66914429 -96.53482056 405.66522217 C-95.66916473 405.66419495 -94.80350891 405.66316772 -93.91162109 405.66210938 C-92.07567116 405.643784 -90.23973331 405.62421394 -88.40380859 405.60351562 C-85.5113482 405.57453207 -82.61966592 405.55273389 -79.72705078 405.55224609 C-76.93370644 405.54891047 -74.1421541 405.51435958 -71.34912109 405.47460938 C-70.05671005 405.48521393 -70.05671005 405.48521393 -68.7381897 405.49603271 C-64.31922231 405.40656549 -62.53655636 405.22704441 -58.95239258 402.40551758 C-56.36137299 398.95567871 -56.33536305 397.05590177 -56.56396484 392.89257812 C-57.1898614 389.8758695 -58.51946763 388.55197505 -60.99755859 386.80273438 C-64.33592021 385.13355357 -68.09409628 385.62338643 -71.76708984 385.59179688 C-73.5607187 385.56372407 -75.35433837 385.53505958 -77.14794922 385.50585938 C-79.97875675 385.4646233 -82.80939365 385.42774057 -85.64038086 385.40136719 C-88.37047866 385.37372063 -91.09979433 385.32784457 -93.82958984 385.27929688 C-95.0938958 385.27441757 -95.0938958 385.27441757 -96.38374329 385.2694397 C-101.05419166 385.17199244 -104.20891997 384.8405261 -107.99755859 381.80273438 C-109.28098437 379.23588283 -109.14563966 377.37272372 -109.17456055 374.49853516 C-109.1938134 372.83638474 -109.1938134 372.83638474 -109.2134552 371.14065552 C-109.22084213 369.93859467 -109.22822906 368.73653381 -109.23583984 367.49804688 C-109.24391159 366.26738495 -109.25198334 365.03672302 -109.26029968 363.76876831 C-109.27414891 361.16112684 -109.28486729 358.55346719 -109.29272461 355.94580078 C-109.3015942 353.27043957 -109.32248807 350.59559615 -109.35424805 347.92041016 C-109.39675399 344.07112852 -109.41307065 340.22253355 -109.42333984 336.37304688 C-109.44960197 334.57602829 -109.44960197 334.57602829 -109.47639465 332.7427063 C-109.4720063 331.0710994 -109.4720063 331.0710994 -109.4675293 329.36572266 C-109.47339554 328.38580353 -109.47926178 327.4058844 -109.48530579 326.39627075 C-108.85893744 323.06563325 -107.60514795 321.89685134 -104.99755859 319.80273438 C-102.62939453 319.01660156 -102.62939453 319.01660156 -99.98193359 318.59960938 C-98.9902417 318.42856689 -97.9985498 318.25752441 -96.97680664 318.08129883 C-95.91115479 317.90687256 -94.84550293 317.73244629 -93.74755859 317.55273438 C-60.00061148 311.36142133 -31.22210806 296.89925479 -5.99755859 273.80273438 C-5.05396484 272.94292969 -4.11037109 272.083125 -3.13818359 271.19726562 C30.55174958 239.01656356 48.19519517 191.98402342 49.25244141 145.92773438 C49.20366706 143.88494993 49.11446687 141.84302786 49.00244141 139.80273438 C48.94080811 138.67158203 48.94080811 138.67158203 48.87792969 137.51757812 C46.60049663 99.39058387 33.71538302 60.64915274 8.00244141 31.80273438 C7.26251953 30.95453125 6.52259766 30.10632813 5.76025391 29.23242188 C1.32272617 24.21141298 -3.28983712 19.51600877 -8.24755859 15.00585938 C-10.43464274 12.25247665 -10.79167538 10.28403239 -10.99755859 6.80273438 C-8.67855118 1.70091807 -5.87331719 -1.06647481 0 0 Z " fill="#000000" transform="translate(375.99755859375,45.197265625)"/>
<path d="M0 0 C0.8323819 0.00054382 1.66476379 0.00108765 2.52236938 0.00164795 C32.96106523 0.09274795 61.020207 7.52011627 88 21.5625 C88.93730957 22.04372314 88.93730957 22.04372314 89.89355469 22.53466797 C93.28289634 24.36136657 95.72044832 25.9869028 97.625 29.375 C98.11447291 33.29078329 98.21379747 35.45647594 96.0625 38.8125 C92.69786321 40.96931846 90.583932 40.70799428 86.625 40.375 C83.3984375 38.90625 83.3984375 38.90625 80 36.875 C43.3287108 16.07810102 -1.93992924 11.09929076 -42.43994141 22.21630859 C-55.3765425 26.04388559 -67.61611943 30.76358121 -79.375 37.375 C-79.99101074 37.71080078 -80.60702148 38.04660156 -81.24169922 38.39257812 C-121.20858853 60.28143307 -148.80798777 98.91621407 -161.71826172 142.06298828 C-174.26852588 186.24551675 -168.91406332 234.32889213 -147.71386719 274.98388672 C-144.83473933 280.12578647 -141.56768739 285.05990343 -138.18481445 289.88330078 C-134.72421826 295.00581608 -133.66328532 298.17969316 -134.375 304.375 C-135.96529045 307.11383355 -137.20965297 307.32467699 -140.25 308.25 C-144.12759589 308.40510384 -145.26779542 307.65860819 -148.375 305.375 C-150.07417761 303.26987552 -151.5447239 301.26120621 -153 299 C-153.42458496 298.34717041 -153.84916992 297.69434082 -154.28662109 297.02172852 C-182.24884799 253.06869876 -191.93685219 200.05094726 -181.24121094 148.94384766 C-173.99150225 117.13969085 -159.56608216 87.18141353 -137.72070312 62.87646484 C-136.37537012 61.37541296 -135.05411327 59.85559577 -133.734375 58.33203125 C-100.32204113 20.23951385 -50.14439537 -0.12370379 0 0 Z " fill="#000000" transform="translate(255.375,-0.375)"/>
</svg>
