<?xml version="1.0" encoding="UTF-8"?>
<svg version="1.1" xmlns="http://www.w3.org/2000/svg" width="512" height="512">
<path d="M0 0 C1.92029578 -0.01064158 1.92029578 -0.01064158 3.87938541 -0.02149814 C7.41253714 -0.04034622 10.94499232 -0.02822967 14.47812593 -0.01077521 C18.29618871 0.00263586 22.11415207 -0.01285158 25.9322052 -0.02459717 C33.40344773 -0.04294983 40.87442825 -0.03447764 48.34566254 -0.01650894 C54.4185295 -0.00246866 60.49132545 0.00140679 66.56420708 -0.00195122 C67.86194539 -0.00266738 67.86194539 -0.00266738 69.18590064 -0.00339801 C70.943582 -0.00442437 72.70126334 -0.00547973 74.45894467 -0.00656378 C89.99147587 -0.0151259 105.52388076 0.00152887 121.05638123 0.03126526 C136.12153935 0.06010646 151.18651556 0.06718321 166.25169373 0.05177307 C182.66611118 0.03500574 199.08044231 0.03098175 215.49486202 0.04848343 C217.24567885 0.05032778 218.99649569 0.05216251 220.74731255 0.0539875 C221.60869847 0.05489959 222.4700844 0.05581168 223.35757293 0.05675141 C229.42232177 0.06235311 235.48702843 0.05905309 241.55177498 0.05244255 C248.94378976 0.04470498 256.33562559 0.05147732 263.72760434 0.07661759 C267.49776836 0.08910229 271.26765393 0.09527179 275.03782845 0.08407593 C279.12703915 0.07216207 283.21551987 0.09131312 287.3046875 0.11352539 C288.49311251 0.10528462 289.68153751 0.09704386 290.9059754 0.08855337 C298.79027725 0.16768921 304.2351562 1.25117001 310.33103943 6.59303284 C310.86986755 7.2440094 311.40869568 7.89498596 311.96385193 8.56568909 C312.5181488 9.21408752 313.07244568 9.86248596 313.64353943 10.53053284 C316.94050854 15.31559341 317.33004636 19.35828825 317.28416443 25.11647034 C317.27991959 26.17126839 317.27991959 26.17126839 317.27558899 27.24737549 C317.26445344 29.478658 317.2393619 31.70952926 317.21385193 33.94068909 C317.20381353 35.45956347 317.19468918 36.97844419 317.18650818 38.49732971 C317.16453606 42.2077483 317.1300524 45.91792851 317.08885193 49.62818909 C317.92021667 49.61247864 318.75158142 49.59676819 319.60813904 49.58058167 C322.73360329 49.52903075 325.85884867 49.49163554 328.98460388 49.46339417 C330.98629769 49.44113451 332.98779468 49.40298762 334.98924255 49.36451721 C343.96199579 49.29671303 352.37991713 49.52861948 359.40135193 55.75318909 C360.01623474 56.27139221 360.63111755 56.78959534 361.26463318 57.32350159 C368.17856629 66.0584492 367.63759724 75.57298544 367.54295349 86.1733551 C367.5418239 87.94805882 367.54246105 89.72276441 367.54472351 91.49746704 C367.54586724 96.29446729 367.52241334 101.0910643 367.49442768 105.88797116 C367.46935699 110.90877292 367.46706756 115.92958476 367.46232605 120.95043945 C367.44991291 130.44879093 367.4171138 139.94695741 367.37692809 149.44522756 C367.33215863 160.26261664 367.31021033 171.08001474 367.29014635 181.89747345 C367.2483797 204.14114844 367.17806 226.38465709 367.08885193 248.62818909 C368.04536652 248.75792618 369.0018811 248.88766327 369.98738098 249.02133179 C371.87331467 249.28269173 371.87331467 249.28269173 373.79734802 249.54933167 C375.04261261 249.72031876 376.2878772 249.89130585 377.57087708 250.06747437 C381.815975 250.74408207 385.6992332 251.81020706 389.71385193 253.31568909 C390.4247699 253.57551575 391.13568787 253.83534241 391.8681488 254.1030426 C414.58829782 262.72553378 432.2236204 280.26991648 442.51853943 302.04615784 C452.14555581 324.00629221 453.02375807 348.78693752 444.83885193 371.31568909 C434.36176946 396.54175967 417.05446081 413.94081483 392.08885193 424.62818909 C383.68888683 427.6795334 376.03311581 429.69554737 367.08885193 429.62818909 C367.09995499 430.42030792 367.11105804 431.21242676 367.12249756 432.02854919 C367.2231051 439.53061311 367.29902072 447.03234528 367.34791279 454.5349102 C367.37389484 458.39116813 367.40908011 462.24686395 367.46604919 466.10279846 C367.52078173 469.83111641 367.55035791 473.5588972 367.56323814 477.28758621 C367.57240487 478.70286122 367.59030393 480.1181102 367.61750221 481.53315353 C367.795143 491.16731162 367.1187257 499.27029386 360.27435303 506.5610199 C353.92445649 512.46511704 348.05954238 512.92181188 339.68185425 512.89561462 C338.62276433 512.90014574 337.5636744 512.90467685 336.47249085 512.90934527 C332.91805338 512.9220217 329.3637685 512.92036681 325.80931091 512.91871643 C323.26336977 512.92469951 320.71743045 512.93150454 318.17149353 512.93907166 C311.97113889 512.95492041 305.77084029 512.96118081 299.57046729 512.96229641 C294.53199936 512.9632469 289.49354399 512.96735724 284.45508003 512.97369766 C270.1724572 512.99130551 255.88986442 513.00053686 241.60723066 512.99903671 C240.83747671 512.9989568 240.06772277 512.99887689 239.27464294 512.99879456 C238.11860423 512.99867191 238.11860423 512.99867191 236.9392112 512.99854679 C224.43915072 512.99773327 211.93921056 513.01688879 199.4391849 513.04507129 C186.60657787 513.07377568 173.77402958 513.08761304 160.94138962 513.08588374 C153.73577132 513.08521915 146.53027928 513.0907418 139.32468987 513.11223984 C132.55229534 513.13231607 125.78021236 513.13180321 119.00778961 513.11720657 C116.51806055 513.11510737 114.0283151 513.11988494 111.53861427 513.13192749 C108.1483793 513.14726794 104.7590795 513.1381456 101.36886597 513.12266541 C100.37617232 513.13295253 99.38347868 513.14323966 98.36070341 513.15383852 C91.74970038 513.08680441 91.74970038 513.08680441 88.47760105 510.81603432 C86.425852 507.58369429 86.55418502 505.37085745 87.08885193 501.62818909 C88.49742413 499.44061375 88.49742413 499.44061375 91.08885193 497.62818909 C94.40596943 497.02911377 97.68886784 497.09504913 101.05169678 497.12939453 C102.07514716 497.12400998 103.09859754 497.11862542 104.15306157 497.1130777 C107.59324407 497.09977009 111.03271775 497.11497398 114.47288513 497.12989807 C116.93499582 497.1260764 119.39710428 497.12045867 121.85920715 497.11317444 C127.16687437 497.10120435 132.47433668 497.10125171 137.78199196 497.11176872 C145.46357542 497.12670623 153.14497411 497.11679495 160.82654705 497.10024954 C173.29932226 497.07378159 185.77205603 497.06292981 198.24485779 497.0639801 C199.36467698 497.06406759 199.36467698 497.06406759 200.50711878 497.06415684 C203.53182109 497.06442267 206.55652339 497.06473995 209.58122568 497.0651201 C217.90139528 497.06608581 226.22156362 497.06475934 234.54173279 497.06202698 C235.65882355 497.06166714 235.65882355 497.06166714 236.7984818 497.06130003 C249.22088892 497.05689172 261.6432576 497.04065064 274.06564206 497.01680619 C281.72641052 497.00274098 289.3870328 496.99985066 297.04780629 497.01142908 C302.91973513 497.01962472 308.79158529 497.01289243 314.66350937 497.00074005 C317.07134615 496.99833132 319.47919442 497.00107834 321.8870182 497.00934792 C325.17321341 497.01995952 328.45887811 497.01222432 331.74505615 497 C332.69856581 497.00757605 333.65207546 497.01515211 334.63447934 497.02295774 C340.20249294 496.97902133 344.17691727 496.32630807 349.08885193 493.62818909 C350.44451298 490.91686699 350.25116278 488.74510911 350.29417419 485.70973206 C350.31411942 484.4685965 350.33406464 483.22746094 350.35461426 481.94871521 C350.37159853 480.58927028 350.38847734 479.22982404 350.40525818 477.87037659 C350.42582774 476.48317341 350.44682421 475.09597651 350.4682312 473.70878601 C350.52345174 470.05591403 350.57286104 466.40298549 350.62107849 462.75001526 C350.67129368 459.02315735 350.72697964 455.29638168 350.7822113 451.56959534 C350.88979264 444.25586288 350.99123761 436.94206208 351.08885193 429.62818909 C350.28024719 429.57154587 349.47164246 429.51490265 348.63853455 429.45654297 C347.56961975 429.37582047 346.50070496 429.29509796 345.3993988 429.21192932 C344.34329407 429.1346611 343.28718933 429.05739288 342.19908142 428.9777832 C337.75556678 428.47832598 333.77416615 427.21096438 329.58885193 425.69068909 C328.43256287 425.29333557 328.43256287 425.29333557 327.25291443 424.88795471 C323.7325692 423.66070633 320.40462338 422.34278225 317.08885193 420.62818909 C317.10979919 421.34361877 317.13074646 422.05904846 317.15232849 422.79615784 C317.23606026 426.07335561 317.28769244 429.3503275 317.33885193 432.62818909 C317.37236755 433.75354065 317.40588318 434.87889221 317.44041443 436.03834534 C317.53555847 444.17316051 316.50495176 449.57336471 311.22947693 455.83522034 C310.60557068 456.36502502 309.98166443 456.89482971 309.33885193 457.44068909 C308.72525818 457.9833844 308.11166443 458.52607971 307.47947693 459.08522034 C300.56036548 463.55098671 294.23149354 464.0595246 286.21824646 463.98895264 C285.1456039 463.99151591 284.07296133 463.99407919 282.96781445 463.99672014 C279.3856099 464.00164835 275.80382994 463.98518048 272.22166443 463.96876526 C269.64908864 463.96791878 267.07651213 463.96839453 264.50393677 463.97009277 C258.97153862 463.97166254 253.43924697 463.96228453 247.90687561 463.94537926 C239.90810513 463.92095337 231.90938592 463.91318033 223.91058218 463.90941528 C210.93172758 463.90285642 197.95292967 463.88291062 184.97410583 463.85450745 C172.36961652 463.82695223 159.76514264 463.80572582 147.16062927 463.79298401 C146.38312521 463.79219584 145.60562116 463.79140767 144.80455637 463.79059561 C140.90387894 463.78668038 137.00320141 463.78288928 133.1025238 463.7791599 C100.76459198 463.74808159 68.42672984 463.69526122 36.08885193 463.62818909 C36.14064141 468.21245139 36.23570364 472.79481736 36.33885193 477.37818909 C36.35303162 478.68014221 36.3672113 479.98209534 36.38182068 481.32350159 C36.41404724 482.57389221 36.4462738 483.82428284 36.47947693 485.11256409 C36.51089783 486.8407135 36.51089783 486.8407135 36.54295349 488.60377502 C37.19825816 492.23432702 38.19937364 493.40298886 41.08885193 495.62818909 C43.91482952 496.57018162 45.68844279 496.75105039 48.61619568 496.76881409 C49.49082458 496.78815002 50.36545349 496.80748596 51.2665863 496.82740784 C53.10230356 496.86118607 54.93837266 496.87948549 56.7743988 496.88209534 C63.45420869 497.06887442 63.45420869 497.06887442 66.72166443 499.94850159 C68.59110276 503.61260071 68.17549396 505.71627778 67.08885193 509.62818909 C65.90013123 511.31202698 65.90013123 511.31202698 64.08885193 512.62818909 C59.72459042 513.2832043 55.3091229 513.09116753 50.90135193 513.06568909 C49.6941449 513.08566956 48.48693787 513.10565002 47.2431488 513.12623596 C39.06254192 513.12176324 33.51068305 512.35503693 27.10057068 506.95240784 C26.66357849 506.41229065 26.2265863 505.87217346 25.77635193 505.31568909 C25.32646912 504.78330627 24.8765863 504.25092346 24.41307068 503.70240784 C20.87097046 498.15416235 19.71400643 493.74077728 19.79588318 487.16334534 C19.80012802 486.48517258 19.80437286 485.80699982 19.80874634 485.10827637 C19.82537252 482.96865506 19.86299019 480.83001961 19.90135193 478.69068909 C19.91641971 477.22911427 19.93010443 475.7675245 19.94236755 474.30592346 C19.97522216 470.74636512 20.02688952 467.18737352 20.08885193 463.62818909 C19.25748718 463.64389954 18.42612244 463.65960999 17.56956482 463.67579651 C14.44410057 463.72734742 11.31885518 463.76474264 8.19309998 463.79298401 C6.19140617 463.81524367 4.18990918 463.85339055 2.1884613 463.89186096 C-6.76081518 463.95948774 -15.17495815 463.70876574 -22.22364807 457.56568909 C-23.14597229 456.80578674 -23.14597229 456.80578674 -24.08692932 456.03053284 C-30.33541725 447.80179606 -30.4869682 438.82675482 -30.41908264 428.8682251 C-30.42369804 427.38647326 -30.43005523 425.90472601 -30.43799162 424.42298824 C-30.4546196 420.37334533 -30.44646868 416.32408168 -30.43404675 412.27443779 C-30.42497208 407.89885502 -30.43897767 403.52333608 -30.44996643 399.14776611 C-30.46772827 390.5861668 -30.46392274 382.02470796 -30.45231587 373.4631032 C-30.44327557 366.50637403 -30.44206012 359.54968418 -30.44641113 352.59295082 C-30.44702406 351.60217001 -30.447637 350.6113892 -30.4482685 349.59058473 C-30.44954742 347.57778271 -30.45084427 345.56498071 -30.45215887 343.55217872 C-30.46355705 324.69178831 -30.45046136 305.83147575 -30.4289574 286.9710981 C-30.41107328 270.78408366 -30.41420283 254.59718391 -30.43263245 238.41017151 C-30.45402876 219.60867052 -30.46247306 200.80723762 -30.45018339 182.00572616 C-30.44890919 180.00193363 -30.44765171 177.99814108 -30.44641113 175.99434853 C-30.44579403 175.00845049 -30.44517693 174.02255245 -30.44454113 173.00677871 C-30.44108554 166.0549449 -30.44692077 159.10315426 -30.45632935 152.15132713 C-30.46753632 143.68475586 -30.46453615 135.21833297 -30.44320637 126.75177874 C-30.43268052 122.4311132 -30.42860034 118.11069525 -30.44180298 113.79003143 C-30.45370026 109.83687495 -30.4472089 105.88419617 -30.42589277 101.93108318 C-30.42141551 100.49927511 -30.42371818 99.06742688 -30.43339592 97.63564452 C-30.44552445 95.6926286 -30.43071551 93.7495 -30.41451263 91.80651379 C-30.41386322 90.72631409 -30.41321382 89.64611439 -30.41254473 88.53318137 C-29.78886411 84.91970017 -28.44300173 83.23214706 -25.91114807 80.62818909 C-23.91114807 79.99928284 -23.91114807 79.99928284 -21.91114807 80.06568909 C-21.25114807 80.06440002 -20.59114807 80.06311096 -19.91114807 80.06178284 C-16.99404423 80.88791576 -15.81409432 82.29022905 -13.91114807 84.62818909 C-13.41139406 87.40191215 -13.41139406 87.40191215 -13.41171932 90.66619778 C-13.40212183 91.9111673 -13.39252434 93.15613683 -13.38263601 94.4388327 C-13.39219184 95.82279034 -13.40211076 97.20674551 -13.41235352 98.59069824 C-13.40862773 100.05902128 -13.40313941 101.52734072 -13.39603668 102.9956513 C-13.38155658 107.03605376 -13.39197359 111.0760718 -13.40631974 115.11646068 C-13.41741469 119.47169414 -13.40544766 123.82686935 -13.39613342 128.18209839 C-13.38302948 135.73077885 -13.38421636 143.27934863 -13.39472771 150.82803154 C-13.40965048 161.74764713 -13.39976533 172.66713253 -13.38320852 183.58674068 C-13.35673379 201.3094633 -13.3458891 219.03215676 -13.34693909 236.75489807 C-13.34699741 237.81598337 -13.34705573 238.87706867 -13.34711582 239.97030807 C-13.34738168 244.26980589 -13.34769897 248.56930369 -13.34807908 252.8688015 C-13.34904526 264.7029044 -13.34771772 276.53700641 -13.34498596 288.37110901 C-13.34462612 289.96034778 -13.34462612 289.96034778 -13.34425902 291.58169239 C-13.3398552 309.23604126 -13.32363273 326.89036302 -13.29976517 344.54469591 C-13.28567793 355.43916293 -13.28282937 366.33352708 -13.29438806 377.22799767 C-13.30170084 384.69041096 -13.29866535 392.15277237 -13.28742962 399.61518066 C-13.28134535 403.92362123 -13.28029788 408.23191678 -13.2923069 412.54034805 C-13.30322933 416.48255718 -13.30047871 420.42450872 -13.28676344 424.36670692 C-13.28426223 425.79466196 -13.28687061 427.22263674 -13.29503732 428.65057062 C-13.30540662 430.5884688 -13.29559304 432.52644375 -13.28473568 434.46433926 C-13.28500537 435.54171586 -13.28527506 436.61909247 -13.28555292 437.72911686 C-12.85319938 441.07689442 -11.95349846 442.95611957 -9.91114807 445.62818909 C-6.92336113 446.62411807 -4.95912329 446.75630257 -1.83952522 446.76241016 C-0.78465011 446.76686801 0.27022501 446.77132585 1.35706604 446.77591878 C2.5199833 446.77573442 3.68290056 446.77555006 4.88105774 446.77536011 C6.113326 446.7790368 7.34559426 446.78271348 8.61520398 446.78650159 C12.04206157 446.79563131 15.46887125 446.80023873 18.89573646 446.8028909 C22.58907297 446.80679315 26.28239561 446.81637139 29.97572327 446.82510376 C38.89707558 446.84486821 47.81842903 446.85493338 56.73979777 446.86383155 C60.93911831 446.86821362 65.13843758 446.87358056 69.33775711 446.87882042 C83.29314093 446.89583105 97.24852396 446.91032659 111.20391655 446.91756916 C114.82555518 446.9194791 118.4471938 446.92139943 122.0688324 446.9233551 C122.96899 446.92383884 123.86914761 446.92432258 124.79658271 446.92482098 C139.38800357 446.93312647 153.97934259 446.95847285 168.57072769 446.99093578 C183.54464279 447.02397881 198.51851624 447.04201534 213.492468 447.0452134 C221.90260654 447.04738083 230.31262566 447.0561636 238.72272873 447.08167458 C245.8829128 447.1033438 253.04294844 447.11145062 260.20316158 447.10170779 C263.85749876 447.09715233 267.51152943 447.09912107 271.16582489 447.11846924 C275.12490468 447.13925053 279.08355854 447.12915035 283.04267883 447.11593628 C284.20113465 447.12690553 285.35959047 447.13787477 286.55315101 447.14917642 C292.69991154 447.11642561 292.69991154 447.11642561 298.30052376 444.82115459 C300.87086805 441.66922954 300.81708662 438.69856569 300.79588318 434.80006409 C300.81100449 434.05105835 300.82612579 433.30205261 300.84170532 432.53034973 C300.88457752 430.14598986 300.89341893 427.76289595 300.90135193 425.37818909 C300.92449691 423.75836378 300.94986227 422.13856856 300.9775238 420.51881409 C301.0403703 416.55516056 301.07270936 412.59229685 301.08885193 408.62818909 C300.46341492 408.32654846 299.83797791 408.02490784 299.19358826 407.71412659 C291.99357782 403.99928534 287.42336452 396.17606981 283.08885193 389.62818909 C282.60674255 390.04971252 282.12463318 390.47123596 281.62791443 390.90553284 C280.9962738 391.4533844 280.36463318 392.00123596 279.71385193 392.56568909 C279.08736755 393.11096252 278.46088318 393.65623596 277.81541443 394.21803284 C273.25360763 397.94385242 267.51087108 396.88999291 261.87742615 396.9233551 C259.85996109 396.9405096 257.84416099 396.98438779 255.82713318 397.02857971 C254.54709412 397.03695862 253.26705505 397.04533752 251.94822693 397.05397034 C250.19204041 397.07584412 250.19204041 397.07584412 248.40037537 397.09815979 C243.76860857 396.44082043 240.65413997 394.49213154 237.64549255 390.90943909 C234.60653535 384.89744566 234.49008322 379.27861565 234.58885193 372.62818909 C234.57338318 371.58662659 234.55791443 370.54506409 234.54197693 369.47193909 C234.57421667 363.08847067 235.23382194 357.87649499 239.08885193 352.62818909 C243.93148595 348.69354895 247.73545002 347.49130831 253.85447693 347.53053284 C254.74393005 347.53375549 255.63338318 347.53697815 256.54978943 347.54029846 C257.47018005 347.54867737 258.39057068 347.55705627 259.33885193 347.56568909 C260.74264099 347.57245667 260.74264099 347.57245667 262.17478943 347.57936096 C264.47954234 347.59111991 266.78416419 347.60755483 269.08885193 347.62818909 C268.75885193 346.96818909 268.42885193 346.30818909 268.08885193 345.62818909 C267.99200105 343.46328713 267.95905754 341.29525105 267.96385193 339.12818909 C267.9612738 337.96287659 267.95869568 336.79756409 267.95603943 335.59693909 C268.08885193 332.62818909 268.08885193 332.62818909 269.08885193 330.62818909 C268.42353455 330.64913635 267.75821716 330.67008362 267.07273865 330.69166565 C264.03659891 330.77519518 261.0007015 330.82696512 257.96385193 330.87818909 C256.3937738 330.92846252 256.3937738 330.92846252 254.79197693 330.97975159 C248.53023777 331.05901411 244.82869356 330.85936479 240.08885193 326.62818909 C234.33943011 320.25720815 234.8462533 314.5892701 234.77635193 306.37818909 C234.73284607 304.69789612 234.73284607 304.69789612 234.6884613 302.98365784 C234.63696201 296.2729036 235.01957621 292.04893959 239.08885193 286.62818909 C245.38752054 280.79039867 251.22480688 281.41516611 259.40135193 281.37818909 C261.09421326 281.34725159 261.09421326 281.34725159 262.8212738 281.31568909 C271.60059459 281.27435032 276.3482927 282.87888857 283.08885193 288.62818909 C283.56193787 288.01072815 284.0350238 287.39326721 284.52244568 286.75709534 C285.18373474 285.91018127 285.8450238 285.06326721 286.52635193 284.19068909 C287.5546324 282.86327248 288.58256991 281.53558729 289.60796833 280.20594311 C291.08885193 278.62818909 291.08885193 278.62818909 293.27617931 277.1940279 C296.91088551 274.51645573 299.55442774 271.91759596 300.61113381 267.39079833 C301.48136136 260.26260477 301.25860507 253.07091368 301.17405701 245.90431213 C301.17806889 243.46614677 301.18598667 241.02798518 301.19750977 238.58984375 C301.21511601 232.66769808 301.19113114 226.74659339 301.1476709 220.82466259 C301.09885469 213.92633097 301.09777148 207.0282355 301.09857305 200.12976132 C301.09838703 187.8235736 301.05517026 175.51791507 300.98753357 163.21192932 C300.92194817 151.2720718 300.88659485 139.33263379 300.88499451 127.39259338 C300.88489161 126.6564446 300.88478871 125.92029583 300.88468269 125.16183951 C300.88458443 124.42695765 300.88448617 123.69207579 300.88438493 122.93492478 C300.88240521 109.33349366 300.85417316 95.73223334 300.81246809 82.13086903 C300.79825048 77.32211498 300.79147631 72.51338243 300.78685951 67.70461082 C300.77999958 61.23742743 300.75049883 54.77057196 300.70592308 48.30353737 C300.6926155 45.92671658 300.68611013 43.54984683 300.6867981 41.17298889 C300.68652279 37.93612665 300.66174096 34.70037309 300.63043213 31.46368408 C300.63594442 30.51651935 300.64145671 29.56935461 300.64713603 28.59348792 C300.60577963 23.48568071 300.60577963 23.48568071 298.24250317 19.07597065 C294.82003716 16.77523453 292.09944076 16.50269567 288.08249187 16.49955463 C286.52200462 16.49471796 286.52200462 16.49471796 284.92999238 16.48978359 C283.78332103 16.49133219 282.63664968 16.49288079 281.45523071 16.49447632 C279.63238799 16.49107798 279.63238799 16.49107798 277.77272016 16.487611 C274.39339533 16.48236364 271.01412357 16.48162818 267.63479841 16.48280537 C263.99257166 16.48300904 260.35035292 16.47749385 256.70812988 16.4727478 C249.56970285 16.46443303 242.43128407 16.46169258 235.2928526 16.46113542 C229.49110497 16.46066061 223.68936007 16.45860762 217.8876133 16.4554348 C201.44514687 16.44662563 185.00268698 16.44201578 168.56021818 16.44276527 C167.22993998 16.44282521 167.22993998 16.44282521 165.87278748 16.44288635 C164.98485464 16.44292723 164.09692181 16.44296811 163.18208192 16.44301023 C148.7918269 16.44341668 134.40159804 16.43384812 120.01135059 16.41974799 C105.2419627 16.40539036 90.47258758 16.39847748 75.70319253 16.39934176 C67.40875762 16.39967397 59.11435013 16.39691674 50.81992149 16.38616371 C43.75750976 16.37706674 36.69513787 16.37487681 29.63272282 16.38167313 C26.02898156 16.38494253 22.42531681 16.38497996 18.82158279 16.37631989 C14.91549428 16.36702974 11.009518 16.37322007 7.10342407 16.38095093 C5.3934553 16.37323558 5.3934553 16.37323558 3.6489417 16.36536437 C-3.8259009 16.38813935 -3.8259009 16.38813935 -10.91114807 18.62818909 C-13.67268868 21.9726223 -13.19039556 26.17522231 -13.18458557 30.31568909 C-13.20486815 31.83392571 -13.22571881 33.35215483 -13.24708557 34.87037659 C-13.2697078 37.25357931 -13.2861684 39.63648536 -13.29200745 42.01979065 C-13.30153079 44.32729574 -13.33529314 46.63348016 -13.37208557 48.94068909 C-13.3670401 49.65120422 -13.36199463 50.36171936 -13.35679626 51.09376526 C-13.42468176 54.51020438 -13.67161361 56.31933697 -15.79249573 59.05397034 C-18.29486118 60.91329881 -19.7984871 61.47635197 -22.91114807 61.62818909 C-25.70208353 60.91422885 -27.34627415 60.42517439 -29.03468323 58.04298401 C-30.27783235 54.61791773 -30.23624051 51.27788827 -30.24708557 47.67897034 C-30.25374237 46.90691757 -30.26039917 46.13486481 -30.26725769 45.3394165 C-30.2773688 43.70628738 -30.28207519 42.07311706 -30.28175354 40.43995667 C-30.28610325 37.96618082 -30.32237056 35.49422482 -30.36036682 33.02076721 C-30.46882813 17.70261899 -30.46882813 17.70261899 -25.91114807 10.62818909 C-25.35427307 9.72068909 -24.79739807 8.81318909 -24.22364807 7.87818909 C-16.97340935 0.82390276 -9.81114236 -0.0978946 0 0 Z M317.08885193 65.62818909 C317.08885193 129.31818909 317.08885193 193.00818909 317.08885193 258.62818909 C324.01885193 256.31818909 330.94885193 254.00818909 338.08885193 251.62818909 C345.33885193 250.25318909 345.33885193 250.25318909 348.10447693 249.91725159 C350.08576353 249.83054211 350.08576353 249.83054211 351.08885193 248.62818909 C351.19473921 246.36139275 351.22855084 244.09123152 351.23602295 241.82197571 C351.23969964 241.10186034 351.24337633 240.38174498 351.24716443 239.63980794 C351.25824407 237.20851909 351.26205233 234.7772729 351.26585388 232.34596252 C351.27211535 230.61010602 351.27876187 228.87425088 351.2857666 227.13839722 C351.30320698 222.40893738 351.31373681 217.67948768 351.32197213 212.95000362 C351.32711628 209.99726369 351.3331923 207.04452694 351.33948326 204.09178925 C351.35854455 194.85949802 351.37277319 185.62721484 351.38109523 176.39490771 C351.39086948 165.72659847 351.41718996 155.05849661 351.45759612 144.39026046 C351.48772948 136.15243658 351.5025615 127.91467223 351.50587624 119.67679429 C351.50823011 114.75308692 351.51723389 109.82960086 351.54233742 104.90595245 C351.5655743 100.27335665 351.5698691 95.64112853 351.55957603 91.00848961 C351.55907948 89.30771603 351.56543519 87.60692463 351.57913208 85.90620613 C351.59678456 83.58447349 351.58977879 81.26406986 351.57659912 78.94233704 C351.57898747 77.64298595 351.58137583 76.34363487 351.58383656 75.00490952 C351.00340328 71.04526955 349.92916465 69.40049012 347.08885193 66.62818909 C337.59674995 63.46415509 327.09440594 65.62818909 317.08885193 65.62818909 Z M301.96775818 290.86256409 C293.24568027 300.99581639 287.4388909 313.5003852 285.08885193 326.62818909 C284.74853943 328.39162659 284.74853943 328.39162659 284.40135193 330.19068909 C282.52403419 350.84118426 287.83291247 370.56956529 301.08885193 386.62818909 C301.69342224 387.40678284 302.29799255 388.18537659 302.92088318 388.98756409 C314.46356573 403.08178699 332.51017427 411.77967736 350.33885193 414.37818909 C351.57635193 414.46068909 352.81385193 414.54318909 354.08885193 414.62818909 C354.79525818 414.67975159 355.50166443 414.73131409 356.22947693 414.78443909 C376.25188067 415.58003129 395.40462649 407.64950925 410.21385193 394.50318909 C424.54046289 381.2197668 432.98235294 363.14991101 434.37010193 343.68287659 C435.04870089 324.10990736 428.72095924 305.2712976 415.77635193 290.50318909 C414.23043011 288.86240971 412.66829091 287.23672996 411.08885193 285.62818909 C410.41209412 284.92693909 409.7353363 284.22568909 409.03807068 283.50318909 C394.62921208 269.6099017 374.90848466 264.10215894 355.28807068 264.41334534 C334.1963938 265.19129722 316.1921015 275.87854128 301.96775818 290.86256409 Z M251.08885193 297.62818909 C251.08885193 303.23818909 251.08885193 308.84818909 251.08885193 314.62818909 C256.69885193 314.62818909 262.30885193 314.62818909 268.08885193 314.62818909 C268.08885193 309.01818909 268.08885193 303.40818909 268.08885193 297.62818909 C262.47885193 297.62818909 256.86885193 297.62818909 251.08885193 297.62818909 Z M251.08885193 363.62818909 C251.08885193 369.56818909 251.08885193 375.50818909 251.08885193 381.62818909 C256.69885193 381.62818909 262.30885193 381.62818909 268.08885193 381.62818909 C268.08885193 375.68818909 268.08885193 369.74818909 268.08885193 363.62818909 C262.47885193 363.62818909 256.86885193 363.62818909 251.08885193 363.62818909 Z " fill="#000000" transform="translate(45.91114807128906,-0.6281890869140625)"/>
<path d="M0 0 C0.78560106 -0.00367669 1.57120212 -0.00735338 2.38060927 -0.01114148 C5.02757008 -0.02220306 7.67449167 -0.02602634 10.32147217 -0.02983093 C12.213487 -0.03609372 14.10550059 -0.04274035 15.99751282 -0.04974365 C21.14845514 -0.06717066 26.29938816 -0.07771007 31.45035267 -0.08594918 C34.66693344 -0.09109578 37.8835113 -0.09717167 41.10009003 -0.10346031 C51.15944693 -0.12251721 61.21879647 -0.13674723 71.27816796 -0.14507228 C82.89843804 -0.15484726 94.51851776 -0.18117155 106.13872075 -0.22157317 C115.1145784 -0.25171217 124.09038143 -0.26653906 133.06628871 -0.26985329 C138.42987043 -0.27220633 143.79324889 -0.28119973 149.15677643 -0.30631447 C154.20305074 -0.32956135 159.2489875 -0.33384201 164.29530144 -0.32355309 C166.1472352 -0.32305679 167.99918538 -0.3294048 169.8510685 -0.34310913 C172.38036615 -0.36077876 174.90844598 -0.3537467 177.43774414 -0.34057617 C178.16985587 -0.35154542 178.90196761 -0.36251466 179.65626454 -0.37381631 C184.72435688 -0.31014394 187.55543778 0.98982276 191.47283936 4.14717102 C197.2481402 10.54682871 196.68556277 16.21688593 196.72283936 24.45967102 C196.75377686 26.15253235 196.75377686 26.15253235 196.78533936 27.8795929 C196.81688702 34.57952888 196.69485176 39.61470429 191.97283936 44.79170227 C186.84324073 48.78584287 183.21371192 49.29510196 176.90135193 49.28761292 C176.12306355 49.29058404 175.34477517 49.29355516 174.54290229 49.29661632 C171.92668236 49.30530995 169.31050815 49.30681212 166.6942749 49.30830383 C164.82181704 49.31293153 162.94936012 49.31795612 161.0769043 49.323349 C155.98386666 49.33647949 150.89084221 49.3429192 145.79779029 49.34735966 C142.61688353 49.35028927 139.43598039 49.35439387 136.25507545 49.35886383 C126.30571054 49.37254033 116.35635388 49.3822063 106.40698022 49.38606572 C94.91636545 49.39054731 83.4258696 49.40809926 71.93529099 49.43706632 C63.05707609 49.45867197 54.17889467 49.4687694 45.30065376 49.47010684 C39.9963711 49.47115565 34.69220019 49.4770796 29.38794518 49.49492645 C24.39833094 49.51138785 19.40891269 49.51357201 14.41928101 49.50478745 C12.58831572 49.50401604 10.75733997 49.50837337 8.92640114 49.5182457 C6.4257927 49.53093771 3.92588127 49.52510355 1.42527771 49.5146637 C0.70162999 49.5227201 -0.02201772 49.53077651 -0.76759416 49.53907704 C-6.09471338 49.48710251 -10.15771058 48.2577263 -14.17169189 44.68232727 C-19.33466243 38.17249486 -18.73893976 32.30811221 -18.77716064 24.27217102 C-18.79778564 23.19580383 -18.81841064 22.11943665 -18.83966064 21.01045227 C-18.87195416 14.46294237 -18.67370548 9.51789716 -13.99200439 4.50263977 C-8.95626624 0.65178118 -6.21765662 -0.0015469 0 0 Z M-2.52716064 16.14717102 C-2.52716064 21.75717102 -2.52716064 27.36717102 -2.52716064 33.14717102 C57.86283936 33.14717102 118.25283936 33.14717102 180.47283936 33.14717102 C180.47283936 27.53717102 180.47283936 21.92717102 180.47283936 16.14717102 C120.08283936 16.14717102 59.69283936 16.14717102 -2.52716064 16.14717102 Z " fill="#000000" transform="translate(67.52716064453125,214.8528289794922)"/>
<path d="M0 0 C1.18346857 -0.00657338 1.18346857 -0.00657338 2.3908456 -0.01327956 C5.04928781 -0.02669327 7.70769685 -0.0328522 10.36616516 -0.03897095 C12.26640982 -0.04686995 14.16665297 -0.05513877 16.06689453 -0.06375122 C22.32068952 -0.08999683 28.57449128 -0.10528237 34.82832336 -0.11953735 C36.97958188 -0.12489618 39.13084035 -0.13027368 41.28209877 -0.13566971 C50.23024636 -0.15730303 59.17839212 -0.17603998 68.12655926 -0.1872921 C80.95767114 -0.20353189 93.78848021 -0.23670538 106.61947793 -0.29369295 C115.63696286 -0.33237959 124.65436677 -0.35192335 133.67193252 -0.35721266 C139.05963109 -0.36086814 144.44700687 -0.37291023 149.83461571 -0.4053154 C154.9047458 -0.43537303 159.97435741 -0.44171598 165.04455757 -0.42993164 C166.90414232 -0.42971071 168.76375096 -0.43803212 170.62325287 -0.45558548 C173.16555561 -0.47827529 175.70597804 -0.46998407 178.24829102 -0.45410156 C178.98138086 -0.46798365 179.7144707 -0.48186574 180.46977538 -0.49616849 C186.07855516 -0.41004332 189.43208542 1.46289539 193.44160461 5.15390015 C197.69174479 10.70510364 196.88325662 17.47388813 196.81660461 24.15390015 C196.82820618 25.31663452 196.83980774 26.4793689 196.85176086 27.67733765 C196.81522815 38.32053566 196.81522815 38.32053566 193.44160461 43.15390015 C187.99548178 48.31338494 183.05648808 49.45309355 175.71899414 49.42132568 C174.56336565 49.42812235 174.56336565 49.42812235 173.38439113 49.43505633 C170.80663999 49.44770164 168.2291001 49.44607988 165.65132141 49.44442749 C163.801516 49.45041268 161.95171308 49.45721821 160.10191345 49.46478271 C155.07909194 49.4824514 150.05633857 49.48713848 145.03348899 49.48841429 C141.89442788 49.48983601 138.75538409 49.49410603 135.61632729 49.49940872 C124.66232325 49.51791225 113.7083679 49.52607897 102.75434875 49.52450562 C92.54839032 49.5233043 82.3426434 49.54440389 72.13673848 49.57599294 C63.37054535 49.60215759 54.60442129 49.61287282 45.83818942 49.6115948 C40.60426671 49.6110852 35.37053195 49.61676732 30.13664818 49.6379509 C25.21260474 49.65733624 20.28892848 49.65745564 15.36487198 49.64291763 C13.56054586 49.64082877 11.75619675 49.64553503 9.95191002 49.65763855 C7.48256647 49.67312676 5.01448336 49.6637602 2.54516602 49.64837646 C1.83649012 49.65866359 1.12781422 49.66895072 0.3976633 49.67954957 C-4.95552778 49.60619442 -9.17107218 48.13354178 -13.55839539 45.15390015 C-18.96089393 38.36614556 -18.76913656 32.65936423 -18.80839539 24.34140015 C-18.82902039 23.26052124 -18.84964539 22.17964233 -18.87089539 21.06600952 C-18.90313523 14.50117186 -18.71758726 9.5381744 -14.02323914 4.5093689 C-8.97948446 0.65238003 -6.22807887 0.0041654 0 0 Z M-2.55839539 16.15390015 C-2.55839539 21.76390015 -2.55839539 27.37390015 -2.55839539 33.15390015 C57.83160461 33.15390015 118.22160461 33.15390015 180.44160461 33.15390015 C180.44160461 27.54390015 180.44160461 21.93390015 180.44160461 16.15390015 C120.05160461 16.15390015 59.66160461 16.15390015 -2.55839539 16.15390015 Z " fill="#000000" transform="translate(67.55839538574219,148.84609985351563)"/>
<path d="M0 0 C1.16258888 -0.00445668 1.16258888 -0.00445668 2.3486644 -0.0090034 C4.94795882 -0.0176809 7.54720713 -0.01919784 10.14651489 -0.02069092 C12.00926817 -0.0253197 13.8720205 -0.03034444 15.73477173 -0.03573608 C20.7967594 -0.0488548 25.85873382 -0.05530381 30.92073584 -0.05974674 C34.08271939 -0.06267783 37.24469933 -0.06678267 40.40668106 -0.07125092 C50.29837746 -0.08492338 60.19006558 -0.09459172 70.08177078 -0.09845281 C81.50332518 -0.10293551 92.92476003 -0.12049434 104.34627807 -0.1494534 C113.17355815 -0.17105875 122.00080457 -0.18115645 130.82811081 -0.18249393 C136.10107972 -0.18354261 141.3739362 -0.18946426 146.64687729 -0.20731354 C151.60613643 -0.22377473 156.56519839 -0.2259592 161.5244751 -0.21717453 C163.34415337 -0.21640316 165.16384216 -0.22076006 166.9834938 -0.23063278 C169.46872344 -0.24332555 171.95325183 -0.23749028 174.43847656 -0.22705078 C175.15755121 -0.23510719 175.87662586 -0.24316359 176.61749065 -0.25146413 C181.93077802 -0.19930794 186.02371623 1.0220519 189.99075317 4.64044189 C195.01107922 11.08795094 194.59127971 16.43720331 194.65872192 24.32794189 C194.68772583 25.4397583 194.71672974 26.55157471 194.74661255 27.69708252 C194.79514865 34.0030416 194.82156678 40.25279204 190.34622192 45.14044189 C185.22486158 48.57915302 181.42601519 49.72462913 175.2177887 49.64837646 C174.42791551 49.65461643 173.63804233 49.66085639 172.82423359 49.66728544 C170.19250099 49.6831681 167.5617007 49.67063021 164.92996216 49.65802002 C163.03720563 49.66344321 161.14445332 49.67056697 159.25170898 49.67926025 C154.12161337 49.69747185 148.99184006 49.69043528 143.86173892 49.67774391 C138.49002647 49.66760656 133.11834135 49.6770115 127.74662781 49.68328857 C118.72744804 49.69056219 109.70839936 49.68098406 100.6892395 49.66192627 C90.26391871 49.64015153 79.83891076 49.64721449 69.41359752 49.66923189 C60.45884475 49.6873861 51.50418612 49.68994429 42.54942089 49.67947721 C37.20271461 49.67324327 31.85615536 49.67240414 26.50945854 49.68562317 C21.48358773 49.69718152 16.45812021 49.68915606 11.43229294 49.66604614 C9.58843594 49.66075928 7.74454498 49.66227245 5.90070152 49.6710968 C3.38256739 49.68203676 0.86572354 49.66830833 -1.65232849 49.64837646 C-2.38102963 49.65729935 -3.10973076 49.66622224 -3.86051375 49.67541552 C-8.91424603 49.59788425 -11.74561852 48.28597182 -15.65377808 45.14044189 C-21.28428508 38.90123143 -20.89454367 33.49197751 -20.96627808 25.45294189 C-20.99528198 24.3888208 -21.02428589 23.32469971 -21.0541687 22.22833252 C-21.1069449 15.65566645 -20.53410077 10.58605889 -16.65377808 5.14044189 C-11.45605508 0.07266198 -6.99018051 -0.0083712 0 0 Z M-4.65377808 16.14044189 C-4.65377808 21.75044189 -4.65377808 27.36044189 -4.65377808 33.14044189 C55.73622192 33.14044189 116.12622192 33.14044189 178.34622192 33.14044189 C178.34622192 27.53044189 178.34622192 21.92044189 178.34622192 16.14044189 C117.95622192 16.14044189 57.56622192 16.14044189 -4.65377808 16.14044189 Z " fill="#000000" transform="translate(69.65377807617188,280.85955810546875)"/>
<path d="M0 0 C0.76139746 -0.00297112 1.52279493 -0.00594224 2.30726504 -0.0090034 C4.8604331 -0.01767995 7.41355421 -0.01919777 9.96673584 -0.02069092 C11.79668783 -0.02531984 13.62663885 -0.03034461 15.45658875 -0.03573608 C20.42987056 -0.04885523 25.40313887 -0.05530414 30.37643528 -0.05974674 C33.48416132 -0.06267836 36.59188367 -0.06678334 39.69960785 -0.07125092 C49.42472035 -0.0849248 59.14982443 -0.09459189 68.87494588 -0.09845281 C80.09781944 -0.10293291 91.32057116 -0.12047907 102.54340768 -0.1494534 C111.22040184 -0.17107674 119.89736173 -0.18115744 128.57438254 -0.18249393 C133.75575427 -0.18354152 138.93701146 -0.18943962 144.1183548 -0.20731354 C148.99390202 -0.22380535 153.86924873 -0.22594429 158.74481392 -0.21717453 C160.53140106 -0.21640474 162.31799903 -0.22073917 164.10455894 -0.23063278 C166.54967957 -0.24337612 168.99409258 -0.23746285 171.43920898 -0.22705078 C172.49157317 -0.23913539 172.49157317 -0.23913539 173.56519723 -0.25146413 C179.06036075 -0.19699784 184.8467725 0.77031159 189.04350591 4.55697513 C194.42944568 10.7932061 193.7543868 16.99774538 193.84857178 24.82794189 C193.904646 26.56720947 193.904646 26.56720947 193.96185303 28.34161377 C194.0268162 34.68995932 193.67685702 39.26217873 190.04241943 44.56549072 C186.32075121 48.30163789 183.02784417 49.48138383 177.75238043 49.54633421 C177.01230244 49.54032416 176.27222445 49.53431412 175.50971985 49.52812195 C174.71338841 49.53350749 173.91705697 49.53889302 173.09659427 49.54444176 C170.4311615 49.55873668 167.76622427 49.55161391 165.10076904 49.54449463 C163.18860474 49.55019739 161.27644385 49.55716129 159.36428833 49.56529236 C154.17214937 49.58324915 148.98017917 49.58205063 143.78801847 49.57634997 C139.45390825 49.57326179 135.11983063 49.57934645 130.78572506 49.58538872 C120.56144788 49.5994406 110.33725424 49.59786711 100.11297607 49.58648682 C89.5638758 49.57500447 79.01502972 49.58908179 68.46596295 49.61588329 C59.40934951 49.63803179 50.35281592 49.64467959 41.29617733 49.63880688 C35.88683323 49.63543413 30.4776521 49.63787357 25.06833076 49.65505791 C19.98176736 49.67051136 14.89558087 49.66658916 9.80903244 49.64775276 C7.94259527 49.64406247 6.07613027 49.64718814 4.2097187 49.65763855 C1.66084596 49.67082023 -0.88677383 49.65932665 -3.43559265 49.64164734 C-4.17343992 49.65125235 -4.91128719 49.66085735 -5.67149347 49.67075342 C-10.74345622 49.59841522 -13.59883897 48.29538527 -17.52642822 45.14044189 C-22.36327838 39.38072858 -22.13267435 32.29434772 -22.02642822 25.14044189 C-22.04189697 24.09887939 -22.05736572 23.05731689 -22.07330322 21.98419189 C-22.04106348 15.60072348 -21.38145821 10.38874779 -17.52642822 5.14044189 C-11.76598033 0.46007798 -7.20344638 -0.00878489 0 0 Z M-5.52642822 16.14044189 C-5.52642822 21.75044189 -5.52642822 27.36044189 -5.52642822 33.14044189 C-3.86375299 34.80311713 -1.8545703 34.26257069 0.36615998 34.2695232 C1.07139972 34.26661036 1.77663947 34.26369752 2.50325012 34.26069641 C3.61934155 34.26197805 3.61934155 34.26197805 4.75798029 34.26328558 C7.27005358 34.2649426 9.7820612 34.2594154 12.29412842 34.25396729 C14.08735655 34.25368544 15.8805848 34.2538431 17.67381287 34.25440979 C22.55790543 34.25469785 27.44197365 34.24879975 32.32606053 34.24183583 C37.42433758 34.23560371 42.52261512 34.23499861 47.62089539 34.23381042 C57.28234337 34.23069669 66.9437801 34.22248274 76.60522312 34.21246094 C87.601408 34.2013011 98.59759341 34.19578968 109.59378254 34.1907655 C132.22038542 34.18030016 154.84697749 34.16249954 177.47357178 34.14044189 C177.47357178 28.20044189 177.47357178 22.26044189 177.47357178 16.14044189 C117.08357178 16.14044189 56.69357178 16.14044189 -5.52642822 16.14044189 Z " fill="#000000" transform="translate(70.52642822265625,346.85955810546875)"/>
<path d="M0 0 C0.74121094 -0.03351562 1.48242188 -0.06703125 2.24609375 -0.1015625 C5.88199467 1.03887185 7.59106957 3.51346179 9.5625 6.625 C11.63770248 11.15160553 13.33901289 15.81003451 15.046875 20.484375 C15.55191368 21.83904846 16.05805575 23.19331102 16.56524658 24.54718018 C17.89059288 28.09348139 19.2016319 31.64490035 20.50946045 35.19769287 C21.84582494 38.82102117 23.19462675 42.43970916 24.54296875 46.05859375 C26.05658384 50.12142746 27.56909364 54.1846166 29.07073975 58.25189209 C29.51500305 59.45364075 29.95926636 60.6553894 30.41699219 61.89355469 C30.80828308 62.95467468 31.19957397 64.01579468 31.60272217 65.10906982 C32.49462398 67.5717855 32.49462398 67.5717855 33.5625 69.625 C33.97587988 72.68401114 34.03361211 75.57089393 33.5625 78.625 C31.5 81.25 31.5 81.25 28.5625 82.625 C24.48632832 82.69651178 22.4223255 82.3654053 19.3125 79.6875 C17.5625 76.625 17.5625 76.625 14.5625 66.625 C4.9925 66.955 -4.5775 67.285 -14.4375 67.625 C-16.9125 73.565 -16.9125 73.565 -19.4375 79.625 C-23.63047533 82.7697315 -24.48595341 83.24394332 -29.4375 82.625 C-31.75 81.625 -31.75 81.625 -33.4375 79.625 C-35.12333319 72.54360575 -33.56036245 67.89433007 -30.87890625 61.265625 C-30.49693588 60.28116394 -30.11496552 59.29670288 -29.72142029 58.28240967 C-28.49749177 55.13983223 -27.24922042 52.00759724 -26 48.875 C-25.19435072 46.81703691 -24.39029996 44.75844727 -23.58789062 42.69921875 C-22.00213169 38.63907511 -20.40085221 34.58562495 -18.78564453 30.53710938 C-17.22791176 26.63181881 -15.69913568 22.71718304 -14.19482422 18.79101562 C-13.8393602 17.87390808 -13.48389618 16.95680054 -13.11766052 16.01190186 C-12.45264933 14.29568151 -11.79527179 12.57647528 -11.14710999 10.8538208 C-8.951972 5.23788511 -6.78498287 0.07055441 0 0 Z M-0.4375 28.625 C-1.77350613 32.10314628 -3.10585642 35.58268139 -4.4375 39.0625 C-4.8190625 40.05572266 -5.200625 41.04894531 -5.59375 42.07226562 C-5.9546875 43.01650391 -6.315625 43.96074219 -6.6875 44.93359375 C-7.02265625 45.80814209 -7.3578125 46.68269043 -7.703125 47.58374023 C-8.4939207 49.42026915 -8.4939207 49.42026915 -8.4375 50.625 C-2.8275 50.625 2.7825 50.625 8.5625 50.625 C7.6054738 47.89536868 6.64692654 45.16628758 5.6875 42.4375 C5.28337891 41.28411133 5.28337891 41.28411133 4.87109375 40.10742188 C3.51192181 36.24538452 2.12535788 32.41075768 0.5625 28.625 C0.2325 28.625 -0.0975 28.625 -0.4375 28.625 Z " fill="#000000" transform="translate(161.4375,32.375)"/>
<path d="M0 0 C8.42496441 2.64375065 14.47621826 16.55535022 19.06640625 23.6484375 C23.83549426 19.3505124 27.14018235 13.93990958 30.73242188 8.671875 C31.24611328 7.929375 31.75980469 7.186875 32.2890625 6.421875 C32.98140991 5.40746338 32.98140991 5.40746338 33.68774414 4.37255859 C35.06640625 2.6484375 35.06640625 2.6484375 38.06640625 0.6484375 C41.90334212 0.22986268 44.17843689 0.10199481 47.50390625 2.1484375 C49.68682042 5.64110018 49.83492796 8.69347695 49.06640625 12.6484375 C47.365072 15.95672859 45.17349123 18.79258184 42.87890625 21.7109375 C42.30076172 22.47470703 41.72261719 23.23847656 41.12695312 24.02539062 C38.94086246 26.91300643 36.74865138 29.79335976 34.48974609 32.62451172 C31.82467856 35.7584295 31.82467856 35.7584295 31.2902832 39.62182617 C32.11993682 41.78821643 33.10449721 43.39417174 34.47265625 45.265625 C34.96548096 45.94842529 35.45830566 46.63122559 35.96606445 47.3347168 C36.49417725 48.05699463 37.02229004 48.77927246 37.56640625 49.5234375 C38.65543609 51.04689893 39.74265163 52.57165878 40.828125 54.09765625 C41.37130371 54.85997559 41.91448242 55.62229492 42.47412109 56.40771484 C44.81022145 59.69516181 47.12619887 62.9907036 49.37890625 66.3359375 C50.11753906 67.41230469 50.85617187 68.48867187 51.6171875 69.59765625 C53.32942274 73.20211911 53.17890407 74.87137173 52.06640625 78.6484375 C50.30776666 81.48180128 48.96244425 81.67731583 45.69140625 82.5859375 C42.06640625 82.6484375 42.06640625 82.6484375 39.78125 81.27734375 C35.87900193 77.49862008 33.0302307 73.14139002 30.00390625 68.6484375 C28.78765963 66.85418537 27.56772533 65.0624263 26.34375 63.2734375 C25.80999756 62.48195312 25.27624512 61.69046875 24.72631836 60.875 C23.01071898 58.57374006 21.14180434 56.62645869 19.06640625 54.6484375 C18.69878174 55.18734619 18.33115723 55.72625488 17.95239258 56.28149414 C16.26201025 58.75850843 14.57046621 61.23472729 12.87890625 63.7109375 C12.30076172 64.55849609 11.72261719 65.40605469 11.12695312 66.27929688 C0.49099184 81.84265266 0.49099184 81.84265266 -2.93359375 82.6484375 C-6.28564886 82.47201355 -8.90750676 82.21113037 -11.87109375 80.5859375 C-13.6278925 77.38236331 -13.51691443 74.160345 -12.93359375 70.6484375 C-11.50073877 67.65733014 -9.58350203 65.13970965 -7.55859375 62.5234375 C-7.02073242 61.79713135 -6.48287109 61.0708252 -5.92871094 60.32250977 C-4.82109941 58.82684305 -3.70647297 57.33634624 -2.58496094 55.85107422 C-0.05367573 52.47477985 2.37777896 49.02939028 4.81640625 45.5859375 C5.64378667 44.4278531 6.47183486 43.27024526 7.30078125 42.11328125 C8.17476562 40.89318359 8.17476562 40.89318359 9.06640625 39.6484375 C5.89502602 34.5395929 2.6928949 29.48766082 -0.8125 24.6015625 C-1.30709717 23.90611328 -1.80169434 23.21066406 -2.3112793 22.49414062 C-3.29275802 21.12042248 -4.28479774 19.75417538 -5.28833008 18.39648438 C-8.2820928 14.18635739 -9.78410707 10.97146309 -9.93359375 5.6484375 C-7.71733249 1.11955579 -5.14501813 -0.3979572 0 0 Z " fill="#000000" transform="translate(222.93359375,32.3515625)"/>
<path d="M0 0 C1.21171875 -0.03738281 2.4234375 -0.07476562 3.671875 -0.11328125 C10.10004831 -0.17630256 14.90825964 0.0753378 20.31982422 3.70849609 C26.04943616 9.8482655 25.35866453 16.96033371 25.3125 24.8125 C25.3424707 26.61557617 25.3424707 26.61557617 25.37304688 28.45507812 C25.36930892 35.23198188 25.36078275 40.10969734 20.875 45.375 C14.76572283 50.2855213 7.74884215 49.9489226 0.25 49.8125 C-0.85601562 49.81958984 -1.96203125 49.82667969 -3.1015625 49.83398438 C-9.67098838 49.78266074 -14.704833 49.49458226 -19.76953125 44.875 C-24.82365494 38.3840853 -24.33909205 33.0026452 -24.375 25.0625 C-24.395625 23.93392578 -24.41625 22.80535156 -24.4375 21.64257812 C-24.46900802 14.95106236 -24.37693211 9.85862193 -19.58984375 4.73046875 C-12.96734458 -0.33379532 -8.20710417 0.09423606 0 0 Z M-8.125 16.375 C-8.125 21.985 -8.125 27.595 -8.125 33.375 C-2.515 33.375 3.095 33.375 8.875 33.375 C8.875 27.765 8.875 22.155 8.875 16.375 C3.265 16.375 -2.345 16.375 -8.125 16.375 Z " fill="#000000" transform="translate(305.125,214.625)"/>
<path d="M0 0 C1.88041992 -0.02320313 1.88041992 -0.02320313 3.79882812 -0.046875 C15.37238321 0.00234799 15.37238321 0.00234799 19.9375 4.5 C24.67886566 9.30458387 24.45722728 14.28063786 24.484375 20.6875 C24.46890625 21.945625 24.4534375 23.20375 24.4375 24.5 C24.45296875 25.758125 24.4684375 27.01625 24.484375 28.3125 C24.43614244 39.69538372 24.43614244 39.69538372 19.9375 44.5 C13.70836333 50.26195142 7.81025666 49.73606252 -0.3125 49.8125 C-1.83037109 49.85600586 -1.83037109 49.85600586 -3.37890625 49.90039062 C-9.74341821 49.95404734 -14.83359938 49.36149164 -20.0625 45.5 C-25.42547961 38.76189741 -25.30127654 33.07444209 -25.375 24.8125 C-25.40400391 23.74837891 -25.43300781 22.68425781 -25.46289062 21.58789062 C-25.51490808 15.10971646 -25.2262584 9.70509214 -21.0625 4.5 C-14.86665439 -0.82758426 -7.85370804 -0.09720938 0 0 Z M-9.0625 16.5 C-9.0625 22.11 -9.0625 27.72 -9.0625 33.5 C-3.4525 33.5 2.1575 33.5 7.9375 33.5 C7.9375 27.89 7.9375 22.28 7.9375 16.5 C2.3275 16.5 -3.2825 16.5 -9.0625 16.5 Z " fill="#000000" transform="translate(306.0625,148.5)"/>
<path d="M0 0 C0.86777573 -0.0127597 1.73555145 -0.02551941 2.62962341 -0.03866577 C4.03124474 -0.04200424 4.03124474 -0.04200424 5.46118164 -0.04541016 C6.42407608 -0.05206696 7.38697052 -0.05872375 8.37904358 -0.06558228 C10.41576222 -0.07570859 12.45251403 -0.0803993 14.48925781 -0.08007812 C17.60610564 -0.08445128 20.72153754 -0.12077121 23.83813477 -0.15869141 C25.81664554 -0.16455954 27.79516305 -0.16852895 29.77368164 -0.17041016 C30.70607162 -0.18478119 31.63846161 -0.19915222 32.59910583 -0.21395874 C39.02743264 -0.16854148 39.02743264 -0.16854148 42.27197266 2.10058594 C44.35420236 5.33032837 44.22030957 7.53522556 43.68383789 11.29052734 C41.81675284 13.65550174 40.36322358 14.9508345 37.68383789 16.29052734 C35.64328784 16.36118351 33.60049532 16.3747471 31.55883789 16.35302734 C30.46313477 16.34400391 29.36743164 16.33498047 28.23852539 16.32568359 C27.39547852 16.31408203 26.55243164 16.30248047 25.68383789 16.29052734 C25.68827911 17.03332947 25.69272034 17.77613159 25.69729614 18.54144287 C25.73738685 25.54506912 25.7678294 32.54865556 25.78746223 39.55236435 C25.79789502 43.15296071 25.8120449 46.75346216 25.8347168 50.35400391 C25.85646334 53.82937807 25.86841032 57.304661 25.87359238 60.78009796 C25.87908071 62.7498933 25.8946908 64.71965199 25.91043091 66.68939209 C25.9106575 68.49080658 25.9106575 68.49080658 25.91088867 70.32861328 C25.9153299 71.38562439 25.91977112 72.4426355 25.92434692 73.53167725 C25.68045624 76.32931784 25.18387749 77.94081907 23.68383789 80.29052734 C20.98795986 82.38732137 19.59089389 82.28563555 16.12133789 82.10302734 C11.65622266 81.04763647 11.65622266 81.04763647 9.68383789 78.29052734 C9.32307434 75.57600403 9.32307434 75.57600403 9.34326172 72.25854492 C9.34348831 71.01748489 9.3437149 69.77642487 9.34394836 68.49775696 C9.35926821 67.14352051 9.37491619 65.78928773 9.39086914 64.43505859 C9.39646538 63.04929564 9.40073535 61.66352675 9.4037323 60.27775574 C9.41517906 56.63289971 9.44464431 52.98840312 9.47784424 49.34368896 C9.50854904 45.62354393 9.52223848 41.90334073 9.53735352 38.18310547 C9.56951458 30.88541568 9.62070838 23.5880219 9.68383789 16.29052734 C8.47147461 16.34273437 8.47147461 16.34273437 7.23461914 16.39599609 C6.16598633 16.42306641 5.09735352 16.45013672 3.99633789 16.47802734 C2.41272461 16.53023437 2.41272461 16.53023437 0.79711914 16.58349609 C-2.72714387 16.25185277 -4.51475077 15.41900179 -7.31616211 13.29052734 C-8.98970662 9.94343832 -9.54172341 8.19277253 -8.62866211 4.54052734 C-6.42638809 0.76520046 -4.12592274 0.04122846 0 0 Z " fill="#000000" transform="translate(66.316162109375,32.70947265625)"/>
<path d="M0 0 C1.5 1.6875 1.5 1.6875 2 4 C1.57899702 9.14000074 0.42105984 12.63393221 -2.21875 17.04296875 C-2.54827667 17.60037247 -2.87780334 18.15777618 -3.21731567 18.73207092 C-4.30041563 20.55744872 -5.39988153 22.37233714 -6.5 24.1875 C-7.26963435 25.47634093 -8.03833608 26.76573919 -8.80615234 28.05566406 C-11.18769262 32.04708784 -13.5924182 36.02424863 -16 40 C-16.74264923 41.22924715 -17.48516587 42.45857441 -18.22753906 43.68798828 C-21.0537236 48.36545005 -23.88441708 53.0400891 -26.7331543 57.70385742 C-30.27740305 63.50660074 -33.79691143 69.32138722 -37.26171875 75.171875 C-37.95032551 76.33172506 -38.63896428 77.49155612 -39.32763672 78.65136719 C-40.61673862 80.8261915 -41.9011932 83.00377962 -43.18017578 85.18457031 C-43.75622559 86.15491211 -44.33227539 87.12525391 -44.92578125 88.125 C-45.42505127 88.97320312 -45.92432129 89.82140625 -46.4387207 90.6953125 C-48.0990052 93.14614685 -49.74989416 95.07498489 -52 97 C-56.42863214 97.72468526 -58.28066838 97.49454049 -62 94.9375 C-64 92 -64 92 -63.82617188 88.6940918 C-62.97191729 84.87443279 -61.78467408 82.30316999 -59.78125 78.95703125 C-59.45181396 78.39976349 -59.12237793 77.84249573 -58.78295898 77.26834106 C-57.69979225 75.44280991 -56.60023998 73.62778332 -55.5 71.8125 C-54.7289093 70.52145684 -53.95874282 69.22986127 -53.18945312 67.93774414 C-51.19717094 64.59928151 -49.19006025 61.27003463 -47.17675781 57.94421387 C-46.05086912 56.08404487 -44.92735612 54.22246531 -43.8046875 52.36035156 C-41.01596532 47.73727826 -38.22386521 43.11641577 -35.40527344 38.51147461 C-32.06762658 33.05831079 -28.74937386 27.59690027 -25.50512695 22.08747864 C-23.96564103 19.47462759 -22.41610519 16.86780259 -20.8659668 14.26126099 C-20.1286947 13.01508807 -19.39633149 11.76599633 -18.66918945 10.5138855 C-17.6619504 8.78046129 -16.63605371 7.05791915 -15.609375 5.3359375 C-15.03155273 4.35157715 -14.45373047 3.3672168 -13.85839844 2.35302734 C-9.79578207 -2.7908897 -5.74996794 -2.38677914 0 0 Z " fill="#000000" transform="translate(436,291)"/>
<path d="M0 0 C5.58380021 4.36011634 8.63245599 9.84545256 10.0859375 16.74609375 C10.66642687 23.47977043 9.56385583 28.88464206 6.0859375 34.74609375 C0.99321709 40.5442574 -3.83725503 44.22141641 -11.59765625 45.0234375 C-19.7890656 45.45126907 -26.2783434 43.80234796 -32.5390625 38.32421875 C-38.46413285 31.76431944 -39.48164089 25.45851562 -39.265625 16.90625 C-38.49333713 9.96424011 -35.23581473 5.20151422 -29.9140625 0.74609375 C-20.36592947 -5.61932827 -9.77798075 -6.40557515 0 0 Z M-21.69921875 15.1875 C-23.2160448 16.89179041 -23.2160448 16.89179041 -23.6015625 20.24609375 C-22.73709355 24.64702656 -21.54058305 26.14445944 -17.9140625 28.74609375 C-14.08100796 29.46479148 -12.47710638 29.07140799 -9.1015625 27.12109375 C-6.42408294 24.21411595 -5.9140625 22.68168766 -5.9140625 18.74609375 C-7.17901235 15.81673621 -8.20801307 14.2243853 -10.8515625 12.43359375 C-15.53903426 10.87110316 -18.14887361 11.99851314 -21.69921875 15.1875 Z " fill="#000000" transform="translate(452.9140625,343.25390625)"/>
<path d="M0 0 C5.85808291 5.92866223 8.86222593 11.45800787 9 20 C8.07956297 28.61996587 4.40115367 34.32371959 -2.28125 39.74609375 C-7.24729162 43.36904684 -13.25798387 44.39957121 -19.3046875 43.75390625 C-27.67016944 42.16249302 -33.06092219 37.78379361 -38 31 C-41.16998182 25.58461438 -41.65174707 18.96966053 -40.375 12.875 C-37.87644516 4.8277065 -33.90207262 0.14451127 -26.47265625 -3.87109375 C-17.9158534 -7.77775413 -7.11616343 -6.1232104 0 0 Z M-22 13 C-24.06196218 15.2140989 -24.06196218 15.2140989 -25 18 C-24.3911963 21.04401852 -23.46378066 23.22703224 -21.875 25.875 C-18.73842138 27.75694717 -15.4916823 27.61122004 -12 27 C-9.33333333 25.66666667 -9.33333333 25.66666667 -8 23 C-7.45234823 20.21610348 -7.43444318 17.78208253 -8 15 C-9.92548237 12.21874768 -11.30262381 11.26822161 -14.4375 10.0625 C-17.88070595 9.97851937 -19.3124576 10.878256 -22 13 Z " fill="#000000" transform="translate(388,295)"/>
</svg>
