<?xml version="1.0" encoding="UTF-8"?>
<svg version="1.1" xmlns="http://www.w3.org/2000/svg" width="512" height="512">
<path d="M0 0 C2.75806231 2.39032067 2.98155872 3.85246979 3.4375 7.5 C3 11 3 11 1.58984375 13.01953125 C-2.20372917 15.92049878 -6.33032176 16.8658129 -10.875 18.1875 C-20.41089121 21.15711783 -28.04055604 25.02211441 -36 31 C-37.03447266 31.73476562 -37.03447266 31.73476562 -38.08984375 32.484375 C-50.94621666 42.39631783 -60.66836938 61.09004987 -63 77 C-65.04452072 93.16298271 -63.44511413 108.31263588 -56 123 C-55.24396484 124.49273437 -55.24396484 124.49273437 -54.47265625 126.015625 C-44.26528011 144.74916239 -28.23959807 155.98719415 -8.1875 162.3125 C12.57346879 167.49745143 32.81982604 163.58916907 51.18994141 153.09863281 C67.1376793 143.41899692 78.24247326 127.29660206 83.4375 109.5625 C88.1281406 89.61164198 85.71265917 69.71737043 75.75 51.6875 C72.12244695 45.83787441 67.84957162 40.86606677 63 36 C62.32453125 35.30132812 61.6490625 34.60265625 60.953125 33.8828125 C51.82244603 25.06106627 40.36304589 19.84391892 28.19116211 16.72192383 C25.22771654 15.92348059 23.27005032 15.26950256 21.07421875 13.078125 C19.430016 9.89734005 19.56078184 7.5137453 20 4 C21.5 1.5625 21.5 1.5625 24 0 C42.26652239 -1.08360726 60.01422934 9.80383962 73.26074219 21.4909668 C90.60224389 37.38734336 101.56303548 60.513669 103 84 C103.02033522 85.58842485 103.02685846 87.17708689 103.01953125 88.765625 C103.01530151 89.96106934 103.01530151 89.96106934 103.01098633 91.18066406 C103.00736084 91.78104492 103.00373535 92.38142578 103 93 C104.21412064 92.99066437 105.42824127 92.98132874 106.67915344 92.97171021 C118.74205043 92.90785365 130.74552703 93.22132924 142.79296875 93.8046875 C144.6036951 93.88976291 146.41443038 93.97464847 148.22517395 94.05935669 C151.97555699 94.23600859 155.72574176 94.41632416 159.47583008 94.59912109 C164.2606694 94.83185273 169.04597028 95.05295329 173.83149242 95.27113152 C177.5525213 95.44243647 181.27317843 95.62095835 184.99376869 95.80151749 C186.75855196 95.88610065 188.52345466 95.96823203 190.28847313 96.0477562 C208.38491505 96.86939584 208.38491505 96.86939584 215 99 C218.87731988 104.81597982 216.99370135 111.59021874 215.71595764 118.10508728 C215.12560604 120.93566969 214.51093796 123.76063578 213.89477539 126.58569336 C213.5606446 128.15009152 213.22731768 129.71466156 212.89472961 131.27938843 C211.99393512 135.50588172 211.08177668 139.72984777 210.16734242 143.953408 C209.21126015 148.37803616 208.26523498 152.80481427 207.31797791 157.2313385 C205.72764261 164.6559615 204.13045833 172.07908336 202.52856445 179.5012207 C200.4708892 189.03530585 198.42430573 198.57173598 196.38127995 208.10896969 C194.62470092 216.30873166 192.86337574 224.50747292 191.1011169 232.70601583 C190.53446078 235.34308026 189.96839931 237.98027187 189.40239143 240.61747551 C188.51458332 244.75244185 187.62383112 248.88676353 186.73075676 253.02059555 C186.40288437 254.54020142 186.0759384 256.0600075 185.74996948 257.58002281 C185.3061937 259.64850579 184.85906971 261.71623617 184.411026 263.78379822 C184.1612201 264.94278594 183.9114142 266.10177366 183.65403843 267.29588223 C183 270 183 270 182 272 C182.886875 272.0825 183.77375 272.165 184.6875 272.25 C189.45440089 273.32929831 191.87616998 275.36164539 194.62109375 279.36328125 C196.65498459 284.72745228 196.43416915 289.81318689 196.375 295.5 C196.38660156 296.61503906 196.39820313 297.73007812 196.41015625 298.87890625 C196.38645786 305.50655674 196.12756313 310.48878913 191.53515625 315.64453125 C186.83827324 319.36964536 183.74946344 320.12552676 177.86944962 320.12304783 C176.82691694 320.12503888 175.78438426 320.12702993 174.71025968 320.12908131 C172.99431926 320.12471205 172.99431926 320.12471205 171.24371338 320.12025452 C169.41936425 320.12153615 169.41936425 320.12153615 167.55815959 320.12284368 C164.180908 320.12420751 160.80371418 320.12107649 157.42646956 320.11606562 C153.78506073 320.11175174 150.14365371 320.11320821 146.50224304 320.1139679 C140.19278795 320.11449253 133.88334318 320.11135199 127.57389069 320.10573006 C118.45145439 320.09760694 109.32902311 320.094999 100.20658359 320.09374207 C85.40643701 320.09155283 70.60629593 320.0848962 55.80615234 320.07543945 C41.42822294 320.06626203 27.05029503 320.05918281 12.67236328 320.05493164 C11.78627649 320.05466892 10.9001897 320.05440619 9.98725179 320.05413551 C5.54206517 320.05283048 1.09687855 320.05156677 -3.34830809 320.05032361 C-40.23220932 320.03995498 -77.11610414 320.02226585 -114 320 C-114 324.95 -114 329.9 -114 335 C-112.47579406 334.99723462 -110.95158812 334.99446924 -109.38119411 334.99162006 C-73.20391644 334.92665393 -37.02664687 334.87718216 -0.84932303 334.84680401 C3.6029742 334.84305187 8.05527131 334.8391689 12.50756836 334.83520508 C13.39394477 334.83441815 14.28032119 334.83363122 15.19355749 334.83282044 C29.54776966 334.81976465 43.90194581 334.79610985 58.2561366 334.76854161 C72.98361977 334.74049223 87.71108407 334.72382473 102.43859285 334.71773452 C111.52708318 334.71361711 120.61547168 334.7006101 129.70393067 334.6762506 C135.93527122 334.66039918 142.1665591 334.6555983 148.39791835 334.65949587 C151.99370354 334.66141834 155.58931073 334.65846035 159.18506432 334.64238358 C163.08442538 334.62507676 166.98355453 334.63103555 170.88294983 334.63923645 C172.01817158 334.63049793 173.15339334 334.6217594 174.32301575 334.61275607 C181.46397922 334.65343683 186.67021996 335.21018429 192.3125 339.9375 C197.0595783 345.73948459 196.36708301 351.59615993 196.375 358.8125 C196.39949219 359.97587891 196.42398437 361.13925781 196.44921875 362.33789062 C196.47235796 369.11382144 196.17716606 373.55839448 192 379 C186.35842374 383.37509996 181.01256579 383.74638098 174 384 C174.34933594 384.74765625 174.69867188 385.4953125 175.05859375 386.265625 C175.51363281 387.25046875 175.96867187 388.2353125 176.4375 389.25 C176.88996094 390.22453125 177.34242188 391.1990625 177.80859375 392.203125 C181.93299857 401.88533435 181.0345638 413.60992121 177.3203125 423.28515625 C172.64627872 432.89596536 164.79225448 440.19418972 155 444.4375 C145.03295484 447.67119021 133.05920432 447.49648854 123.421875 443.3203125 C112.74541426 437.49991939 105.13869712 429.04340576 101.65234375 417.3125 C99.94514315 408.64360117 100.33835015 399.75938278 102.66015625 391.24609375 C103.09981192 388.34032351 102.52407609 385.87517715 102 383 C101.31916257 383.00460896 100.63832514 383.00921793 99.93685627 383.01396656 C83.36993301 383.12439234 66.80312633 383.20713036 50.23592091 383.25906086 C42.22412207 383.28484167 34.21256889 383.31998951 26.20092773 383.37719727 C19.21789199 383.42703641 12.23503417 383.45929192 5.25182551 383.47044247 C1.55422897 383.47696051 -2.14285859 383.4922761 -5.84029198 383.52865028 C-9.96822045 383.56893008 -14.09526433 383.56994913 -18.22338867 383.56762695 C-19.44906052 383.58560333 -20.67473236 383.60357971 -21.93754578 383.62210083 C-31.15950649 383.56580599 -31.15950649 383.56580599 -34.25947571 380.65202332 C-36 378 -36 378 -36.625 375 C-35.7675779 370.88437393 -34.29665971 369.58318937 -31 367 C-27.93915823 366.51843816 -25.44287373 366.34356215 -22.38835144 366.39872742 C-21.52244977 366.39445529 -20.6565481 366.39018317 -19.76440698 366.38578159 C-16.86348888 366.37754697 -13.96401725 366.40504422 -11.06323242 366.43237305 C-8.98370396 366.43378341 -6.90417301 366.43299176 -4.824646 366.43016052 C0.82178978 366.42872454 6.46769568 366.45814437 12.11400819 366.49303031 C18.01434797 366.52426312 23.91469957 366.52722213 29.81510925 366.53315735 C40.98879772 366.54870478 52.16224191 366.58974565 63.33582276 366.6399048 C76.05633934 366.69577008 88.77686752 366.72327772 101.49747622 366.74838197 C127.66512422 366.80066054 153.83253813 366.88962636 180 367 C180 361.72 180 356.44 180 351 C67.14 351 -45.72 351 -162 351 C-162 356.28 -162 361.56 -162 367 C-160.70818314 366.98889694 -159.41636627 366.97779388 -158.08540344 366.96635437 C-145.91678656 366.8650369 -133.74825515 366.79006242 -121.57931232 366.74093914 C-115.32295986 366.71483534 -109.06694764 366.67942184 -102.81079102 366.62280273 C-96.77426493 366.56851263 -90.73806629 366.53858537 -84.70131493 366.52561378 C-82.39716625 366.51636865 -80.09303569 366.49831514 -77.78902626 366.47134972 C-74.56378955 366.43510063 -71.33990929 366.4300531 -68.11450195 366.43237305 C-67.16000153 366.41439667 -66.2055011 366.39642029 -65.22207642 366.37789917 C-60.65229025 366.41351318 -58.64584476 366.50973734 -54.90690613 369.34797668 C-53 372 -53 372 -52.375 375 C-53.22321465 379.07143033 -54.78689628 380.40255505 -58 383 C-61.41333008 383.65942383 -61.41333008 383.65942383 -65.26953125 383.70703125 C-65.95053391 383.72215256 -66.63153656 383.73727386 -67.33317566 383.75285339 C-69.49329063 383.79560078 -71.65200493 383.80455435 -73.8125 383.8125 C-75.28324002 383.83565489 -76.75394698 383.86102231 -78.22460938 383.88867188 C-81.81637971 383.9513916 -85.40768404 383.98383125 -89 384 C-88.60167969 384.76183594 -88.60167969 384.76183594 -88.1953125 385.5390625 C-82.76956282 396.11333376 -81.29396256 406.53110754 -83.65234375 418.23828125 C-87.32560025 429.38417116 -95.21496971 437.75590284 -105.421875 443.3203125 C-115.02658191 447.48235216 -126.98378113 447.66260004 -136.9375 444.5 C-148.34076141 439.56089741 -155.62093902 431.07038051 -160.375 419.8125 C-163.52943873 410.41490129 -162.38981375 400.87563922 -160.37890625 391.35546875 C-159.90181687 388.38964508 -160.21917888 385.88903813 -161 383 C-161.58007812 382.98582031 -162.16015625 382.97164063 -162.7578125 382.95703125 C-168.85715559 382.58462911 -171.80729516 381.49948812 -176 377 C-178.84631388 371.25003115 -178.36805704 365.40838122 -178.375 359.125 C-178.39949219 357.96613281 -178.42398438 356.80726563 -178.44921875 355.61328125 C-178.47231899 348.87571149 -178.22539082 344.37440061 -174 339 C-172 337.44140625 -172 337.44140625 -170 336.5625 C-169.34 336.25441406 -168.68 335.94632812 -168 335.62890625 C-166 335 -166 335 -162 335 C-162 330.05 -162 325.1 -162 320 C-165.22265625 320.14648438 -165.22265625 320.14648438 -168.4453125 320.29296875 C-171.92675086 319.89372123 -174.04646284 318.90092266 -177 317 C-178.29985046 313.93899536 -178.29985046 313.93899536 -179.08862305 310.11376953 C-179.24141315 309.41183535 -179.39420324 308.70990116 -179.55162334 307.98669624 C-179.88167675 306.46047327 -180.20074363 304.93184227 -180.51006699 303.40128326 C-181.00352057 300.98274484 -181.53482602 298.57561736 -182.07852173 296.16790771 C-183.27736121 290.8451021 -184.4325398 285.51333962 -185.58203125 280.1796875 C-185.78922979 279.21995152 -185.99642834 278.26021553 -186.20990562 277.27139664 C-187.30127527 272.21417043 -188.38919493 267.15621614 -189.47436523 262.09765625 C-190.59264932 256.88845624 -191.72373225 251.68211852 -192.85750294 246.47627068 C-193.73204115 242.44922128 -194.59691594 238.4201407 -195.4591732 234.39044571 C-195.8721597 232.46875342 -196.28881904 230.54784654 -196.70926857 228.62777328 C-197.2940867 225.95299299 -197.86509759 223.27561237 -198.43286133 220.59716797 C-198.69532402 219.41890694 -198.69532402 219.41890694 -198.96308899 218.21684265 C-199.98582181 213.30129763 -200.66625213 208.68451733 -197.875 204.1875 C-194.8982551 202.30222823 -192.49672962 202.06028844 -189 202 C-185.96043649 203.55369051 -184.37490506 205.00820015 -183.15634155 208.23187256 C-182.3874495 211.16844836 -181.76043345 214.1086919 -181.16796875 217.0859375 C-180.9300209 218.19942566 -180.69207306 219.31291382 -180.44691467 220.46014404 C-179.67490322 224.09474217 -178.93093413 227.73445915 -178.1875 231.375 C-177.66351426 233.87129484 -177.13778942 236.36722524 -176.61035156 238.86279297 C-175.55521135 243.86931939 -174.5109994 248.87792862 -173.47607422 253.88867188 C-172.16236398 260.23996013 -170.81094235 266.58242255 -169.44140625 272.921875 C-168.88378348 275.51477896 -168.32688017 278.10783588 -167.77041626 280.70098877 C-167.42549665 282.30756618 -167.07978258 283.91397326 -166.73324585 285.52020264 C-166.25962971 287.72333157 -165.79282104 289.92778739 -165.328125 292.1328125 C-165.0693457 293.34855957 -164.81056641 294.56430664 -164.54394531 295.81689453 C-164 299 -164 299 -164 304 C-50.48 304 63.04 304 180 304 C180 298.72 180 293.44 180 288 C178.31418477 288.00460896 176.62836954 288.00921793 174.891469 288.01396656 C134.89419322 288.12220227 94.89693402 288.20467571 54.89954199 288.25532665 C49.97900756 288.26158035 45.05847343 288.26805195 40.13793945 288.2746582 C38.66852431 288.27662553 38.66852431 288.27662553 37.16942402 288.2786326 C21.29743141 288.30040273 5.42552913 288.3398331 -10.44640984 288.38576398 C-26.726517 288.43248391 -43.00657678 288.46028594 -59.28674823 288.47044247 C-69.33651754 288.47731091 -79.38603153 288.49902179 -89.43572227 288.53958233 C-96.32257157 288.56596562 -103.20928844 288.57401103 -110.09618463 288.56750689 C-114.07257753 288.56429708 -118.04852359 288.56929585 -122.02483749 288.59602737 C-125.66388548 288.62031344 -129.30218507 288.62161873 -132.94126711 288.60449447 C-134.8841607 288.60137287 -136.82704515 288.62297998 -138.76981181 288.64540654 C-147.16161807 288.57291907 -147.16161807 288.57291907 -151.21113205 285.80563164 C-153.03282251 282.9485217 -153.96282604 280.8097398 -154.67530823 277.50862122 C-154.92041138 276.41709244 -155.16551453 275.32556366 -155.41804504 274.20095825 C-155.6649559 273.01291595 -155.91186676 271.82487366 -156.16625977 270.60083008 C-156.44341827 269.3415419 -156.72057678 268.08225372 -157.00613403 266.7848053 C-157.76451947 263.33704986 -158.49986325 259.8847402 -159.23118711 256.4311583 C-160.00459849 252.79848245 -160.79933988 249.17047854 -161.59178162 245.54191589 C-163.09278547 238.65349674 -164.57483259 231.76114362 -166.05002302 224.86715573 C-167.71470076 217.0918302 -169.39961935 209.32094081 -171.08668435 201.55044711 C-173.14976118 192.04742755 -175.20999507 182.54381306 -177.2535553 173.03657532 C-177.47024116 172.0286922 -177.47024116 172.0286922 -177.6913045 171.00044781 C-178.38610843 167.76801102 -179.08018615 164.53542153 -179.77338505 161.30263996 C-180.92402966 155.9470282 -182.08342283 150.59439474 -183.29537964 145.25228882 C-183.48649039 144.40861346 -183.67760115 143.56493811 -183.87450314 142.69569683 C-184.21633122 141.19582754 -184.56183401 139.69678782 -184.91212559 138.19887257 C-185.64360487 134.99632664 -186 132.31715065 -186 129 C-190.62 129.33 -195.24 129.66 -200 130 C-199.72736328 131.22517334 -199.45472656 132.45034668 -199.17382812 133.71264648 C-198.15794043 138.28967703 -197.1545545 142.86937532 -196.15478516 147.44995117 C-195.72163079 149.42627852 -195.28515887 151.40188196 -194.84521484 153.37670898 C-194.21082892 156.22713008 -193.5887024 159.08000313 -192.96875 161.93359375 C-192.77188599 162.80584091 -192.57502197 163.67808807 -192.37219238 164.57676697 C-189.57111163 177.63790971 -189.57111163 177.63790971 -192.0625 183.5 C-195.02825535 185.79606866 -197.28690791 186 -201 186 C-204.50612707 183.91116451 -205.80619711 182.52014458 -207.24188232 178.66693115 C-207.54669583 177.36284542 -207.83057909 176.05374335 -208.09667969 174.74121094 C-208.25585247 174.03564938 -208.41502525 173.33008781 -208.57902145 172.6031456 C-209.07058027 170.40559146 -209.53583714 168.20348096 -210 166 C-210.29188667 164.68320368 -210.58564422 163.36682036 -210.88146973 162.05090332 C-211.76213303 158.08547462 -212.61208251 154.11458339 -213.453125 150.140625 C-213.76115906 148.69331084 -214.06932847 147.24602547 -214.37762451 145.79876709 C-215.01475499 142.80440328 -215.64973521 139.80959381 -216.28320312 136.81445312 C-217.094359 132.98044042 -217.9119213 129.14782436 -218.73112869 125.31552505 C-219.36535856 122.34445828 -219.9958325 119.372604 -220.62520599 116.40050507 C-220.92536656 114.98566755 -221.22678891 113.57109708 -221.52951813 112.15680695 C-221.94967099 110.19162768 -222.36412685 108.225233 -222.77832031 106.25878906 C-223.01496399 105.14344788 -223.25160767 104.02810669 -223.49542236 102.87896729 C-224 100 -224 100 -224 96 C-225.88525391 95.82343872 -225.88525391 95.82343872 -227.80859375 95.64331055 C-233.31292571 95.02834075 -238.65974264 93.90711399 -244.0625 92.70703125 C-245.09383057 92.47851974 -246.12516113 92.25000824 -247.18774414 92.01457214 C-249.35661268 91.5307926 -251.52481864 91.04403393 -253.69238281 90.55444336 C-256.98672222 89.81547839 -260.28598536 89.1020887 -263.5859375 88.38867188 C-265.70347999 87.91303602 -267.82068008 87.43587267 -269.9375 86.95703125 C-271.40038452 86.64727104 -271.40038452 86.64727104 -272.89282227 86.33125305 C-281.12330968 84.41741907 -288.1460876 81.10314356 -293.0625 74 C-296.28766452 67.38169365 -296.19383893 59.61222245 -294.37109375 52.5703125 C-291.78056262 46.59931249 -286.57056703 41.65269121 -280.69360352 38.93244934 C-270.31625206 35.34010382 -258.39248405 39.37706515 -248.125 41.83203125 C-246.42557976 42.22928857 -244.72594994 42.62565027 -243.02612305 43.02116394 C-239.48754101 43.84757482 -235.95128042 44.68309927 -232.41650391 45.52563477 C-227.88979691 46.60405524 -223.35853004 47.6616576 -218.82543945 48.71288013 C-215.32528153 49.52651445 -211.82744361 50.34977078 -208.33026123 51.17609215 C-206.65955483 51.56987949 -204.9882103 51.96096978 -203.31622314 52.34928322 C-200.9857627 52.89230606 -198.65866439 53.44791832 -196.33203125 54.00708008 C-195.64525803 54.16460754 -194.9584848 54.32213501 -194.25090027 54.48443604 C-190.55568765 55.38829531 -187.79842214 56.38038589 -185 59 C-184.17871094 60.85351562 -184.17871094 60.85351562 -183.734375 62.90625 C-183.56679687 63.65003906 -183.39921875 64.39382812 -183.2265625 65.16015625 C-183.06929688 65.93230469 -182.91203125 66.70445313 -182.75 67.5 C-182.57726562 68.27214844 -182.40453125 69.04429688 -182.2265625 69.83984375 C-181.54930682 72.94124475 -181 75.81748207 -181 79 C-180.22013733 78.9902565 -179.44027466 78.980513 -178.63677979 78.97047424 C-168.10589264 78.8992121 -157.62594231 79.34047646 -147.109375 79.83984375 C-145.22846177 79.92728376 -143.34754122 80.01456629 -141.46661377 80.10169983 C-137.55689993 80.2836162 -133.64731161 80.4679904 -129.73779297 80.65405273 C-124.72102429 80.89252644 -119.70395331 81.12383657 -114.68676376 81.3532629 C-110.8177186 81.53111404 -106.94887811 81.7131337 -103.08008575 81.89639473 C-101.22852331 81.98351005 -99.37689388 82.06921328 -97.52519989 82.15348625 C-94.95244631 82.27110897 -92.38002873 82.39443677 -89.80761719 82.51928711 C-89.04198959 82.55309479 -88.276362 82.58690247 -87.48753357 82.62173462 C-82.22843047 82.88578476 -82.22843047 82.88578476 -80 84 C-80.04125 82.70191406 -80.0825 81.40382813 -80.125 80.06640625 C-80.09118365 58.42817246 -67.79715682 38.32794327 -53.30859375 23.1875 C-41.52348603 11.93418025 -17.58637899 -4.63477045 0 0 Z M-276.75 55.5625 C-279.30473311 57.89115639 -279.30473311 57.89115639 -279.625 61.5 C-279.3360477 65.08632221 -279.3360477 65.08632221 -276.81748962 67.11875916 C-273.8775316 69.08177228 -271.73050385 69.85572997 -268.29516602 70.59985352 C-267.17372696 70.85013809 -266.0522879 71.10042267 -264.89686584 71.35829163 C-263.69468918 71.61259445 -262.49251251 71.86689728 -261.25390625 72.12890625 C-260.01003647 72.40468002 -258.76616669 72.6804538 -257.48460388 72.96458435 C-254.18612157 73.69463113 -250.88567289 74.4136499 -247.58337402 75.12609863 C-242.93672254 76.12952835 -238.29285321 77.14524492 -233.65110779 78.17112732 C-231.18325258 78.71594917 -228.71361781 79.2527871 -226.24208069 79.78065491 C-214.57858856 82.34374356 -214.57858856 82.34374356 -211 85 C-209.67626953 88.00268555 -209.67626953 88.00268555 -208.8828125 91.63671875 C-208.73592987 92.27615921 -208.58904724 92.91559967 -208.43771362 93.57441711 C-207.97634555 95.60765115 -207.55038551 97.64646758 -207.125 99.6875 C-206.81741319 101.07147874 -206.5075415 102.45495178 -206.1953125 103.83789062 C-205.43250314 107.21981405 -204.7181052 110.60705918 -204 114 C-199.38 114 -194.76 114 -190 114 C-191.36852807 104.24750954 -193.33006543 94.75088642 -195.625 85.1875 C-195.95359058 83.80154259 -196.281718 82.41547529 -196.609375 81.02929688 C-197.40093843 77.68491969 -198.19867576 74.34205372 -199 71 C-212.17859255 67.30223614 -225.50660388 64.23601759 -238.83764648 61.14404297 C-241.42451715 60.54329972 -244.01085784 59.94071322 -246.59643555 59.33447266 C-250.35884206 58.45290658 -254.12256898 57.57721389 -257.88671875 56.703125 C-259.04394943 56.43131409 -260.20118011 56.15950317 -261.39347839 55.87945557 C-262.465923 55.63209656 -263.53836761 55.38473755 -264.64331055 55.12988281 C-265.58401901 54.91100403 -266.52472748 54.69212524 -267.49394226 54.46661377 C-271.21943089 53.77294887 -273.41540906 53.66784606 -276.75 55.5625 Z M-177 95 C-176.36203784 100.69091248 -175.41115675 106.2126974 -174.1875 111.8046875 C-173.92682739 113.0124736 -173.92682739 113.0124736 -173.66088867 114.24465942 C-173.29612148 115.93072493 -172.92964489 117.61642147 -172.56152344 119.30175781 C-171.99723454 121.88767301 -171.43965924 124.47497316 -170.8828125 127.0625 C-170.5264372 128.70581499 -170.1696801 130.34904725 -169.8125 131.9921875 C-169.64580811 132.76609833 -169.47911621 133.54000916 -169.30737305 134.33737183 C-168.47635484 138.27580209 -168.47635484 138.27580209 -167 142 C-146.33833234 143.24459147 -125.69044278 144.35383408 -105 145 C-105.176521 143.85523193 -105.35304199 142.71046387 -105.53491211 141.53100586 C-106.19317706 137.26137149 -106.85093534 132.99165919 -107.50854492 128.72192383 C-107.79258752 126.8781527 -108.07676534 125.0344024 -108.36108398 123.19067383 C-108.77103124 120.53211923 -109.18048329 117.87348876 -109.58984375 115.21484375 C-109.71592514 114.39789536 -109.84200653 113.58094696 -109.97190857 112.73924255 C-110.09195755 111.95896194 -110.21200653 111.17868134 -110.33569336 110.37475586 C-110.44984589 109.63587128 -110.56399841 108.89698669 -110.68161011 108.13571167 C-110.98680262 106.08852602 -111.25739176 104.03886125 -111.52563477 101.98657227 C-111.68059075 99.12359876 -111.68059075 99.12359876 -113 98 C-114.77622819 97.81773168 -116.55925223 97.70125732 -118.3425293 97.61108398 C-120.0551722 97.5211039 -120.0551722 97.5211039 -121.80241394 97.42930603 C-123.04710953 97.36884598 -124.29180511 97.30838593 -125.57421875 97.24609375 C-126.84594437 97.18092056 -128.11766998 97.11574738 -129.42793274 97.04859924 C-132.12724523 96.91113545 -134.82657489 96.77543436 -137.52612305 96.64282227 C-140.9750537 96.47335707 -144.42368405 96.29853335 -147.87224102 96.12164211 C-151.16863494 95.95282987 -154.465174 95.78693073 -157.76171875 95.62109375 C-158.99629318 95.55860947 -160.23086761 95.49612518 -161.50285339 95.43174744 C-162.66037613 95.37491287 -163.81789886 95.31807831 -165.01049805 95.25952148 C-166.02452194 95.20924301 -167.03854584 95.15896454 -168.08329773 95.10716248 C-171.05829971 94.99785801 -174.0232727 94.98161115 -177 95 Z M-96 99 C-95.34700969 108.01287862 -93.99577103 116.83080678 -92.47094727 125.72851562 C-92.05765222 128.15344339 -91.65855844 130.58046269 -91.25976562 133.0078125 C-90.99825332 134.54962485 -90.73591478 136.09129735 -90.47265625 137.6328125 C-90.3548732 138.35872589 -90.23709015 139.08463928 -90.11573792 139.83255005 C-89.81109935 141.56819492 -89.41407904 143.28716424 -89 145 C-86.3178719 146.34106405 -84.11601968 146.21450419 -81.1171875 146.31640625 C-79.36728516 146.37924805 -79.36728516 146.37924805 -77.58203125 146.44335938 C-75.74705078 146.50233398 -75.74705078 146.50233398 -73.875 146.5625 C-72.64394531 146.60568359 -71.41289062 146.64886719 -70.14453125 146.69335938 C-67.09647147 146.79968704 -64.0483281 146.90171781 -61 147 C-61.71361694 145.93434814 -61.71361694 145.93434814 -62.44165039 144.84716797 C-71.70251741 130.90281389 -76.62809866 116.29752313 -80 100 C-85.28 99.67 -90.56 99.34 -96 99 Z M101 109 C100.55914062 110.17304688 100.11828125 111.34609375 99.6640625 112.5546875 C99.38852539 113.2878418 99.11298828 114.02099609 98.82910156 114.77636719 C98.11069388 116.70312136 97.40925445 118.63618616 96.7109375 120.5703125 C92.14512652 132.7191078 85.55568712 142.42203803 78 153 C96.315 153.99 96.315 153.99 115 155 C116.79203465 145.44248187 118.58015741 135.90026728 120.1875 126.3125 C120.36474609 125.28189453 120.54199219 124.25128906 120.72460938 123.18945312 C120.89154297 122.19494141 121.05847656 121.20042969 121.23046875 120.17578125 C121.45319458 118.85960815 121.45319458 118.85960815 121.68041992 117.5168457 C122.0038289 114.9698456 122.12665855 112.56420659 122 110 C121.00516798 108.78356708 121.00516798 108.78356708 119.05053711 108.88647461 C117.8015564 108.89432983 117.8015564 108.89432983 116.52734375 108.90234375 C115.17866211 108.90717773 115.17866211 108.90717773 113.80273438 108.91210938 C112.85720703 108.92048828 111.91167969 108.92886719 110.9375 108.9375 C109.98810547 108.94201172 109.03871094 108.94652344 108.06054688 108.95117188 C105.70696935 108.9629989 103.35351523 108.97947975 101 109 Z M139 110 C137.35342433 115.64073993 137.35342433 115.64073993 136.22216797 121.28295898 C136.10219452 122.04321884 135.98222107 122.8034787 135.85861206 123.58677673 C135.73769196 124.38185135 135.61677185 125.17692596 135.4921875 125.99609375 C135.36184113 126.82963882 135.23149475 127.6631839 135.09719849 128.52198792 C134.68566172 131.15986835 134.28023636 133.79864512 133.875 136.4375 C133.59545683 138.23639107 133.31551292 140.03521991 133.03515625 141.83398438 C132.35213466 146.22195028 131.67458887 150.6107301 131 155 C136.29464674 156.03721885 141.5192544 156.30552655 146.89453125 156.53515625 C147.84132248 156.57813339 148.78811371 156.62111053 149.76359558 156.66539001 C151.76134666 156.75530007 153.75917789 156.84344446 155.75708008 156.92993164 C158.79203816 157.0616122 161.82667894 157.19929182 164.86132812 157.33789062 C166.80987994 157.42483599 168.75844722 157.51143572 170.70703125 157.59765625 C171.60420364 157.63826675 172.50137604 157.67887726 173.42573547 157.72071838 C178.95621105 157.95722164 184.46442204 158.03609322 190 158 C193.98523695 143.11396787 196.87027133 128.12702189 200 113 C169.805 111.515 169.805 111.515 139 110 Z M-163 158 C-162.39589586 164.35005316 -161.37058916 170.41850884 -159.93359375 176.62890625 C-159.73524429 177.50401352 -159.53689484 178.37912079 -159.33253479 179.28074646 C-158.70547902 182.0424076 -158.07161398 184.80245196 -157.4375 187.5625 C-157.0080101 189.4484645 -156.5789694 191.33453136 -156.15039062 193.22070312 C-155.10544595 197.81500086 -154.05439666 202.40786271 -153 207 C-133.65303533 207.99824821 -114.36638752 208.11215388 -95 208 C-97.1329537 192.63303808 -99.50544331 177.31227121 -102 162 C-107.70183537 160.09696951 -112.96893316 159.59083444 -118.95703125 159.3671875 C-119.90003586 159.32562531 -120.84304047 159.28406311 -121.81462097 159.24124146 C-124.81363928 159.11128529 -127.81299924 158.99323308 -130.8125 158.875 C-132.81578664 158.78848524 -134.81904241 158.70125236 -136.82226562 158.61328125 C-138.76299292 158.53059224 -140.70374749 158.44854038 -142.64453125 158.3671875 C-143.97784233 158.31097733 -143.97784233 158.31097733 -145.33808899 158.25363159 C-151.22825573 158.02294576 -157.10557472 157.95827078 -163 158 Z M-86 162 C-84.50042501 177.46576596 -81.72986211 192.71433213 -79 208 C-62.01837409 209.36190268 -45.02288364 209.09474162 -28 209 C-28.14047235 204.70814059 -28.28836362 200.41656639 -28.4375 196.125 C-28.47681641 194.92101562 -28.51613281 193.71703125 -28.55664062 192.4765625 C-28.68005776 188.98290816 -28.83902706 185.4920907 -29 182 C-29.02779541 180.54654175 -29.02779541 180.54654175 -29.05615234 179.0637207 C-29.25940939 174.59496927 -29.48969539 172.6131886 -32.421875 169.08984375 C-42.26059274 162.72701103 -50.57291138 161.75530819 -62.16992188 161.953125 C-65.11991531 162.00198617 -68.06536081 161.99163505 -71.015625 161.96875 C-76.01133544 161.93598988 -81.00441359 161.95444754 -86 162 Z M57 169 C56.76807728 172.02642954 56.59602155 175.03510852 56.46484375 178.06640625 C56.42186661 178.97502914 56.37888947 179.88365204 56.33460999 180.81980896 C56.19780373 183.73385262 56.06758569 186.64814933 55.9375 189.5625 C55.84613554 191.53322322 55.75434434 193.50392671 55.66210938 195.47460938 C55.43644608 200.31619078 55.21669258 205.15800914 55 210 C65.95043387 211.10438145 76.81936311 211.11728479 87.8125 211.0625 C89.5839831 211.05747152 91.35546759 211.05291102 93.12695312 211.04882812 C97.41800387 211.0379372 101.70898606 211.02074804 106 211 C106.86098253 206.12644198 107.71526111 201.25177286 108.56347656 196.37597656 C108.85267284 194.71908246 109.14366579 193.06250087 109.43652344 191.40625 C109.85830241 189.0190384 110.27350623 186.63075997 110.6875 184.2421875 C110.88436401 183.14026566 110.88436401 183.14026566 111.08520508 182.01608276 C111.78057275 177.96239474 112.13574075 174.11181361 112 170 C106.23846243 169.71138581 100.47674754 169.42671626 94.71484375 169.14550781 C92.75971372 169.04955446 90.80463386 168.95257254 88.84960938 168.85449219 C72.07403753 166.51993491 72.07403753 166.51993491 57 169 Z M129 171 C127.58557462 175.69772509 126.51443011 180.29104286 125.7109375 185.140625 C125.60278717 185.78948669 125.49463684 186.43834839 125.38320923 187.10687256 C125.15782717 188.464482 124.93440706 189.82241853 124.71289062 191.18066406 C124.37347808 193.25932068 124.02705256 195.33672156 123.6796875 197.4140625 C122.46561713 204.17113164 122.46561713 204.17113164 122 211 C129.11124842 211.85458284 136.09935254 212.135494 143.2578125 212.09765625 C144.28687714 212.0962413 145.31594177 212.09482635 146.37619019 212.09336853 C149.62582449 212.08782255 152.87538693 212.07528046 156.125 212.0625 C158.343749 212.05747801 160.56249909 212.05291633 162.78125 212.04882812 C168.18752404 212.03787089 173.59375688 212.02118758 179 212 C180.00347467 207.39324298 181.00017629 202.78509131 181.99072266 198.17553711 C182.32839747 196.60873244 182.66789595 195.04231961 183.00927734 193.47631836 C183.50061239 191.22090426 183.98529842 188.96414658 184.46875 186.70703125 C184.62186646 186.01100296 184.77498291 185.31497467 184.93273926 184.59785461 C185.6949512 181.00662371 186.17415882 177.67288509 186 174 C179.80355166 172.95771387 173.65259648 172.69374644 167.37890625 172.46484375 C166.27900864 172.42186661 165.17911102 172.37888947 164.04588318 172.33460999 C160.55154311 172.19884913 157.05703626 172.06810315 153.5625 171.9375 C151.18553409 171.84603465 148.80858078 171.75424138 146.43164062 171.66210938 C140.62123423 171.43760846 134.81068295 171.21721866 129 171 Z M32.4375 178.5 C25.22990723 180.08582072 18.24339632 180.30411789 10.875 180.3125 C9.7914624 180.31765625 8.7079248 180.3228125 7.59155273 180.328125 C0.22679952 180.26566931 -6.77615437 179.4183028 -14 178 C-13.86048455 182.04191057 -13.71226955 186.08345742 -13.5625 190.125 C-13.52318359 191.26710937 -13.48386719 192.40921875 -13.44335938 193.5859375 C-13.40146484 194.69453125 -13.35957031 195.803125 -13.31640625 196.9453125 C-13.27974854 197.96125488 -13.24309082 198.97719727 -13.20532227 200.02392578 C-12.99535432 203.06733757 -12.54938704 206.00085508 -12 209 C-1.47070439 210.3580755 9.09521987 210.11201847 19.6875 210.0625 C21.56445193 210.05747491 23.44140516 210.05291379 25.31835938 210.04882812 C29.87893887 210.03790258 34.43945479 210.02069357 39 210 C40.4764236 207.0471528 40.22272939 204.31551017 40.31640625 201.0234375 C40.33718735 200.33819 40.35796844 199.6529425 40.37937927 198.94692993 C40.44480185 196.75638931 40.50372554 194.56572811 40.5625 192.375 C40.60569218 190.8906125 40.6493067 189.40623722 40.69335938 187.921875 C40.80047553 184.28137916 40.90176362 180.64074749 41 177 C37.81304579 177 35.51155187 177.6689672 32.4375 178.5 Z M-149 223 C-147.57668522 232.5056673 -145.58298311 241.85688406 -143.48608398 251.23120117 C-142.93022454 253.72007606 -142.38186247 256.21052926 -141.83398438 258.70117188 C-141.48221421 260.28395277 -141.130017 261.86663883 -140.77734375 263.44921875 C-140.61378891 264.19386887 -140.45023407 264.93851898 -140.28172302 265.70573425 C-139.7363166 269.14022331 -139.7363166 269.14022331 -138 272 C-136.34261557 272.09346915 -134.68125356 272.11744977 -133.02124023 272.11352539 C-131.42970375 272.11341209 -131.42970375 272.11341209 -129.80601501 272.11329651 C-128.651866 272.10813522 -127.49771698 272.10297394 -126.30859375 272.09765625 C-124.5461306 272.09553383 -124.5461306 272.09553383 -122.74806213 272.09336853 C-118.97784936 272.08774992 -115.20769496 272.07519426 -111.4375 272.0625 C-108.88867273 272.0574874 -106.33984453 272.05292408 -103.79101562 272.04882812 C-97.52732367 272.03777444 -91.26366601 272.02101821 -85 272 C-85.55010491 265.22364235 -86.28684899 258.53683736 -87.41015625 251.83203125 C-87.54191757 251.02634201 -87.67367889 250.22065277 -87.80943298 249.39054871 C-88.22347946 246.86391737 -88.64287842 244.33821073 -89.0625 241.8125 C-89.34736307 240.08013693 -89.63187108 238.34771544 -89.91601562 236.61523438 C-90.60658681 232.40947172 -91.30195339 228.20452811 -92 224 C-120.49453732 223.10810975 -120.49453732 223.10810975 -149 223 Z M-76 224 C-74.67501597 235.26236427 -73.22839267 246.39110496 -71.375 257.5625 C-70.59125 262.326875 -69.8075 267.09125 -69 272 C-54.48 272 -39.96 272 -25 272 C-25.66 256.49 -26.32 240.98 -27 225 C-51.255 224.505 -51.255 224.505 -76 224 Z M-11 225 C-11.10687581 235.28382778 -11.01825392 245.53684893 -10.5625 255.8125 C-10.52326416 256.73627441 -10.48402832 257.66004883 -10.44360352 258.61181641 C-10.40162842 259.4888623 -10.35965332 260.3659082 -10.31640625 261.26953125 C-10.26141968 262.42352417 -10.26141968 262.42352417 -10.20532227 263.60083008 C-9.96414743 266.41893365 -9.46498686 269.21007881 -9 272 C6.18 272 21.36 272 37 272 C37.66 256.82 38.32 241.64 39 226 C22.31870027 225.39340728 5.69163714 224.82326502 -11 225 Z M55 226 C53.76465516 230.46218865 53.64486444 234.83128988 53.4375 239.4375 C53.39431641 240.24509766 53.35113281 241.05269531 53.30664062 241.88476562 C52.83291433 251.9382904 53 261.90430283 53 272 C67.19 272 81.38 272 96 272 C96.969375 266.43125 97.93875 260.8625 98.9375 255.125 C99.24163818 253.38879395 99.54577637 251.65258789 99.85913086 249.86376953 C101.18006274 242.25303125 102.38494016 234.70771193 103 227 C86.98941769 226.2786989 71.02691023 225.85546875 55 226 Z M119 227 C117.99998594 232.92599517 117.00315199 238.85251308 116.00927734 244.77954102 C115.67063623 246.79629006 115.3311225 248.81289277 114.99072266 250.8293457 C114.50194149 253.72569474 114.01628823 256.62255337 113.53125 259.51953125 C113.37813354 260.42274612 113.22501709 261.325961 113.06726074 262.25654602 C112.92711548 263.09719101 112.78697021 263.937836 112.64257812 264.80395508 C112.51822388 265.54341873 112.39386963 266.28288239 112.26574707 267.04475403 C111.93266167 269.16657433 111.93266167 269.16657433 112 272 C129.82 272 147.64 272 166 272 C167.485 265.11125 168.97 258.2225 170.5 251.125 C170.96986328 248.9505127 171.43972656 246.77602539 171.92382812 244.53564453 C172.29313137 242.81806881 172.6622825 241.10046038 173.03125 239.3828125 C173.22557617 238.48618896 173.41990234 237.58956543 173.62011719 236.66577148 C173.8028418 235.81329834 173.98556641 234.9608252 174.17382812 234.08251953 C174.33371216 233.34083527 174.49359619 232.599151 174.6583252 231.83499146 C175.06101782 229.98338739 175.06101782 229.98338739 175 228 C170.23936656 227.85371051 165.47863104 227.71155717 160.71777344 227.57275391 C159.108367 227.52530603 157.49898983 227.47685136 155.88964844 227.42724609 C143.5896908 227.049142 131.30553002 226.94151055 119 227 Z M-146 320 C-146 324.95 -146 329.9 -146 335 C-140.72 335 -135.44 335 -130 335 C-130 330.05 -130 325.1 -130 320 C-135.28 320 -140.56 320 -146 320 Z M-144 383 C-142.11980645 388.95836269 -142.11980645 388.95836269 -138.125 392.8125 C-137.44695312 393.39644531 -136.76890625 393.98039062 -136.0703125 394.58203125 C-133.83878315 396.28687591 -133.83878315 396.28687591 -130 397 C-130 392.38 -130 387.76 -130 383 C-134.62 383 -139.24 383 -144 383 Z M118 383 C120.81762014 388.74133968 120.81762014 388.74133968 125 392.8125 C125.680625 393.39644531 126.36125 393.98039062 127.0625 394.58203125 C129.04568953 396.18472599 129.04568953 396.18472599 132 397 C132 392.38 132 387.76 132 383 C127.38 383 122.76 383 118 383 Z M-114 385 C-114.01458252 385.6705542 -114.02916504 386.3411084 -114.04418945 387.03198242 C-114.118883 390.08438822 -114.21547299 393.13572585 -114.3125 396.1875 C-114.33505859 397.24259766 -114.35761719 398.29769531 -114.38085938 399.38476562 C-114.41630859 400.40634766 -114.45175781 401.42792969 -114.48828125 402.48046875 C-114.51446533 403.41785889 -114.54064941 404.35524902 -114.56762695 405.32104492 C-115.07742024 408.47969075 -116.1422284 410.41392499 -118 413 C-122.79348099 415.39674049 -129.95334745 413.63401737 -134.875 412.109375 C-138.68313003 410.59065648 -142.3444052 408.85272191 -146 407 C-145.74409814 414.03730118 -143.69579168 418.70967675 -139 424 C-131.78761563 429.72908268 -125.08530465 430.79756491 -116 430 C-109.2893922 428.22632084 -104.91260061 423.53833494 -101 418 C-98.08284266 412.29251825 -97.81203423 404.80149046 -99.72265625 398.6875 C-102.43676072 392.88568962 -106.64640746 388.50752615 -112 385 C-112.66 385 -113.32 385 -114 385 Z M148 385 C147.99383667 386.15786011 147.99383667 386.15786011 147.98754883 387.33911133 C147.9546881 390.83102421 147.88405107 394.32117474 147.8125 397.8125 C147.80669922 399.02744141 147.80089844 400.24238281 147.79492188 401.49414062 C147.75141602 403.23920898 147.75141602 403.23920898 147.70703125 405.01953125 C147.6913208 406.09307861 147.67561035 407.16662598 147.65942383 408.27270508 C147 411 147 411 144.61474609 412.86035156 C139.30784943 415.17338551 133.55307804 413.8522146 128.203125 412.06640625 C126.52013731 411.38673814 124.84775908 410.67972071 123.19140625 409.9375 C121.13493932 409.05772805 119.18072254 408.47687782 117 408 C117.59464154 415.28435889 119.97967302 420.41353547 125.4375 425.3125 C130.78160984 429.83825427 136.03256694 430.51392541 142.86328125 430.37109375 C148.84619655 429.66327687 153.67250484 427.39509875 157.8828125 423.0625 C163.14762232 416.34795994 164.97973581 410.52497394 164 402 C162.14526416 394.45657774 157.35981407 389.29843787 151 385 C150.01 385 149.02 385 148 385 Z " fill="#000000" transform="translate(295,33)"/>
<path d="M0 0 C4.10776186 0.85578372 5.42591033 2.33516681 8 5.625 C8.58844184 8.42887877 8.47798997 11.08852657 8.3125 13.9375 C8.28994141 14.67806641 8.26738281 15.41863281 8.24414062 16.18164062 C8.1855815 17.99697357 8.09590886 19.81125681 8 21.625 C8.9075 21.74746094 9.815 21.86992188 10.75 21.99609375 C18.10896149 23.42012356 22.62126614 27.80573786 26.87109375 33.7578125 C29.241032 37.67764116 29.39387189 41.13486045 29 45.625 C27.4375 48.0625 27.4375 48.0625 25 49.625 C21.390416 50.076198 19.02780427 50.13890214 15.75 48.5 C13.53743035 46.12938966 12.41970541 43.52613714 11 40.625 C7.16405456 38.06770304 4.00351901 38.33025422 -0.4375 38.375 C-1.20126953 38.36726563 -1.96503906 38.35953125 -2.75195312 38.3515625 C-8.18578454 38.32199576 -8.18578454 38.32199576 -13 40.625 C-15.29147823 44.02270909 -16 46.07166853 -16 50.1875 C-14.80815947 54.28445182 -13.28920817 55.96230767 -10 58.625 C-7.29776845 59.52574385 -5.64880589 59.75769623 -2.8671875 59.80078125 C8.98633896 60.11030389 18.26066844 60.68704727 27 69.625 C32.18267272 77.58861905 33.8447324 84.11308171 33 93.625 C30.47272261 103.13175328 25.98458664 108.29905466 17.73046875 113.390625 C14.49271898 114.85432876 11.51901739 115.26141149 8 115.625 C8.04640625 116.73359375 8.0928125 117.8421875 8.140625 118.984375 C8.17815102 120.44788968 8.21455029 121.91143356 8.25 123.375 C8.28351563 124.10460937 8.31703125 124.83421875 8.3515625 125.5859375 C8.41676212 129.17191636 8.33636702 131.18144684 6.13671875 134.08203125 C3.6053962 135.90995156 2.12940867 136.54867296 -1 136.625 C-4.48634601 135.00344371 -5.84302194 133.86046708 -8 130.625 C-8.14221065 128.02254502 -8.18802932 125.53382316 -8.125 122.9375 C-8.11597656 122.23560547 -8.10695313 121.53371094 -8.09765625 120.81054688 C-8.07413704 119.08188475 -8.03826713 117.35339855 -8 115.625 C-9.134375 115.58375 -10.26875 115.5425 -11.4375 115.5 C-18.01947572 114.68163712 -23.02201587 110.75513675 -27.4375 106 C-29.88819806 102.27493894 -31.28955256 99.58314497 -31.3125 95.0625 C-31.32925781 94.29808594 -31.34601563 93.53367187 -31.36328125 92.74609375 C-31 90.625 -31 90.625 -29.76171875 88.87109375 C-27.53794285 87.29817909 -26.20601033 87.2229399 -23.5 87.25 C-22.33984375 87.23839844 -22.33984375 87.23839844 -21.15625 87.2265625 C-18.485376 87.72009357 -17.65887509 88.51055324 -16 90.625 C-15.525625 91.635625 -15.05125 92.64625 -14.5625 93.6875 C-12.80562089 96.99043273 -12.42822628 97.44551379 -9 98.625 C-6.14321101 98.84344365 -3.41662417 98.9496867 -0.5625 98.9375 C0.56381836 98.96166992 0.56381836 98.96166992 1.71289062 98.98632812 C6.31531 98.99037599 9.23840821 98.54676173 13 95.625 C14.9916839 93.30136878 16.00433753 91.73323841 15.9921875 88.62890625 C15.63609365 85.49872642 14.99565215 82.61195644 14 79.625 C9.66476596 77.13454641 5.16921394 77.3118504 0.3125 77.1875 C-10.4355423 76.70585841 -18.04831316 75.52741335 -26.0859375 67.81640625 C-31.58762035 61.51754078 -33.38633154 54.57017959 -33.27734375 46.34765625 C-32.48596697 38.57878838 -28.76306475 31.82143248 -23 26.625 C-18.28450897 22.98575045 -13.81228818 22.03287987 -8 21.625 C-8.05800781 20.52800781 -8.11601562 19.43101563 -8.17578125 18.30078125 C-8.22269688 16.84639686 -8.26819511 15.39196626 -8.3125 13.9375 C-8.35439453 13.21626953 -8.39628906 12.49503906 -8.43945312 11.75195312 C-8.53506355 7.56421662 -8.35045459 6.07290093 -5.66796875 2.64453125 C-3 0.625 -3 0.625 0 0 Z " fill="#000000" transform="translate(306,54.375)"/>
</svg>
