<?xml version="1.0" encoding="UTF-8"?>
<svg version="1.1" xmlns="http://www.w3.org/2000/svg" width="512" height="512">
<path d="M0 0 C1.83711958 0.51582431 3.67460248 1.03035617 5.51242065 1.54368591 C10.41903895 2.91786123 15.32064378 4.30915837 20.22142029 5.70400238 C25.29621082 7.14535735 30.37529433 8.57141111 35.45410156 9.99853516 C41.58021429 11.72101366 47.70583888 13.44515707 53.8293457 15.17687988 C65.3629652 18.43851958 76.90333994 21.67297415 88.45915604 24.85511208 C90.64942713 25.45826555 92.83944885 26.06231579 95.02938843 26.66667175 C103.01140701 28.86955258 103.01140701 28.86955258 110.99603271 31.06295776 C114.53802188 32.03496824 118.07782127 33.01458298 121.6171875 33.99609375 C122.63481171 34.2731163 123.65243591 34.55013885 124.70089722 34.83555603 C137.17229938 38.31313657 137.17229938 38.31313657 140.3828125 43.12890625 C140.64008141 45.32794952 140.64008141 45.32794952 140.65023804 47.9395752 C140.66303299 49.4270224 140.66303299 49.4270224 140.67608643 50.94451904 C140.67518005 52.0321051 140.67427368 53.11969116 140.67333984 54.24023438 C140.68005707 55.38723816 140.68677429 56.53424194 140.69369507 57.71600342 C140.71277428 61.53076464 140.71660703 65.34535018 140.71875 69.16015625 C140.72355368 71.15180232 140.72836119 73.14344843 140.73367083 75.13509321 C140.74998284 81.42210623 140.75483887 87.70906201 140.75341797 93.99609375 C140.75222945 100.41174296 140.77306252 106.82704866 140.8049053 113.24261141 C140.83143142 118.7912589 140.84176974 124.33979729 140.84050715 129.88850737 C140.84000608 133.18313843 140.84714502 136.47740715 140.86686325 139.77198792 C141.21491112 204.05006957 117.99427817 262.57357842 73.11694336 308.62915039 C60.51113065 321.34459376 45.99979569 333.2486609 30.3828125 342.12890625 C29.7228125 342.12890625 29.0628125 342.12890625 28.3828125 342.12890625 C28.846875 343.58296875 28.846875 343.58296875 29.3203125 345.06640625 C31.86148418 354.10007059 31.62591674 363.57062186 31.6953125 372.87890625 C31.73881836 374.80089844 31.73881836 374.80089844 31.78320312 376.76171875 C31.85959988 388.35051811 30.11835378 399.16676073 22.37109375 408.19140625 C16.9169171 413.50628172 11.68175285 416.11212178 4.3828125 418.12890625 C4.4142334 419.80847412 4.4142334 419.80847412 4.44628906 421.52197266 C4.51891676 425.69274002 4.56469461 429.86345193 4.60253906 434.03466797 C4.62260283 435.83684706 4.64986063 437.63896146 4.68457031 439.44091797 C4.73332079 442.03759761 4.75583332 444.63341354 4.7734375 447.23046875 C4.79408264 448.03070465 4.81472778 448.83094055 4.83599854 449.65542603 C4.83810192 454.94887891 3.89648367 457.92981834 0.3828125 462.12890625 C-2.67248061 464.02814251 -4.50245532 464.12890625 -8.1171875 464.12890625 C-11.77068474 463.0850499 -13.27816606 461.9571447 -15.60269165 458.99316406 C-17.51412214 455.48068126 -17.13952504 451.90422331 -16.97265625 448.00390625 C-16.9550105 446.22787766 -16.93877743 444.45183458 -16.92382812 442.67578125 C-16.87195348 439.89667694 -16.80437886 437.11980181 -16.71020508 434.34179688 C-15.85694843 423.82886071 -15.85694843 423.82886071 -19.76074219 414.67700195 C-22.35286466 413.06072459 -22.35286466 413.06072459 -25.07983398 412.1105957 C-30.97133279 409.83120412 -34.42547928 403.95982893 -36.9921875 398.44140625 C-39.27279993 393.01751495 -39.70993097 387.95718329 -39.85620117 382.13574219 C-40.19889574 369.86249473 -41.77054403 359.29879247 -50.6171875 350.12890625 C-54.2281194 346.77078891 -57.98330296 343.56457217 -61.85949135 340.51647186 C-62.98414071 339.62864789 -64.0965406 338.72493826 -65.19220543 337.80158234 C-69.52712263 334.35987527 -73.0373832 333.40941533 -78.58447266 333.51367188 C-79.72975685 333.50534836 -79.72975685 333.50534836 -80.8981781 333.49685669 C-83.40152359 333.48512346 -85.90303342 333.5092644 -88.40625 333.53515625 C-90.15546588 333.53686881 -91.90468432 333.5368002 -93.65390015 333.53503418 C-97.31053391 333.53668369 -100.96655183 333.55531674 -104.62304688 333.58691406 C-109.30500448 333.62664952 -113.98615864 333.63095022 -118.66825294 333.62345123 C-122.27657403 333.62037944 -125.88471517 333.63250851 -129.4929924 333.64958191 C-131.21932217 333.65660094 -132.94567232 333.65973777 -134.67201614 333.65888977 C-137.08461532 333.6606913 -139.49625807 333.68210053 -141.90869141 333.70898438 C-142.61842606 333.70605377 -143.32816071 333.70312317 -144.05940247 333.70010376 C-148.40907222 333.7747367 -151.13300736 334.50747114 -154.6171875 337.12890625 C-156.71820345 339.80292655 -156.61565726 341.1717531 -156.4921875 344.62890625 C-155.54284522 348.42627536 -154.64466459 349.74362127 -151.6171875 352.12890625 C-149.00871841 353.43314079 -147.04006379 353.27228299 -144.12109375 353.3046875 C-143.00412109 353.32853516 -141.88714844 353.35238281 -140.73632812 353.37695312 C-138.40056511 353.41928161 -136.06457798 353.45087237 -133.72851562 353.47070312 C-124.06636999 353.70798026 -115.14031201 355.38382017 -107.4921875 361.69140625 C-106.76773437 362.27019531 -106.04328125 362.84898437 -105.296875 363.4453125 C-103.6171875 365.12890625 -103.6171875 365.12890625 -102.6171875 368.12890625 C-101.52921875 368.0825 -100.44125 368.03609375 -99.3203125 367.98828125 C-87.59630667 367.63767178 -76.85664118 368.49207799 -67.4296875 376.30859375 C-59.14011203 384.63390015 -55.3249562 394.10080933 -55.21060181 405.7906189 C-55.21971085 407.15556992 -55.21971085 407.15556992 -55.22900391 408.5480957 C-55.22111847 410.0305352 -55.22111847 410.0305352 -55.21307373 411.54292297 C-55.19997918 414.77617674 -55.20857092 418.00892964 -55.21875 421.2421875 C-55.21672705 423.50278314 -55.21381376 425.76337814 -55.21005249 428.02397156 C-55.20564413 432.74529273 -55.21201529 437.46644292 -55.22607422 442.18774414 C-55.24321424 448.23827529 -55.23328487 454.28840859 -55.21535683 460.33892536 C-55.2045207 464.99976099 -55.20796374 469.6605021 -55.2157402 474.32134056 C-55.21774013 476.55286901 -55.21529023 478.78440606 -55.20830154 481.01592445 C-55.20068465 484.12974476 -55.21229289 487.24291741 -55.22900391 490.35668945 C-55.22293121 491.27677795 -55.21685852 492.19686646 -55.21060181 493.14483643 C-55.25831792 497.94306127 -55.43306758 501.27283251 -58.6171875 505.12890625 C-62.64033616 507.81100536 -65.88938669 507.8173404 -70.6171875 507.12890625 C-74.11608754 505.01498748 -75.32297436 504.01154566 -76.6171875 500.12890625 C-76.71032501 498.77171611 -76.75038566 497.4104682 -76.75521851 496.0500946 C-76.76067184 495.22164032 -76.76612518 494.39318604 -76.77174377 493.53962708 C-76.7727861 492.63411606 -76.77382843 491.72860504 -76.77490234 490.7956543 C-76.77998306 489.83925049 -76.78506378 488.88284668 -76.79029846 487.89746094 C-76.80100531 485.81855373 -76.80962425 483.73963497 -76.81641769 481.66071129 C-76.82819999 478.36967813 -76.84765138 475.0787766 -76.86953735 471.78779602 C-76.93117498 462.42994568 -76.98519888 453.07210857 -77.01855469 443.71411133 C-77.03950192 437.99173969 -77.07480653 432.26960758 -77.11931229 426.54737282 C-77.13347271 424.36693962 -77.14219481 422.18646404 -77.14536667 420.00598717 C-77.15027628 416.95385053 -77.17343638 413.90234929 -77.20068359 410.8503418 C-77.19767746 409.95090347 -77.19467133 409.05146515 -77.1915741 408.12477112 C-77.27420037 401.89100693 -78.32271836 397.55834416 -82.7421875 392.87890625 C-86.54032944 390.56699376 -90.26768435 389.84908542 -94.6171875 389.12890625 C-94.63136719 389.7115625 -94.64554687 390.29421875 -94.66015625 390.89453125 C-95.29817188 401.86150259 -99.33221955 411.75117652 -107.6171875 419.12890625 C-113.96019635 423.9353335 -120.05686046 426.40090936 -128.109375 426.32421875 C-129.30820313 426.31777344 -130.50703125 426.31132812 -131.7421875 426.3046875 C-132.9796875 426.28792969 -134.2171875 426.27117187 -135.4921875 426.25390625 C-136.75289062 426.24488281 -138.01359375 426.23585938 -139.3125 426.2265625 C-142.4142579 426.20306433 -145.51562402 426.17020959 -148.6171875 426.12890625 C-148.59978516 426.70463379 -148.58238281 427.28036133 -148.56445312 427.87353516 C-148.35278889 440.03666926 -152.31518202 450.16333017 -160.6171875 459.12890625 C-163.43987627 461.57015059 -166.31765989 463.3984626 -169.6171875 465.12890625 C-170.33003906 465.54011719 -171.04289063 465.95132812 -171.77734375 466.375 C-181.11938326 471.00595955 -193.88236198 470.75398681 -203.6796875 467.56640625 C-215.5715924 462.38649676 -222.90409248 453.78936958 -227.63671875 441.99609375 C-229.35123694 436.98232344 -229.73320403 432.61454303 -229.6796875 427.31640625 C-229.67066406 426.15496094 -229.66164062 424.99351562 -229.65234375 423.796875 C-229.63494141 422.47623047 -229.63494141 422.47623047 -229.6171875 421.12890625 C-230.45886475 420.87729736 -231.30054199 420.62568848 -232.16772461 420.36645508 C-235.92865957 419.01716077 -239.32418737 417.25437245 -242.80859375 415.328125 C-244.17847486 414.59075259 -245.54893523 413.85445549 -246.91992188 413.11914062 C-249.06090347 411.96592504 -251.19744434 410.80657502 -253.32495117 409.62866211 C-255.39259101 408.48741229 -257.47351866 407.37461972 -259.55859375 406.265625 C-260.50878136 405.72683968 -260.50878136 405.72683968 -261.47816467 405.1771698 C-263.49008357 404.06297471 -263.49008357 404.06297471 -266.6171875 403.12890625 C-269.35462844 404.27368727 -269.35462844 404.27368727 -271.6171875 406.12890625 C-275.5202844 407.56068037 -279.66191293 407.28408096 -283.76293945 407.29003906 C-284.58133301 407.29500397 -285.39972656 407.29996887 -286.24291992 407.30508423 C-288.94711146 407.31967454 -291.65124433 407.32650268 -294.35546875 407.33203125 C-296.23870342 407.33778534 -298.12193808 407.34354304 -300.00517273 407.3493042 C-303.95356519 407.35980532 -307.90193734 407.36565378 -311.8503418 407.36914062 C-316.90089439 407.37462307 -321.95117708 407.39864956 -327.00164509 407.42711258 C-330.89221472 407.44576896 -334.78271973 407.45094616 -338.67333031 407.4524765 C-340.53479678 407.45549684 -342.39626228 407.46350443 -344.25768471 407.47666168 C-346.86641394 407.49378481 -349.47448877 407.49182674 -352.08325195 407.48535156 C-352.84661362 407.49456635 -353.60997528 407.50378113 -354.39646912 407.51327515 C-359.50825845 407.47368328 -363.09292332 406.56577851 -367.6171875 404.12890625 C-369.71781505 400.97796492 -369.96032036 399.90646965 -370.0546875 396.25390625 C-370.09464844 395.41085937 -370.13460938 394.5678125 -370.17578125 393.69921875 C-369.6171875 391.12890625 -369.6171875 391.12890625 -364.6171875 386.12890625 C-354.3871875 386.12890625 -344.1571875 386.12890625 -333.6171875 386.12890625 C-334.1121875 337.61890625 -334.1121875 337.61890625 -334.6171875 288.12890625 C-344.5171875 285.15890625 -354.4171875 282.18890625 -364.6171875 279.12890625 C-369.6171875 274.12890625 -369.6171875 274.12890625 -370.24609375 271.84765625 C-370.12533424 267.81286775 -369.93355413 265.63509285 -367.7421875 262.12890625 C-364.39512489 258.97872968 -361.92823134 258.76504623 -357.34375 258.81689453 C-353.09044641 259.30361749 -349.3025927 260.83895741 -345.2890625 262.27929688 C-324.57825682 269.53909525 -303.84549918 269.36860543 -282.08911133 269.09291077 C-278.2238062 269.05455713 -274.81964855 269.08850176 -271.01074219 269.84863281 C-266.27486566 270.23976851 -263.21349712 268.64601211 -259.0078125 266.61328125 C-257.7966275 266.05583221 -257.7966275 266.05583221 -256.56097412 265.48712158 C-253.98847669 264.30058375 -251.42749119 263.09150391 -248.8671875 261.87890625 C-231.90798236 253.92142288 -217.74292585 249.14837191 -198.89453125 248.8125 C-197.90844376 248.7917189 -196.92235626 248.77093781 -195.90638733 248.74952698 C-192.78921765 248.68469707 -189.67197142 248.62545941 -186.5546875 248.56640625 C-184.4277268 248.52315756 -182.30077353 248.47954136 -180.17382812 248.43554688 C-174.98835756 248.32908498 -169.80281084 248.22763468 -164.6171875 248.12890625 C-164.99668549 247.30161514 -164.99668549 247.30161514 -165.3838501 246.45761108 C-174.72509389 226.04298467 -174.72509389 226.04298467 -177.3671875 217.75390625 C-177.78339355 216.46867065 -177.78339355 216.46867065 -178.20800781 215.1574707 C-185.30234224 192.62866303 -188.76668829 169.60214533 -189.1171875 146.00390625 C-189.1632312 144.21605713 -189.1632312 144.21605713 -189.21020508 142.39208984 C-189.21220839 133.10341869 -189.21220839 133.10341869 -186.3359375 129.390625 C-182.69545978 126.36212414 -180.27189484 125.72291758 -175.6171875 126.12890625 C-171.33859625 127.84034275 -169.49029828 129.97343358 -167.6171875 134.12890625 C-167.16446071 137.91471256 -167.15767748 141.694378 -167.1171875 145.50390625 C-166.21495222 179.58063868 -158.76266339 213.93647678 -141.99047852 243.89038086 C-141.54470963 244.68794296 -141.09894073 245.48550507 -140.6396637 246.30723572 C-140.30224655 246.90838699 -139.96482941 247.50953827 -139.6171875 248.12890625 C-138.46112503 248.14103653 -138.46112503 248.14103653 -137.28170776 248.15341187 C-129.95729127 248.23190965 -122.63305843 248.31935769 -115.3088665 248.41643333 C-111.54497714 248.46601609 -107.78111083 248.51234343 -104.01708984 248.55078125 C-100.37296594 248.588122 -96.72905513 248.6346009 -93.08511734 248.68696976 C-91.70676604 248.7052586 -90.32836953 248.7204565 -88.94994736 248.73225021 C-69.20970706 248.90691513 -53.29162291 251.58935792 -37.6171875 264.12890625 C-36.56356758 264.95318934 -35.50883528 265.77605211 -34.453125 266.59765625 C-32.12881322 268.41076172 -29.81392414 270.23513075 -27.50390625 272.06640625 C-24.71067031 274.27605669 -21.89812253 276.45859046 -19.07421875 278.62890625 C-2.86977046 291.0920532 11.10129659 303.25531728 21.3828125 321.12890625 C67.24766406 293.37102014 99.76595952 247.25145864 112.84375 195.4609375 C117.42386381 176.43152116 118.66814483 158.56612459 118.578125 139.0390625 C118.57438753 136.63911559 118.57154403 134.23916713 118.56954956 131.83921814 C118.56197091 125.57084829 118.54237293 119.30257345 118.5201416 113.03424072 C118.49955789 106.61854334 118.49052124 100.20283037 118.48046875 93.78710938 C118.4591208 81.23433362 118.42505579 68.68162788 118.3828125 56.12890625 C117.73503342 55.95003372 117.08725433 55.77116119 116.41984558 55.58686829 C109.94540185 53.79879894 103.47138899 52.00917579 96.99768257 50.2184391 C93.42039533 49.2290421 89.84288541 48.24046269 86.2649231 47.25350952 C69.24053339 42.55731924 52.23043261 37.81669461 35.24960899 32.96508217 C30.11579585 31.49979011 24.97981948 30.04209091 19.84396076 28.58398724 C14.85323524 27.16587045 9.86659555 25.73434034 4.88238716 24.29349709 C1.75641159 23.39325594 -1.37303693 22.5055966 -4.50353241 21.62121582 C-5.95748853 21.20762432 -7.40996103 20.78877471 -8.86075592 20.36422729 C-10.85537166 19.78123416 -12.85449625 19.21731419 -14.85571289 18.6574707 C-15.97426163 18.33647903 -17.09281036 18.01548737 -18.24525452 17.68476868 C-24.68332759 16.62345372 -30.55649071 18.23692431 -36.74584961 19.97631836 C-37.41441545 20.16247522 -38.0829813 20.34863209 -38.77180672 20.54043007 C-40.98093236 21.15697378 -43.18768926 21.78158618 -45.39453125 22.40625 C-46.97783755 22.84987447 -48.56129165 23.29297173 -50.1448822 23.73558044 C-53.52381866 24.6810407 -56.9017636 25.62993768 -60.2789917 26.58148193 C-65.5845528 28.07596737 -70.89286453 29.56050903 -76.20166016 31.04345703 C-91.12651743 35.21450375 -106.0471146 39.40053075 -120.96075535 43.61151218 C-127.01595711 45.32081362 -133.07324627 47.02257329 -139.1321249 48.71879482 C-143.32727416 49.89389453 -147.51928665 51.07941324 -151.70918751 52.27308369 C-154.90249224 53.17962586 -158.09998655 54.0710244 -161.296875 54.96484375 C-162.42149643 55.28875595 -163.54611786 55.61266815 -164.70481873 55.94639587 C-170.8775862 57.65454041 -176.2067237 58.64426823 -182.6171875 58.12890625 C-185.48748619 56.33496957 -187.10850388 55.14627349 -188.6171875 52.12890625 C-189.31813184 45.11946284 -189.31813184 45.11946284 -186.49880981 41.13526917 C-183.71329395 37.90137078 -181.14073394 36.88032728 -176.98779297 35.76147461 C-176.33549587 35.57933851 -175.68319878 35.39720242 -175.0111351 35.20954704 C-172.84056281 34.60889359 -170.6630883 34.03909972 -168.484375 33.46875 C-166.92381584 33.04301352 -165.36379922 32.61528408 -163.80429077 32.18571472 C-159.58502482 31.02899069 -155.35919837 29.89821869 -151.13166809 28.77213287 C-146.70975934 27.58983256 -142.29399473 26.38506262 -137.87792969 25.18115234 C-132.38571894 23.68473812 -126.89318494 22.18964304 -121.39807129 20.70391846 C-109.47625622 17.47725654 -97.58261551 14.16217547 -85.70766068 10.76719093 C-83.10123784 10.02223104 -80.49424721 9.27929351 -77.88705444 8.53703308 C-67.93818518 5.70527328 -67.93818518 5.70527328 -57.996521 2.84835815 C-54.15547045 1.73911376 -50.31073803 0.64365316 -46.46297073 -0.44205284 C-45.06212196 -0.84003346 -43.66268578 -1.24302929 -42.26490402 -1.65165138 C-26.37019684 -6.29362604 -15.52562838 -4.45585649 0 0 Z M-225.359375 274.4140625 C-226.35388672 274.85830566 -227.34839844 275.30254883 -228.37304688 275.76025391 C-229.40236328 276.23253418 -230.43167969 276.70481445 -231.4921875 277.19140625 C-233.10963867 277.9191626 -233.10963867 277.9191626 -234.75976562 278.66162109 C-236.96904704 279.65670797 -239.17641722 280.65604925 -241.38183594 281.65966797 C-244.46717108 283.06078077 -247.55972493 284.44413604 -250.65625 285.8203125 C-252.47669429 286.63121461 -254.29701384 287.44239685 -256.1171875 288.25390625 C-256.96522949 288.63168213 -257.81327148 289.00945801 -258.68701172 289.39868164 C-262.41088391 290.859652 -262.41088391 290.859652 -265.6171875 293.12890625 C-265.71231694 295.80678598 -265.74274029 298.45879494 -265.73071289 301.13696289 C-265.73085892 301.97591599 -265.73100494 302.81486908 -265.7311554 303.679245 C-265.730456 306.46587669 -265.72266235 309.25244241 -265.71484375 312.0390625 C-265.71297967 313.96577416 -265.71155572 315.8924863 -265.71055603 317.81919861 C-265.70673009 322.90078022 -265.69689916 327.98233345 -265.68585205 333.06390381 C-265.67563956 338.24507259 -265.67105876 343.42624594 -265.66601562 348.60742188 C-265.65527696 358.7812625 -265.63819963 368.95508202 -265.6171875 379.12890625 C-248.45033529 388.53782464 -248.45033529 388.53782464 -231.1796875 397.75390625 C-230.24060547 398.25535156 -229.30152344 398.75679687 -228.33398438 399.2734375 C-218.38798193 404.4949138 -209.14035366 406.23078158 -197.96704102 406.29003906 C-197.24881165 406.29500397 -196.53058228 406.29996887 -195.79058838 406.30508423 C-193.44241337 406.31954902 -191.09430577 406.3264797 -188.74609375 406.33203125 C-187.93722151 406.33485863 -187.12834927 406.337686 -186.29496574 406.34059906 C-182.01817378 406.35552426 -177.741415 406.36479705 -173.46459961 406.36914062 C-169.06900766 406.37462978 -164.67372473 406.39868625 -160.27822971 406.42711258 C-156.87655262 406.44580996 -153.47494915 406.45094822 -150.07322502 406.4524765 C-148.45344279 406.45548519 -146.8336613 406.46345277 -145.21393013 406.47666168 C-131.6733823 407.12836491 -131.6733823 407.12836491 -119.96095276 401.54620361 C-116.48149589 397.39084748 -115.6171875 393.47244155 -115.6171875 388.12890625 C-117.21201248 382.90142436 -119.46190703 379.66089465 -123.6171875 376.12890625 C-126.66238836 375.1138393 -128.8372735 374.97584934 -132.02734375 374.91796875 C-133.10048828 374.88960938 -134.17363281 374.86125 -135.27929688 374.83203125 C-137.51872675 374.78057967 -139.75833016 374.73612991 -141.99804688 374.69921875 C-153.29665004 374.37620925 -162.50550084 372.43296493 -170.6171875 364.12890625 C-176.03907792 356.64405265 -178.5653136 348.33927404 -177.6171875 339.12890625 C-175.90739079 329.87588874 -171.88844004 323.19074364 -164.1796875 317.75390625 C-157.73478717 313.50478228 -151.34242104 312.83066783 -143.83959961 312.85424805 C-142.98990097 312.84913712 -142.14020233 312.84402618 -141.26475525 312.83876038 C-138.47460764 312.82493498 -135.6847089 312.82581535 -132.89453125 312.828125 C-130.94592701 312.82423514 -128.99732362 312.81989987 -127.04872131 312.81513977 C-122.97280116 312.80769344 -118.89696766 312.80795802 -114.82104492 312.81323242 C-109.60343118 312.81903509 -104.38617149 312.80206907 -99.16861629 312.77888775 C-95.14768915 312.76414525 -91.12684728 312.76327924 -87.1058979 312.76639748 C-85.18220886 312.76588486 -83.25851496 312.76065833 -81.33485222 312.75058556 C-78.64479484 312.73822393 -75.95542751 312.74501033 -73.26538086 312.7565918 C-72.07993683 312.74512619 -72.07993683 312.74512619 -70.87054443 312.73342896 C-64.23087129 312.79648632 -59.69335944 314.97751778 -54.59375 319.23828125 C-53.8821875 319.82867187 -53.170625 320.4190625 -52.4375 321.02734375 C-51.35082031 321.94386719 -51.35082031 321.94386719 -50.2421875 322.87890625 C-49.52546875 323.47445312 -48.80875 324.07 -48.0703125 324.68359375 C-45.90850919 326.48639723 -43.7599477 328.30351967 -41.6171875 330.12890625 C-40.89394287 330.74483643 -40.17069824 331.3607666 -39.42553711 331.99536133 C-28.42788799 341.47609333 -20.59138599 353.63330639 -19.43139648 368.51196289 C-19.31186004 371.91059369 -19.2471725 375.3063811 -19.2265625 378.70703125 C-19.0648639 384.56411395 -18.08220202 389.29125991 -14.6171875 394.12890625 C-11.45444605 396.91825132 -8.30254245 398.0309984 -4.1171875 398.62890625 C0.07595944 398.02988526 3.20502675 396.9063645 6.3828125 394.12890625 C10.87993884 387.23008879 10.97742658 381.22281525 10.8203125 373.12890625 C10.80492432 371.92645264 10.78953613 370.72399902 10.77368164 369.48510742 C10.26141405 345.78515122 3.2947237 326.64300159 -13.72509766 309.8762207 C-16.82558436 307.01297124 -20.16574729 304.51285416 -23.5546875 302.00390625 C-29.49457598 297.5416442 -35.31835796 292.9748348 -41.0546875 288.25390625 C-56.75127495 275.42607744 -68.17684371 269.97602402 -88.55395508 269.98364258 C-89.84589279 269.98028397 -91.13783051 269.97692535 -92.46891785 269.97346497 C-95.99799262 269.96466696 -99.52704311 269.96228862 -103.05612779 269.96164918 C-105.26553169 269.96093627 -107.47492951 269.95879739 -109.68433189 269.95615196 C-117.40519983 269.9469123 -125.12605055 269.94281533 -132.84692383 269.94360352 C-140.0229167 269.94420388 -147.1988343 269.9336567 -154.37480813 269.91785985 C-160.55340196 269.90474743 -166.73197129 269.89942117 -172.91057891 269.90005893 C-176.59294295 269.90031283 -180.27524003 269.89752123 -183.9575901 269.88688087 C-188.06919048 269.87532349 -192.18062408 269.8799693 -196.29223633 269.88598633 C-197.49828522 269.88036682 -198.70433411 269.87474731 -199.94692993 269.86895752 C-208.86291409 269.90202011 -217.16074518 270.69993856 -225.359375 274.4140625 Z M-312.6171875 290.12890625 C-312.6171875 321.80890625 -312.6171875 353.48890625 -312.6171875 386.12890625 C-304.0371875 386.12890625 -295.4571875 386.12890625 -286.6171875 386.12890625 C-286.6171875 354.44890625 -286.6171875 322.76890625 -286.6171875 290.12890625 C-295.1971875 290.12890625 -303.7771875 290.12890625 -312.6171875 290.12890625 Z M-208.6171875 426.12890625 C-207.69984838 436.80015014 -207.69984838 436.80015014 -201.6171875 444.12890625 C-197.68367792 447.17164348 -193.61320056 448.92498735 -188.6171875 449.12890625 C-181.58868203 448.22200232 -177.30118582 445.43743767 -172.6171875 440.12890625 C-169.52978684 435.45133937 -169.6171875 431.89315581 -169.6171875 426.12890625 C-182.4871875 426.12890625 -195.3571875 426.12890625 -208.6171875 426.12890625 Z " fill="#000000" transform="translate(370.6171875,4.87109375)"/>
<path d="M0 0 C3.54231881 2.86400244 4.81823241 4.30350251 5.3046875 8.84375 C5.31174354 11.58149291 5.21846209 14.2716512 5 17 C5.62003906 17.02578125 6.24007812 17.0515625 6.87890625 17.078125 C34.93745039 18.87517877 58.77678227 33.96279299 77.44238281 54.21289062 C94.0607359 73.27971579 102.0481166 98.89192929 102.25 123.875 C102.2593457 124.67188232 102.26869141 125.46876465 102.27832031 126.28979492 C102.24625009 132.16912924 101.64644119 137.32453307 98.5 142.4375 C94.4956515 144.94021781 90.57849314 144.83313564 86 144 C83.4375 142.125 83.4375 142.125 81 139 C71.56344913 127.81387165 62.15524794 120.09430861 47.09765625 118.6171875 C34.11451684 118.0428225 22.84236454 121.27216159 13 130 C12.42491196 130.48565933 11.84982391 130.97131866 11.25730896 131.47169495 C7.04948214 135.52385905 5.51359559 138.5621804 5.15771484 144.4284668 C5.13866238 146.93537449 5.15851041 149.44278691 5.2109375 151.94921875 C5.21639064 153.29343366 5.21916151 154.63766186 5.21939087 155.98188782 C5.22708285 158.78555227 5.25785684 161.58763243 5.30712891 164.39086914 C5.3695724 167.97545227 5.38797598 171.55852814 5.39092064 175.14360332 C5.39562994 177.91389056 5.41643726 180.68386068 5.44279861 183.45401955 C5.4606301 185.41540657 5.47066362 187.3768595 5.4805603 189.33830261 C5.50292755 190.53336929 5.5252948 191.72843597 5.54833984 192.9597168 C5.56279144 194.00814255 5.57724304 195.0565683 5.59213257 196.13676453 C6.06007371 199.42171836 7.05228068 201.33478903 9 204 C12.09173752 205.54586876 14.59429552 205.29359521 18 205 C21.7066674 202.73481437 22.36883638 200.0030604 23.4375 196 C24.35212151 192.7189768 24.94455361 191.06849259 27.125 188.375 C31.16768372 186.44154257 34.60465516 186.09226574 39 187 C42.48422752 189.39540642 43.69310288 191.06012757 45 195.0625 C45 203.23746021 43.11375905 210.89967745 37.80859375 217.25 C30.39302778 224.42532085 22.99066897 227.42195253 12.73608398 227.36352539 C4.08084291 227.12646766 -1.93260533 223.87354516 -8.20703125 218.0625 C-14.15837668 211.21650787 -16.13062754 203.54812361 -16.11010742 194.66845703 C-16.11068649 193.4101004 -16.11126556 192.15174377 -16.11186218 190.85525513 C-16.11043402 190.18783421 -16.10900585 189.52041328 -16.10753441 188.83276749 C-16.10399014 185.27255105 -16.1298382 181.71248786 -16.15039062 178.15234375 C-16.17470071 173.63381683 -16.1904248 169.1157512 -16.17504883 164.59716797 C-16.16335286 160.93404011 -16.18086819 157.27204727 -16.21749306 153.60909653 C-16.22607483 152.21936354 -16.22407948 150.82952098 -16.210989 149.43982315 C-15.94306998 140.45565231 -15.94306998 140.45565231 -19.87866211 132.72509766 C-30.45742693 122.63958456 -42.84268058 118.54501181 -57.171875 118.78515625 C-69.20345171 119.4603978 -79.72095667 125.41495507 -88 134 C-89.20793362 135.58883709 -90.39554927 137.19332338 -91.5625 138.8125 C-93.88043643 141.88731364 -94.95010302 142.97505151 -98.5 144.75 C-102.9151633 145.06536881 -105.20958127 144.2596727 -109 142 C-111.76100408 138.29788164 -112.39036901 135.59670923 -112.43359375 131.01953125 C-112.44503418 129.86412842 -112.45647461 128.70872559 -112.46826172 127.51831055 C-112.45811035 126.29539307 -112.44795898 125.07247559 -112.4375 123.8125 C-112.42992676 122.55542236 -112.42235352 121.29834473 -112.41455078 120.00317383 C-111.934759 92.69181494 -101.25491045 69.02508359 -83 49 C-82.41734375 48.33484375 -81.8346875 47.6696875 -81.234375 46.984375 C-65.72900043 30.22604086 -40.45881072 18.05485325 -17.703125 17.0078125 C-17.14109375 17.00523438 -16.5790625 17.00265625 -16 17 C-16.04640625 16.34773438 -16.0928125 15.69546875 -16.140625 15.0234375 C-16.32665975 10.51873889 -16.30252824 7.62746598 -14.3125 3.5 C-9.94647247 -1.22002976 -6.16921635 -1.76263324 0 0 Z M-70 66 C-80.14257799 77.89961671 -86.99394331 91.6261672 -90 107 C-87.38951811 105.97292516 -84.80501376 104.91395232 -82.23828125 103.78125 C-66.40910927 96.84938296 -48.54438085 95.2035999 -32 101 C-31.01902344 101.32871094 -30.03804687 101.65742188 -29.02734375 101.99609375 C-21.999983 104.61661924 -16.40434937 108.36480125 -10.59375 113.01171875 C-8.42667545 114.672925 -6.48426506 115.90434536 -4 117 C-3.5359375 116.5153125 -3.071875 116.030625 -2.59375 115.53125 C10.69269503 102.64141527 27.45014541 97.51543307 45.63330078 97.64355469 C57.62756508 97.95710052 68.36889559 101.56363979 79 107 C76.28726849 88.69918442 66.83868034 73.85694304 54 61 C53.26910156 60.2575 52.53820312 59.515 51.78515625 58.75 C36.06476195 43.76146763 13.6628924 36.48970861 -7.80078125 36.7890625 C-31.84781654 38.37458131 -53.68763998 48.08894876 -70 66 Z " fill="#000000" transform="translate(352,38)"/>
<path d="M0 0 C2.35007379 1.88005903 3.09880383 2.98600426 4.1875 5.75 C4.41101216 9.98183025 3.87849922 13.64440125 1.625 17.25 C-1.77782496 19.34404613 -4.82746882 19.95639604 -8.8125 19.75 C-12.48061631 18.20123978 -14.94530222 16.28784843 -16.8125 12.75 C-17.3537081 7.78892575 -16.95784237 4.68167796 -13.8125 0.75 C-9.65194818 -2.37041386 -4.59375224 -2.04166766 0 0 Z " fill="#000000" transform="translate(198.8125,87.25)"/>
<path d="M0 0 C3.67080764 2.52368025 4.75864984 4.17035883 6 8.4375 C6 12.53094236 5.22004022 14.59065251 3 18 C-1.01858595 20.6790573 -4.27641721 20.69610694 -9 20 C-11.87029869 18.20606332 -13.49131638 17.01736724 -15 14 C-15.5811138 6.91041162 -15.5811138 6.91041162 -13.125 3.0625 C-9.22556807 -0.72224276 -5.23389564 -0.78644028 0 0 Z " fill="#000000" transform="translate(369,492)"/>
</svg>
