<?xml version="1.0" encoding="UTF-8"?>
<svg version="1.1" xmlns="http://www.w3.org/2000/svg" width="512" height="512">
<path d="M0 0 C12.74590629 11.46193945 20.80845882 28.26881082 22.59765625 45.27832031 C22.75094481 48.28068437 22.74109523 51.27272201 22.73168945 54.27880859 C22.72745972 56.03281982 22.72745972 56.03281982 22.72314453 57.82226562 C22.71951904 58.71284668 22.71589355 59.60342773 22.7121582 60.52099609 C23.47922089 59.74505096 24.24628357 58.96910583 25.03659058 58.16964722 C32.29261411 50.83227924 39.55937245 43.50569253 46.83657646 36.18932915 C50.57686601 32.42823011 54.31337009 28.66352971 58.04125977 24.89013672 C61.64393342 21.24376871 65.25649872 17.60746863 68.87591934 13.97772598 C70.25002581 12.5962704 71.62062728 11.21131867 72.9875145 9.82271957 C85.17234067 -2.54776721 95.57848614 -11.23152203 113.7121582 -11.47900391 C124.87523322 -10.78707777 134.39817442 -5.83766683 141.9934082 2.31787109 C149.09862605 11.42546852 151.88671709 22.11736741 150.7121582 33.52099609 C147.75188744 48.39325461 138.236713 57.29631843 127.87695312 67.63085938 C126.68978631 68.82238171 125.50303539 70.01431855 124.31666565 71.20663452 C121.11463997 74.42196952 117.90632347 77.63095452 114.69636703 80.83836985 C112.00834444 83.52531746 109.32331616 86.21524766 106.63822156 88.90512073 C100.29988727 95.25452181 93.95627512 101.5986154 87.609375 107.93945312 C81.0801559 114.46263118 74.5601723 120.99493698 68.04462737 127.53177083 C62.43197369 133.1620822 56.81348484 138.78652423 51.19037133 144.40638912 C47.84001205 147.75494242 44.49187464 151.10564066 41.14940453 154.46207047 C38.00501678 157.61910034 34.85335759 160.76869152 31.69615746 163.91290665 C30.54476033 165.0619525 29.39586664 166.21351379 28.24980545 167.36788177 C19.69185692 175.98332915 10.882446 183.3486368 -0.1003418 188.70849609 C-0.78410889 189.04381348 -1.46787598 189.37913086 -2.17236328 189.72460938 C-20.92523456 198.68569541 -38.91230171 198.7132978 -59.24518484 197.95300055 C-67.86848052 197.63706108 -76.49567622 197.50059148 -85.12322581 197.35368824 C-93.47144803 197.21046687 -101.80903732 197.01292036 -110.15039062 196.63867188 C-148.82505174 193.77923793 -148.82505174 193.77923793 -182.48941708 209.44377899 C-189.52803419 216.26187659 -195.65693164 223.85951603 -201.08841991 232.00653839 C-202.7919592 234.15752315 -204.66855129 235.32876053 -207.27612305 236.13818359 C-212.0196108 236.66435198 -214.58681543 236.00394394 -218.56518555 233.26318359 C-221.64358745 230.69865183 -224.56422972 227.96794442 -227.47338867 225.21435547 C-230.32750585 222.55071758 -233.308489 220.04250107 -236.2878418 217.52099609 C-237.45519832 216.52180148 -238.62186395 215.52179916 -239.7878418 214.52099609 C-240.6540918 213.77849609 -240.6540918 213.77849609 -241.5378418 213.02099609 C-244.1628418 210.77099609 -244.1628418 210.77099609 -246.7878418 208.52099609 C-247.36526123 208.02607666 -247.94268066 207.53115723 -248.53759766 207.02124023 C-249.70512408 206.02048004 -250.87260449 205.01966617 -252.04003906 204.01879883 C-254.94317809 201.52998933 -257.84709129 199.04209519 -260.75268555 196.55615234 C-267.41553013 190.85371779 -274.05655885 185.1271392 -280.67993164 179.37890625 C-284.89201316 175.725381 -289.11623105 172.08646046 -293.3503418 168.45849609 C-293.91599854 167.97243896 -294.48165527 167.48638184 -295.06445312 166.9855957 C-298.082521 164.39530577 -301.11561965 161.8254319 -304.1706543 159.27880859 C-305.12572876 158.47648804 -305.12572876 158.47648804 -306.10009766 157.65795898 C-307.31469414 156.63817865 -308.53399018 155.62395904 -309.75878906 154.61645508 C-313.92215357 151.10722024 -316.9076801 148.07351032 -317.7253418 142.58349609 C-316.5823786 134.58275374 -308.97726588 128.97038552 -303.51831055 123.59130859 C-302.55379218 122.63307513 -301.5897968 121.67431499 -300.626297 120.71505737 C-298.0965954 118.1986008 -295.56138358 115.68777759 -293.0244751 113.17858887 C-288.97480099 109.17215425 -284.93180501 105.15901253 -280.89223671 101.1423912 C-279.49287892 99.75311004 -278.08989374 98.3674856 -276.68681335 96.98196411 C-272.20784373 92.53671513 -267.88594863 88.03516995 -263.77714539 83.24530029 C-243.81125429 60.1289457 -220.28580646 41.60681731 -189.2878418 37.52099609 C-168.52546549 36.05689951 -150.88241066 37.95357265 -132.2878418 47.52099609 C-130.98416902 48.17017328 -129.67943737 48.81722739 -128.3737793 49.46240234 C-125.0028985 51.13134134 -121.64303865 52.82076141 -118.2878418 54.52099609 C-118.33424805 53.75658203 -118.3806543 52.99216797 -118.4284668 52.20458984 C-119.01914591 34.67407772 -112.84488994 18.62692698 -101.2878418 5.52099609 C-100.30364258 4.39564453 -100.30364258 4.39564453 -99.29956055 3.24755859 C-72.66327796 -25.28783737 -28.64401052 -24.40060916 0 0 Z M-81.7253418 15.77099609 C-89.68984057 23.50009097 -96.70666547 34.14414361 -97.41239929 45.53063965 C-97.44074407 47.66108032 -97.42476562 49.78529174 -97.38549805 51.91552734 C-97.37844849 52.65017212 -97.37139893 53.38481689 -97.36413574 54.14172363 C-97.34590497 55.93490212 -97.31788793 57.72797667 -97.2878418 59.52099609 C-96.44561066 59.52686234 -95.60337952 59.53272858 -94.73562622 59.53877258 C-86.76240858 59.59689895 -78.78946514 59.66908844 -70.81651497 59.75671101 C-66.71843594 59.80126256 -62.62045285 59.84055123 -58.5222168 59.86743164 C-54.56033393 59.89361771 -50.5988233 59.93412549 -46.6371727 59.98418236 C-45.13271625 60.0007484 -43.62819557 60.01232611 -42.12366104 60.01861 C-28.11875187 60.08297014 -15.52630248 62.12011395 -5.1628418 72.39599609 C-4.5440918 73.09724609 -3.9253418 73.79849609 -3.2878418 74.52099609 C2.29929256 60.09839346 3.04452654 47.45193234 -2.2878418 32.76708984 C-7.40075154 21.42282135 -17.56386844 11.32960308 -28.9128418 6.20849609 C-47.90114364 -0.5919655 -66.3371669 2.78430909 -81.7253418 15.77099609 Z M93.7121582 19.52099609 C90.6382192 22.44862889 87.61820007 25.42799373 84.60571289 28.41870117 C83.7331485 29.28148178 82.86058411 30.14426239 81.96157837 31.03318787 C79.09924391 33.86580831 76.24083914 36.702334 73.3840332 39.54052734 C72.89542344 40.02583978 72.40681368 40.51115222 71.90339756 41.0111711 C67.28554997 45.59828409 62.6697364 50.18743493 58.05872726 54.78142262 C52.1920186 60.62620503 46.31545425 66.46067496 40.42509151 72.2816208 C36.26488364 76.39447443 32.11633648 80.51886584 27.97611547 84.65183753 C25.510853 87.11216696 23.04088644 89.56727353 20.55818939 92.0100193 C17.78908404 94.7351319 15.04429135 97.48397365 12.30102539 100.23510742 C11.48640839 101.02972382 10.67179138 101.82434021 9.83248901 102.64303589 C5.31163154 107.22222759 2.52296872 111.2497124 0.45991898 117.371562 C-2.17088143 124.93378281 -8.63117294 130.30863492 -15.30737305 134.26708984 C-27.31499906 139.31879096 -39.02344253 138.96115822 -51.8425293 138.91943359 C-54.03443498 138.92145709 -56.22634001 138.92437083 -58.41824341 138.9281311 C-62.99235499 138.93253584 -67.56628992 138.92617942 -72.14038086 138.91210938 C-78.00143808 138.89495775 -83.86208492 138.90490826 -89.72312737 138.92282677 C-94.24070333 138.93366278 -98.75818177 138.93022012 -103.27576065 138.92244339 C-105.43751194 138.92044404 -107.59927212 138.92289134 -109.76101303 138.92988205 C-112.77654305 138.93750008 -115.79140456 138.92588976 -118.80688477 138.90917969 C-119.69735001 138.91525238 -120.58781525 138.92132507 -121.50526428 138.92758179 C-126.24079484 138.87896386 -129.4584827 138.63266551 -133.2878418 135.52099609 C-135.0074684 132.0817429 -134.67004144 128.28935047 -134.2878418 124.52099609 C-132.56095135 121.23168096 -131.84576169 120.70696939 -128.2878418 119.52099609 C-125.23608755 119.41558559 -122.20623011 119.36687505 -119.15405273 119.36328125 C-118.21876236 119.35820053 -117.28347198 119.35311981 -116.31983948 119.34788513 C-114.28677052 119.33717858 -112.25368975 119.32855952 -110.22060394 119.3217659 C-107.00070536 119.30997985 -103.78094109 119.29052691 -100.56109619 119.26864624 C-91.40544109 119.2070255 -82.24979917 119.15301188 -73.09399414 119.11962891 C-67.4948088 119.09866329 -61.8958674 119.0633427 -56.29682159 119.01887131 C-54.16466395 119.00472418 -52.03246314 118.99599178 -49.90026093 118.99281693 C-46.91298474 118.98789871 -43.9263537 118.96471608 -40.93920898 118.9375 C-40.06206741 118.94050613 -39.18492584 118.94351227 -38.28120422 118.9466095 C-31.53865929 118.85555825 -26.77581296 117.66969846 -21.5378418 113.14599609 C-16.88140301 107.71348418 -15.78171957 104.33071598 -16.00268555 97.17333984 C-16.65584134 91.09809628 -19.77219725 87.4065507 -24.2878418 83.52099609 C-28.80080398 80.84038833 -32.0990764 80.14504801 -37.32446289 80.13623047 C-38.00189545 80.1308577 -38.679328 80.12548492 -39.37728882 80.11994934 C-40.8405918 80.11021068 -42.30395227 80.10721531 -43.76728439 80.11030579 C-46.09957586 80.11482022 -48.4311227 80.10067661 -50.76333618 80.08190918 C-55.72982593 80.04522388 -60.69623668 80.03146502 -65.6628418 80.02099609 C-71.39084703 80.00882789 -77.11848868 79.98672103 -82.84633255 79.94099426 C-85.11486359 79.92766569 -87.38290564 79.93155273 -89.65145874 79.93640137 C-108.41317718 79.86671311 -125.35000662 75.55418986 -141.80126953 66.40869141 C-157.96713951 57.54661449 -177.95644284 55.60440282 -195.8503418 60.08349609 C-217.14700616 66.35879658 -233.24813381 80.5791092 -247.40380859 97.14355469 C-251.63436518 101.99191015 -256.15912204 106.51800457 -260.72143555 111.05224609 C-262.03834129 112.36702942 -262.03834129 112.36702942 -263.3818512 113.70837402 C-266.16065676 116.48162405 -268.94293576 119.25135892 -271.7253418 122.02099609 C-273.62104045 123.91110415 -275.51593962 125.80201128 -277.41088867 127.69287109 C-282.03389369 132.30490613 -286.65974837 136.91406751 -291.2878418 141.52099609 C-283.57452482 149.26485131 -275.47499643 156.44299469 -266.97143555 163.30615234 C-264.34075623 165.47732436 -261.80841755 167.72340966 -259.2878418 170.02099609 C-255.87044808 173.13558278 -252.3826183 176.11286229 -248.7878418 179.02099609 C-244.32507966 182.63132052 -240.06064647 186.40527538 -235.8190918 190.27099609 C-232.3236643 193.37804275 -228.68507132 196.29527692 -225.04956055 199.23583984 C-220.67077989 202.85901762 -216.47477557 206.67918918 -212.2878418 210.52099609 C-209.49544094 209.24768066 -207.46164336 207.93942763 -205.31103516 205.75537109 C-204.7604393 205.20139648 -204.20984344 204.64742187 -203.64256287 204.07666016 C-203.06015335 203.48079102 -202.47774384 202.88492188 -201.87768555 202.27099609 C-200.96461388 201.35012207 -200.96461388 201.35012207 -200.03309631 200.41064453 C-198.09235936 198.4521252 -196.15844756 196.4870457 -194.2253418 194.52099609 C-192.28781245 192.55582552 -190.34883643 190.59213948 -188.40687561 188.63134766 C-187.19985423 187.41209576 -185.99551621 186.19018025 -184.79417419 184.96533203 C-178.5508199 178.64749553 -178.5508199 178.64749553 -174.75854874 178.267663 C-173.23224649 178.26521155 -173.23224649 178.26521155 -171.67510986 178.26271057 C-169.92184639 178.25246857 -169.92184639 178.25246857 -168.13316345 178.24201965 C-166.20700951 178.24584908 -166.20700951 178.24584908 -164.24194336 178.24975586 C-162.87669057 178.24536867 -161.51144045 178.24006653 -160.14619446 178.23391724 C-157.20294813 178.2224069 -154.2597739 178.21695699 -151.31650543 178.21603584 C-146.64939355 178.21409292 -141.98242976 178.19602247 -137.31536865 178.17527771 C-125.71201651 178.12609789 -114.1086237 178.09531941 -102.50518799 178.07397461 C-93.50699023 178.05738823 -84.5089186 178.03436292 -75.51080489 177.99095386 C-70.88605053 177.96934695 -66.2615367 177.96110395 -61.63673544 177.9633466 C-58.73514791 177.96166035 -55.83371245 177.94749241 -52.9321804 177.93013382 C-50.97775731 177.92201028 -49.02329 177.92840023 -47.06886292 177.9355011 C-15.77108172 177.68443221 3.38903721 161.96779956 24.49169922 140.91845703 C25.61156576 139.80487834 26.73161223 138.69148058 27.8518219 137.57824707 C31.47670092 133.97409357 35.09653212 130.36489271 38.71606445 126.75537109 C39.97155215 125.50393947 41.22707034 124.25253843 42.48261833 123.0011673 C48.37177285 117.13097605 54.25857399 111.25843743 60.1424461 105.3829515 C66.91103883 98.6241704 73.68787399 91.87379361 80.4716478 85.13025069 C85.73752288 79.89452973 90.99570372 74.65116112 96.24817985 69.40199876 C99.37705845 66.27546647 102.50913177 63.15230371 105.64941597 60.03722382 C108.59595097 57.11396956 111.53281704 54.18133657 114.46259117 51.24128723 C115.53664011 50.16674325 116.61409935 49.09559517 117.69524384 48.02819061 C119.17438714 46.56679752 120.64055968 45.0934727 122.10426331 43.61663818 C122.92658731 42.79670254 123.7489113 41.97676689 124.59615421 41.13198471 C127.83423168 37.13644243 129.49357102 33.23846682 130.1496582 28.08349609 C129.41298172 22.08484472 127.13846362 18.08314012 123.0871582 13.64599609 C111.1060198 6.10231636 103.0312988 10.93021099 93.7121582 19.52099609 Z " fill="#000000" transform="translate(339.287841796875,276.47900390625)"/>
<path d="M0 0 C1.20716171 -0.0071553 2.41432343 -0.01431061 3.6580658 -0.02168274 C5.00297521 -0.02452312 6.34788489 -0.02723483 7.6927948 -0.02983093 C9.10368009 -0.03609472 10.51456373 -0.04274145 11.92544556 -0.04974365 C15.76437764 -0.06716085 19.60329726 -0.07770732 23.44225907 -0.08594918 C25.84004511 -0.09109772 28.23782728 -0.09717351 30.63561058 -0.10346031 C38.13580947 -0.12251424 45.6359985 -0.13674505 53.13621694 -0.14507228 C61.79754977 -0.15484708 70.45862719 -0.18117192 79.11987001 -0.22157317 C85.81207969 -0.25171979 92.5042161 -0.26653975 99.19649237 -0.26985329 C103.19464579 -0.27220542 107.19252642 -0.28118655 111.19060707 -0.30631447 C114.95239796 -0.3295751 118.71373608 -0.33383682 122.47558022 -0.32355309 C123.85545863 -0.32305712 125.23535917 -0.32939559 126.61516953 -0.34310913 C128.5006064 -0.36079787 130.38623942 -0.35134638 132.27172852 -0.34057617 C133.32642743 -0.34296453 134.38112635 -0.34535288 135.46778584 -0.34781361 C139.05303127 0.27300428 140.72646515 1.65391921 143.32633972 4.14717102 C144.92720599 7.34890356 144.82551061 10.67294161 144.32633972 14.14717102 C142.53270061 16.95720562 141.30753037 18.6565757 138.32633972 20.14717102 C135.82511642 20.26932587 133.34985985 20.33280384 130.84733582 20.35249329 C129.69109962 20.36734268 129.69109962 20.36734268 128.51150513 20.38249207 C125.95762732 20.41413932 123.4037309 20.43887719 120.84977722 20.46357727 C119.08143117 20.48414402 117.31309007 20.50514041 115.54475403 20.52655029 C110.88574729 20.58179983 106.22669598 20.63119638 101.56761169 20.67939758 C96.81527225 20.72959158 92.0629977 20.7852886 87.31071472 20.8405304 C77.98264514 20.94814721 68.65451925 21.04958435 59.32633972 21.14717102 C59.06296814 22.02542542 58.79959656 22.90367981 58.52824402 23.80854797 C58.17673279 24.96830139 57.82522156 26.12805481 57.46305847 27.32295227 C57.11718689 28.46933167 56.77131531 29.61571106 56.41496277 30.79682922 C53.30476157 40.36877161 48.40149691 47.04803024 41.32633972 54.14717102 C40.71016785 54.78654602 40.09399597 55.42592102 39.45915222 56.08467102 C30.92956754 64.28478676 20.75867157 67.86070465 9.32633972 70.14717102 C9.32633972 82.35717102 9.32633972 94.56717102 9.32633972 107.14717102 C13.28633972 106.15717102 13.28633972 106.15717102 17.32633972 105.14717102 C38.25040443 102.96165035 56.76257704 107.10771391 73.63883972 120.02217102 C87.78861832 132.00033578 96.91602882 147.63780243 99.32633972 166.14717102 C99.48472009 169.10692639 99.51136597 172.0586187 99.51383972 175.02217102 C99.52608582 175.78658508 99.53833191 176.55099915 99.5509491 177.33857727 C99.55288269 178.09783508 99.55481628 178.8570929 99.55680847 179.63935852 C99.56091736 180.31337708 99.56502625 180.98739563 99.56925964 181.68183899 C99.21941662 185.23230614 98.19162468 188.68603117 97.32633972 192.14717102 C163.98633972 192.14717102 230.64633972 192.14717102 299.32633972 192.14717102 C299.65633972 189.50717102 299.98633972 186.86717102 300.32633972 184.14717102 C305.11398192 168.2637057 315.81708752 156.30571955 329.82243347 147.94795227 C335.33492699 145.11488704 342.01100137 142.14717102 348.32633972 142.14717102 C348.32633972 118.38717102 348.32633972 94.62717102 348.32633972 70.14717102 C342.38633972 68.66217102 342.38633972 68.66217102 336.32633972 67.14717102 C319.58687943 59.88668222 308.28212147 47.89114427 301.32633972 31.14717102 C300.04456582 27.19258336 299.32633972 24.31961514 299.32633972 20.14717102 C298.33519669 20.15827408 297.34405365 20.16937714 296.32287598 20.18081665 C286.97978399 20.28219921 277.63680368 20.35713945 268.29328632 20.40623188 C263.48969907 20.43231956 258.68655606 20.46770235 253.88322449 20.52436829 C249.24720078 20.57871784 244.6116042 20.6085978 239.97528648 20.62155724 C238.20701053 20.63079186 236.43875782 20.64882531 234.67066383 20.6758213 C232.19250206 20.71215213 229.71610216 20.71711489 227.23771667 20.71479797 C226.50763397 20.73277435 225.77755127 20.75075073 225.02534485 20.76927185 C221.08539427 20.72944785 219.48026991 20.27372289 216.39437866 17.73669434 C213.38435918 13.96765717 212.86174957 11.97890859 213.32633972 7.14717102 C216.48423446 1.56822365 216.48423446 1.56822365 219.32633972 0.14717102 C221.21543358 0.04497308 223.10815932 0.00767368 225 0 C226.20716171 -0.0071553 227.41432343 -0.01431061 228.6580658 -0.02168274 C230.00297521 -0.02452312 231.34788489 -0.02723483 232.6927948 -0.02983093 C234.10368009 -0.03609472 235.51456373 -0.04274145 236.92544556 -0.04974365 C240.76437764 -0.06716085 244.60329726 -0.07770732 248.44225907 -0.08594918 C250.84004511 -0.09109772 253.23782728 -0.09717351 255.63561058 -0.10346031 C263.13580947 -0.12251424 270.6359985 -0.13674505 278.13621694 -0.14507228 C286.79754977 -0.15484708 295.45862719 -0.18117192 304.11987001 -0.22157317 C310.81207969 -0.25171979 317.5042161 -0.26653975 324.19649237 -0.26985329 C328.19464579 -0.27220542 332.19252642 -0.28118655 336.19060707 -0.30631447 C339.95239796 -0.3295751 343.71373608 -0.33383682 347.47558022 -0.32355309 C348.85545863 -0.32305712 350.23535917 -0.32939559 351.61516953 -0.34310913 C353.5006064 -0.36079787 355.38623942 -0.35134638 357.27172852 -0.34057617 C358.32642743 -0.34296453 359.38112635 -0.34535288 360.46778584 -0.34781361 C364.05303127 0.27300428 365.72646515 1.65391921 368.32633972 4.14717102 C369.87869877 7.25188912 369.47432785 10.53876125 369.47351074 13.94680786 C369.47718743 14.76169935 369.48086412 15.57659085 369.48465222 16.41617602 C369.4957151 19.16220732 369.49953729 21.90820082 369.50334167 24.6542511 C369.50960431 26.61685304 369.51625093 28.57945379 369.52325439 30.54205322 C369.54068159 35.88507119 369.55122063 41.22808019 369.55945992 46.57111955 C369.56460594 49.90695938 369.57068182 53.24279641 369.57697105 56.57863426 C369.59602706 67.00907469 369.61025789 77.43950802 369.61858302 87.86996251 C369.62836099 99.92265336 369.65469346 111.97516083 369.69508392 124.02778703 C369.72520936 133.3356857 369.74004846 142.64353169 369.74336404 151.95147818 C369.74571841 157.51455701 369.7547293 163.07744002 369.77982521 168.64046669 C369.80304874 173.8730505 369.80736221 179.10530876 369.79706383 184.33793068 C369.79656698 186.25962403 369.80293114 188.18133309 369.81661987 190.10297775 C369.83425142 192.72457279 369.82727616 195.34498842 369.81408691 197.96658325 C369.82505616 198.72884446 369.83602541 199.49110568 369.84732705 200.27646571 C369.78766069 205.18139977 368.83480133 207.71124421 365.32633972 211.14717102 C362.93000472 212.34533852 361.46122807 212.27143621 358.78546715 212.27021885 C357.82355127 212.2722099 356.86163539 212.27420095 355.87057054 212.27625233 C354.80638544 212.27333949 353.74220034 212.27042665 352.64576721 212.26742554 C351.52108146 212.26827996 350.39639571 212.26913439 349.23762858 212.2700147 C345.44345263 212.2716707 341.64932024 212.26614615 337.85514832 212.26069641 C335.14552787 212.25985872 332.4359083 212.26052817 329.72628784 212.26113892 C323.87952086 212.26166405 318.03276501 212.25851831 312.18600082 212.25290108 C303.73249247 212.24478471 295.27898951 212.24217072 286.82547767 212.24091309 C273.11124374 212.23872278 259.39701574 212.23206328 245.68278503 212.22261047 C232.35824107 212.2134358 219.03369871 212.20635524 205.70915222 212.20210266 C204.88825388 212.20183994 204.06735555 212.20157721 203.2215815 212.20130653 C199.10350319 212.20000152 194.98542486 212.19873781 190.86734653 212.19749463 C156.68700665 212.18712269 122.50667383 212.16950495 88.32633972 212.14717102 C88.04274597 212.91303528 87.75915222 213.67889954 87.46696472 214.4679718 C86.01170481 217.88621286 83.82977254 220.33998296 81.32633972 223.02217102 C80.83504578 223.54955872 80.34375183 224.07694641 79.83757019 224.62031555 C67.32198052 237.71521892 49.92845058 245.13761139 31.91227722 246.14326477 C10.67272331 246.16640154 -7.37777271 238.78436324 -22.80256653 224.12373352 C-36.67470576 209.51862411 -42.20386711 191.23014568 -41.88850403 171.34638977 C-41.16648059 151.77103372 -32.01050675 135.90429626 -18.67366028 122.14717102 C-14.1858554 118.14717102 -14.1858554 118.14717102 -11.67366028 118.14717102 C-11.67734745 117.58063749 -11.68103462 117.01410397 -11.68483353 116.43040276 C-11.77324135 102.63373801 -11.8391419 88.83712301 -11.88090897 75.04023552 C-11.90178628 68.36807778 -11.93010712 61.69616417 -11.97541809 55.02412415 C-12.01886968 48.58560806 -12.04279633 42.14728863 -12.05316925 35.70863724 C-12.06056176 33.25182626 -12.07499746 30.79502609 -12.09658051 28.3382988 C-12.12560425 24.89788782 -12.12961656 21.45829013 -12.12776184 18.01777649 C-12.1493335 16.49323601 -12.1493335 16.49323601 -12.17134094 14.93789673 C-12.13690264 9.03674232 -11.62267681 5.63575581 -7.67366028 1.14717102 C-5.0108613 -0.18422847 -2.98308083 0.01209997 0 0 Z M9.32633972 20.14717102 C9.32633972 29.38717102 9.32633972 38.62717102 9.32633972 48.14717102 C18.03416683 46.4056056 25.95606778 41.29446726 31.32633972 34.14717102 C35.51983468 27.52810948 35.51983468 27.52810948 37.32633972 20.14717102 C28.08633972 20.14717102 18.84633972 20.14717102 9.32633972 20.14717102 Z M320.32633972 20.14717102 C324.70652738 31.09764018 329.06978269 39.14518579 339.32633972 45.14717102 C342.29633972 46.13717102 345.26633972 47.12717102 348.32633972 48.14717102 C348.32633972 38.90717102 348.32633972 29.66717102 348.32633972 20.14717102 C339.08633972 20.14717102 329.84633972 20.14717102 320.32633972 20.14717102 Z M-1.67366028 136.14717102 C-2.70491028 136.88967102 -3.73616028 137.63217102 -4.79866028 138.39717102 C-15.02553788 148.17940177 -20.56536418 160.90874044 -20.98616028 174.95967102 C-20.69675394 188.3745062 -15.8177389 200.46681857 -6.64631653 210.30342102 C4.02171777 220.27433625 15.84724475 224.40581715 30.32633972 225.14717102 C44.47377095 224.47512496 56.70878355 218.25570249 66.32633972 208.01826477 C75.80429611 196.59977852 79.39451107 183.76246794 78.32633972 169.14717102 C76.38670989 156.14024154 70.19047215 144.61883481 60.00993347 136.24092102 C41.28701345 122.4111585 16.97646099 121.93577861 -1.67366028 136.14717102 Z M329.44352722 174.61592102 C326.09290356 178.62183271 320.32633972 186.72742977 320.32633972 192.14717102 C329.56633972 192.14717102 338.80633972 192.14717102 348.32633972 192.14717102 C348.32633972 182.90717102 348.32633972 173.66717102 348.32633972 164.14717102 C341.54951593 164.14717102 334.18634406 170.22754957 329.44352722 174.61592102 Z " fill="#000000" transform="translate(107.67366027832031,-0.1471710205078125)"/>
<path d="M0 0 C12.87049941 9.64832346 22.08768838 23.31012918 24.71484375 39.328125 C26.52939129 56.33018689 23.29597065 72.50413937 12.5546875 86.09375 C2.35039568 98.11275602 -11.37068856 106.66828325 -27.28125 108.22290039 C-45.78047919 109.14746247 -60.95325149 104.85681737 -75.3125 92.75 C-86.53786165 82.11828728 -93.01865097 67.35110262 -94 52 C-94.14694297 34.44031458 -88.55620752 19.08007838 -76.41015625 6.28515625 C-55.29707239 -13.73292164 -24.04020201 -15.54297338 0 0 Z M-63 23 C-70.07991662 32.3178213 -73.75346485 41.77703216 -72.7890625 53.58203125 C-71.25839339 62.75160565 -67.01541574 71.7640749 -60 78 C-56.79628409 80.28298411 -53.49073097 82.19161504 -50 84 C-49.37480469 84.34289062 -48.74960937 84.68578125 -48.10546875 85.0390625 C-39.99190826 88.82185541 -29.45217614 88.15466577 -21.125 85.4375 C-9.82607097 80.65266378 -2.34495511 72.23608341 2.25390625 61.015625 C5.55176901 52.10621565 4.57243827 42.66821815 1 34 C-4.26424976 23.06151218 -11.83516242 16.5950522 -23 12 C-37.14592848 7.3639394 -52.8761053 12.62397765 -63 23 Z " fill="#000000" transform="translate(321,57)"/>
<path d="M0 0 C1.69838167 -0.01655058 3.39669393 -0.04382919 5.09472656 -0.08203125 C7.54683456 -0.13689893 9.99731139 -0.15868748 12.44995117 -0.17333984 C13.20532669 -0.19600922 13.96070221 -0.21867859 14.7389679 -0.24203491 C18.78297363 -0.22589072 20.52171986 0.16991471 23.69873047 2.7578125 C26.67766812 6.53547403 27.20653609 8.52848952 26.74291992 13.35009766 C23.58502519 18.92904502 23.58502519 18.92904502 20.74291992 20.35009766 C18.10272652 20.48545868 15.49015928 20.56275066 12.84838867 20.58837891 C12.06401932 20.59645065 11.27964996 20.6045224 10.47151184 20.61283875 C8.80964365 20.62667827 7.14774706 20.63740102 5.48583984 20.64526367 C2.95053857 20.66246119 0.41654678 20.70634421 -2.1184082 20.75048828 C-3.733633 20.76061681 -5.34886887 20.76913241 -6.96411133 20.77587891 C-8.09717461 20.80214104 -8.09717461 20.80214104 -9.25312805 20.82893372 C-12.97274548 20.81369099 -15.05410987 20.4806779 -18.21289062 18.44848633 C-21.36513159 15.21266749 -21.59109574 12.90432009 -21.55004883 8.38916016 C-21.09453041 5.21875199 -19.50392351 3.53085745 -17.25708008 1.35009766 C-12.4923476 -1.03226858 -5.2964941 0.03784306 0 0 Z " fill="#000000" transform="translate(395.257080078125,95.64990234375)"/>
<path d="M0 0 C2.87029869 1.79393668 4.49131638 2.98263276 6 6 C6.5811138 13.08958838 6.5811138 13.08958838 4.125 16.9375 C0.63841797 20.3215355 -2.03592714 20.38966392 -6.73828125 20.359375 C-10.32520929 19.78943134 -11.86838894 17.79773951 -14 15 C-15.43304064 12.13391871 -15.30644155 10.18699217 -15 7 C-11.06142639 0.04185329 -7.71503326 -0.99935664 0 0 Z " fill="#000000" transform="translate(291,0)"/>
</svg>
