<?xml version="1.0" encoding="UTF-8"?>
<svg version="1.1" xmlns="http://www.w3.org/2000/svg" width="512" height="512">
<path d="M0 0 C7.99323582 5.78721734 12.70262584 13.3361523 14.80747986 22.91091919 C15.43381985 27.81395556 15.42834922 32.67431919 15.45532227 37.61279297 C15.46522186 38.73532974 15.47512146 39.85786652 15.48532104 41.01441956 C15.51684383 44.71532094 15.54165705 48.41623514 15.56640625 52.1171875 C15.58698373 54.68694386 15.60798041 57.25669689 15.62937927 59.82644653 C15.67888572 65.89298007 15.72417221 71.95953159 15.76740164 78.02611268 C15.81687292 84.93546151 15.8717542 91.8447641 15.92708123 98.75406814 C16.04072408 112.96100194 16.14760129 127.16798092 16.25 141.375 C17.36441467 140.95112 17.36441467 140.95112 18.50134277 140.51867676 C19.48252075 140.15222046 20.46369873 139.78576416 21.47460938 139.40820312 C22.44442749 139.04311646 23.41424561 138.67802979 24.41345215 138.30187988 C28.26296191 137.04400117 31.72908457 136.76328127 35.75 136.875 C36.47848145 136.88926025 37.20696289 136.90352051 37.95751953 136.91821289 C52.55869533 137.48526453 61.77528714 145.56891425 71.59765625 155.71484375 C73.91623953 158.0443896 76.40270527 160.15519156 78.890625 162.30078125 C81.84864299 164.90129044 84.73694182 167.57229416 87.625 170.25 C91.47600689 173.81932001 95.338775 177.37145969 99.25 180.875 C103.68228553 184.84678833 108.05764447 188.87703553 112.42041016 192.92480469 C115.78211526 196.03878426 119.18722221 199.09473994 122.625 202.125 C133.21253494 211.72048805 142.15918157 223.666226 143.42869949 238.45697021 C143.49359723 240.66923696 143.49782422 242.87282473 143.47705078 245.0859375 C143.47734283 245.91615921 143.47763489 246.74638092 143.47793579 247.60176086 C143.47655385 250.31795073 143.46104671 253.03385866 143.4453125 255.75 C143.44157832 257.64428559 143.43873326 259.53857311 143.43673706 261.43286133 C143.42913246 266.39765842 143.40951146 271.36233689 143.3873291 276.3270874 C143.36680206 281.4016357 143.35772072 286.47620332 143.34765625 291.55078125 C143.32626238 301.49223937 143.29216505 311.43360979 143.25 321.375 C143.9205542 321.35405273 144.5911084 321.33310547 145.28198242 321.31152344 C148.3336678 321.22813973 151.38511317 321.17626984 154.4375 321.125 C155.49259766 321.09148437 156.54769531 321.05796875 157.63476562 321.0234375 C165.44049393 320.92494251 165.44049393 320.92494251 169.42578125 323.140625 C172.23852767 326.58578764 172.37481414 329.71342939 172.39526367 334.06420898 C172.40164352 334.98874374 172.40802338 335.9132785 172.41459656 336.86582947 C172.41626579 338.35343529 172.41626579 338.35343529 172.41796875 339.87109375 C172.42129715 340.8967897 172.42462555 341.92248566 172.42805481 342.97926331 C172.4331141 345.14705965 172.43546344 347.31486377 172.43530273 349.48266602 C172.43748945 352.79651728 172.45565654 356.11003573 172.47460938 359.42382812 C172.47754346 361.53124886 172.47952815 363.63867118 172.48046875 365.74609375 C172.48765427 366.73580673 172.49483978 367.72551971 172.50224304 368.745224 C172.46771193 379.15728807 172.46771193 379.15728807 168.25 383.375 C165.82723655 383.578378 163.51826281 383.65825341 161.09399414 383.6496582 C159.98887733 383.6573246 159.98887733 383.6573246 158.86143494 383.66514587 C156.41926004 383.67907758 153.97736623 383.67808242 151.53515625 383.67578125 C149.84126174 383.67966631 148.14736821 383.68400059 146.45347595 383.68876648 C142.90002283 383.69623645 139.34666906 383.69593189 135.79321289 383.69067383 C131.23541019 383.68487911 126.67801385 383.7018063 122.12027836 383.7250185 C118.62102371 383.73973795 115.12186732 383.74062998 111.6225872 383.73750877 C109.94203321 383.73802292 108.26147385 383.74327815 106.58094978 383.75332069 C104.23216345 383.76563302 101.8841736 383.75892531 99.53540039 383.74731445 C98.83867218 383.75495819 98.14194397 383.76260193 97.42410278 383.77047729 C94.59185578 383.73947062 92.70045812 383.69343184 90.34934998 382.03141785 C88.65015388 379.47119699 88.37212023 377.42800569 88.25 374.375 C89.38779872 372.04768444 90.41840714 370.20659286 92.25 368.375 C94.2443173 368.28094858 96.24199543 368.25756751 98.23852539 368.26147461 C99.51977798 368.26155014 100.80103058 368.26162567 102.12110901 368.26170349 C103.52995848 368.26681091 104.93880756 368.27202691 106.34765625 368.27734375 C107.78112234 368.27920798 109.21458907 368.28063186 110.64805603 368.28163147 C114.42759957 368.28545628 118.2071049 368.29528623 121.9866333 368.30633545 C126.51787781 368.3183452 131.04913507 368.32295199 135.58039093 368.32878876 C142.47028722 368.33849802 149.36009962 368.3576548 156.25 368.375 C156.25 358.145 156.25 347.915 156.25 337.375 C105.76 337.375 55.27 337.375 3.25 337.375 C3.25 347.605 3.25 357.835 3.25 368.375 C7.90738281 368.34019531 12.56476563 368.30539062 17.36328125 368.26953125 C20.31186148 368.25420464 23.26039267 368.23976299 26.20898438 368.22851562 C30.89032171 368.2105742 35.5714832 368.18933785 40.25268555 368.14868164 C44.02632259 368.11611231 47.7997711 368.0981522 51.57353783 368.09036827 C53.01408036 368.08482035 54.45461246 368.07398664 55.89507484 368.05780983 C57.9108234 368.03607041 59.92676121 368.0347749 61.94262695 368.03442383 C63.09068314 368.02776199 64.23873932 368.02110016 65.42158508 368.01423645 C68.25 368.375 68.25 368.375 70.08952332 369.71659851 C71.87052898 372.26177885 72.12669866 374.29246654 72.25 377.375 C71.11220128 379.70231556 70.08159286 381.54340714 68.25 383.375 C65.8626931 383.48589855 63.50403647 383.53238151 61.11572266 383.53613281 C60.36937057 383.54109772 59.62301849 383.54606262 58.85404968 383.55117798 C56.37404473 383.5658361 53.89410374 383.57260777 51.4140625 383.578125 C49.69631955 383.58387363 47.97857663 383.5896314 46.26083374 383.59539795 C42.65435486 383.60591846 39.04789833 383.61175418 35.44140625 383.61523438 C30.81522265 383.62072009 26.18933325 383.64474521 21.56324196 383.67320633 C18.01338838 383.69181094 14.46360595 383.69703715 10.91370773 383.69857025 C9.20802579 383.70160246 7.50234526 383.70965004 5.79671097 383.72275543 C3.41193392 383.73977024 1.02787917 383.73794715 -1.35693359 383.73144531 C-2.06458359 383.7406601 -2.77223358 383.74987488 -3.50132751 383.7593689 C-6.31079127 383.73531866 -8.27848044 383.69081092 -10.64956665 382.10272217 C-12.79036533 378.74158691 -12.87893245 375.50232465 -12.91113281 371.59399414 C-12.92074036 370.64943863 -12.9303479 369.70488312 -12.94024658 368.73170471 C-12.94449646 367.71809372 -12.94874634 366.70448273 -12.953125 365.66015625 C-12.95882507 364.61226425 -12.96452515 363.56437225 -12.97039795 362.48472595 C-12.97983718 360.26985684 -12.98637765 358.05497376 -12.99023438 355.84008789 C-12.99995353 352.45369027 -13.03099308 349.06789621 -13.0625 345.68164062 C-13.06902904 343.52864943 -13.0742799 341.37565391 -13.078125 339.22265625 C-13.0904718 338.21106949 -13.1028186 337.19948273 -13.11553955 336.15724182 C-13.08740601 327.27303939 -13.08740601 327.27303939 -9.75 323.375 C-6.30366118 321.07744078 -5.03931609 321.13856024 -0.98828125 321.1796875 C0.01936279 321.18468262 1.02700684 321.18967773 2.06518555 321.19482422 C3.34304932 321.21303223 4.62091309 321.23124023 5.9375 321.25 C8.13386338 321.27298311 10.3302345 321.29523482 12.52661133 321.31689453 C13.60687088 321.32786163 14.68713043 321.33882874 15.80012512 321.35012817 C16.60858383 321.35833588 17.41704254 321.36654358 18.25 321.375 C20.50094348 300.92444768 20.50094348 300.92444768 12.96777344 282.55078125 C7.9679534 276.58987532 2.1228147 271.41553293 -3.73449707 266.32019043 C-6.48812378 263.89440082 -9.15640276 261.3782962 -11.83203125 258.8671875 C-15.75965958 255.19155441 -19.73155464 251.57647854 -23.74853516 247.99804688 C-27.53424867 244.58426218 -30.96504339 241.05436409 -34.21078491 237.12512207 C-35.90712399 235.1963465 -37.74728912 233.55544711 -39.6875 231.875 C-47.87672742 223.84540665 -53.91367235 210.0893425 -54.026811 198.69753659 C-54.0237138 198.00813107 -54.0206166 197.31872555 -54.01742554 196.60842896 C-54.02195665 195.85742444 -54.02648776 195.10641992 -54.03115618 194.33265769 C-54.04375051 191.83254792 -54.04218306 189.33265738 -54.04052734 186.83251953 C-54.04651564 185.03330202 -54.05332189 183.23408708 -54.06088257 181.43487549 C-54.07851764 176.55879436 -54.08323686 171.68278347 -54.08451414 166.80667353 C-54.08593755 163.75771387 -54.09021071 160.70877198 -54.09550858 157.65981674 C-54.11399959 147.01587544 -54.12218022 136.37198417 -54.12060547 125.72802734 C-54.11940386 115.81742385 -54.1405124 105.90703805 -54.1720928 95.99648964 C-54.19826883 87.47737199 -54.20897223 78.9583254 -54.20769465 70.43916786 C-54.20718547 65.35558847 -54.21284458 60.27220269 -54.23405075 55.18866348 C-54.25345582 50.40658123 -54.25354207 45.62487688 -54.23901749 40.84278107 C-54.23693121 39.09208752 -54.24161946 37.34137016 -54.2537384 35.59071732 C-54.36342549 18.64243053 -54.36342549 18.64243053 -49.75 11.375 C-49.20859375 10.49328125 -48.6671875 9.6115625 -48.109375 8.703125 C-36.36420784 -6.46296463 -16.51445056 -10.12811278 0 0 Z M-36.5 20.8125 C-38.89664306 25.72561828 -38.87611732 30.85621864 -38.88371277 36.24185181 C-38.88597833 36.90821415 -38.88824388 37.5745765 -38.89057809 38.26113164 C-38.89687831 40.48090907 -38.89609129 42.70062481 -38.89526367 44.92041016 C-38.89825774 46.51756875 -38.90166085 48.11472662 -38.90544128 49.71188354 C-38.91426261 54.04277824 -38.91661868 58.37365317 -38.91725707 62.70455599 C-38.91796891 65.41465617 -38.92010581 68.12475137 -38.92275429 70.83485031 C-38.93200321 80.30217557 -38.93608995 89.76948677 -38.93530273 99.23681641 C-38.93470283 108.04016951 -38.94523863 116.84346116 -38.9610464 125.64679873 C-38.97415835 133.22072054 -38.97948506 140.79462236 -38.97884732 148.36855543 C-38.97859331 152.88489212 -38.98139074 157.40117423 -38.99202538 161.91749954 C-39.00176743 166.17091086 -39.00174403 170.42421614 -38.99450874 174.67763138 C-38.99347028 176.23032793 -38.99578138 177.78303129 -39.0018692 179.33571625 C-39.06386639 196.25731886 -37.76526833 210.71040887 -25.37890625 223.296875 C-23.38272202 225.26766919 -21.35146969 227.19864313 -19.3125 229.125 C-17.78051918 230.59883513 -16.25305852 232.07716593 -14.72776794 233.55792236 C-13.34624388 234.89500755 -11.95388604 236.22087323 -10.56079102 237.54589844 C-8.4010701 239.71968859 -6.39519203 241.90067252 -4.39770508 244.21630859 C-0.74291287 248.44099629 3.144568 252.38036518 7.1171875 256.3046875 C7.83738068 257.02109406 8.55757385 257.73750061 9.29959106 258.47561646 C11.57228841 260.73621562 13.84822829 262.99350488 16.125 265.25 C19.1460785 268.24454456 22.16386591 271.24234985 25.1796875 274.2421875 C25.87440155 274.92860321 26.5691156 275.61501892 27.28488159 276.32223511 C27.92289703 276.95694733 28.56091248 277.59165955 29.21826172 278.24560547 C29.78116913 278.80327606 30.34407654 279.36094666 30.92404175 279.93551636 C40.3126687 290.12797521 33.88545304 307.52221547 34.25 321.375 C65.27 321.375 96.29 321.375 128.25 321.375 C128.29125 309.4125 128.3325 297.45 128.375 285.125 C128.39320801 281.37092773 128.41141602 277.61685547 128.43017578 273.74902344 C128.43687145 270.33499327 128.43687145 270.33499327 128.44088745 266.92095947 C128.44392537 265.41980803 128.45088899 263.91866095 128.46115112 262.4175415 C128.57966721 244.14126349 126.7821253 229.49163137 113.66015625 215.734375 C110.49050428 212.63150662 107.24079232 209.64395028 103.91015625 206.71484375 C101.02958774 204.18112784 98.19800896 201.59731445 95.375 199 C94.35939753 198.06768379 93.34377238 197.13539229 92.328125 196.203125 C90.78830592 194.78852628 89.24864532 193.37375521 87.70898438 191.95898438 C81.77175252 186.50457696 75.81772695 181.07108873 69.8125 175.69140625 C67.96700783 174.02314885 66.13459431 172.34572892 64.3125 170.65234375 C52.31502972 158.38556254 52.31502972 158.38556254 37.0625 151.9375 C30.20596906 152.72431503 24.36970619 155.7131278 19.75 160.875 C15.84672842 166.02423116 14.71641271 170.37226921 14.87890625 176.82421875 C16.3356688 186.83754448 26.72663745 194.14099647 33.92578125 200.3359375 C36.87410422 202.92253345 39.74914606 205.58336714 42.625 208.25 C47.28249971 212.5664303 51.97224725 216.84197957 56.703125 221.078125 C58.59827902 222.78725163 60.48293271 224.50492452 62.359375 226.234375 C62.89167725 226.72478271 63.42397949 227.21519043 63.97241211 227.72045898 C65.47897462 229.11043812 66.98368289 230.50242623 68.48828125 231.89453125 C70.28949106 233.5123081 72.14081087 235.07643569 74.04296875 236.57421875 C76.25 238.375 76.25 238.375 77.25 240.375 C77.74787836 245.60272277 77.74787836 245.60272277 77.25 248.375 C75.125 250.4375 75.125 250.4375 72.25 251.375 C66.89827123 251.1303919 64.15931224 249.01967499 60.5 245.375 C59.44318916 244.36408044 58.38589063 243.35367048 57.328125 242.34375 C56.54791992 241.58771484 56.54791992 241.58771484 55.75195312 240.81640625 C53.63213323 238.78204073 51.44421801 236.82856184 49.25 234.875 C45.04315673 231.09962783 40.87325147 227.28519552 36.7109375 223.4609375 C33.57332914 220.58077393 30.41979059 217.71968386 27.25 214.875 C25.58333333 213.375 23.91666667 211.875 22.25 210.375 C21.5065332 209.70936035 21.5065332 209.70936035 20.74804688 209.03027344 C1.34380129 191.63377817 1.34380129 191.63377817 -0.11660957 177.93656349 C-0.25836234 173.99345249 -0.27693071 170.06096055 -0.24829102 166.11645508 C-0.25212216 164.61058517 -0.25774796 163.10471894 -0.26501465 161.59886169 C-0.27689284 158.3779072 -0.27653275 155.15727912 -0.26642036 151.93631935 C-0.2507604 146.83777421 -0.26460463 141.73955947 -0.28245544 136.64103699 C-0.31316981 126.74200593 -0.31478006 116.84307778 -0.31280518 106.94400787 C-0.31140901 94.33309619 -0.32182006 81.72226318 -0.3613829 69.11140937 C-0.37627402 64.04812801 -0.37607905 58.98514314 -0.36390507 53.92185748 C-0.3591815 50.76934683 -0.36673282 47.61694885 -0.37744904 44.46445656 C-0.37984685 43.00844234 -0.37714938 41.55240896 -0.36884117 40.09641647 C-0.32056927 31.09553879 -0.73903755 24.47047491 -5.375 16.625 C-9.28736565 12.91854834 -14.00683198 10.84334576 -19.3125 9.9375 C-27.09873834 11.33502996 -31.8253347 14.30135904 -36.5 20.8125 Z " fill="#000000" transform="translate(53.75,128.625)"/>
<path d="M0 0 C7.32080757 5.42644167 11.81208714 11.68071242 14.33984375 20.421875 C14.60886314 23.12712976 14.75118866 25.59347184 14.7275238 28.28851318 C14.73560211 29.41312655 14.73560211 29.41312655 14.74384362 30.56045938 C14.75804989 33.05056872 14.75103781 35.54014092 14.74389648 38.03027344 C14.74960403 39.82477238 14.75656978 41.6192677 14.76469421 43.41375732 C14.78260174 48.27349104 14.78146132 53.13304394 14.77575183 57.99280071 C14.77265538 62.05808118 14.77875776 66.12332714 14.78479058 70.18860269 C14.79882736 79.78559519 14.79728257 89.38249866 14.78588867 98.97949219 C14.77441825 108.85882643 14.78846699 118.73788885 14.81528515 128.61718726 C14.83748882 137.11684821 14.84406873 145.61642413 14.83820873 154.11611199 C14.83484791 159.18466973 14.83719546 164.25305343 14.85445976 169.32158661 C14.87000048 174.09221769 14.86589473 178.86244859 14.84715462 183.63306427 C14.84348786 185.37604194 14.84652085 187.11904973 14.85704041 188.86199951 C14.9122977 198.78095937 14.35500862 207.16015572 10.33984375 216.421875 C9.93580543 217.36039181 9.5317671 218.29890862 9.11548519 219.26586533 C5.63035748 226.93193022 -0.11420679 232.26186739 -6.125 237.96484375 C-8.51141766 240.23842791 -10.68026989 242.58491044 -12.79370117 245.11254883 C-16.11759844 248.93910948 -19.71661405 252.27291786 -23.52572632 255.609375 C-47.58802696 274.78331847 -47.58802696 274.78331847 -59.72860718 301.44763184 C-59.99134728 308.1869294 -59.20661047 314.86335153 -57.66015625 321.421875 C-56.92901611 321.40092773 -56.19787598 321.37998047 -55.44458008 321.35839844 C-52.12074624 321.27507186 -48.79713241 321.22316168 -45.47265625 321.171875 C-44.32216797 321.13835937 -43.17167969 321.10484375 -41.98632812 321.0703125 C-40.87451172 321.05742187 -39.76269531 321.04453125 -38.6171875 321.03125 C-37.5960083 321.01030273 -36.5748291 320.98935547 -35.52270508 320.96777344 C-31.88884803 321.54423178 -30.25429069 322.85983831 -27.66015625 325.421875 C-26.70368281 328.29129532 -26.52856321 330.10915739 -26.51489258 333.08935547 C-26.50851273 334.03398651 -26.50213287 334.97861755 -26.49555969 335.95187378 C-26.49389046 337.4800322 -26.49389046 337.4800322 -26.4921875 339.0390625 C-26.4888591 340.08836945 -26.4855307 341.13767639 -26.48210144 342.21878052 C-26.47703656 344.43963177 -26.47469298 346.66049064 -26.47485352 348.88134766 C-26.47266936 352.27649509 -26.45451523 355.67131642 -26.43554688 359.06640625 C-26.4326124 361.22395722 -26.43062797 363.38150974 -26.4296875 365.5390625 C-26.41890923 367.06114822 -26.41890923 367.06114822 -26.40791321 368.61398315 C-26.41098984 369.56491852 -26.41406647 370.51585388 -26.41723633 371.49560547 C-26.41581131 372.32816864 -26.41438629 373.16073181 -26.41291809 374.01852417 C-26.81425108 377.9197989 -27.88516605 380.6468848 -30.66015625 383.421875 C-33.66214657 383.67635059 -33.66214657 383.67635059 -37.6000824 383.68257141 C-38.68365378 383.68830973 -38.68365378 383.68830973 -39.78911549 383.69416398 C-42.2220321 383.70452477 -44.65471405 383.70049607 -47.08764648 383.6965332 C-48.82689636 383.70087799 -50.56614432 383.70606035 -52.3053894 383.71202087 C-57.03881397 383.72544741 -61.77215888 383.72598549 -66.50559878 383.72345757 C-70.45212421 383.72239032 -74.39863335 383.72726493 -78.3451553 383.732063 C-87.65304878 383.74317086 -96.96090192 383.74358843 -106.26879883 383.73754883 C-115.88230006 383.73150699 -125.49565501 383.74382245 -135.10913128 383.7651189 C-143.3528965 383.78271193 -151.59661506 383.78873989 -159.84039837 383.78548115 C-164.76844542 383.78366445 -169.69638814 383.78634287 -174.62441826 383.80019569 C-179.25781111 383.8127321 -183.8909753 383.81086985 -188.52436447 383.79778481 C-190.22757989 383.79541029 -191.93081119 383.79818484 -193.63400841 383.80640793 C-195.95402317 383.81680366 -198.27326041 383.80883343 -200.59324646 383.7960968 C-202.54309023 383.79634841 -202.54309023 383.79634841 -204.53232479 383.79660511 C-207.66015625 383.421875 -207.66015625 383.421875 -209.5594368 382.01688766 C-211.77372965 378.80823614 -211.78755641 375.53325296 -211.80541992 371.73266602 C-211.81179977 370.80813126 -211.81817963 369.8835965 -211.82475281 368.93104553 C-211.82586563 367.93930832 -211.82697845 366.94757111 -211.828125 365.92578125 C-211.8314534 364.9000853 -211.8347818 363.87438934 -211.83821106 362.81761169 C-211.84327035 360.64981535 -211.84561969 358.48201123 -211.84545898 356.31420898 C-211.8476457 353.00035772 -211.86581279 349.68683927 -211.88476562 346.37304688 C-211.88769971 344.26562614 -211.8896844 342.15820382 -211.890625 340.05078125 C-211.89781052 339.06106827 -211.90499603 338.07135529 -211.91239929 337.051651 C-211.88258198 328.06092697 -211.88258198 328.06092697 -209.66015625 324.421875 C-206.52492939 321.52150463 -204.46478391 321.05846454 -200.23828125 321.12890625 C-199.21347656 321.13857422 -198.18867188 321.14824219 -197.1328125 321.15820312 C-196.06933594 321.18333984 -195.00585938 321.20847656 -193.91015625 321.234375 C-192.83121094 321.24791016 -191.75226563 321.26144531 -190.640625 321.27539062 C-187.97996205 321.31070916 -185.32031329 321.36003301 -182.66015625 321.421875 C-182.6690387 320.38585648 -182.67792114 319.34983795 -182.68707275 318.28242493 C-182.76851412 308.47086826 -182.8282912 298.65938108 -182.86740494 288.84756184 C-182.88819044 283.80439874 -182.91634103 278.76151071 -182.96191406 273.71850586 C-183.0056966 268.84256004 -183.02936114 263.96687712 -183.03966522 259.09074974 C-183.04699887 257.23979752 -183.06131809 255.38885804 -183.08307648 253.53801918 C-183.29617845 234.64208636 -179.65830299 220.4045265 -166.41796875 206.19921875 C-158.8322928 198.55981988 -150.88624936 191.268163 -142.73046875 184.2421875 C-138.18205213 180.24301365 -133.77421234 176.08420792 -129.33154297 171.96826172 C-124.79136024 167.76763107 -120.2275239 163.59290083 -115.66015625 159.421875 C-114.80679688 158.63941406 -113.9534375 157.85695313 -113.07421875 157.05078125 C-110.62177947 154.81882941 -108.14651045 152.61594619 -105.66015625 150.421875 C-104.77585937 149.62394531 -103.8915625 148.82601562 -102.98046875 148.00390625 C-94.23374296 140.40936955 -86.6852443 137.14748223 -75.16015625 136.921875 C-74.48452637 136.90310303 -73.80889648 136.88433105 -73.11279297 136.86499023 C-68.66364728 136.92072398 -65.05245293 137.88615808 -60.88476562 139.45507812 C-59.90358765 139.82153442 -58.92240967 140.18799072 -57.91149902 140.56555176 C-57.16855591 140.84813843 -56.42561279 141.1307251 -55.66015625 141.421875 C-55.65868969 140.83602536 -55.65722313 140.25017572 -55.65571213 139.64657307 C-55.61852969 125.33820241 -55.55936478 111.03004454 -55.47625351 96.72186756 C-55.43658059 89.80228643 -55.4041289 82.88281709 -55.38916016 75.96313477 C-55.37467801 69.27804155 -55.33943331 62.59334493 -55.29184723 55.90839195 C-55.27707594 53.36532299 -55.26911769 50.82220451 -55.2682724 48.27909279 C-55.24708399 16.48026273 -55.24708399 16.48026273 -45.6328125 5.35546875 C-33.01890405 -7.00865934 -15.23776226 -9.03972974 0 0 Z M-34.59765625 17.234375 C-38.05069341 22.57088697 -38.90982261 27.75491462 -38.91171265 34.03607178 C-38.91709549 35.32557739 -38.92247833 36.61508301 -38.92802429 37.94366455 C-38.92401084 39.35534712 -38.91983995 40.76702925 -38.91552734 42.17871094 C-38.91828018 43.67911977 -38.92196185 45.17952714 -38.92649841 46.67993164 C-38.93458754 49.90195436 -38.93678461 53.12390777 -38.93455124 56.34593964 C-38.93170805 61.44912842 -38.94610835 66.55217988 -38.96353149 71.65533447 C-39.01046013 86.16375672 -39.03448915 100.67216925 -39.04101562 115.18066406 C-39.04477553 123.20068989 -39.06287884 131.2205598 -39.09610999 139.24051881 C-39.11623937 144.30466574 -39.118736 149.36840821 -39.10782981 154.43257856 C-39.10520774 157.59512366 -39.11929918 160.7574372 -39.13791084 163.91992188 C-39.14319694 165.37627566 -39.141798 166.83267305 -39.13287544 168.28900909 C-39.07426598 178.70269557 -39.78121942 189.29881219 -47.41015625 197.171875 C-48.18746094 197.97753906 -48.96476563 198.78320312 -49.765625 199.61328125 C-50.72625408 200.55380333 -51.69159885 201.48951962 -52.66015625 202.421875 C-53.27068848 203.01081543 -53.8812207 203.59975586 -54.51025391 204.20654297 C-61.12366298 210.54726722 -67.84853542 216.74041429 -74.76049805 222.75415039 C-77.56647011 225.21753494 -80.30251048 227.75277621 -83.03515625 230.296875 C-87.82901594 234.73878927 -92.63381276 239.16619606 -97.515625 243.51171875 C-98.8233257 244.67650134 -100.12058289 245.85333097 -101.3984375 247.05078125 C-104.69051485 250.03661884 -107.16806456 251.421875 -111.66015625 251.421875 C-114.53515625 250.484375 -114.53515625 250.484375 -116.66015625 248.421875 C-117.18263946 245.18247909 -117.39489234 243.48833553 -116.66015625 240.421875 C-114.72265625 237.984375 -114.72265625 237.984375 -111.66015625 235.421875 C-110.21357784 233.97254644 -108.77694547 232.5132565 -107.34765625 231.046875 C-103.99141779 227.69063654 -100.54885848 224.51630859 -96.94921875 221.42578125 C-94.0105293 218.85317428 -91.14882183 216.20241693 -88.28515625 213.546875 C-81.93353618 207.66152097 -75.5380475 201.8272743 -69.03125 196.11328125 C-59.21261529 188.1177455 -59.21261529 188.1177455 -54.38671875 177.00390625 C-54.13200081 170.05794396 -55.08314482 165.72347927 -59.66015625 160.421875 C-64.29841428 155.78361697 -69.30911628 152.60655412 -75.9609375 152.32421875 C-83.85877691 152.86843962 -88.6285664 157.19398312 -94.28515625 162.484375 C-95.33715003 163.46233592 -96.38923604 164.44019765 -97.44140625 165.41796875 C-97.97378906 165.91538574 -98.50617188 166.41280273 -99.0546875 166.92529297 C-101.61757539 169.31435969 -104.20124882 171.68059055 -106.78515625 174.046875 C-107.2848291 174.50521729 -107.78450195 174.96355957 -108.29931641 175.43579102 C-112.21205455 179.02172151 -116.15617218 182.57165288 -120.10546875 186.1171875 C-124.98609657 190.52020036 -129.82007666 194.97440009 -134.66015625 199.421875 C-136.19559173 200.83276311 -137.73117839 202.24348224 -139.26757812 203.65332031 C-140.27517455 204.57857134 -141.28169529 205.50499522 -142.28710938 206.43261719 C-144.63541689 208.59374077 -147.00448092 210.71756624 -149.42578125 212.796875 C-159.33743914 221.34345426 -166.06249302 231.19465694 -167.45765686 244.46139526 C-167.91335333 251.1235396 -167.78016969 257.81381358 -167.7578125 264.48828125 C-167.7559444 266.13451596 -167.75452235 267.78075123 -167.75352478 269.42698669 C-167.74973046 273.73248871 -167.73992696 278.03795629 -167.7288208 282.34344482 C-167.71853991 286.74783869 -167.71401293 291.15223819 -167.70898438 295.55664062 C-167.69830155 304.17840111 -167.68126275 312.80013376 -167.66015625 321.421875 C-166.62084961 321.43645752 -165.58154297 321.45104004 -164.51074219 321.46606445 C-160.6489041 321.52410681 -156.78764549 321.6013388 -152.92626953 321.68432617 C-151.25611792 321.7175477 -149.58585479 321.74558834 -147.91552734 321.76831055 C-145.51221262 321.80190834 -143.10991726 321.85422446 -140.70703125 321.91015625 C-139.96209412 321.91654617 -139.21715698 321.9229361 -138.449646 321.92951965 C-135.26694495 322.01946356 -132.98880453 322.23929262 -130.18164062 323.79882812 C-128.66015625 325.421875 -128.66015625 325.421875 -128.26953125 327.90234375 C-128.3159375 328.79566406 -128.36234375 329.68898438 -128.41015625 330.609375 C-128.44625 331.51042969 -128.48234375 332.41148437 -128.51953125 333.33984375 C-128.5659375 334.02691406 -128.61234375 334.71398437 -128.66015625 335.421875 C-131.93894025 336.514803 -134.42300036 336.57971372 -137.87573242 336.62719727 C-139.15683395 336.64714249 -140.43793549 336.66708771 -141.75785828 336.68763733 C-143.15627929 336.7046204 -144.55470156 336.72149925 -145.953125 336.73828125 C-147.38373915 336.75885666 -148.8143473 336.77985329 -150.24494934 336.80125427 C-154.00795631 336.85641433 -157.7710176 336.90585029 -161.53411865 336.95410156 C-166.05046268 337.01319948 -170.56670758 337.07939404 -175.08296967 337.14440155 C-181.94197125 337.24233476 -188.8010368 337.33124283 -195.66015625 337.421875 C-195.66015625 347.651875 -195.66015625 357.881875 -195.66015625 368.421875 C-145.17015625 368.421875 -94.68015625 368.421875 -42.66015625 368.421875 C-42.66015625 358.191875 -42.66015625 347.961875 -42.66015625 337.421875 C-47.1615625 337.39609375 -51.66296875 337.3703125 -56.30078125 337.34375 C-59.89160765 337.31207132 -63.48234577 337.27642121 -67.07310486 337.23808289 C-70.86272027 337.19871138 -74.65209967 337.16632825 -78.44189453 337.15087891 C-82.0926326 337.1357266 -85.74272859 337.10130804 -89.39318085 337.05356598 C-90.7853614 337.03873716 -92.17763362 337.03083312 -93.56989288 337.02999115 C-95.5209879 337.02762466 -97.47199361 336.99827945 -99.42285156 336.96777344 C-100.53315735 336.95889099 -101.64346313 336.95000854 -102.78741455 336.94085693 C-106.31804142 336.3030232 -107.51583935 335.25359108 -109.66015625 332.421875 C-110.16314941 328.31409751 -109.9876497 326.91311517 -107.66015625 323.421875 C-104.16807444 322.25784773 -101.26867853 322.21068992 -97.5859375 322.10546875 C-96.90210495 322.08468765 -96.2182724 322.06390656 -95.51371765 322.04249573 C-93.33346415 321.97721346 -91.1530922 321.91821483 -88.97265625 321.859375 C-87.49282639 321.81616947 -86.01300842 321.77255453 -84.53320312 321.72851562 C-80.90898003 321.62155417 -77.28462436 321.52022677 -73.66015625 321.421875 C-73.666521 320.31263672 -73.67288574 319.20339844 -73.67944336 318.06054688 C-73.69395623 313.91514795 -73.66238901 309.77112173 -73.61743164 305.62597656 C-73.60435314 303.83761281 -73.60350135 302.04911366 -73.61547852 300.26074219 C-73.63059663 297.67770505 -73.60064965 295.09836069 -73.5625 292.515625 C-73.57675522 291.72571167 -73.59101044 290.93579834 -73.60569763 290.12194824 C-73.4304145 283.28595151 -70.43561181 280.05190462 -65.66015625 275.421875 C-64.74187294 274.47858337 -64.74187294 274.47858337 -63.80503845 273.51623535 C-61.89297508 271.55566015 -59.95250279 269.62735965 -58.00390625 267.703125 C-56.94496155 266.64986023 -56.94496155 266.64986023 -55.86462402 265.57531738 C-52.8811825 262.60803734 -49.89174915 259.64682137 -46.90283203 256.68505859 C-44.70525046 254.50569035 -42.51077687 252.32322553 -40.31640625 250.140625 C-39.32078674 249.157453 -39.32078674 249.157453 -38.30505371 248.15441895 C-34.43148853 244.30092278 -30.78009502 240.32260768 -27.21084595 236.1862793 C-25.39661308 234.12201055 -23.47889011 232.21693327 -21.46875 230.34375 C-8.00406636 217.53932309 -1.40394268 207.76797308 -0.47801971 188.66396141 C-0.40169702 184.47792084 -0.38924227 180.29658987 -0.40136719 176.11010742 C-0.39865033 174.51527752 -0.39508553 172.92044887 -0.39074707 171.32562256 C-0.38170702 167.03463788 -0.38513134 162.74375044 -0.39150524 158.45276427 C-0.39660461 153.9441998 -0.39186333 149.43564308 -0.38873291 144.92707825 C-0.38510653 137.36453775 -0.38985931 129.80203648 -0.39941406 122.23950195 C-0.41031576 113.51032988 -0.40675525 104.78125113 -0.39576125 96.05208129 C-0.38667392 88.53412619 -0.38540958 81.01619911 -0.39063859 73.49824029 C-0.39374781 69.01791212 -0.39419613 64.53762779 -0.38756561 60.05730247 C-0.381771 55.84894325 -0.38582762 51.6407041 -0.39735413 47.43235779 C-0.39998857 45.89249177 -0.3992565 44.35261558 -0.3948288 42.81275368 C-0.14020152 28.1599557 -0.14020152 28.1599557 -6.66015625 15.421875 C-15.75132652 8.8263201 -26.61082442 8.52146755 -34.59765625 17.234375 Z " fill="#000000" transform="translate(497.66015625,128.578125)"/>
<path d="M0 0 C1.11761719 0.350625 2.23523438 0.70125 3.38671875 1.0625 C23.06145791 7.89763254 43.50827803 22.75352702 54 41 C54 41.66 54 42.32 54 43 C54.66 43 55.32 43 56 43 C56.22558594 42.30519531 56.45117188 41.61039063 56.68359375 40.89453125 C58.29675338 37.3474948 60.53513915 34.60762348 63.0625 31.6875 C63.55709717 31.11354492 64.05169434 30.53958984 64.5612793 29.94824219 C80.46023374 11.77947081 103.08350477 -0.47683313 127 -4 C142.31363385 -4.90906285 157.37377849 -4.90597399 172 0 C172.94673584 0.31348389 172.94673584 0.31348389 173.91259766 0.63330078 C190.03426969 6.10835348 203.09912573 14.93553983 215 27 C215.82242187 27.81210937 216.64484375 28.62421875 217.4921875 29.4609375 C233.9394399 46.5911208 241.64113727 69.35651154 241.4375 92.875 C241.42614014 94.75348633 241.42614014 94.75348633 241.41455078 96.66992188 C240.80865656 131.57296723 228.79553843 174.64682409 206 202 C203.07611478 203.87761082 202.04717406 204.00165523 198.4375 203.875 C195 203 195 203 193.0625 201.375 C191.58194816 198.06553117 191.72726383 195.60617828 192 192 C193.43359375 189.0703125 193.43359375 189.0703125 195.4375 186.125 C196.18001603 184.98451674 196.91810014 183.84113904 197.65234375 182.6953125 C198.03890137 182.09493164 198.42545898 181.49455078 198.82373047 180.87597656 C210.5675901 162.14625107 217.67067386 141.58180659 222 120 C222.24621094 118.82824219 222.49242187 117.65648438 222.74609375 116.44921875 C227.01374797 92.34433041 224.84714942 67.97440183 210.640625 47.51953125 C198.07449504 30.19698164 179.10246183 17.79141989 158 13.47265625 C134.97535758 10.24553217 112.80865472 14.05649289 93.24609375 26.79296875 C91.07205304 28.44523969 89.03649841 30.18213164 87 32 C85.91912109 32.85271484 85.91912109 32.85271484 84.81640625 33.72265625 C75.11495936 41.6418616 68.38336557 52.2587846 63.25390625 63.57421875 C62.03365734 65.9348872 61.11480125 67.40608576 59 69 C51.9905482 69.77882798 51.9905482 69.77882798 48.953125 67.390625 C46.61945178 64.53420898 45.23115504 61.6613841 43.6875 58.3125 C40.77135945 52.21984922 37.3965307 47.11433163 33 42 C32.50371094 41.34902344 32.00742188 40.69804688 31.49609375 40.02734375 C19.79418511 25.27531356 -0.60034477 15.26786448 -19 13 C-45.87220844 11.52477374 -69.06077155 16.53474568 -89.55615234 34.68017578 C-103.31661228 47.25864153 -112.72220094 65.06982301 -114.22119141 83.75756836 C-115.13061758 106.29779282 -111.81651315 127.85520994 -104 149 C-103.59974609 150.0835376 -103.59974609 150.0835376 -103.19140625 151.18896484 C-88.14739976 191.11136725 -59.46512764 226.81791667 -26 253 C-24.90644542 253.90334195 -23.81543911 254.80977474 -22.7265625 255.71875 C-4.20211306 271.06699406 16.46228997 283.39039115 37.5 294.9375 C39.04167847 295.79033569 39.04167847 295.79033569 40.61450195 296.66040039 C47.95680325 300.88467989 47.95680325 300.88467989 56 303 C59.57286644 301.9330806 62.7280456 300.26931154 66 298.5 C67.43545166 297.75036987 67.43545166 297.75036987 68.89990234 296.9855957 C101.2850359 279.80159347 130.63792585 258.1766529 157.4375 233.25 C158.0876709 232.64833008 158.7378418 232.04666016 159.40771484 231.42675781 C164.67476936 226.47764776 169.50870888 221.21456919 173.9375 215.5 C176.68493528 213.50186525 178.74463493 213.36957913 182.09375 213.55078125 C184 214 184 214 186.5 216.125 C188.3440701 219.6594677 188.84682469 221.07381282 188 225 C185.95465507 227.94097734 183.48239392 230.42650905 181 233 C179.4959026 234.68384894 177.996014 236.3714653 176.5 238.0625 C170.36457806 244.8519517 163.93922406 251.04242227 157 257 C155.97993992 257.89523112 154.96045192 258.79111434 153.94140625 259.6875 C132.57483343 278.38519081 108.88223358 294.35971047 84 308 C83.04077637 308.53206055 82.08155273 309.06412109 81.09326172 309.61230469 C78.03073644 311.30281474 74.9555786 312.96764724 71.875 314.625 C70.92681396 315.14674805 69.97862793 315.66849609 69.00170898 316.20605469 C63.49700648 319.11449345 58.35108494 321.7579109 52 321 C47.71147308 319.66698849 43.77192379 317.79728334 39.75 315.8125 C38.60829346 315.26513184 37.46658691 314.71776367 36.2902832 314.15380859 C-31.34531175 281.26171944 -94.92170114 225.4839945 -120.75 153.125 C-124.25444049 142.93316852 -126.85517368 132.55573617 -129 122 C-129.2475 120.78828125 -129.495 119.5765625 -129.75 118.328125 C-132.7953135 99.97165198 -132.94590856 79.73993112 -127 62 C-126.649375 60.94425781 -126.29875 59.88851562 -125.9375 58.80078125 C-120.83026838 45.23469727 -112.12965589 34.14410618 -102 24 C-101.20980469 23.19820312 -100.41960937 22.39640625 -99.60546875 21.5703125 C-88.98518028 11.3903345 -75.88363781 4.59716064 -62 0 C-60.76636719 -0.41378906 -59.53273438 -0.82757813 -58.26171875 -1.25390625 C-39.80186303 -6.77515301 -18.22444848 -6.00241857 0 0 Z " fill="#000000" transform="translate(201,4)"/>
<path d="M0 0 C14.79947794 11.80590465 27.43518458 28.41507043 29.83984375 47.65234375 C30.8904124 59.30075402 27.62574866 70.50837803 20.2421875 79.625 C14.4108805 85.8813681 7.68660993 89.33915229 -0.84765625 89.890625 C-14.73201014 90.24907675 -24.38849371 87.01866019 -36.16015625 79.65234375 C-44.84479921 74.31541232 -51.92723863 72.24685868 -62.16015625 73.65234375 C-67.87816007 75.14159876 -72.48222556 78.49658407 -77.41015625 81.65234375 C-88.8253125 88.74217429 -99.93598899 91.0065427 -113.16015625 89.65234375 C-122.07742352 87.55554907 -129.54326179 82.62950263 -134.47265625 74.90234375 C-140.86709561 63.17630101 -142.21970057 50.86762314 -138.53515625 37.90234375 C-134.68926828 26.94089301 -128.82859084 18.31332396 -121.16015625 9.65234375 C-120.61875 9.02714844 -120.07734375 8.40195313 -119.51953125 7.7578125 C-87.76404554 -26.48358244 -36.00985498 -26.75144975 0 0 Z M-111.46875 21.34375 C-119.66396277 31.98668228 -125.6957779 44.0124103 -124.16015625 57.65234375 C-122.1381106 64.54702624 -118.68480706 68.98600368 -112.48046875 72.58984375 C-106.2028672 75.46443571 -101.14337908 74.90475692 -94.671875 72.734375 C-90.45417533 70.91741885 -86.86518895 68.33646415 -83.16015625 65.65234375 C-71.22070016 57.1275721 -57.39329541 55.91301898 -43.1328125 58.12109375 C-35.9639365 60.02373383 -29.82524652 64.07275443 -23.8125 68.3046875 C-17.28570535 72.88351942 -11.34252013 75.65870037 -3.171875 74.24609375 C3.52112357 72.27068446 7.51057618 68.4768981 10.9296875 62.51953125 C14.10099683 56.01358336 13.80247743 47.79862738 12.19140625 40.859375 C5.50202178 22.87808085 -9.95385112 9.11351311 -27.03515625 1.27734375 C-57.91091084 -11.01831073 -89.95601173 -3.73624436 -111.46875 21.34375 Z " fill="#000000" transform="translate(311.16015625,161.34765625)"/>
<path d="M0 0 C9.96555097 7.87487594 16.12358454 19.47853531 18 32 C18.79990002 44.37168207 18.92073436 56.1919334 10.7421875 66.2421875 C6.69988854 70.32074026 1.82759065 73.5517238 -4 74 C-5.051875 74.103125 -6.10375 74.20625 -7.1875 74.3125 C-16.5938464 73.541488 -23.84462576 69.02329343 -30 62 C-38.61825238 49.70016408 -42.96630779 35.99912232 -40.50390625 20.97265625 C-38.40990657 11.59106444 -35.1010663 4.5595553 -27 -1 C-17.91007111 -5.77606433 -8.83844753 -5.07497955 0 0 Z M-21 15 C-25.29133727 19.7511234 -25.35559596 24.82168391 -25.2734375 31 C-24.44374717 40.10288821 -19.97316381 48.20877245 -14 55 C-10.81406191 57.23015667 -9.21733062 58 -5.375 58 C-2.18262077 56.65584033 -0.90222055 54.85333083 1 52 C3.68550433 43.94348701 2.87760827 33.90338856 -0.734375 26.28515625 C-5.50636421 17.22096087 -5.50636421 17.22096087 -14 12 C-16.97667749 12 -18.57043371 13.340784 -21 15 Z " fill="#000000" transform="translate(231,63)"/>
<path d="M0 0 C6.14645719 5.22164303 9.4240046 12.2795993 10.22753906 20.25976562 C11.18326982 35.49134889 8.61495288 47.23098765 0 60 C-0.598125 60.9075 -1.19625 61.815 -1.8125 62.75 C-7.87712254 68.98789747 -14.75030929 72.52275539 -23.4375 73.3125 C-31.67638637 72.58979067 -37.46296743 69.11534486 -43 63 C-49.99686649 53.20852707 -49.76188441 40.39429193 -48 29 C-45.09383246 17.18743107 -39.37396332 6.08958059 -29.05859375 -0.84765625 C-19.46857462 -6.21588328 -9.19908056 -6.48297272 0 0 Z M-23 15 C-30.72377994 23.17811994 -33.49372612 33.43584478 -33.25 44.44921875 C-32.78035832 49.24103152 -30.94877063 51.97216515 -27.75 55.4375 C-25.01996621 57.28817215 -25.01996621 57.28817215 -21.5 57 C-16.70738181 55.63068052 -14.25227048 54.0834877 -11.65234375 49.7578125 C-7.77141225 42.31276023 -5.64108549 35.39042273 -5.625 26.9375 C-5.60050781 26.25623047 -5.57601562 25.57496094 -5.55078125 24.87304688 C-5.52136246 19.7688863 -6.80912839 16.92494968 -10 13 C-15.23849278 9.50767148 -18.29987045 11.45092259 -23 15 Z " fill="#000000" transform="translate(311,64)"/>
<path d="M0 0 C5.04573363 2.93044653 7.78247605 6.80649371 9.5625 12.3125 C10.71164431 25.50093528 9.26207102 35.72245579 0.62109375 46.203125 C-5.8725953 52.85699993 -13.02573173 57.22355135 -22.375 57.6875 C-28.15713254 57.54858991 -31.6433929 55.95798438 -35.90625 51.921875 C-41.28893303 45.97588794 -41.85090487 40.10882512 -41.6796875 32.39453125 C-40.89207945 22.37158362 -36.46427385 13.18829301 -29.2265625 6.16796875 C-20.66032693 -0.77565224 -10.68055595 -4.90189695 0 0 Z M-19.4375 19.3125 C-23.16613898 25.3088989 -26.66147129 31.12166864 -25.4375 38.3125 C-24.7775 39.3025 -24.1175 40.2925 -23.4375 41.3125 C-18.39099919 41.06632923 -15.63470818 39.45099699 -12.05078125 36.10546875 C-7.17999488 30.69217348 -5.99036904 25.59715998 -6.1015625 18.4140625 C-6.26109408 16.09782109 -6.26109408 16.09782109 -8.4375 14.3125 C-13.38038435 13.3513836 -16.40349244 15.64735803 -19.4375 19.3125 Z " fill="#000000" transform="translate(356.4375,110.6875)"/>
<path d="M0 0 C10.01640417 5.934247 16.63341716 14.80173657 19.9453125 25.8515625 C21.97774103 34.4651882 21.61354793 42.2562757 17.00390625 50.0234375 C13.51861058 54.67049839 9.46485731 56.64312511 3.8203125 57.61328125 C-4.54414725 58.21648748 -11.54178601 54.58955269 -18.0703125 49.5859375 C-24.77212449 43.35033852 -29.75579503 34.42877441 -30.265625 25.203125 C-30.56627325 10.61753205 -30.56627325 10.61753205 -25.9296875 4.2265625 C-18.86367068 -2.65827441 -9.0434733 -3.91761799 0 0 Z M-12.9296875 14.2265625 C-15.51165765 18.09951773 -15.09500822 20.11506444 -14.52734375 24.59765625 C-13.028449 31.19083383 -8.80699812 35.99219722 -3.64453125 40.171875 C-1.32979648 41.59551597 0.4208452 41.70828383 3.0703125 41.2265625 C5.36626698 37.985215 5.22174872 35.22298898 4.61328125 31.37890625 C2.87798064 24.50012471 -1.0100947 18.1729577 -6.9296875 14.2265625 C-9.97180181 13.8098073 -9.97180181 13.8098073 -12.9296875 14.2265625 Z " fill="#000000" transform="translate(175.9296875,110.7734375)"/>
</svg>
