<?xml version="1.0" encoding="UTF-8"?>
<svg version="1.1" xmlns="http://www.w3.org/2000/svg" width="512" height="512">
<path d="M0 0 C1.18142578 -0.01891296 1.18142578 -0.01891296 2.38671875 -0.03820801 C3.22847656 -0.03011108 4.07023437 -0.02201416 4.9375 -0.01367188 C6.24654297 -0.01941223 6.24654297 -0.01941223 7.58203125 -0.02526855 C9.42449092 -0.02798678 11.26698924 -0.02063182 13.109375 -0.00390625 C15.92795934 0.01750565 18.74399485 -0.00370989 21.5625 -0.02929688 C23.35417229 -0.02665358 25.14584299 -0.02152857 26.9375 -0.01367188 C27.77925781 -0.0217688 28.62101562 -0.02986572 29.48828125 -0.03820801 C35.32465618 0.05522414 35.32465618 0.05522414 38.46679688 2.42578125 C40.05894695 4.69031343 40.480297 5.77856983 40.4375 8.51757812 C40.45296875 9.50757812 40.45296875 9.50757812 40.46875 10.51757812 C39.68352769 13.47370916 38.31244875 14.61742373 35.9375 16.51757812 C32.91308594 16.97167969 32.91308594 16.97167969 29.421875 16.90820312 C28.17148437 16.8953125 26.92109375 16.88242188 25.6328125 16.86914062 C23.67988281 16.81886719 23.67988281 16.81886719 21.6875 16.76757812 C20.37007813 16.74953125 19.05265625 16.73148438 17.6953125 16.71289062 C14.44197692 16.66574083 11.19010375 16.59993856 7.9375 16.51757812 C8.26341004 43.14644017 8.26341004 43.14644017 10 69.70507812 C10.08628662 70.5989624 10.17257324 71.49284668 10.26147461 72.41381836 C10.38341187 73.67367554 10.38341187 73.67367554 10.5078125 74.95898438 C12.04016029 90.79872533 12.04016029 90.79872533 8.8125 95.83007812 C5.40106032 97.83244489 3.82350392 98.24620386 -0.0625 97.51757812 C-2.76240662 95.71764038 -4.6043865 94.43380513 -6.0625 91.51757812 C-6.7225 82.60757813 -7.3825 73.69757813 -8.0625 64.51757812 C-32.1525 64.51757812 -56.2425 64.51757812 -81.0625 64.51757812 C-81.3925 68.14757812 -81.7225 71.77757812 -82.0625 75.51757812 C-82.44710822 77.83252631 -82.87262507 80.14135348 -83.35351562 82.43823242 C-83.73892769 84.32806351 -83.73892769 84.32806351 -84.13212585 86.256073 C-84.26841589 86.91793484 -84.40470592 87.57979668 -84.54512596 88.26171494 C-94.90923558 139.15164393 -96.97165129 188.68979064 -96.0625 240.51757812 C-94.886875 240.67226563 -94.886875 240.67226563 -93.6875 240.83007812 C-91.0625 241.51757812 -91.0625 241.51757812 -89.0625 244.51757812 C-88.39273256 251.55013626 -88.39273256 251.55013626 -90.75 254.95507812 C-95.53188775 258.18608336 -100.1143141 257.52955346 -105.66015625 257.16210938 C-108.86926461 256.30112908 -110.1083206 255.19619016 -112.0625 252.51757812 C-112.58917809 248.45162325 -112.24156875 244.6361593 -112.0625 240.51757812 C-117.3425 240.51757812 -122.6225 240.51757812 -128.0625 240.51757812 C-127.98 241.92007813 -127.8975 243.32257813 -127.8125 244.76757812 C-127.84286837 255.50279713 -132.15747743 262.66004427 -138.0625 271.51757812 C-111.0025 271.51757812 -83.9425 271.51757812 -56.0625 271.51757812 C-59.0325 268.54757812 -62.0025 265.57757813 -65.0625 262.51757812 C-78.60796795 244.2915902 -82.39529567 224.44667662 -79.79003906 202.18994141 C-77.34486916 187.69555609 -69.49350037 174.6265236 -59.0625 164.51757812 C-58.34191406 163.79957031 -57.62132812 163.0815625 -56.87890625 162.34179688 C-43.08873954 149.28907223 -24.88251978 143.63757829 -6.203125 143.48632812 C11.81416892 144.23393368 27.51160752 150.55150262 40.9375 162.51757812 C42.09572266 163.51724609 42.09572266 163.51724609 43.27734375 164.53710938 C54.76482799 175.12130426 62.88442253 191.62141167 64.16064453 207.25024414 C65.03714368 229.54405678 61.2531871 248.34738194 45.9375 265.51757812 C43.95971674 267.54145775 41.95274559 269.53059685 39.9375 271.51757812 C41.17838379 271.53159668 41.17838379 271.53159668 42.44433594 271.54589844 C46.19266415 271.59958132 49.93974162 271.68323523 53.6875 271.76757812 C54.98945313 271.78175781 56.29140625 271.7959375 57.6328125 271.81054688 C58.88320313 271.84277344 60.13359375 271.875 61.421875 271.90820312 C63.15002441 271.93962402 63.15002441 271.93962402 64.91308594 271.97167969 C68.52157476 272.62300202 69.71199029 273.66117317 71.9375 276.51757812 C72.46875 278.51757813 72.46875 278.51757813 72.4375 280.51757812 C72.4478125 281.17757813 72.458125 281.83757812 72.46875 282.51757812 C71.67028915 285.52354838 70.39182011 286.61364122 67.9375 288.51757812 C65.18603809 288.90965074 62.83512761 289.055483 60.08508301 289.02094269 C58.88458895 289.02966333 58.88458895 289.02966333 57.65984249 289.03856015 C54.96107769 289.05323148 52.26321225 289.03924199 49.56445312 289.0255127 C47.61694115 289.03011879 45.66943265 289.03646974 43.72193146 289.04442167 C38.3570545 289.06117807 32.99246077 289.05284 27.62758255 289.0404768 C21.84699802 289.03145439 16.0664634 289.04538204 10.28588867 289.05639648 C-1.04348517 289.07421638 -12.37275322 289.07032627 -23.70213127 289.05874592 C-32.90681708 289.04972551 -42.11147316 289.04848156 -51.31616211 289.05284119 C-52.62443576 289.05345412 -53.93270942 289.05406705 -55.28062773 289.05469856 C-57.93806268 289.05597741 -60.59549762 289.05727426 -63.25293255 289.05858892 C-87.48122648 289.0700814 -111.70946686 289.05816312 -135.93775165 289.03721853 C-158.06530289 289.01823545 -180.19276206 289.01993393 -202.3203125 289.0390625 C-227.16864708 289.06047119 -252.01693 289.06890616 -276.86527252 289.05661345 C-279.51312764 289.0553392 -282.16098276 289.05408172 -284.80883789 289.05284119 C-286.76321376 289.05191553 -286.76321376 289.05191553 -288.75707197 289.05097118 C-297.9545156 289.04751229 -307.15192665 289.05335821 -316.34936523 289.0627594 C-327.55251476 289.07395861 -338.75555212 289.07098314 -349.95868874 289.04963642 C-355.67862753 289.03909803 -361.39837909 289.03505161 -367.11831665 289.04823303 C-372.34902667 289.06010506 -377.57937496 289.05368043 -382.81005192 289.03232282 C-384.7076993 289.02783466 -386.6053769 289.03017224 -388.50300503 289.03982598 C-391.07247231 289.05190025 -393.64068261 289.03960736 -396.21008301 289.02094269 C-397.32848241 289.03498968 -397.32848241 289.03498968 -398.46947575 289.04932046 C-401.93541597 288.99861732 -403.74397485 288.76467376 -406.52007294 286.61111784 C-408.19289059 284.34059869 -408.60601767 283.30270897 -408.5625 280.51757812 C-408.5728125 279.85757812 -408.583125 279.19757813 -408.59375 278.51757812 C-407.8070278 275.55580045 -406.44578988 274.41934356 -404.0625 272.51757812 C-400.99993896 272.03656006 -400.99993896 272.03656006 -397.36621094 272.06347656 C-396.70238403 272.06289246 -396.03855713 272.06230835 -395.35461426 272.06170654 C-393.16816262 272.06448548 -390.98308738 272.09556485 -388.796875 272.12695312 C-387.27802271 272.13441628 -385.75916078 272.14010886 -384.24029541 272.144104 C-380.24846675 272.15935471 -376.25722303 272.1986309 -372.265625 272.24291992 C-367.47327767 272.29109141 -362.68073441 272.30940941 -357.88821411 272.33273315 C-350.61256962 272.37148314 -343.33820782 272.44813871 -336.0625 272.51757812 C-336.0625 256.67757813 -336.0625 240.83757812 -336.0625 224.51757812 C-341.6725 224.51757812 -347.2825 224.51757812 -353.0625 224.51757812 C-364.84746111 221.44857783 -373.6264153 214.92202593 -380.0625 204.51757812 C-383.90280394 197.06420716 -385.61763014 188.85353308 -384.0625 180.51757812 C-381.88242698 177.66035875 -380.69920698 176.62960558 -377.12084961 176 C-375.99686768 175.99548828 -374.87288574 175.99097656 -373.71484375 175.98632812 C-372.46896484 175.98117188 -371.22308594 175.97601563 -369.93945312 175.97070312 C-368.63943359 175.98617187 -367.33941406 176.00164062 -366 176.01757812 C-364.09057617 175.994375 -364.09057617 175.994375 -362.14257812 175.97070312 C-352.14847538 176.01176775 -342.89915002 177.36817485 -335.125 184.14257812 C-332.52528824 186.36812577 -330.18943125 188.104513 -327.0625 189.51757812 C-326.60101563 189.07027344 -326.13953125 188.62296875 -325.6640625 188.16210938 C-315.36941501 178.62023255 -306.30405923 176.30414072 -292.59033203 176.22241211 C-291.23833786 176.21085521 -289.88639062 176.1903447 -288.53466797 176.16088867 C-286.57552421 176.11823643 -284.61581585 176.10464973 -282.65625 176.09179688 C-281.48771484 176.07721436 -280.31917969 176.06263184 -279.11523438 176.04760742 C-275.4336565 176.61438904 -274.27836718 177.57688211 -272.0625 180.51757812 C-270.31595501 189.87957294 -272.63025886 198.96908468 -277.5703125 206.95507812 C-284.20467192 216.08889388 -292.16147666 221.67876996 -303.0625 224.51757812 C-308.6725 224.51757812 -314.2825 224.51757812 -320.0625 224.51757812 C-320.0625 240.35757813 -320.0625 256.19757813 -320.0625 272.51757812 C-285.0825 272.18757813 -250.1025 271.85757812 -214.0625 271.51757812 C-216.0425 268.54757812 -218.0225 265.57757813 -220.0625 262.51757812 C-223.61380805 254.94018823 -224.65099674 247.82192104 -224.0625 239.51757812 C-224.784375 239.35257813 -225.50625 239.18757812 -226.25 239.01757812 C-230.4929676 236.75466207 -232.23641194 233.92229905 -234.0625 229.51757812 C-235.23256548 224.6602764 -235.85477254 219.78815841 -236.4375 214.83007812 C-236.61410156 213.54423828 -236.79070312 212.25839844 -236.97265625 210.93359375 C-238.50680972 198.78923491 -239.26965136 186.97957203 -232.0625 176.51757812 C-223.68113639 165.98152844 -213.34259705 163.84858955 -200.5625 161.51757812 C-199.06242431 161.23577951 -197.56251204 160.95310988 -196.06274414 160.66967773 C-192.54853883 160.00855294 -189.03283456 159.35610181 -185.51611328 158.70849609 C-180.69811994 157.82100877 -175.88164994 156.92554423 -171.06591797 156.02587891 C-162.95728821 154.51116396 -154.84773939 153.00144819 -146.73745728 151.49560547 C-145.24318486 151.21809803 -143.7489426 150.94042818 -142.25473022 150.66259766 C-137.9446046 149.86121722 -133.63399551 149.06254477 -129.32257271 148.26817131 C-127.34565842 147.90332479 -125.36922748 147.53586238 -123.39280701 147.16835022 C-122.20671341 146.95045334 -121.02061981 146.73255646 -119.79858398 146.50805664 C-118.75911118 146.31599136 -117.71963837 146.12392609 -116.64866638 145.92604065 C-114.0625 145.51757812 -114.0625 145.51757812 -111.0625 145.51757812 C-111.01895386 144.83119766 -110.97540771 144.1448172 -110.93054199 143.43763733 C-110.31024309 134.87350052 -109.02648798 126.47073766 -107.59375 118.01367188 C-107.35059577 116.55833281 -107.10780476 115.10293302 -106.86535645 113.6474762 C-106.36068309 110.62408817 -105.85278604 107.60126681 -105.34228516 104.57885742 C-104.68827308 100.70615036 -104.04080154 96.83238492 -103.39548492 92.95822048 C-102.89644593 89.96480131 -102.39487557 86.97181095 -101.8924408 83.97896004 C-101.65264403 82.54971088 -101.41343211 81.12036347 -101.17481995 79.69091606 C-100.84230188 77.70230595 -100.50619658 75.71429667 -100.16992188 73.72631836 C-99.97974487 72.59669174 -99.78956787 71.46706512 -99.59362793 70.3032074 C-99.0625 67.51757812 -99.0625 67.51757812 -98.0625 64.51757812 C-98.82916992 64.53852539 -99.59583984 64.55947266 -100.38574219 64.58105469 C-103.8611946 64.66422971 -107.33643763 64.71624387 -110.8125 64.76757812 C-112.0190625 64.80109375 -113.225625 64.83460938 -114.46875 64.86914062 C-116.20898438 64.88847656 -116.20898438 64.88847656 -117.984375 64.90820312 C-119.58684082 64.93962402 -119.58684082 64.93962402 -121.22167969 64.97167969 C-124.74516436 64.40845508 -125.88590929 63.28299254 -128.0625 60.51757812 C-128.59375 58.51757812 -128.59375 58.51757812 -128.5625 56.51757812 C-128.57796875 55.52757812 -128.57796875 55.52757812 -128.59375 54.51757812 C-127.75655332 51.36577886 -126.7496978 50.43991115 -124.0625 48.51757812 C-120.36713278 47.9164379 -116.69595036 48.01327809 -112.95996094 48.06347656 C-111.82796265 48.06289246 -110.69596436 48.06230835 -109.52966309 48.06170654 C-105.78508932 48.06449499 -102.04130985 48.09562461 -98.296875 48.12695312 C-95.70184769 48.13441276 -93.10681474 48.140107 -90.51177979 48.144104 C-84.37771684 48.15782012 -78.24398208 48.18935063 -72.11004281 48.22950196 C-65.12584278 48.27422563 -58.14162905 48.29620815 -51.15732145 48.3162837 C-36.79222772 48.35808377 -22.427374 48.42843206 -8.0625 48.51757812 C-8.08344727 47.20563477 -8.10439453 45.89369141 -8.12597656 44.54199219 C-8.1983797 39.67426469 -8.24430113 34.80658478 -8.28222656 29.93847656 C-8.30234126 27.83162431 -8.32963667 25.72482787 -8.36425781 23.61816406 C-8.41278168 20.58970366 -8.43547016 17.56198134 -8.453125 14.53320312 C-8.47377014 13.59140198 -8.49441528 12.64960083 -8.51568604 11.67926025 C-8.51791421 5.18471724 -8.51791421 5.18471724 -6.29199219 1.9239502 C-3.92942257 0.43363238 -2.76094097 0.01274032 0 0 Z M-48.08984375 177.45898438 C-59.86324551 190.21135608 -64.049784 204.62928106 -63.44140625 221.70117188 C-62.74616242 232.84032925 -58.60383185 241.61409867 -52.0625 250.51757812 C-51.56234375 251.22527344 -51.0621875 251.93296875 -50.546875 252.66210938 C-42.91724631 262.43034611 -30.20965798 269.57042223 -18.0625 271.51757812 C-1.41083732 273.06435763 12.25315374 270.57138354 25.9375 260.51757812 C26.64519531 260.01742187 27.35289062 259.51726562 28.08203125 259.00195312 C37.85026798 251.37232443 44.9903441 238.6647361 46.9375 226.51757812 C48.4842795 209.86591544 45.99130542 196.20192439 35.9375 182.51757812 C35.43734375 181.80988281 34.9371875 181.1021875 34.421875 180.37304688 C25.29781599 168.69148648 10.79745715 162.51290539 -3.5625 160.64257812 C-20.34832198 159.669487 -36.02991911 165.91027042 -48.08984375 177.45898438 Z M-121.87744141 164.10644531 C-122.80268616 164.27558441 -123.72793091 164.44472351 -124.68121338 164.61898804 C-133.23378189 166.18469971 -141.78355749 167.76558654 -150.33248329 169.35105515 C-156.07825435 170.41646813 -161.8248471 171.47688941 -167.57373047 172.52539062 C-173.12725998 173.53838281 -178.67829569 174.56411935 -184.22782516 175.59879303 C-186.3424261 175.99079471 -188.4578688 176.37828396 -190.57414627 176.76113129 C-193.54223302 177.29896524 -196.50684173 177.85311994 -199.47119141 178.41113281 C-200.34212433 178.565065 -201.21305725 178.71899719 -202.11038208 178.87759399 C-208.74249236 180.15334614 -213.94831134 182.01393366 -218.4375 187.33007812 C-221.54464362 193.42485983 -221.14380135 199.26945462 -220.25 205.83007812 C-220.16685547 206.54486328 -220.08371094 207.25964844 -219.99804688 207.99609375 C-219.52619557 212.20182496 -219.52619557 212.20182496 -217.0625 215.51757812 C-216.7221875 215.02128906 -216.381875 214.525 -216.03125 214.01367188 C-208.39553177 203.31148169 -198.97179515 196.53240323 -186.0625 193.51757812 C-171.44385217 192.07562976 -158.36987683 193.49109658 -146.375 202.54492188 C-138.96845591 208.86300425 -134.43948612 215.87303053 -130.0625 224.51757812 C-124.1225 224.51757812 -118.1825 224.51757812 -112.0625 224.51757812 C-112.0625 204.05757812 -112.0625 183.59757812 -112.0625 162.51757812 C-115.28685123 162.51757812 -118.69712233 163.5229135 -121.87744141 164.10644531 Z M-366.0625 192.51757812 C-363.55695139 198.93804643 -358.86404638 203.6450809 -352.69921875 206.68164062 C-349.67437498 207.64062813 -346.9137234 207.93398098 -343.75 208.14257812 C-342.14705078 208.25472656 -342.14705078 208.25472656 -340.51171875 208.36914062 C-339.70347656 208.418125 -338.89523437 208.46710938 -338.0625 208.51757812 C-340.56804861 202.09710982 -345.26095362 197.39007535 -351.42578125 194.35351562 C-354.45062502 193.39452812 -357.2112766 193.10117527 -360.375 192.89257812 C-361.97794922 192.78042969 -361.97794922 192.78042969 -363.61328125 192.66601562 C-364.42152344 192.61703125 -365.22976563 192.56804687 -366.0625 192.51757812 Z M-312.7265625 200.22851562 C-315.18679132 202.9919006 -316.87931426 204.96802091 -318.0625 208.51757812 C-309.47413708 208.23129936 -302.4365791 207.73847935 -296.0546875 201.58007812 C-293.36243717 198.61533282 -291.33902789 196.34716181 -290.0625 192.51757812 C-298.80520922 192.06923406 -306.47500491 193.80085782 -312.7265625 200.22851562 Z M-200.4375 219.83007812 C-207.07040592 228.51692366 -208.18801828 236.65690688 -207.0625 247.51757812 C-205.21438407 255.65366243 -200.66600965 262.39154623 -193.75 267.08789062 C-185.12680822 272.05189905 -176.02160589 273.09573602 -166.203125 270.86914062 C-157.78405669 267.81003816 -152.01584525 262.75890724 -147.5625 255.01757812 C-143.62380619 246.42993424 -143.49208587 236.98630999 -146.625 228.08007812 C-151.26775056 218.39295499 -158.08466313 213.29191694 -168.0625 209.51757812 C-179.93773298 206.28061946 -192.22476717 210.95702507 -200.4375 219.83007812 Z " fill="#000000" transform="translate(424.0625,79.482421875)"/>
<path d="M0 0 C1.22014801 0.01687866 2.44029602 0.03375732 3.69741821 0.05114746 C7.16186996 0.10239059 10.62573748 0.16772091 14.08984375 0.23828125 C15.6460997 0.26040428 15.6460997 0.26040428 17.23379517 0.28297424 C18.67448868 0.31752968 18.67448868 0.31752968 20.14428711 0.3527832 C20.97754013 0.36912308 21.81079315 0.38546295 22.66929626 0.40229797 C26.67263227 0.87938211 29.33964903 1.82007884 31.9375 4.9375 C33.35983935 8.41432952 33.19942231 10.12514344 32.0625 13.6875 C29.78605124 16.72845799 28.64709753 17.60266747 24.8404541 18.15505981 C23.56085815 18.14014496 22.28126221 18.1252301 20.96289062 18.10986328 C20.25180838 18.10729145 19.54072613 18.10471962 18.80809593 18.10206985 C16.44443514 18.08919311 14.08208679 18.04824221 11.71875 18.0078125 C10.05064358 17.99438594 8.38251961 17.98300165 6.71438599 17.97354126 C3.17084155 17.95057411 -0.37234913 17.91657777 -3.91571045 17.87390137 C-13.11273807 17.76579129 -22.31026382 17.74190287 -31.5078125 17.7109375 C-32.4113509 17.70733719 -33.3148893 17.70373688 -34.24580765 17.70002747 C-121.52350116 15.29992748 -121.52350116 15.29992748 -204.9375 35.6875 C-200.8762898 37.64851632 -196.81331157 39.60584198 -192.75 41.5625 C-191.59951172 42.11808594 -190.44902344 42.67367187 -189.26367188 43.24609375 C-188.15185547 43.78105469 -187.04003906 44.31601562 -185.89453125 44.8671875 C-184.87335205 45.35944824 -183.85217285 45.85170898 -182.80004883 46.35888672 C-181.85540771 46.7973291 -180.9107666 47.23577148 -179.9375 47.6875 C-179.12410156 48.09887207 -178.31070313 48.51024414 -177.47265625 48.93408203 C-174.06869791 49.94569754 -171.86767554 49.36350272 -168.41796875 48.5625 C-167.09279917 48.26778792 -165.76760251 47.9731976 -164.44238281 47.67871094 C-163.74133423 47.51721558 -163.04028564 47.35572021 -162.31799316 47.18933105 C-112.40586269 35.7677464 -59.9448221 30.40954005 -8.74658203 31.62109375 C-6.61493449 31.67148556 -4.48303279 31.71126257 -2.35107422 31.74609375 C1.59987128 31.81306727 5.5496807 31.90318084 9.5 32 C10.74056152 32.02231689 11.98112305 32.04463379 13.25927734 32.06762695 C19.52824158 32.258654 24.58292979 32.49436916 30.0625 35.6875 C31.62721233 38.81692465 31.75951958 42.29832223 31.0625 45.6875 C29.73706055 47.79467773 29.73706055 47.79467773 27.0625 49.6875 C23.323856 50.25428327 19.6166713 50.12689142 15.84375 50.04296875 C14.16790581 50.0301738 14.16790581 50.0301738 12.45820618 50.01712036 C10.06666518 49.99705948 7.67518508 49.96816372 5.28384399 49.93130493 C0.30676025 49.85600032 -4.67022358 49.82680741 -9.64775085 49.79624939 C-12.09626085 49.781089 -14.54475915 49.76390008 -16.99324036 49.74464417 C-62.09792664 49.40193799 -107.88054965 53.89356751 -151.9375 63.6875 C-149.83482912 65.41144774 -147.71275868 67.08722233 -145.5625 68.75 C-144.97855469 69.23533203 -144.39460937 69.72066406 -143.79296875 70.22070312 C-140.27763829 72.88555041 -137.83290032 74.04323854 -133.3828125 73.64453125 C-131.56318601 73.35241788 -129.74823206 73.03045801 -127.9375 72.6875 C-125.63048763 72.32374506 -123.32317177 71.96191185 -121.015625 71.6015625 C-119.08393068 71.2834069 -117.15224034 70.96522619 -115.22070312 70.64611816 C-98.85072712 67.96005041 -82.47785151 66.02123213 -65.9375 64.6875 C-64.80562256 64.59033691 -63.67374512 64.49317383 -62.50756836 64.39306641 C-50.12147381 63.46140916 -37.72636503 63.53632642 -25.3112793 63.55712891 C-21.51151531 63.56248377 -17.71186976 63.55715874 -13.91210938 63.55078125 C6.8306908 63.541628 6.8306908 63.541628 16.97265625 64.0078125 C18.22312744 64.06469238 19.47359863 64.12157227 20.76196289 64.18017578 C24.39225551 64.73818659 26.92764383 65.79355484 30.0625 67.6875 C31.62721233 70.81692465 31.75951958 74.29832223 31.0625 77.6875 C28.80845622 80.66428681 27.64995895 81.60170065 23.90724182 82.14833069 C22.65982712 82.13039963 21.41241241 82.11246857 20.12719727 82.09399414 C19.43502106 82.08975937 18.74284485 82.0855246 18.0296936 82.0811615 C16.52316822 82.06928919 15.01669416 82.04809949 13.5104084 82.01872444 C11.08441856 81.97179567 8.65927473 81.94988833 6.2328949 81.9339447 C1.02990342 81.89505018 -4.17240612 81.8239046 -9.375 81.75 C-29.6376776 81.47037157 -49.75534332 81.35026345 -69.96484375 83.05078125 C-70.71236845 83.11357836 -71.45989315 83.17637547 -72.23007011 83.24107552 C-95.44314932 84.74682147 -95.44314932 84.74682147 -117.9375 89.6875 C-114.79661302 93.37918465 -111.85268565 96.26031445 -107.02228546 97.33774376 C-103.50399812 97.55903 -100.04144488 97.57301815 -96.51660156 97.51049805 C-95.17216858 97.51183968 -93.82773565 97.5163204 -92.48332214 97.52368164 C-89.60244984 97.53288881 -86.72280966 97.52034094 -83.84207916 97.49054527 C-79.28664041 97.44377117 -74.73206897 97.44738618 -70.17645264 97.4577179 C-62.15518096 97.46951043 -54.13449846 97.43868194 -46.11334229 97.39855957 C-34.02428863 97.33860276 -21.93519805 97.3143048 -9.84600616 97.32680541 C-5.31747497 97.32991445 -0.78969211 97.3114634 3.73869371 97.27581251 C6.55230064 97.25727694 9.36575837 97.25493639 12.17941856 97.2567215 C14.10618414 97.25279358 16.03287567 97.22873932 17.95948792 97.20411682 C19.67950264 97.20981186 19.67950264 97.20981186 21.43426514 97.21562195 C22.43047253 97.21021739 23.42667992 97.20481283 24.45307541 97.1992445 C27.78729394 97.82311788 28.96832304 99.07761333 31.0625 101.6875 C31.59375 103.6875 31.59375 103.6875 31.5625 105.6875 C31.57796875 106.6775 31.57796875 106.6775 31.59375 107.6875 C30.81536173 110.61790291 29.39230756 111.78151592 27.0625 113.6875 C24.35378456 114.20648193 24.35378456 114.20648193 21.19302368 114.23339844 C19.39294609 114.26293861 19.39294609 114.26293861 17.5565033 114.29307556 C16.24315506 114.29432938 14.92980682 114.29558319 13.57666016 114.296875 C12.17693723 114.31216123 10.77723188 114.32913575 9.37754822 114.34767151 C5.57790781 114.39265192 1.77851856 114.41248317 -2.02134657 114.42673111 C-5.99981 114.44475467 -9.97810091 114.4821091 -13.95645142 114.51635742 C-20.6395537 114.57063983 -27.3225994 114.60812047 -34.00585938 114.63623047 C-41.72690149 114.66896222 -49.44731576 114.73053851 -57.16803777 114.80713081 C-63.79993696 114.87214725 -70.43181812 114.92137158 -77.06393778 114.95750237 C-81.02354472 114.97909782 -84.98290921 115.006146 -88.94236374 115.04748535 C-92.66719146 115.08550729 -96.39160561 115.103669 -100.11662102 115.1067028 C-102.13131675 115.11308622 -104.14591919 115.13930747 -106.16044617 115.16615295 C-117.097323 115.14016312 -117.097323 115.14016312 -121.9375 110.6875 C-122.81148437 109.90375 -123.68546875 109.12 -124.5859375 108.3125 C-125.48570312 107.44625 -126.38546875 106.58 -127.3125 105.6875 C-147.75820564 86.50439722 -172.90139476 71.65454115 -198.06835938 59.58740234 C-199.85981488 58.72490169 -201.64112249 57.84141843 -203.421875 56.95703125 C-231.50434025 43.32143423 -262.59136489 33.85600412 -293.18359375 27.828125 C-294.33988281 27.59609375 -295.49617187 27.3640625 -296.6875 27.125 C-297.63109375 26.95871094 -298.5746875 26.79242188 -299.546875 26.62109375 C-302.78987275 25.35462894 -304.05169403 23.56378663 -305.9375 20.6875 C-306.57376723 16.86989662 -306.25288452 15.23335782 -304.3125 11.875 C-301.4017133 9.19401225 -299.83239313 9.05569909 -295.9375 8.6875 C-293.17456055 9.01367188 -293.17456055 9.01367188 -290.32421875 9.65625 C-289.25260498 9.8944043 -288.18099121 10.13255859 -287.0769043 10.37792969 C-285.93777588 10.64508789 -284.79864746 10.91224609 -283.625 11.1875 C-282.44397705 11.45723633 -281.2629541 11.72697266 -280.04614258 12.00488281 C-251.42309502 18.66716029 -251.42309502 18.66716029 -240.80078125 22.953125 C-232.76711786 25.01360074 -223.90749603 21.55269239 -216.07501221 19.59289551 C-145.54602187 2.09205527 -72.37108512 -1.13215542 0 0 Z " fill="#000000" transform="translate(464.9375,382.3125)"/>
<path d="M0 0 C0.79543213 0.49185791 1.59086426 0.98371582 2.41040039 1.49047852 C12.9279893 8.15422517 12.9279893 8.15422517 14.31640625 12.78515625 C14.2059812 16.05243864 13.87709029 18.37151619 12.1875 21.1875 C8.68140098 23.29115941 5.62310131 23.3862666 1.6875 22.6875 C-1.75623791 21.11932957 -4.80626936 19.05082086 -7.9375 16.9375 C-9.80301025 15.73365182 -11.67159928 14.53456348 -13.54296875 13.33984375 C-14.4973584 12.72866699 -15.45174805 12.11749023 -16.43505859 11.48779297 C-67.51332024 -20.46970757 -127.82865312 -35.80164895 -187.3125 -41.3125 C-188.33029541 -41.41038818 -189.34809082 -41.50827637 -190.39672852 -41.60913086 C-201.95605579 -42.58672466 -213.5325426 -42.50491701 -225.125 -42.5 C-226.21189117 -42.50172211 -227.29878235 -42.50344421 -228.41860962 -42.50521851 C-241.80336586 -42.51868095 -255.08304828 -42.44155878 -268.3840332 -40.76049805 C-273.62572451 -40.14785843 -276.73299303 -40.23541803 -281.3125 -43.3125 C-283.31477445 -45.83710691 -283.32248065 -47.07296431 -283.1875 -50.3125 C-282.11016678 -54.00621391 -281.53296021 -55.16552653 -278.3125 -57.3125 C-269.75888568 -59.60303228 -260.79753973 -59.93329985 -252 -60.4375 C-250.94096466 -60.50003967 -250.94096466 -60.50003967 -249.86053467 -60.56384277 C-162.67871542 -65.65507445 -74.46583447 -46.30917406 0 0 Z " fill="#000000" transform="translate(298.3125,473.3125)"/>
<path d="M0 0 C3.29665652 0.01070106 6.59276428 0.00003775 9.8894043 -0.01269531 C29.42645511 -0.02612047 48.91089383 1.12879679 68.24682617 4.01074219 C69.39183594 4.17920654 70.5368457 4.3476709 71.71655273 4.52124023 C106.28790019 9.7952736 141.35195431 18.50493906 173.12182617 33.44824219 C174.07992187 33.87447876 174.07992187 33.87447876 175.05737305 34.30932617 C178.49311089 36.03738584 179.46850869 37.19309488 180.97338867 40.78808594 C181.61066472 45.01598452 180.83930257 46.74702759 178.49682617 50.26074219 C174.43680609 52.29075223 169.50228097 51.88633279 165.24438477 50.55810547 C162.8562533 49.54371025 160.52176261 48.44949295 158.18432617 47.32324219 C120.02743233 30.02687644 77.96304468 22.77538523 36.49682617 19.26074219 C35.68342773 19.18871582 34.8700293 19.11668945 34.03198242 19.04248047 C14.93801406 17.4153498 -4.82755262 17.361811 -23.93676758 18.81542969 C-24.60311722 18.86610092 -25.26946686 18.91677216 -25.95600891 18.96897888 C-29.10506341 19.21703408 -32.24800693 19.4978218 -35.39111328 19.81274414 C-45.92422836 20.75908762 -45.92422836 20.75908762 -50.50317383 17.26074219 C-52.41467052 13.20836919 -52.81585525 11.23557251 -51.44067383 6.94824219 C-48.90130951 3.42589813 -46.71744561 2.62555505 -42.4515686 1.92272949 C-39.90491142 1.61168638 -37.36026772 1.36953142 -34.80395508 1.15136719 C-33.8407283 1.067276 -32.87750153 0.98318481 -31.88508606 0.89654541 C-21.26146515 0.04864304 -10.65222341 -0.04090655 0 0 Z " fill="#000000" transform="translate(67.503173828125,444.7392578125)"/>
<path d="M0 0 C2.55861682 1.97243216 5.01678045 4.02038971 7.4609375 6.1328125 C8.40066406 6.92945313 9.34039062 7.72609375 10.30859375 8.546875 C16.9985062 14.62519207 16.9985062 14.62519207 18.2265625 18.62890625 C18.39573399 22.30838606 17.82280765 24.51461766 15.9609375 27.6953125 C13.19321565 29.28675256 10.93192089 30.06422341 7.7109375 29.8984375 C3.60871605 28.5025427 1.16685141 25.11558466 -1.71484375 22 C-15.31524358 7.67508834 -36.45344158 -1.45238655 -56.03125 -2.10546875 C-78.14651915 -2.4941866 -98.13043216 1.17729354 -115.5390625 15.6328125 C-119.05185845 18.54216684 -121.88534931 20.8172474 -126.6015625 21.0703125 C-129.73125337 20.66184182 -130.57001958 20.10714078 -133.1015625 18.0078125 C-134.84170478 14.52752795 -135.30619852 12.96849261 -134.5390625 9.1328125 C-124.76381485 -6.27060803 -102.71349209 -13.8955039 -85.84375 -18.140625 C-55.65971831 -24.77683055 -24.73978487 -18.19325718 0 0 Z " fill="#000000" transform="translate(478.5390625,211.8671875)"/>
<path d="M0 0 C8.34468007 4.97590182 13.53387008 11.86345977 16.109375 21.2578125 C17.10789012 32.35758522 16.45884702 41.9922991 9.359375 51.0703125 C3.70168013 57.1280464 -3.34488592 60.84888618 -11.625 61.59375 C-22.24007794 61.83258597 -31.18444828 60.63001931 -39.2890625 53.1015625 C-47.32833275 43.84659773 -48.61982016 35.03008751 -48.06982422 23.20654297 C-47.37894187 15.69343275 -43.42276801 9.23166585 -37.890625 4.2578125 C-27.15195714 -3.81766573 -12.32399863 -5.91386512 0 0 Z M-29.265625 20.8828125 C-31.46970393 25.46051489 -31.6877889 29.26333661 -30.890625 34.2578125 C-28.56093569 39.09639798 -25.72921048 41.92812319 -20.890625 44.2578125 C-15.89614911 45.0549764 -12.09332739 44.83689143 -7.515625 42.6328125 C-3.93154787 39.39007605 -1.29527259 36.79305354 -0.5078125 31.859375 C-0.25178581 26.17558256 -0.95435568 22.60842595 -4.890625 18.2578125 C-9.24123845 14.32154318 -12.80839506 13.61897331 -18.4921875 13.875 C-23.42586604 14.66246009 -26.02288855 17.29873537 -29.265625 20.8828125 Z " fill="#000000" transform="translate(431.890625,266.7421875)"/>
<path d="M0 0 C1.09596497 -0.00006042 2.19192993 -0.00012085 3.32110596 -0.00018311 C58.30944625 0.04295602 58.30944625 0.04295602 66.125 6.4375 C67.62803004 9.74416609 67.97360081 11.59589515 67.375 15.1875 C65.703125 17.84765625 65.703125 17.84765625 63.375 20.1875 C57.28584957 21.49101574 50.38471673 20.30269333 44.19824219 19.71606445 C29.56024066 18.33119096 15.07315036 17.86837224 0.375 17.9375 C-0.72631256 17.93927246 -1.82762512 17.94104492 -2.96231079 17.94287109 C-18.9857486 17.97297429 -34.8847275 18.46997196 -50.85546875 19.75 C-55.98176358 20.11556552 -61.10073686 20.38299536 -66.23828125 20.5 C-67.55223877 20.53738281 -68.86619629 20.57476562 -70.2199707 20.61328125 C-73.625 20.1875 -73.625 20.1875 -76.02807617 18.31640625 C-77.93895458 15.7689579 -78.54900159 14.37943316 -78.625 11.1875 C-77.40461153 7.72973266 -76.69334406 5.72207328 -73.34985352 4.04907227 C-70.54027785 3.16071168 -68.08808669 2.7998827 -65.15234375 2.58984375 C-64.08564453 2.51056641 -63.01894531 2.43128906 -61.91992188 2.34960938 C-60.25799805 2.23842773 -60.25799805 2.23842773 -58.5625 2.125 C-57.51255859 2.04701172 -56.46261719 1.96902344 -55.38085938 1.88867188 C-51.79672861 1.63129513 -48.21178145 1.40490105 -44.625 1.1875 C-43.5492572 1.1207457 -43.5492572 1.1207457 -42.45178223 1.05264282 C-28.3000142 0.19269366 -14.17570716 -0.0120585 0 0 Z " fill="#000000" transform="translate(93.625,475.8125)"/>
<path d="M0 0 C1.23168411 0.0662709 1.23168411 0.0662709 2.48825073 0.13388062 C13.05241826 0.71441101 23.60223808 1.38191178 34.125 2.5 C35.12781006 2.59321533 36.13062012 2.68643066 37.16381836 2.7824707 C41.65627242 3.31752171 44.01609872 3.76861521 47.67578125 6.57421875 C49.5625 9.1875 49.5625 9.1875 50.1875 12.6875 C49.5625 16.1875 49.5625 16.1875 47.625 19.125 C41.36441374 23.34131319 32.29810236 20.89883035 25.11454773 20.11720276 C10.85924094 18.57692182 -3.24503719 17.93262539 -17.58203125 18.03515625 C-18.42835995 18.04071911 -19.27468864 18.04628197 -20.14666367 18.0520134 C-27.07430913 18.10293978 -34.00138505 18.19084758 -40.92852783 18.28729248 C-46.17658768 18.35968197 -51.4243101 18.41635531 -56.67276573 18.45019341 C-59.0951626 18.4722076 -61.51639312 18.5175506 -63.93843079 18.56373596 C-65.40791948 18.5750565 -66.87741779 18.58520897 -68.34692383 18.59399414 C-70.26279045 18.62089073 -70.26279045 18.62089073 -72.21736145 18.64833069 C-76.01790378 18.10443902 -77.14475755 17.20066458 -79.4375 14.1875 C-80.77123886 10.80869489 -80.53294312 9.45792217 -79.3125 6 C-77.09626421 2.67564631 -76.20108295 2.30937686 -72.4375 1.1875 C-69.66875283 0.88845468 -66.97499477 0.67754204 -64.19921875 0.5546875 C-63.40079056 0.51312531 -62.60236237 0.47156311 -61.77973938 0.42874146 C-60.087983 0.34243544 -58.39600806 0.2603247 -56.70385742 0.18212891 C-54.17112889 0.06463984 -51.63937037 -0.06607553 -49.10742188 -0.19921875 C-32.6896093 -1.03290001 -16.41049348 -0.88513071 0 0 Z " fill="#000000" transform="translate(95.4375,381.8125)"/>
<path d="M0 0 C2.5 1.5 2.5 1.5 4 4 C4.791013 8.02098277 4.62153384 10.96411027 2.5 14.5 C-1.03588973 16.62153384 -3.97901723 16.791013 -8 16 C-10.5 14.5 -10.5 14.5 -12 12 C-12.791013 7.97901723 -12.62153384 5.03588973 -10.5 1.5 C-6.96411027 -0.62153384 -4.02098277 -0.791013 0 0 Z " fill="#000000" transform="translate(252,312)"/>
</svg>
