<?xml version="1.0" encoding="UTF-8"?>
<svg version="1.1" xmlns="http://www.w3.org/2000/svg" width="512" height="512">
<path d="M0 0 C8.42696794 6.86962273 12.8730706 16.13331181 14.5625 26.6875 C15.38409074 36.72139537 12.35966527 44.66917025 7.75 53.375 C8.81436279 53.3843457 9.87872559 53.39369141 10.9753418 53.40332031 C14.93604911 53.44328657 18.89598507 53.50906299 22.85620117 53.58251953 C24.5680142 53.61069086 26.27995637 53.63192452 27.99194336 53.64599609 C30.45753919 53.66747965 32.92158861 53.71415416 35.38671875 53.765625 C36.14836838 53.76685364 36.91001801 53.76808228 37.69474792 53.76934814 C42.64163745 53.90475905 45.29661135 54.80120264 48.75 58.375 C49.37890625 60.375 49.37890625 60.375 49.3125 62.375 C49.31378906 63.035 49.31507813 63.695 49.31640625 64.375 C48.43767338 67.47783606 47.38881354 68.46042672 44.75 70.375 C41.26574377 70.94415818 37.81889963 70.8394039 34.296875 70.765625 C33.28151672 70.75996521 32.26615845 70.75430542 31.22003174 70.74847412 C27.97953999 70.72609753 24.7401571 70.67589755 21.5 70.625 C19.30209931 70.60493671 17.10418128 70.58668565 14.90625 70.5703125 C9.5204555 70.52622871 4.13530697 70.45930373 -1.25 70.375 C-1.24886084 70.92786517 -1.24772168 71.48073034 -1.246548 72.050349 C-1.17944699 104.8010518 -1.12795715 137.55173739 -1.09680401 170.3024935 C-1.09305179 174.23291245 -1.08916883 178.16333126 -1.08520508 182.09375 C-1.08441815 182.87624183 -1.08363122 183.65873366 -1.08282044 184.46493736 C-1.0697584 197.14311511 -1.04610017 209.82125214 -1.01854161 222.49940571 C-0.9905096 235.50360519 -0.97382842 248.50778331 -0.96773452 261.51201177 C-0.96361349 269.53950455 -0.95058696 277.56688227 -0.9262506 285.59433964 C-0.90855211 291.74471217 -0.9066288 297.89499656 -0.91067696 304.04539108 C-0.90984907 306.572208 -0.90384805 309.09902912 -0.89238358 311.62582016 C-0.87753336 315.0665257 -0.88101933 318.50673247 -0.88923645 321.94744873 C-0.88049793 322.95522582 -0.8717594 323.96300291 -0.86275607 325.00131869 C-0.86872922 325.92193253 -0.87470236 326.84254636 -0.88085651 327.79105759 C-0.87971735 328.58543252 -0.87857819 329.37980745 -0.87740451 330.19825435 C-1.35383688 332.98162696 -2.31506483 334.33902572 -4.25 336.375 C-7.625 337.375 -7.625 337.375 -11.25 337.375 C-14.05189446 335.60858828 -15.76524911 334.34450178 -17.25 331.375 C-17.34300006 329.92624768 -17.37373847 328.47326995 -17.37304783 327.02153587 C-17.37503888 326.10142074 -17.37702993 325.18130561 -17.37908131 324.2333082 C-17.37616847 323.21581448 -17.37325563 322.19832076 -17.37025452 321.1499939 C-17.37110894 320.07431078 -17.37196337 318.99862766 -17.37284368 317.89034808 C-17.37449949 314.26200583 -17.36897544 310.63370913 -17.36352539 307.00537109 C-17.36324351 304.41397604 -17.36340126 301.82258092 -17.3639679 299.23118591 C-17.36449301 293.63978981 -17.36134754 288.04840535 -17.35573006 282.45701218 C-17.34761333 274.37273287 -17.34499966 266.2884592 -17.34374207 258.20417626 C-17.34155182 245.08891379 -17.33489247 231.97365753 -17.32543945 218.85839844 C-17.31626463 206.11588573 -17.30918414 193.37337471 -17.30493164 180.63085938 C-17.30466892 179.84580499 -17.30440619 179.0607506 -17.30413551 178.25190668 C-17.3028305 174.31363722 -17.30156678 170.37536775 -17.30032361 166.43709826 C-17.28995184 133.74972761 -17.27226008 101.06236474 -17.25 68.375 C-21.54 68.375 -25.83 68.375 -30.25 68.375 C-30.25 197.735 -30.25 327.095 -30.25 460.375 C-25.96 460.375 -21.67 460.375 -17.25 460.375 C-17.26110306 459.14582352 -17.27220612 457.91664703 -17.28364563 456.65022278 C-17.38497405 445.07025593 -17.45994278 433.49037895 -17.50906086 421.91006947 C-17.53516194 415.95637864 -17.57057029 410.0030455 -17.62719727 404.04956055 C-17.68149735 398.3048062 -17.71141668 392.56039605 -17.72438622 386.81540489 C-17.73362958 384.62289701 -17.75167971 382.43040812 -17.77865028 380.23804665 C-17.81491304 377.16845521 -17.81994638 374.10028852 -17.81762695 371.03051758 C-17.83560333 370.12277084 -17.85357971 369.21502411 -17.87210083 368.2797699 C-17.83576342 363.83957754 -17.68648621 361.95406639 -14.93717957 358.3066864 C-12.25 356.375 -12.25 356.375 -8.6875 355.8125 C-4.60548746 356.48046569 -3.66176158 357.06777595 -1.25 360.375 C-0.9008995 363.2646512 -0.7818438 365.7609271 -0.859375 368.640625 C-0.86503479 369.43402283 -0.87069458 370.22742065 -0.87652588 371.04486084 C-0.89886853 373.57219473 -0.94905824 376.09809665 -1 378.625 C-1.02006786 380.34112532 -1.03831813 382.05727292 -1.0546875 383.7734375 C-1.09872605 387.9745078 -1.16773674 392.17451135 -1.25 396.375 C-0.1095586 396.37131283 1.0308828 396.36762566 2.20588303 396.36382675 C29.93001364 396.27510648 57.65412589 396.20933407 85.37836838 396.16775131 C88.04521443 396.16364525 90.7120604 396.15950653 93.37890625 396.15527344 C94.04177349 396.1542242 94.70464073 396.15317495 95.38759485 396.15209392 C106.12583845 396.13468058 116.86399655 396.10313782 127.60218939 396.06638882 C138.61756529 396.02900514 149.63289391 396.0070691 160.64832997 395.99864602 C166.83683366 395.99342238 173.02514329 395.98110955 179.2135849 395.95207977 C185.03461206 395.92499394 190.85536464 395.91654123 196.67644882 395.92256927 C198.81625992 395.92146598 200.95607991 395.91347171 203.09583664 395.8981781 C206.01123291 395.87835733 208.92558437 395.88303205 211.84100342 395.89398193 C212.69314257 395.88233057 213.54528173 395.8706792 214.42324328 395.85867476 C218.09105683 395.89606373 220.27244865 396.01662153 223.25212479 398.25271988 C225.02136661 400.75948861 225.60040646 402.30833243 225.75 405.375 C225.04484248 408.13152486 224.53968572 409.79110735 222.22240829 411.50449944 C218.49242334 412.81777525 214.78536341 412.64233777 210.87896729 412.61550903 C209.52014313 412.61807231 209.52014313 412.61807231 208.13386798 412.62068737 C205.09209507 412.62398708 202.05054173 412.61297057 199.00878906 412.60205078 C196.83088689 412.60148677 194.65298434 412.60180303 192.4750824 412.60293579 C186.55605337 412.6035107 180.63710506 412.59173393 174.71809483 412.57778788 C168.53478464 412.56530362 162.3514727 412.56411184 156.16815186 412.56173706 C144.45620679 412.55551551 132.74429897 412.53909555 121.03237033 412.51903808 C107.7000089 412.49653987 94.36764732 412.48569094 81.03527117 412.47564721 C53.60682203 412.45472992 26.17842395 412.41804524 -1.25 412.375 C-1.25 428.215 -1.25 444.055 -1.25 460.375 C4.03 460.375 9.31 460.375 14.75 460.375 C22.36142294 462.72420461 27.77186983 466.61361255 32.03515625 473.4296875 C35.78049598 480.54449057 37.16225897 488.50356111 35.25390625 496.4375 C33.62912961 500.69680148 31.59412229 503.02746941 27.75 505.375 C24.43517503 505.96024305 21.16573559 505.92159605 17.80664062 505.89257812 C16.80932419 505.8995874 15.81200775 505.90659668 14.7844696 505.91381836 C11.49144559 505.93140756 8.1992826 505.91977183 4.90625 505.90625 C2.61608719 505.90894463 0.3259255 505.91282682 -1.9642334 505.91784668 C-6.76256204 505.923743 -11.56059272 505.91517412 -16.35888672 505.89648438 C-22.50943469 505.87369515 -28.65928447 505.88681745 -34.80980682 505.91077423 C-39.53844463 505.92522834 -44.2669169 505.92062791 -48.99555969 505.91026306 C-51.26337263 505.90759472 -53.53120059 505.91086927 -55.79899597 505.92018127 C-58.9686158 505.93034008 -62.137105 505.91485406 -65.30664062 505.89257812 C-66.24393509 505.90067505 -67.18122955 505.90877197 -68.14692688 505.91711426 C-72.38263139 505.86196538 -74.63957588 505.76108168 -78.2911377 503.45153809 C-83.42001061 498.01455564 -82.80848646 491.74845941 -82.62109375 484.65625 C-82.14674892 476.9316879 -78.94085713 471.66767314 -73.375 466.4375 C-64.83066391 459.1623017 -57.75552116 460.375 -46.25 460.375 C-46.25 328.375 -46.25 196.375 -46.25 60.375 C-47.57 59.715 -48.89 59.055 -50.25 58.375 C-58.02972635 50.61233446 -61.4081721 41.74733254 -61.75 30.875 C-61.40230969 19.45916817 -57.56661484 10.78079058 -49.58984375 2.69140625 C-35.88173724 -9.83012156 -15.20190678 -10.19251654 0 0 Z M-41.125 17.375 C-45.46625572 23.50383161 -46.06671183 29.01425541 -45.25 36.375 C-43.48376312 42.55154094 -39.57662991 46.89774056 -34.25 50.375 C-28.44417738 53.14509837 -22.16911238 53.49570508 -15.96875 51.72265625 C-9.72450282 48.92475318 -4.78517036 43.75307566 -2.25 37.375 C-1.3530208 30.23693392 -1.35551198 23.92949667 -5.75390625 18.0234375 C-9.80456047 13.56031458 -14.0649356 9.77523957 -20.203125 9.00390625 C-29.50857786 8.81647414 -34.89370818 10.42332763 -41.125 17.375 Z M-64.1875 480.0625 C-66.86665153 483.71502592 -66.86665153 483.71502592 -66.25 490.375 C-37.87 490.375 -9.49 490.375 19.75 490.375 C18.76619587 483.4883711 18.49552796 481.9096156 13.75 477.375 C9.56067529 475.64206897 6.00100767 475.12294036 1.48852539 475.11621094 C0.2702858 475.10990662 -0.9479538 475.10360229 -2.20310974 475.09710693 C-3.50635696 475.1011554 -4.80960419 475.10520386 -6.15234375 475.109375 C-7.51705494 475.10802582 -8.88176566 475.10608319 -10.24647522 475.10357666 C-13.10015459 475.10063627 -15.95370834 475.10488725 -18.80737305 475.11425781 C-22.4498723 475.12564094 -26.09207639 475.11909337 -29.73456478 475.10711288 C-32.55113411 475.09985557 -35.3676345 475.10220009 -38.18420601 475.10736847 C-40.17545388 475.10933608 -42.16670452 475.10330223 -44.15794373 475.09710693 C-55.04875235 474.91052608 -55.04875235 474.91052608 -64.1875 480.0625 Z " fill="#000000" transform="translate(82.25,6.625)"/>
<path d="M0 0 C1.81651683 -0.00668677 1.81651683 -0.00668677 3.66973096 -0.01350862 C5.02056715 -0.01341932 6.37140333 -0.01322946 7.72223949 -0.01294994 C9.15185925 -0.01624862 10.58147807 -0.0199742 12.0110957 -0.02409142 C15.9490815 -0.03411888 19.88705205 -0.0378294 23.8250488 -0.04048073 C28.06851086 -0.0443815 32.31196081 -0.0539599 36.55541515 -0.0626936 C46.80715227 -0.08246303 57.05889038 -0.0925242 67.3106418 -0.10142139 C72.13594377 -0.10580295 76.96124465 -0.11117005 81.78654575 -0.11641026 C97.82218002 -0.13342197 113.8578136 -0.14791728 129.89345551 -0.155159 C134.05547429 -0.15706895 138.21749307 -0.15898927 142.37951183 -0.16094494 C143.93122127 -0.16167055 143.93122127 -0.16167055 145.51427837 -0.16241082 C162.28100475 -0.17071537 179.04765987 -0.19605972 195.81435511 -0.22852562 C213.02004931 -0.26157059 230.22570727 -0.27960538 247.43143338 -0.28280324 C257.09524019 -0.28497056 266.75894307 -0.29375185 276.422719 -0.31926441 C284.65079318 -0.34093633 292.87873818 -0.34903912 301.10683767 -0.33929763 C305.30608038 -0.33474289 309.50505635 -0.33670701 313.70426273 -0.35605907 C317.54793813 -0.37362 321.39115081 -0.3727511 325.23483064 -0.35716178 C326.62582661 -0.35477491 328.01685403 -0.35916501 329.40780178 -0.37099043 C342.41014192 -0.47469169 342.41014192 -0.47469169 347.22838879 4.13422108 C350.21182644 7.40195331 350.60532104 9.56023656 350.61429214 13.94799995 C350.62396548 15.14296854 350.63363882 16.33793713 350.64360529 17.56911689 C350.63895949 18.883395 350.63431368 20.19767312 350.62952709 21.55177784 C350.63513067 22.96092852 350.64203249 24.37007454 350.65012306 25.77921313 C350.66850616 29.65605303 350.66807295 33.53269915 350.66453993 37.40957272 C350.66392864 41.58898336 350.68047728 45.76833133 350.69471264 49.9477129 C350.71965014 58.13778702 350.72787798 66.32779637 350.72954977 74.51790527 C350.73097447 81.17441515 350.73713475 87.83090362 350.74665165 94.48740673 C350.77307676 113.35376007 350.786909 132.22006218 350.78466023 151.08643416 C350.78454036 152.10388597 350.78442049 153.12133778 350.78429699 154.16962147 C350.78417435 155.18831354 350.78405171 156.20700561 350.78392535 157.25656714 C350.78270591 173.76718066 350.81141427 190.27758893 350.85371209 206.78814308 C350.89678585 223.73511414 350.9175236 240.68198508 350.91493076 257.62901229 C350.9139342 267.14588502 350.92220314 276.66254263 350.95446491 286.17936611 C350.98175717 294.28228388 350.98832496 302.38488903 350.96793664 310.48783282 C350.95812873 314.62251577 350.95801271 318.75659868 350.98399639 322.89122486 C351.00754404 326.67714807 351.00334986 330.46199393 350.977144 334.24789032 C350.97034289 336.26465722 350.99306479 338.28145709 351.01686293 340.29809505 C350.94095566 346.91581652 350.61612597 351.19888213 345.80778164 355.99041861 C342.23625007 358.57693571 338.65344568 358.26690311 334.40944958 358.2813921 C333.71212668 358.28506879 333.01480378 358.28874547 332.29634988 358.29253358 C329.95419006 358.3035676 327.61207461 358.30741373 325.26989269 358.31122303 C323.5928537 358.31748777 321.9158161 358.32413458 320.23878002 358.33113575 C315.67885485 358.34854149 311.11894015 358.35909585 306.55899 358.36734128 C303.71110032 358.37249121 300.86321389 358.37856687 298.0153265 358.38485241 C289.10767529 358.40390132 280.20003238 358.4181344 271.29236472 358.42646438 C261.00441561 358.43624372 250.71668126 358.46258265 240.42880785 358.50296527 C232.47968855 358.53309905 224.53063092 358.54793055 216.58145559 358.55124539 C211.83215552 358.55359854 207.08308498 358.56259356 202.33384609 358.58770657 C197.86701649 358.61094521 193.40056822 358.61523759 188.93369389 358.60494518 C187.29419532 358.60444872 185.65467825 358.61080157 184.01523685 358.62450123 C181.77679724 358.64216011 179.53973521 358.63514519 177.30129528 358.62196827 C176.0487879 358.62435662 174.79628052 358.62674498 173.50581837 358.6292057 C169.63391497 358.04443871 167.97438009 356.87376225 165.22838879 354.13422108 C164.56432629 352.13422108 164.56432629 352.13422108 164.60338879 350.13422108 C164.59049816 349.47422108 164.57760754 348.81422108 164.56432629 348.13422108 C165.60713397 344.99352971 167.5059752 343.93179547 170.22838879 342.13422108 C173.40487671 341.64202976 173.40487671 341.64202976 177.05573559 341.65320301 C177.72809246 341.64977894 178.40044933 341.64635487 179.09318066 341.64282703 C181.3461239 341.63622262 183.5978693 341.65826926 185.85070324 341.68011951 C187.49333025 341.68134519 189.13595937 341.6808103 190.77858543 341.67865849 C195.17497383 341.67775595 199.57092617 341.70092797 203.96721172 341.72910023 C208.0934692 341.75189107 212.21962097 341.75295327 216.3459425 341.75580311 C228.41098228 341.77678702 240.47594105 341.83263172 252.54088879 341.88422108 C279.49776379 341.96672108 306.45463879 342.04922108 334.22838879 342.13422108 C334.22838879 234.55422108 334.22838879 126.97422108 334.22838879 16.13422108 C297.37409191 16.18642811 297.37409191 16.18642811 259.77526379 16.23968983 C244.25312774 16.25500998 228.73099632 16.26959337 213.20885754 16.28070545 C205.05830397 16.28657934 196.90775057 16.29264086 188.75719738 16.299016 C187.73561555 16.29980725 186.71403371 16.30059849 185.66149485 16.30141371 C169.15476525 16.31447241 152.6480669 16.33812979 136.14135584 16.36567947 C119.20923267 16.3937041 102.27712589 16.4103911 85.34498048 16.41648656 C74.8914516 16.42060912 64.43801102 16.43364397 53.98450932 16.45797048 C46.82249483 16.47379137 39.66052619 16.47862973 32.49849549 16.47472521 C28.36234508 16.47279796 24.2263493 16.47581484 20.09022617 16.4918375 C16.30643632 16.50638873 12.52290572 16.5072048 8.73910418 16.49691776 C6.71596916 16.4950411 4.69283739 16.50802268 2.66974616 16.521465 C1.47394408 16.51549186 0.27814199 16.50951871 -0.95389652 16.50336456 C-1.9882547 16.50450372 -3.02261288 16.50564288 -4.08831525 16.50681657 C-7.20150064 16.07452775 -8.55614088 15.34038434 -10.77161121 13.13422108 C-11.86648991 9.19265775 -12.16576913 7.04078429 -10.52161121 3.25922108 C-7.55433738 -0.34389715 -4.38760716 0.0074759 0 0 Z " fill="#000000" transform="translate(161.77161121368408,60.86577892303467)"/>
<path d="M0 0 C6.08794154 1.96052355 9.35788565 6.71821621 12.328125 12.234375 C15.55656549 16.27527071 18.9321312 17.20016929 23.75 18.75 C32.00171823 21.43099304 32.00171823 21.43099304 34.80859375 24.52734375 C35.94488919 27.96653128 35.78713079 29.73341781 34.6875 33.1875 C33.25514815 35.13494761 31.74650422 37.02738265 30.1875 38.875 C25.28263788 45.18435889 24.73261283 50.89177805 24.84960938 58.73901367 C24.93371507 64.71361015 24.93371507 64.71361015 23.390625 67.68359375 C21.17535625 69.63973703 19.0990028 70.11665692 16.1875 70.37890625 C12.99798485 70.134709 10.33112404 69.17511096 7.3125 68.125 C-0.21749037 65.58591866 -5.18596087 66.61941513 -12.4375 69.375 C-16.5356469 70.53317195 -19.1458636 70.14377721 -23.3125 69.1875 C-25.37804134 67.40171595 -26.23221857 66.02769977 -26.49389648 63.2890625 C-26.50880393 60.94153256 -26.47249635 58.5972881 -26.4375 56.25 C-26.55182487 47.43101335 -28.646567 42.62703135 -34.28125 35.94921875 C-36.57674813 32.82822418 -37.27167835 31.05024852 -37.3125 27.1875 C-36.4140625 24.50390625 -36.4140625 24.50390625 -34.3125 22.1875 C-31.53202761 20.86688914 -28.62514931 20.02843549 -25.6875 19.125 C-17.47422366 16.3171259 -13.65086382 13.33694586 -9.0390625 5.859375 C-6.47944416 1.89833666 -4.75390645 0.26908904 0 0 Z M-1.3125 22.1875 C-2.17907116 23.28195838 -3.03042724 24.38847781 -3.875 25.5 C-7.23973934 29.54423658 -10.32006576 30.72420031 -15.3125 32.1875 C-14.73957589 34.7711674 -14.12517769 36.52311914 -12.8125 38.875 C-10.95192306 42.98377409 -10.59994458 46.72715304 -10.3125 51.1875 C-9.3534375 50.94 -9.3534375 50.94 -8.375 50.6875 C-2.68115509 49.75789267 3.07690676 49.73960497 8.6875 51.1875 C8.71328125 50.53523438 8.7390625 49.88296875 8.765625 49.2109375 C9.15530793 43.20627775 10.08029225 39.95832316 13.6875 35.1875 C13.6875 34.1975 13.6875 33.2075 13.6875 32.1875 C13.09582031 31.96835938 12.50414062 31.74921875 11.89453125 31.5234375 C6.23880882 29.25376749 3.26400917 27.10520011 -0.3125 22.1875 C-0.6425 22.1875 -0.9725 22.1875 -1.3125 22.1875 Z " fill="#000000" transform="translate(405.3125,204.8125)"/>
<path d="M0 0 C3.65781614 0 4.76503038 0.53197176 7.4921875 3.0625 C10.30874451 6.53471454 13.02757584 10.02503103 15.2265625 13.92578125 C18.52233925 17.31593046 23.39775732 18.07156746 27.83984375 19.37304688 C31.41402191 20.50972225 33.53755161 21.23837333 36.09375 24.06640625 C37.25849591 27.51545986 37.05939174 29.26724966 36 32.75 C34.1875 35.92578125 34.1875 35.92578125 32 39.0625 C31.278125 40.11050781 30.55625 41.15851563 29.8125 42.23828125 C28 44.75 28 44.75 27 45.75 C26.90388524 47.10678282 26.86803841 48.46796964 26.859375 49.828125 C26.84003906 50.65957031 26.82070312 51.49101562 26.80078125 52.34765625 C26.76723057 54.10003407 26.74872148 55.85277175 26.74609375 57.60546875 C26.619239 61.93855979 26.37605866 64.19566167 23.890625 67.859375 C20.21565889 70.26300148 18.3289754 70.29464333 14 69.75 C11.77160374 69.06189664 9.56228066 68.30934507 7.375 67.5 C0.51782245 65.39684011 -3.54566434 66.23475875 -10.15234375 68.69921875 C-13.87414281 70.0725575 -16.10320423 70.48064921 -20 69.75 C-22.72391369 67.74395522 -24.73881868 66.18858948 -25.36572266 62.7355957 C-25.42937057 60.35811313 -25.38508595 58.00213135 -25.3125 55.625 C-25.36966302 46.40768218 -27.81169242 41.64698902 -34 34.75 C-35.66410093 31.98336781 -36.01247323 31.04935762 -35.875 27.75 C-34.83615104 24.18823213 -33.87038869 23.07073979 -31 20.75 C-28.66830583 20.04577845 -26.3093041 19.4293203 -23.9375 18.875 C-14.4471663 16.2616188 -10.22518515 9.63940998 -5 1.75 C-3.4810506 0.2310506 -2.11352495 0.24951336 0 0 Z M0 21.75 C-0.639375 22.8225 -1.27875 23.895 -1.9375 25 C-5.19089229 29.74533255 -9.67834504 31.08633699 -15 32.75 C-14.65066406 33.29527344 -14.30132812 33.84054687 -13.94140625 34.40234375 C-10.56295447 40.00119443 -9.31092785 44.22051512 -9 50.75 C-7.69675781 50.62431641 -7.69675781 50.62431641 -6.3671875 50.49609375 C-4.63855469 50.34333984 -4.63855469 50.34333984 -2.875 50.1875 C-1.16957031 50.03087891 -1.16957031 50.03087891 0.5703125 49.87109375 C3.88897993 49.75391984 6.7562686 50.0844928 10 50.75 C10.09796875 49.95335937 10.1959375 49.15671875 10.296875 48.3359375 C11.17364593 42.12295727 11.94805192 37.61233769 16 32.75 C15.33613281 32.54246094 14.67226562 32.33492188 13.98828125 32.12109375 C7.4032711 29.82355006 4.5653023 27.73050708 1 21.75 C0.67 21.75 0.34 21.75 0 21.75 Z " fill="#000000" transform="translate(210,283.25)"/>
<path d="M0 0 C3.36206221 2.14599716 5.36038973 3.87600652 7.3359375 7.34765625 C11.57042469 14.77481235 16.10612145 16.78175199 24.04614258 19.02319336 C29.51720186 20.58644036 29.51720186 20.58644036 32.015625 22.7265625 C33.46273441 26.06869613 33.46418874 28.39181023 33 32 C31.06640625 34.89453125 31.06640625 34.89453125 28.5625 37.8125 C23.76487933 43.90425184 23.039322 49.17956448 23.16235352 56.81958008 C23.23115695 61.43654509 23.14266226 64.47601052 20 68 C16.4237893 69.85639226 14.62322321 70.13370439 10.66796875 69.28515625 C8.94513672 68.67994141 8.94513672 68.67994141 7.1875 68.0625 C-0.15464635 65.78681904 -4.71756263 65.78042421 -12.00390625 67.85546875 C-20.36451795 70.20464676 -20.36451795 70.20464676 -24.6875 68.8125 C-27 67 -27 67 -28 65 C-28.19971553 61.73428131 -28.34481895 58.47554832 -28.4296875 55.20507812 C-28.75349015 47.98023151 -31.22429992 42.68894266 -35.6875 37 C-38.02771492 33.73758175 -38.97184546 32.1586892 -39.6875 28.125 C-38.85433214 24.33787337 -37.99962425 23.4122179 -35 21 C-33.16771789 20.35485873 -31.33113724 19.71623511 -29.46557617 19.17480469 C-20.42246685 16.52618642 -16.02014273 12.63232433 -10.91796875 4.828125 C-7.83936155 0.28859015 -5.3427357 -0.73331667 0 0 Z M-4 22 C-4.495 22.9075 -4.99 23.815 -5.5 24.75 C-8.3065306 29.30521505 -13.13315322 30.42106116 -18 32 C-16.79618552 34.49361571 -15.54571278 36.68143083 -14 39 C-13.5859375 41.48046875 -13.5859375 41.48046875 -13.375 44.1875 C-13.30023438 45.08855469 -13.22546875 45.98960937 -13.1484375 46.91796875 C-13.07496094 47.94857422 -13.07496094 47.94857422 -13 49 C-9.96210376 49.93948484 -7.80795392 49.96404196 -4.6875 49.4375 C-0.22212407 48.84605948 2.78817794 49.476575 7 51 C7.02578125 50.27554688 7.0515625 49.55109375 7.078125 48.8046875 C7.44454931 42.55881857 8.10657995 38.89817361 12 34 C12 33.34 12 32.68 12 32 C11.40832031 31.78085938 10.81664062 31.56171875 10.20703125 31.3359375 C4.52173233 29.05439829 1.65524362 26.87365816 -2 22 C-2.66 22 -3.32 22 -4 22 Z " fill="#000000" transform="translate(370,127)"/>
<path d="M0 0 C4.28020168 0.51657606 5.5132807 1.53682791 8.625 4.4375 C9.74664885 6.20543224 10.82857248 7.99903095 11.875 9.8125 C16.10467016 15.93288977 20.81892167 17.58855118 27.72167969 19.51123047 C30.76973861 20.36674184 33.20819836 21.0805883 35.63671875 23.16015625 C37.09917318 26.53015993 37.12129005 28.79543445 36.625 32.4375 C35.04224646 34.70103864 33.5000672 36.63638832 31.6875 38.6875 C26.40296273 45.20757187 25.57582512 50.76733054 25.82446289 59.04003906 C25.97155278 64.94579025 25.97155278 64.94579025 23.84375 67.96484375 C20.50688139 70.17963154 17.44485329 70.01606642 13.625 69.4375 C11.96984819 68.94708465 10.3239139 68.42471291 8.6875 67.875 C2.37352575 65.82198997 -2.61218751 66.59878906 -8.875 68.5 C-13.0176739 69.6096448 -17.11609819 70.20509277 -21.375 69.4375 C-23.82924046 67.51801377 -24.36430918 66.46957246 -25.375 63.4375 C-25.375 61.43603015 -25.37361854 59.43453907 -25.36157227 57.43310547 C-25.41649551 47.73665595 -27.43400621 42.74355355 -33.38671875 35.21484375 C-35.31101664 32.52687558 -36.08887874 31.12726244 -36.25 27.875 C-35.16147718 23.59866034 -34.01290367 22.83498638 -30.375 20.4375 C-27.97892432 19.70024594 -25.55884124 19.03844845 -23.125 18.4375 C-14.3012551 15.92718545 -11.15124374 10.98912862 -6.375 3.4375 C-4.08486006 0.67171561 -3.75269233 0.48646012 0 0 Z M-0.375 22.4375 C-1.27013282 23.50872452 -2.11683602 24.62071025 -2.9375 25.75 C-6.40060534 29.99509687 -10.15323299 31.2190877 -15.375 32.4375 C-14.85099609 33.11232422 -14.85099609 33.11232422 -14.31640625 33.80078125 C-10.25857762 39.53691861 -9.51549435 44.48941569 -9.375 51.4375 C-8.4675 51.086875 -7.56 50.73625 -6.625 50.375 C-1.26271404 48.79395486 4.16445466 49.77398546 9.625 50.4375 C9.72296875 49.72464844 9.8209375 49.01179688 9.921875 48.27734375 C10.88333561 42.11902277 12.16324107 37.63013839 15.625 32.4375 C14.94953125 32.21835937 14.2740625 31.99921875 13.578125 31.7734375 C7.51592075 29.61837645 4.70370079 28.08178478 1.625 22.4375 C0.965 22.4375 0.305 22.4375 -0.375 22.4375 Z " fill="#000000" transform="translate(288.375,320.5625)"/>
<path d="M0 0 C2.5 1.9375 2.5 1.9375 5 5 C5.61488281 5.74765625 6.22976562 6.4953125 6.86328125 7.265625 C12 13.64792084 12 13.64792084 12 16 C12.54527344 16.09796875 13.09054688 16.1959375 13.65234375 16.296875 C20.35529025 17.62600627 27.42612895 19.1233206 32.125 24.375 C33.25338711 27.76016134 32.90264906 29.54968725 32 33 C30.56978871 34.96929093 29.06102435 36.88269872 27.5 38.75 C22.76752902 44.86440716 22.04459833 50.19700849 22.25 57.81933594 C22.32165176 61.5077729 22.15361708 63.73161153 20.30078125 66.96875 C17.65555936 69.30409021 16.51195682 69.91784896 13 70 C9.765625 69.1875 9.765625 69.1875 6.25 68 C-3.15462706 65.17176148 -9.26029938 66.53375433 -18.421875 69.57421875 C-21.66767268 70.11026715 -23.15099631 69.60846069 -26 68 C-27.8046875 66.40234375 -27.8046875 66.40234375 -29 64 C-29.1436739 61.15238336 -29.16999028 58.40517537 -29.125 55.5625 C-29.24293747 46.97040858 -31.51961905 42.31513924 -36.96875 35.796875 C-39.20807066 32.71350271 -39.77934016 30.77223255 -40 27 C-38.98745688 23.96237063 -37.8632944 22.5154795 -35.109375 20.87109375 C-30.4537663 18.66537704 -25.94213936 17.40629832 -20.84765625 16.6875 C-18.85722535 16.1681197 -18.85722535 16.1681197 -17.99609375 14.29296875 C-17.66738281 13.53628906 -17.33867187 12.77960938 -17 12 C-15.69811624 10.08243371 -14.36204329 8.18781328 -13 6.3125 C-12.29875 5.33925781 -11.5975 4.36601562 -10.875 3.36328125 C-7.69524347 -0.64453688 -4.97986967 -0.50642742 0 0 Z M-4 21 C-4.84158536 22.26538369 -5.67299748 23.53753779 -6.5 24.8125 C-9.89827043 29.49548242 -13.46441501 30.8190752 -19 32 C-18.65066406 32.53367187 -18.30132812 33.06734375 -17.94140625 33.6171875 C-14.3919704 39.42901165 -13.1558892 44.21173403 -13 51 C-12.0925 50.649375 -11.185 50.29875 -10.25 49.9375 C-4.88771404 48.35645486 0.53945466 49.33648546 6 50 C6.061875 48.700625 6.12375 47.40125 6.1875 46.0625 C6.76059356 40.59206147 9.0714003 36.57120912 12 32 C11.33613281 31.79246094 10.67226562 31.58492187 9.98828125 31.37109375 C3.4032711 29.07355006 0.5653023 26.98050708 -3 21 C-3.33 21 -3.66 21 -4 21 Z " fill="#000000" transform="translate(214,127)"/>
<path d="M0 0 C3.35647635 0.67660195 5.0293461 2.77291148 6.9765625 5.3984375 C7.47800781 6.17316406 7.97945313 6.94789063 8.49609375 7.74609375 C13.72177793 15.29430423 19.00795089 17.50675954 27.46484375 20.14453125 C32.21854267 21.84190317 32.21854267 21.84190317 33.9765625 24.3984375 C34.72455161 27.76438847 34.89429086 29.1530629 33.9765625 32.3984375 C32.55530666 34.41959226 31.06742237 36.3945074 29.5390625 38.3359375 C24.93472304 44.23002023 24.0101894 49.07631062 24.13891602 56.48608398 C24.21522125 61.26618288 23.54234142 64.33905298 20.9765625 68.3984375 C17.9589575 69.90724 15.2510306 69.84168191 11.9765625 69.3984375 C9.88507255 68.69300742 7.80236103 67.9612856 5.7265625 67.2109375 C-1.121743 64.95186556 -5.44091699 65.88191464 -12.0234375 68.3984375 C-15.79219964 69.46918861 -19.08987742 69.74964822 -23.0234375 69.3984375 C-25.203125 67.87109375 -25.203125 67.87109375 -27.0234375 65.3984375 C-27.42448711 62.66083801 -27.6283466 60.26082313 -27.6484375 57.5234375 C-27.8312735 47.66857693 -30.57945033 42.27562993 -36.34375 34.3984375 C-38.27821865 30.94338652 -38.75762687 29.28653893 -38.0234375 25.3984375 C-34.55472576 20.74480324 -31.29573064 19.64833433 -25.7734375 18.3359375 C-16.92142327 15.87800376 -13.80549014 10.95925045 -9.0234375 3.3984375 C-6.37563582 0.14067103 -4.25330694 -0.20106542 0 0 Z M-3.0234375 22.3984375 C-3.94221981 23.46644878 -4.80952537 24.57910913 -5.6484375 25.7109375 C-8.97844027 29.78277257 -12.0320256 30.93543746 -17.0234375 32.3984375 C-16.3840625 33.3678125 -15.7446875 34.3371875 -15.0859375 35.3359375 C-12.94647921 39.02725638 -12.45333205 42.26218798 -12.19921875 46.48046875 C-12.13298032 48.48244792 -12.13298032 48.48244792 -11.0234375 50.3984375 C-10.0334375 50.1509375 -10.0334375 50.1509375 -9.0234375 49.8984375 C-3.21421797 48.93023425 2.22848185 49.24882137 7.9765625 50.3984375 C8.00234375 49.74617188 8.028125 49.09390625 8.0546875 48.421875 C8.44227447 42.44951208 9.32051121 39.11592304 12.9765625 34.3984375 C12.9765625 33.7384375 12.9765625 33.0784375 12.9765625 32.3984375 C12.30109375 32.09550781 11.625625 31.79257812 10.9296875 31.48046875 C5.7800989 29.06194809 2.26849458 27.19917178 -1.0234375 22.3984375 C-1.6834375 22.3984375 -2.3434375 22.3984375 -3.0234375 22.3984375 Z " fill="#000000" transform="translate(369.0234375,283.6015625)"/>
<path d="M0 0 C2.51171875 2.36328125 2.51171875 2.36328125 4.6875 5.3125 C9.78797859 12.09803901 13.12083789 15.40637823 21.125 18.0625 C28.73406677 20.60110015 28.73406677 20.60110015 31 24 C31.67368219 27.30716714 31.85792995 28.80547261 31 32 C29.58062175 34.02247376 28.09235863 35.99725072 26.5625 37.9375 C21.93423932 43.85310904 21.03465243 48.73799202 21.16235352 56.17553711 C21.23436443 60.70795753 20.84109809 63.40568056 18 67 C14.5932179 69.27118807 13.23866002 69.08068743 9.3125 68.49609375 C6.78293685 67.95343409 4.39310706 67.18729685 1.9375 66.375 C-4.34687576 64.42368698 -8.8801907 65.63421866 -15 67.625 C-19.35226049 68.96976237 -22.53605072 69.36651509 -27 68 C-29.01058713 66.20815731 -29.92591633 64.8288984 -30.16821289 62.11791992 C-30.16263075 60.61260353 -30.14277948 59.10729814 -30.11157227 57.60229492 C-29.92802108 48.33615618 -31.36532992 42.58704316 -37.49438477 35.54150391 C-39.71602449 32.97878256 -40.94526908 31.30121142 -41.55859375 27.92578125 C-40.83726871 24.14765222 -39.82228144 22.62196178 -37 20 C-34.40070603 18.8582277 -32.06966313 17.97473396 -29.375 17.1875 C-28.694375 16.97158203 -28.01375 16.75566406 -27.3125 16.53320312 C-22.38678075 15 -22.38678075 15 -20 15 C-19.73960937 14.44570312 -19.47921875 13.89140625 -19.2109375 13.3203125 C-17.84462253 10.70227671 -16.29154758 8.31296261 -14.625 5.875 C-14.03976563 5.00617188 -13.45453125 4.13734375 -12.8515625 3.2421875 C-8.99214592 -1.43145199 -5.81886714 -1.57179983 0 0 Z M-5 21 C-5.84495189 22.07429598 -6.67554858 23.15989202 -7.5 24.25 C-10.99095134 28.44765613 -14.93783253 30.18886897 -20 32 C-19.38125 32.928125 -18.7625 33.85625 -18.125 34.8125 C-15.37123994 39.55834181 -14.7380255 44.62989339 -14 50 C-13.44183594 49.83757812 -12.88367188 49.67515625 -12.30859375 49.5078125 C-9.82411621 48.96131152 -7.60439557 48.86716673 -5.0625 48.875 C-4.22847656 48.87242187 -3.39445312 48.86984375 -2.53515625 48.8671875 C0.06216123 49.00325652 2.46580044 49.42878507 5 50 C5.02578125 49.28714844 5.0515625 48.57429688 5.078125 47.83984375 C5.45766258 41.43083418 6.34901282 37.2998201 10 32 C9.32453125 31.70867187 8.6490625 31.41734375 7.953125 31.1171875 C2.22333588 28.48413412 -1.01407388 26.58238362 -4 21 C-4.33 21 -4.66 21 -5 21 Z " fill="#000000" transform="translate(178,206)"/>
<path d="M0 0 C4.71995264 1.45841233 7.69164954 6.27323623 10.1015625 10.37182617 C13.42286411 15.70631505 16.76819737 17.1840871 22.7109375 18.83203125 C30.44239479 21.07180308 30.44239479 21.07180308 33.109375 23.4453125 C34.45092364 26.46648004 34.53584302 28.36022098 34.0859375 31.64453125 C32.40625 34.75 32.40625 34.75 30.2109375 37.83203125 C29.49164063 38.85683594 28.77234375 39.88164062 28.03125 40.9375 C27.38929688 41.83082031 26.74734375 42.72414062 26.0859375 43.64453125 C24.02192754 46.74054619 23.84021959 47.44359994 23.8125 50.953125 C23.791875 51.78263672 23.77125 52.61214844 23.75 53.46679688 C23.72401815 55.20628169 23.705753 56.94589936 23.6953125 58.68554688 C23.51789354 65.03813143 23.51789354 65.03813143 21.2578125 68.2109375 C17.88630281 70.43637645 14.92981159 70.28815668 11.0859375 69.64453125 C8.85221833 68.9082007 6.62343163 68.15682067 4.3984375 67.39453125 C-2.42911995 65.28472809 -6.48381432 66.12855292 -13.0625 68.6015625 C-16.7167277 69.9381088 -19.08433729 70.21491586 -22.9140625 69.64453125 C-26.0990982 67.88437994 -26.74703222 67.14562209 -27.9140625 63.64453125 C-27.9140625 61.6430614 -27.91268104 59.64157032 -27.90063477 57.64013672 C-27.95555801 47.9436872 -29.97306871 42.9505848 -35.92578125 35.421875 C-37.85007914 32.73390683 -38.62794124 31.33429369 -38.7890625 28.08203125 C-37.70315913 23.81598229 -36.52469904 23.05490169 -32.9140625 20.64453125 C-30.68617245 19.88844779 -28.43286207 19.20469069 -26.1640625 18.58203125 C-18.10539833 15.87891539 -14.70545299 11.37052083 -9.9140625 4.64453125 C-6.84338824 1.13091372 -4.88555479 -0.24518584 0 0 Z M-2.9140625 22.64453125 C-3.5946875 23.55203125 -4.2753125 24.45953125 -4.9765625 25.39453125 C-8.13927651 29.4146075 -12.21921621 30.90569929 -16.9140625 32.64453125 C-15.78954523 35.61646975 -14.69112459 37.97893812 -12.9140625 40.64453125 C-12.5 43.125 -12.5 43.125 -12.2890625 45.83203125 C-12.21429688 46.73308594 -12.13953125 47.63414062 -12.0625 48.5625 C-11.98902344 49.59310547 -11.98902344 49.59310547 -11.9140625 50.64453125 C-10.61082031 50.51884766 -10.61082031 50.51884766 -9.28125 50.390625 C-7.55261719 50.23787109 -7.55261719 50.23787109 -5.7890625 50.08203125 C-4.08363281 49.92541016 -4.08363281 49.92541016 -2.34375 49.765625 C0.97491743 49.64845109 3.8422061 49.97902405 7.0859375 50.64453125 C7.26769531 49.76410156 7.44945312 48.88367188 7.63671875 47.9765625 C7.88808594 46.81511719 8.13945312 45.65367187 8.3984375 44.45703125 C8.64207031 43.30847656 8.88570313 42.15992188 9.13671875 40.9765625 C10.05470674 37.75416021 11.22613092 35.41079818 13.0859375 32.64453125 C12.49425781 32.42539063 11.90257812 32.20625 11.29296875 31.98046875 C5.60766983 29.69892954 2.74118112 27.51818941 -0.9140625 22.64453125 C-1.5740625 22.64453125 -2.2340625 22.64453125 -2.9140625 22.64453125 Z " fill="#000000" transform="translate(290.9140625,89.35546875)"/>
</svg>
