<?xml version="1.0" encoding="UTF-8"?>
<svg version="1.1" xmlns="http://www.w3.org/2000/svg" width="512" height="512">
<path d="M0 0 C1.12781891 -0.0127597 2.25563782 -0.02551941 3.41763306 -0.03866577 C4.62092255 -0.04089142 5.82421204 -0.04311707 7.06396484 -0.04541016 C8.31116302 -0.05206696 9.55836121 -0.05872375 10.84335327 -0.06558228 C13.47416715 -0.07568931 16.10500657 -0.0803999 18.73583984 -0.08007812 C22.10311144 -0.07987423 25.46954575 -0.10726619 28.83661842 -0.14162254 C32.0582026 -0.1692139 35.2797785 -0.16803922 38.50146484 -0.17041016 C39.7088028 -0.18478119 40.91614075 -0.19915222 42.1600647 -0.21395874 C43.84233658 -0.20472885 43.84233658 -0.20472885 45.55859375 -0.1953125 C47.03702255 -0.19958755 47.03702255 -0.19958755 48.5453186 -0.20394897 C51.90573165 0.4340204 53.08720256 1.60649863 55.14990234 4.29052734 C55.68112629 8.00909494 55.79541262 10.23751814 53.80908203 13.4777832 C49.53597706 16.39072889 45.1545911 15.83387694 40.10302734 15.79443359 C38.47527374 15.80856544 38.47527374 15.80856544 36.81463623 15.82298279 C33.34286699 15.85167471 29.87178063 15.85471039 26.39990234 15.85302734 C22.94240548 15.85664095 19.48540844 15.86626741 16.02801514 15.89378357 C13.87772889 15.91049724 11.72727882 15.91350687 9.57696533 15.90077209 C3.36423984 15.94407706 -1.1668963 16.76497162 -6.85009766 19.29052734 C-7.84009766 19.62052734 -8.83009766 19.95052734 -9.85009766 20.29052734 C-11.01963181 22.71435811 -11.01963181 22.71435811 -11.85009766 25.29052734 C-12.18009766 25.95052734 -12.51009766 26.61052734 -12.85009766 27.29052734 C-12.95689393 30.10300771 -13.0023146 32.8912089 -13.0039978 35.70431519 C-13.00838006 36.58524908 -13.01276231 37.46618298 -13.01727736 38.37381184 C-13.03069565 41.34328551 -13.03685096 44.31272949 -13.04296875 47.28222656 C-13.0508672 49.40408463 -13.05913598 51.52594134 -13.06774902 53.64779663 C-13.09399426 60.63025627 -13.10927703 67.61272199 -13.12353516 74.59521484 C-13.1288934 76.99542368 -13.13427091 79.39563247 -13.13966751 81.79584122 C-13.161298 91.77597216 -13.18003687 101.75610146 -13.1912899 111.73624992 C-13.20754339 126.05877264 -13.24075338 140.38102467 -13.29769075 154.70344532 C-13.33632723 164.76376223 -13.35591501 174.82400654 -13.36121047 184.88439572 C-13.36487194 190.8985261 -13.37697807 196.91236795 -13.4093132 202.9264183 C-13.43928379 208.58173688 -13.445745 214.23659065 -13.43392944 219.89197159 C-13.4337078 221.97050962 -13.44208744 224.04906855 -13.45958328 226.12753296 C-13.482132 228.95984595 -13.47404682 231.79045299 -13.45809937 234.62277222 C-13.47198145 235.45020144 -13.48586354 236.27763067 -13.5001663 237.13013351 C-13.44885362 240.81476628 -13.33368896 242.78421299 -10.73948443 245.50031435 C-7.20966364 247.68732894 -5.13695427 247.79167351 -1.00187683 247.79389191 C-0.32225612 247.79970567 0.35736459 247.80551943 1.05757987 247.81150937 C3.33977169 247.82613227 5.62089182 247.81221454 7.90307617 247.79846191 C9.55375373 247.80306995 11.20442719 247.80942221 12.85509205 247.81737089 C17.3948831 247.83410079 21.9343387 247.82580128 26.47413111 247.81342602 C31.36855014 247.8043928 36.26291063 247.81833666 41.15731812 247.8293457 C50.74697421 247.847154 60.33650525 247.84328065 69.9261663 247.83169514 C77.71825422 247.82267018 85.51030703 247.82143276 93.30239868 247.82579041 C94.41042211 247.82640334 95.51844555 247.82701627 96.66004544 247.82764778 C98.91080913 247.82892665 101.1615728 247.8302235 103.41233647 247.83153814 C124.52935921 247.84295071 145.64631255 247.82981961 166.7633239 247.80833668 C184.89189263 247.79046509 203.02035891 247.79356901 221.14892578 247.81201172 C242.18917752 247.83340647 263.22936839 247.84185201 284.26962948 247.82956266 C286.51222164 247.82828844 288.75481382 247.82703095 290.99740601 247.82579041 C292.10087161 247.8251733 293.20433722 247.8245562 294.34124118 247.8239204 C302.1260787 247.82046331 309.91087768 247.82630356 317.69570923 247.83570862 C327.17981469 247.84691448 336.66378769 247.84391831 346.14787793 247.82258564 C350.98899328 247.8120562 355.8298876 247.8079856 360.67100143 247.82118225 C365.09989754 247.83307284 369.52836703 247.82659894 373.95722425 247.80527204 C375.56212865 247.80079179 377.16706885 247.80310405 378.77195036 247.81277519 C380.94904409 247.82489147 383.1246654 247.81251502 385.30168152 247.79389191 C386.51217761 247.7932425 387.7226737 247.79259309 388.96985149 247.791924 C392.8107907 247.18632548 394.47952032 246.08526066 397.14990234 243.29052734 C397.64653109 240.22326427 397.81788242 237.71033228 397.7713623 234.64295959 C397.77775113 233.76102241 397.78413995 232.87908523 397.79072237 231.97042269 C397.80600821 229.0090385 397.78548723 226.04898452 397.76513672 223.08764648 C397.76863686 220.96711279 397.77429422 218.84658172 397.7819519 216.72605896 C397.7962257 210.96150748 397.77911213 205.19743152 397.75566673 199.43292546 C397.73559139 193.40543478 397.74143561 187.37796449 397.74377441 181.35044861 C397.7437208 171.22630958 397.72394088 161.10235694 397.69189453 150.97827148 C397.65501003 139.2687034 397.64621723 127.55937965 397.65319204 115.84976107 C397.65949488 104.59329808 397.64874613 93.33691901 397.62922668 82.08047295 C397.62104583 77.28671512 397.61834441 72.49300014 397.61991882 67.69923592 C397.62079703 62.05459396 397.60659848 56.41018462 397.58069229 50.76560402 C397.57352281 48.69235105 397.57145061 46.61907334 397.57481003 44.5458107 C397.57851755 41.71864669 397.56380233 38.89216421 397.54431152 36.06507874 C397.55230341 34.83035052 397.55230341 34.83035052 397.56045675 33.57067829 C397.50493818 28.91236471 396.8473938 26.08731279 394.14990234 22.29052734 C394.14990234 21.63052734 394.14990234 20.97052734 394.14990234 20.29052734 C386.50926106 15.8334866 378.2305516 16.00278854 369.66703796 16.03224182 C368.42091935 16.02856612 367.17480073 16.02489041 365.89092094 16.02110332 C362.44863726 16.0128731 359.00656254 16.0134846 355.56428564 16.01783025 C351.84584895 16.02031382 348.12743868 16.01122907 344.40901184 16.00344849 C337.97140227 15.99142267 331.53381741 15.98629659 325.09619713 15.98556709 C315.78528011 15.98424016 306.47442305 15.96911824 297.16352723 15.95007192 C282.05181528 15.91925508 266.94010181 15.89507583 251.82836914 15.87719727 C250.92453319 15.87612459 250.02069725 15.8750519 249.08947233 15.87394672 C238.99712922 15.86211713 228.9047855 15.85191172 218.81243896 15.84350586 C215.14815265 15.84043165 211.48386636 15.83734292 207.81958008 15.83422852 C206.91533142 15.83346318 206.01108276 15.83269784 205.07943263 15.83190931 C190.01720429 15.81884094 174.95501957 15.79422352 159.89282352 15.76048511 C150.60112867 15.74017107 141.30952701 15.72990901 132.01780979 15.73247432 C125.6580681 15.73350714 119.29840028 15.72390893 112.93868437 15.70583529 C109.26639745 15.69576366 105.59427389 15.69069066 101.921978 15.69860268 C97.94716861 15.70706505 93.97263589 15.69260218 89.99784851 15.67579651 C88.82919571 15.68200832 87.66054291 15.68822014 86.45647639 15.69462019 C85.39648458 15.68639705 84.33649277 15.67817391 83.24438 15.66970158 C82.3263759 15.66888712 81.4083718 15.66807266 80.46254939 15.66723353 C77.67902368 15.2138261 76.81961091 14.52708644 75.14990234 12.29052734 C74.02687101 8.60056725 73.81251387 6.98064012 75.52490234 3.47802734 C77.14990234 1.29052734 77.14990234 1.29052734 78.14990234 0.29052734 C79.80428216 0.18974864 81.46298647 0.1594515 83.12042999 0.15630627 C84.20369017 0.15184842 85.28695035 0.14739058 86.40303659 0.14279765 C88.21042252 0.14307419 88.21042252 0.14307419 90.05432129 0.14335632 C91.95718029 0.13784129 91.95718029 0.13784129 93.89848089 0.13221484 C97.43613861 0.12216552 100.97377936 0.11847333 104.51144934 0.11582553 C108.32078115 0.11193093 112.13009941 0.10235178 115.93942261 0.09361267 C125.14936139 0.07382038 134.35930132 0.06377682 143.56925607 0.05488488 C147.90454445 0.05050496 152.23983161 0.04513724 156.57511902 0.03989601 C170.9850667 0.02287807 185.3950136 0.00838484 199.80496979 0.00114727 C203.54722596 -0.0007627 207.28948213 -0.00268301 211.03173828 -0.00463867 C212.42695655 -0.00536428 212.42695655 -0.00536428 213.85036105 -0.00610455 C228.91126211 -0.01440116 243.97208364 -0.03972929 259.03294998 -0.07221935 C274.49046633 -0.10529342 289.94794229 -0.12330196 305.40549421 -0.12649697 C314.08630263 -0.12866216 322.76699522 -0.13741166 331.44776917 -0.16295815 C338.84284401 -0.18467022 346.23777491 -0.19271323 353.63287801 -0.18299136 C357.40515883 -0.17844758 361.17714272 -0.18033693 364.94938278 -0.19975281 C369.04300196 -0.22064035 373.13596313 -0.2103959 377.22961426 -0.19721985 C378.41669243 -0.20818909 379.60377061 -0.21915834 380.82682085 -0.23045999 C390.48089915 -0.15543151 399.01388732 2.53009206 406.14990234 9.29052734 C412.28781779 16.927565 414.45298473 23.70575995 414.41732788 33.38619995 C414.42185899 34.2922306 414.42639011 35.19826124 414.43105853 36.13174736 C414.44370121 39.16242795 414.44208224 42.1929288 414.44042969 45.22363281 C414.44641497 47.39870433 414.45322052 49.57377373 414.46078491 51.74884033 C414.47845101 57.6538039 414.48314053 63.55870951 414.48441648 69.46369696 C414.48583817 73.15336682 414.49010807 76.84302194 414.49541092 80.53268814 C414.51391243 93.4059162 414.52208128 106.27910284 414.52050781 119.15234375 C414.51930602 131.15047841 414.54041544 143.14839231 414.57199514 155.14648902 C414.59814744 165.44984307 414.60887556 175.75313836 414.60759699 186.05652535 C414.6070871 192.20927572 414.61278565 198.36186629 414.63395309 204.51458359 C414.65331795 210.30125815 414.6534717 216.08762014 414.63891983 221.87430573 C414.63682855 223.99630566 414.64155155 226.11832507 414.65364075 228.2402916 C414.66909364 231.14085711 414.6597845 234.04034488 414.64437866 236.94088745 C414.65466579 237.77728252 414.66495291 238.61367759 414.67555177 239.47541797 C414.61551023 244.60340739 413.65373484 248.06525077 411.00751841 252.47860062 C409.86469209 254.55899801 409.86469209 254.55899801 410.14990234 258.29052734 C410.79889999 259.43326111 411.44789764 260.57599487 412.11656189 261.75335693 C415.00528288 267.29085786 414.71776922 272.75728855 414.68334961 278.88525391 C414.69196518 280.12845398 414.70058075 281.37165405 414.7094574 282.65252686 C414.72819271 286.04097934 414.72904107 289.42844843 414.72013593 292.81687641 C414.71500694 295.65020692 414.72233323 298.48345066 414.729608 301.31677222 C414.74656721 307.99853168 414.74307777 314.68006248 414.72631836 321.36181641 C414.70936155 328.25129291 414.72528864 335.14013744 414.75754124 342.02954507 C414.7842246 347.95418359 414.7915178 353.87862521 414.78302616 359.80331779 C414.77809798 363.33803851 414.78030743 366.8723782 414.80081367 370.40705109 C414.822558 374.34274677 414.80378644 378.2776767 414.78100586 382.21337891 C414.79269806 383.38332397 414.80439026 384.55326904 414.81643677 385.75866699 C414.72349993 393.62423701 414.72349993 393.62423701 411.80186462 397.01800537 C408.58768745 398.56030147 406.67426694 398.81543271 403.14990234 398.29052734 C400.01398664 396.5106833 399.30887499 395.76744527 398.14990234 392.29052734 C398.05875065 390.62470158 398.02525251 388.95544238 398.02532959 387.28712463 C398.02276657 386.25384033 398.02020355 385.22055603 398.01756287 384.15596008 C398.01966263 383.02288925 398.02176239 381.88981842 398.02392578 380.72241211 C398.02112358 378.93185898 398.02112358 378.93185898 398.01826477 377.10513306 C398.01425662 374.50892414 398.01218555 371.91271169 398.01180267 369.31649971 C398.01066218 365.21111673 397.99782334 361.10582363 397.98223877 357.00047302 C397.97966592 356.30757614 397.97709306 355.61467926 397.97444224 354.90078551 C397.96917581 353.48399155 397.96389033 352.06719767 397.95858622 350.65040386 C397.92347187 341.09317506 397.89692662 331.53605844 397.89941406 321.97875977 C397.90100198 315.53101272 397.88498501 309.08357246 397.84870744 302.6359238 C397.83023703 299.22407496 397.82091345 295.81273842 397.83318329 292.4008503 C397.84275769 288.59609767 397.82171013 284.79266989 397.79345703 280.98803711 C397.80365372 279.85699051 397.8138504 278.72594391 397.82435608 277.56062317 C397.81051376 276.52451904 397.79667145 275.48841492 397.78240967 274.4209137 C397.78094311 273.52145303 397.77947655 272.62199236 397.77796555 271.69527531 C396.86188342 268.18775152 395.15139918 267.24510533 392.14990234 265.29052734 C388.90250591 264.69420177 388.90250591 264.69420177 385.30168152 264.78716278 C384.28225045 264.77844214 384.28225045 264.77844214 383.24222481 264.76954532 C380.960033 264.75492242 378.67891287 264.76884014 376.39672852 264.78259277 C374.74605095 264.77798474 373.09537749 264.77163247 371.44471264 264.7636838 C366.90492159 264.7469539 362.36546599 264.7552534 357.82567358 264.76762867 C352.93125455 264.77666189 348.03689406 264.76271803 343.14248657 264.75170898 C333.55283047 264.73390069 323.96329944 264.73777403 314.37363839 264.74935955 C306.58155047 264.75838451 298.78949765 264.75962193 290.99740601 264.75526428 C289.88938257 264.75465135 288.78135914 264.75403842 287.63975924 264.75340691 C285.38899556 264.75212804 283.13823188 264.75083119 280.88746822 264.74951655 C259.77044548 264.73810398 238.65349214 264.75123507 217.53648078 264.77271801 C199.40791206 264.7905896 181.27944578 264.78748568 163.15087891 264.76904297 C142.11062717 264.74764821 121.0704363 264.73920268 100.03017521 264.75149202 C97.78758304 264.75276625 95.54499087 264.75402373 93.30239868 264.75526428 C92.19893307 264.75588138 91.09546747 264.75649849 89.95856351 264.75713429 C82.17372599 264.76059137 74.38892701 264.75475112 66.60409546 264.74534607 C57.11999 264.7341402 47.636017 264.73713637 38.15192676 264.75846905 C33.3108114 264.76899849 28.46991709 264.77306909 23.62880325 264.75987244 C19.19990715 264.74798185 14.77143766 264.75445575 10.34258044 264.77578264 C8.73767604 264.7802629 7.13273584 264.77795064 5.52785432 264.76827949 C3.3507606 264.75616322 1.17513929 264.76853966 -1.00187683 264.78716278 C-2.21237292 264.78781219 -3.42286901 264.7884616 -4.67004681 264.78913069 C-8.51098601 265.3947292 -10.17971563 266.49579403 -12.85009766 269.29052734 C-13.34672641 272.35779041 -13.51807773 274.8707224 -13.47155762 277.93809509 C-13.48114085 279.26100086 -13.48114085 279.26100086 -13.49091768 280.610632 C-13.50620352 283.57201618 -13.48568254 286.53207017 -13.46533203 289.4934082 C-13.46883217 291.6139419 -13.47448953 293.73447297 -13.48214722 295.85499573 C-13.49642102 301.61954721 -13.47930745 307.38362317 -13.45586205 313.14812922 C-13.4357867 319.17561991 -13.44163092 325.20309019 -13.44396973 331.23060608 C-13.44391611 341.3547451 -13.42413619 351.47869775 -13.39208984 361.6027832 C-13.35520534 373.31235128 -13.34641254 385.02167503 -13.35338736 396.73129362 C-13.3596902 407.98775661 -13.34894145 419.24413568 -13.329422 430.50058174 C-13.32124114 435.29433957 -13.31853972 440.08805455 -13.32011414 444.88181877 C-13.32099235 450.52646072 -13.30679379 456.17087007 -13.2808876 461.81545067 C-13.27371812 463.88870364 -13.27164593 465.96198134 -13.27500534 468.03524399 C-13.27871287 470.86240799 -13.26399764 473.68889048 -13.24450684 476.51597595 C-13.24983476 477.3391281 -13.25516269 478.16228024 -13.26065207 479.01037639 C-13.20513349 483.66868998 -12.54758911 486.4937419 -9.85009766 490.29052734 C-9.85009766 490.95052734 -9.85009766 491.61052734 -9.85009766 492.29052734 C-1.41612389 497.21034537 8.06535224 496.57691684 17.47764587 496.55122375 C19.04556207 496.55424646 20.61347679 496.55813655 22.18138891 496.56281632 C26.47856216 496.57308954 30.77565191 496.57091623 35.07283199 496.56663573 C39.71163447 496.56416731 44.35041691 496.57318408 48.98921204 496.58067322 C58.07242843 496.59341865 67.15561525 496.59521413 76.23883908 496.59287295 C83.6217748 496.59108959 91.00470154 496.59283983 98.38763618 496.5970974 C99.43859103 496.59769259 100.48954588 496.59828777 101.57234784 496.598901 C103.70738399 496.60011275 105.84242013 496.60132689 107.97745628 496.60254338 C127.99678415 496.61341816 148.01609518 496.61125662 168.035424 496.60515853 C186.348526 496.59998851 204.66157481 496.61124718 222.97466629 496.63025675 C241.78176444 496.64962938 260.58883742 496.65789222 279.39594561 496.6541335 C289.95344929 496.6522207 300.5109077 496.65471677 311.06840324 496.66884804 C320.05529828 496.68075541 329.04212016 496.68217388 338.02901619 496.67005787 C342.61341254 496.6641649 347.19767505 496.66308138 351.78206253 496.67506027 C355.98090966 496.68590422 360.17951095 496.68283346 364.37834651 496.66879859 C365.89508104 496.66614758 367.41183474 496.66853089 368.92855047 496.67653445 C376.81953957 496.71527535 383.8113889 496.45395863 391.14990234 493.29052734 C392.13990234 492.96052734 393.12990234 492.63052734 394.14990234 492.29052734 C395.3194365 489.86669658 395.3194365 489.86669658 396.14990234 487.29052734 C396.47990234 486.63052734 396.80990234 485.97052734 397.14990234 485.29052734 C397.25470801 483.34626979 397.29592725 481.39846122 397.30761719 479.45141602 C397.31787933 478.22641891 397.32814148 477.00142181 397.3387146 475.73930359 C397.34215252 475.08274969 397.34559044 474.42619579 397.34913254 473.74974632 C397.36092291 471.69401288 397.38037686 469.63848941 397.4022522 467.58283997 C397.46385629 461.73767108 397.51786723 455.89252255 397.55126953 450.04711914 C397.57224928 446.47198668 397.60758076 442.89723526 397.65202713 439.32232094 C397.66616405 437.96165779 397.67490437 436.6009272 397.67808151 435.24019432 C397.68300583 433.3326542 397.70780131 431.42519699 397.73339844 429.51782227 C397.74552872 427.89139046 397.74552872 427.89139046 397.75790405 426.23210144 C398.2032133 422.89047938 399.16293646 420.99118165 401.14990234 418.29052734 C404.24163986 416.74465859 406.74419787 416.99693213 410.14990234 417.29052734 C413.07522874 419.4445481 414.03886297 420.6425608 414.65783691 424.25456238 C414.66101929 425.40878189 414.66420166 426.5630014 414.66748047 427.75219727 C414.68008911 429.0642363 414.69269775 430.37627533 414.70568848 431.72807312 C414.69852494 433.15905289 414.69032003 434.59002776 414.68115234 436.02099609 C414.68384909 437.49587764 414.68773304 438.97075745 414.69274902 440.44563293 C414.69864481 443.53839019 414.69008538 446.63068521 414.67138672 449.72338867 C414.64869632 453.66645376 414.66165528 457.60842375 414.68567657 461.55144787 C414.70021858 464.59977777 414.69548878 467.6478537 414.68516541 470.69619179 C414.682516 472.14849289 414.68570433 473.60081782 414.69508362 475.05309105 C414.73617418 483.2099297 414.43288487 490.13461151 410.14990234 497.29052734 C409.58257385 498.26780037 409.58257385 498.26780037 409.00378418 499.26481628 C404.80135788 506.17836419 397.76320261 510.11671909 390.14990234 512.29052734 C386.87590379 512.54352701 386.87590379 512.54352701 383.25227642 512.54779625 C382.57945374 512.55130232 381.90663107 512.5548084 381.21341982 512.55842072 C378.96061229 512.56771892 376.70806415 512.56281556 374.45524597 512.55795288 C372.82305879 512.56168994 371.1908734 512.56629168 369.55869085 512.57168353 C365.07457871 512.58392204 360.59054114 512.58365206 356.10641611 512.58129478 C351.26989171 512.58088683 346.43339129 512.59192365 341.59687805 512.60140991 C332.12169126 512.61802542 322.64652936 512.6235197 313.17132922 512.62463467 C305.46988617 512.62558485 297.76845133 512.62969368 290.06701088 512.63603592 C268.23438532 512.65364961 246.40177943 512.66287456 224.56914672 512.66137497 C223.3920534 512.66129506 222.21496008 512.66121515 221.00219727 512.66113281 C219.82366762 512.66105105 218.64513797 512.66096929 217.43089531 512.66088505 C198.32873729 512.66007205 179.2266581 512.67921291 160.12452289 512.70740955 C140.51291864 512.73612992 120.90135285 512.74995032 101.28972703 512.74822199 C90.27833974 512.74755781 79.26703509 512.75306244 68.25566673 512.77457809 C58.88077386 512.7927787 49.50600111 512.7971464 40.13109823 512.78355925 C35.34820312 512.77702404 30.56553852 512.7769324 25.78266525 512.79426575 C21.40234139 512.80997694 17.02243119 512.80715285 12.64211754 512.78969748 C11.05937285 512.78662329 9.47659743 512.7902758 7.89388897 512.80141763 C-0.41391736 512.85601864 -7.57080769 512.71183652 -14.85009766 508.29052734 C-15.50073506 507.91226095 -16.15137246 507.53399455 -16.82172614 507.14426553 C-23.69559507 502.97301217 -27.76491726 495.89392319 -29.85009766 488.29052734 C-30.13339859 485.25707379 -30.12873921 482.23987834 -30.11752319 479.19485474 C-30.12205431 478.28882409 -30.12658542 477.38279344 -30.13125384 476.44930732 C-30.14389652 473.41862674 -30.14227755 470.38812589 -30.140625 467.35742188 C-30.14661028 465.18235035 -30.15341583 463.00728096 -30.16098022 460.83221436 C-30.17864633 454.92725078 -30.18333584 449.02234518 -30.1846118 443.11735773 C-30.18603348 439.42768787 -30.19030339 435.73803275 -30.19560623 432.04836655 C-30.21410775 419.17513849 -30.22227659 406.30195185 -30.22070312 393.42871094 C-30.21950134 381.43057628 -30.24061075 369.43266238 -30.27219045 357.43456566 C-30.29834275 347.13121161 -30.30907087 336.82791633 -30.30779231 326.52452934 C-30.30728241 320.37177896 -30.31298096 314.2191884 -30.33414841 308.0664711 C-30.35351326 302.27979654 -30.35366701 296.49343455 -30.33911514 290.70674896 C-30.33702387 288.58474903 -30.34174686 286.46272962 -30.35383606 284.34076309 C-30.36928895 281.44019758 -30.35997982 278.5407098 -30.34457397 275.64016724 C-30.3548611 274.80377216 -30.36514823 273.96737709 -30.37574708 273.10563672 C-30.31570554 267.97764729 -29.35393016 264.51580392 -26.70771372 260.10245407 C-25.5648874 258.02205668 -25.5648874 258.02205668 -25.85009766 254.29052734 C-26.68948667 252.43884457 -26.68948667 252.43884457 -27.81835175 250.62361813 C-30.23092748 246.00711308 -30.41298789 242.09979125 -30.35803223 236.96107483 C-30.36739217 235.60052393 -30.36739217 235.60052393 -30.3769412 234.21248716 C-30.39282467 231.19013601 -30.38028501 228.16859657 -30.36767578 225.14624023 C-30.37309899 222.97249381 -30.38022276 220.79875106 -30.38891602 218.62501526 C-30.40712954 212.73241872 -30.40008952 206.84010277 -30.38739967 200.94750142 C-30.3772606 194.77508755 -30.386668 188.60269743 -30.39294434 182.43028259 C-30.40021862 172.06439916 -30.39063927 161.69862978 -30.37158203 151.33276367 C-30.34981948 139.35728067 -30.35686107 127.38220163 -30.37888765 115.40671736 C-30.39705466 105.11688028 -30.39959341 94.82712511 -30.38913298 84.53727716 C-30.38290451 78.39516291 -30.38204465 72.25317661 -30.39527893 66.11107063 C-30.4068554 60.33500769 -30.39877844 54.55929509 -30.3757019 48.78326988 C-30.37042423 46.66653652 -30.37191241 44.54977355 -30.38075256 42.43305206 C-30.39172884 39.53729457 -30.37791898 36.64265059 -30.35803223 33.7469635 C-30.36695511 32.91484551 -30.375878 32.08272752 -30.38507128 31.22539383 C-30.27227537 22.72271189 -26.72701413 14.49393918 -20.85009766 8.29052734 C-14.47254204 3.16486228 -8.31013375 0.06417386 0 0 Z " fill="#000000" transform="translate(63.85009765625,-0.29052734375)"/>
<path d="M0 0 C1.12998917 -0.0071553 2.25997833 -0.01431061 3.42420959 -0.02168274 C4.66994247 -0.02437164 5.91567535 -0.02706055 7.19915771 -0.02983093 C8.50654404 -0.03640213 9.81393036 -0.04297333 11.16093445 -0.04974365 C14.75407335 -0.06715952 18.34719895 -0.0777073 21.94036961 -0.08594918 C24.18539473 -0.09109882 26.43041572 -0.09717461 28.67543793 -0.10346031 C35.6999017 -0.12251529 42.72435496 -0.13674495 49.74883962 -0.14507228 C57.85663545 -0.15484247 65.96415811 -0.18115474 74.07185769 -0.22157317 C80.33860895 -0.25174148 86.60528194 -0.26654188 92.87210441 -0.26985329 C96.61487424 -0.27220326 100.35735234 -0.28115606 104.10004425 -0.30631447 C108.27778791 -0.33394291 112.45492224 -0.3297619 116.63275146 -0.32279968 C117.87038742 -0.33560974 119.10802338 -0.3484198 120.38316345 -0.36161804 C131.05718622 -0.29667411 131.05718622 -0.29667411 135.67474365 4.14717102 C138.77806282 8.31200588 139.05127724 11.40765596 139.05569458 16.54829407 C139.06037455 17.28407779 139.06505452 18.01986151 139.06987631 18.7779417 C139.08182303 21.23844218 139.07237059 23.69838535 139.06292725 26.15888977 C139.0669931 27.92489446 139.07233506 29.6908966 139.07885742 31.45689392 C139.0925352 36.25023255 139.08723045 41.04337749 139.07772017 45.83671951 C139.07012599 50.85256218 139.07716851 55.86838825 139.08187866 60.88423157 C139.08733691 69.30752033 139.08014276 77.73073018 139.06585693 86.15400696 C139.0495303 95.89307447 139.05481876 105.63195356 139.07133615 115.3710165 C139.08494902 123.73207684 139.08687165 132.09308045 139.07902014 140.45414829 C139.07434254 145.44815726 139.0737212 150.44207765 139.08362961 155.43608093 C139.09229407 160.13109026 139.08628684 164.82585662 139.06894684 169.52083969 C139.06497922 171.24417594 139.06612075 172.96753263 139.07273483 174.69086075 C139.08092967 177.04286611 139.07065426 179.39409229 139.05569458 181.74604797 C139.0545635 183.06232681 139.05343243 184.37860565 139.05226707 185.73477173 C138.50443429 190.68658163 136.80522957 193.15454924 133.11224365 196.39717102 C129.56647913 198.94284812 127.78765771 199.27426618 123.46337891 199.28761292 C122.3586322 199.29332306 121.2538855 199.2990332 120.11566162 199.30491638 C118.89798096 199.30603424 117.68030029 199.3071521 116.42572021 199.30830383 C114.5085318 199.31575119 114.5085318 199.31575119 112.5526123 199.323349 C109.04004373 199.33648221 105.52749428 199.34292006 102.01490498 199.34735966 C99.82013249 199.35028966 97.62536525 199.35439439 95.4305954 199.35886383 C88.56310559 199.37254286 81.69562773 199.38220682 74.82812524 199.38606572 C66.90205912 199.39054385 58.97616568 199.40807854 51.05015206 199.43706632 C44.9235258 199.45869463 38.79694806 199.46877066 32.67028403 199.47010684 C29.01140697 199.4711543 25.35269213 199.47704904 21.69385529 199.49492645 C17.60957906 199.51449349 13.52566315 199.5101136 9.44134521 199.50361633 C8.23176147 199.51283112 7.02217773 199.5220459 5.77593994 199.53153992 C-4.91664582 199.47818216 -4.91664582 199.47818216 -9.32525635 196.14717102 C-12.93298017 191.65287965 -13.90875923 188.19942929 -13.84664917 182.56332397 C-13.85812581 181.4482328 -13.85812581 181.4482328 -13.8698343 180.31061453 C-13.89040259 177.83014224 -13.88252878 175.35060384 -13.87457275 172.87007141 C-13.88327088 171.0874547 -13.89363848 169.30484546 -13.9055481 167.52224731 C-13.93230848 162.68749164 -13.93348783 157.85304883 -13.9284215 153.01823354 C-13.92628086 148.97990832 -13.93605182 144.94164624 -13.94563234 140.90333456 C-13.96781559 131.37559715 -13.96870129 121.84801745 -13.956604 112.32026672 C-13.94452107 102.49528542 -13.96915593 92.67087671 -14.01174414 82.8459931 C-14.04698274 74.40588039 -14.05897795 65.96594988 -14.05246866 57.52576631 C-14.04884384 52.4868684 -14.05410588 47.44837903 -14.08189774 42.40954781 C-14.10705706 37.67080561 -14.10316586 32.93295578 -14.07707596 28.19422722 C-14.07234576 26.45721001 -14.07780948 24.72012997 -14.0943222 22.98318481 C-14.22448543 8.22515198 -14.22448543 8.22515198 -10.40371704 3.62176514 C-6.45215089 0.44533272 -4.95039352 0.02145797 0 0 Z M1.67474365 15.14717102 C1.67474365 70.58717102 1.67474365 126.02717102 1.67474365 183.14717102 C41.60474365 183.14717102 81.53474365 183.14717102 122.67474365 183.14717102 C122.67474365 127.70717102 122.67474365 72.26717102 122.67474365 15.14717102 C82.74474365 15.14717102 42.81474365 15.14717102 1.67474365 15.14717102 Z " fill="#000000" transform="translate(85.32525634765625,280.8528289794922)"/>
<path d="M0 0 C14.75423117 -0.44386977 28.03392921 2.67341924 39.37109375 12.33984375 C49.11626464 21.59546132 55.75949703 33.00985845 56.33076477 46.67201233 C56.3457456 48.04179377 56.35534779 49.41164083 56.3605957 50.78149414 C56.3671669 51.53348083 56.3737381 52.28546753 56.38050842 53.0602417 C56.40015862 55.54016234 56.41188822 58.02002252 56.421875 60.5 C56.42595053 61.35200926 56.43002605 62.20401852 56.43422508 63.08184624 C56.455055 67.5954959 56.46936752 72.10911548 56.47875977 76.62280273 C56.48979126 81.25704187 56.52416207 85.89079652 56.56393147 90.52486515 C56.59023287 94.11196205 56.59846373 97.69894609 56.60204124 101.28613091 C56.6068758 102.99276421 56.61839903 104.69939356 56.63707924 106.40593147 C56.77529653 119.87461417 55.63404198 131.33194562 46.4609375 141.95703125 C37.8120223 150.29440748 28.42971757 152.46067231 16.82421875 152.48828125 C15.83919373 152.49493805 14.8541687 152.50159485 13.83929443 152.50845337 C11.76169694 152.51854318 9.68406728 152.52327153 7.60644531 152.52294922 C4.4571276 152.52731115 1.30922549 152.56363971 -1.83984375 152.6015625 C-15.5824109 152.67909192 -27.34318929 152.07312729 -37.81640625 142.15234375 C-48.05490321 131.34372166 -48.42378351 118.85677806 -48.34765625 104.81640625 C-48.35035759 103.04722888 -48.35424533 101.27805296 -48.35925293 99.50888062 C-48.3651209 95.81567129 -48.356675 92.12285124 -48.33789062 88.4296875 C-48.31513624 83.73060297 -48.32821897 79.03243436 -48.35218048 74.33338356 C-48.36674083 70.68357638 -48.36198543 67.03398081 -48.35166931 63.38416672 C-48.34902844 61.65327212 -48.35217719 59.92235739 -48.36158752 58.19148636 C-48.43356437 41.23237031 -45.14525217 27.3380355 -33.81640625 14.15234375 C-24.11742567 5.60299192 -12.89751469 0.69764643 0 0 Z M-22.81640625 26.15234375 C-28.25232098 32.84174567 -32.48052226 40.29746359 -31.81640625 49.15234375 C-26.75655838 45.8089107 -24.76486179 41.81623858 -22.19140625 36.52734375 C-21.43549092 34.98997541 -20.67273868 33.45594498 -19.90234375 31.92578125 C-19.57282715 31.24950684 -19.24331055 30.57323242 -18.90380859 29.87646484 C-17.81640625 28.15234375 -17.81640625 28.15234375 -14.81640625 26.15234375 C-11.66195948 25.84308426 -10.55585686 25.75511392 -7.81640625 27.15234375 C-5.6571627 29.72372508 -3.84527086 32.44945394 -1.96484375 35.23046875 C6.34167304 46.52733159 20.72351892 52.57909415 34.18359375 55.15234375 C37.64391188 55.4092124 37.64391188 55.4092124 40.18359375 55.15234375 C40.75672023 45.1756977 39.30217759 36.83555648 32.84375 28.96484375 C25.85038339 21.32973291 17.95882401 16.84982764 7.52734375 15.9140625 C-3.55314352 15.62487396 -14.84753375 17.94695221 -22.81640625 26.15234375 Z M-11.81640625 50.15234375 C-13.08877591 51.67704789 -13.08877591 51.67704789 -14.37890625 53.65234375 C-18.58442002 59.47376921 -23.85135315 64.17564169 -29.81640625 68.15234375 C-31.5271595 76.68771482 -28.77365984 86.72066104 -24.34375 93.98828125 C-18.74314862 101.92366018 -12.30053781 106.70227643 -2.81640625 109.15234375 C7.2568691 110.41150317 15.57383682 109.19697026 23.84375 103.234375 C30.67944873 97.54634881 34.39499898 91.51812807 37.18359375 83.15234375 C37.25258475 81.09089268 37.26827102 79.02732974 37.24609375 76.96484375 C37.23707031 75.87816406 37.22804688 74.79148437 37.21875 73.671875 C37.20714844 72.84042969 37.19554687 72.00898438 37.18359375 71.15234375 C36.095625 70.92160156 35.00765625 70.69085938 33.88671875 70.453125 C17.62405305 66.89305532 2.9195261 61.21249553 -9.81640625 50.15234375 C-10.47640625 50.15234375 -11.13640625 50.15234375 -11.81640625 50.15234375 Z M-31.81640625 110.15234375 C-32.28801617 117.27889371 -32.3928545 123.34621273 -27.81640625 129.15234375 C-23.23508559 133.3741644 -19.11593232 136.24170273 -12.74731445 136.3293457 C-11.932491 136.34218094 -11.11766754 136.35501617 -10.27815247 136.36824036 C-9.40003403 136.37562729 -8.52191559 136.38301422 -7.6171875 136.390625 C-6.70817184 136.39869675 -5.79915619 136.40676849 -4.8625946 136.41508484 C-2.93681744 136.4289165 -1.01101585 136.43964276 0.91479492 136.44750977 C3.84276626 136.46467765 6.76959495 136.5085664 9.69726562 136.55273438 C11.57160631 136.56286584 13.44595657 136.57138052 15.3203125 136.578125 C16.62230843 136.60438713 16.62230843 136.60438713 17.9506073 136.63117981 C23.83790616 136.61044297 28.26148227 135.46633514 33.18359375 132.15234375 C35.28355074 130.00429023 35.28355074 130.00429023 36.62109375 127.58984375 C37.09417969 126.82542969 37.56726563 126.06101562 38.0546875 125.2734375 C39.95615365 121.70078658 40.2978042 118.94654821 40.24609375 114.96484375 C40.23707031 114.06378906 40.22804688 113.16273438 40.21875 112.234375 C40.20714844 111.54730469 40.19554687 110.86023438 40.18359375 110.15234375 C39.52617187 110.69761719 39.52617187 110.69761719 38.85546875 111.25390625 C28.38785668 119.55140362 17.20206998 124.57204056 3.80859375 124.46484375 C3.06399902 124.4592041 2.3194043 124.45356445 1.55224609 124.44775391 C-11.19271831 124.16761432 -22.45800917 118.75195187 -31.81640625 110.15234375 Z " fill="#000000" transform="translate(143.81640625,303.84765625)"/>
<path d="M0 0 C4.23163374 3.46522392 6.23926182 7.11447008 8.06640625 12.15625 C8.47426613 13.22891113 8.47426613 13.22891113 8.8903656 14.32324219 C9.79443723 16.71070087 10.67877037 19.1049441 11.5625 21.5 C12.19747166 23.19507244 12.83356861 24.88972371 13.47070312 26.58398438 C14.50382492 29.33356007 15.53512139 32.08375106 16.5609436 34.83605957 C19.01317662 41.40949463 21.5210606 47.95958544 24.05906677 54.50036621 C25.92389578 59.30861271 27.77548276 64.12190667 29.6257019 68.93579102 C30.53988848 71.30671187 31.4590803 73.67570901 32.3833313 76.04272461 C33.68736616 79.38746243 34.97083687 82.73943569 36.25 86.09375 C36.64505234 87.09325684 37.04010468 88.09276367 37.4471283 89.12255859 C39.5077167 94.59258582 40.57071389 98.29762567 39 104 C37.32315598 106.64764845 36.14861139 106.95477045 33.125 107.875 C29.17564462 108.03297422 28.06294767 107.49834902 25 105 C23.38922371 102.0985185 22.2936061 99.06047947 21.1875 95.9375 C20.87619141 95.10927734 20.56488281 94.28105469 20.24414062 93.42773438 C18 87.3660886 18 87.3660886 18 85 C3.15 85 -11.7 85 -27 85 C-27.33 86.65 -27.66 88.3 -28 90 C-28.86761135 92.57537799 -29.77112982 95.09378014 -30.75 97.625 C-30.98976563 98.29273438 -31.22953125 98.96046875 -31.4765625 99.6484375 C-32.72806023 102.8739471 -33.76512904 104.81561532 -36.5078125 106.96875 C-39.78952725 108.32670093 -41.63045104 108.0255149 -45 107 C-47.6486404 105.3560163 -47.9682448 104.11184375 -48.82446289 101.09619141 C-49.52296154 95.5355173 -47.02389489 90.65235357 -44.99609375 85.5859375 C-44.56616119 84.47395996 -44.13622864 83.36198242 -43.69326782 82.21630859 C-42.28989418 78.59640212 -40.86430248 74.98572882 -39.4375 71.375 C-38.46720214 68.89069321 -37.49802891 66.40598922 -36.53100586 63.92041016 C-36.04534896 62.67255915 -35.55964644 61.4247259 -35.07389832 60.1769104 C-34.83368643 59.55983845 -34.59347454 58.94276649 -34.34598351 58.30699539 C-33.61676648 56.43642001 -32.88517355 54.566789 -32.1530304 52.69735718 C-29.24797587 45.26551576 -26.42372003 37.81089989 -23.6953125 30.3125 C-23.06588818 28.5945449 -22.43641425 26.87660797 -21.80688477 25.15869141 C-20.94091605 22.79289354 -20.08054228 20.42587601 -19.23849487 18.05145264 C-18.47836066 15.91090399 -17.6967128 13.77938985 -16.91015625 11.6484375 C-16.48871338 10.47458496 -16.06727051 9.30073242 -15.63305664 8.09130859 C-12.06371302 1.33468893 -7.47573765 -1.18662502 0 0 Z M-5 27 C-7.14041008 32.65842453 -9.27654705 38.31843615 -11.40869141 43.97998047 C-12.13504875 45.90685864 -12.86258424 47.83329311 -13.59130859 49.75927734 C-14.63687179 52.52326278 -15.67822625 55.28880165 -16.71875 58.0546875 C-17.04685669 58.9193161 -17.37496338 59.7839447 -17.7130127 60.67477417 C-18.01332397 61.47545319 -18.31363525 62.2761322 -18.62304688 63.10107422 C-19.02275696 64.16030594 -19.02275696 64.16030594 -19.43054199 65.24093628 C-20.10266374 67.00897268 -20.10266374 67.00897268 -20 69 C-9.77 69 0.46 69 11 69 C10.15771708 63.79871183 10.15771708 63.79871183 8.60131836 59.01416016 C8.32110336 58.29386627 8.04088837 57.57357239 7.75218201 56.83145142 C7.45111038 56.07496307 7.15003876 55.31847473 6.83984375 54.5390625 C6.53051407 53.74849457 6.22118439 52.95792664 5.90248108 52.1434021 C4.9196015 49.63508858 3.92868752 47.13004057 2.9375 44.625 C2.26704393 42.91817849 1.59711633 41.21114929 0.92773438 39.50390625 C-0.70873609 35.3335085 -2.35241643 31.16601915 -4 27 C-4.33 27 -4.66 27 -5 27 Z " fill="#000000" transform="translate(386,78)"/>
<path d="M0 0 C3.14823094 2.24020228 4.79266155 3.59106652 5.93359375 7.33984375 C6.08264643 11.06616086 5.30993362 12.54644022 3.05859375 15.46484375 C0.00975833 16.98926146 -2.65747296 17.12163041 -5.94140625 16.46484375 C-8.60498451 15.09728777 -11.08319966 13.53943835 -13.609375 11.93359375 C-20.01425381 7.89970023 -26.55394818 7.81126167 -33.94140625 8.46484375 C-37.78356853 9.44897654 -41.79698276 11.00993924 -43.94140625 14.46484375 C-45.26775927 19.82981573 -45.26775927 19.82981573 -43.7956543 24.92822266 C-41.50191262 28.06607335 -39.70285225 28.80132556 -36.09375 30.18359375 C-34.93037109 30.64121094 -33.76699219 31.09882812 -32.56835938 31.5703125 C-31.35083984 32.03050781 -30.13332031 32.49070313 -28.87890625 32.96484375 C0.81720861 44.44455464 0.81720861 44.44455464 7.15234375 57.0078125 C9.81963982 64.23940399 9.57298452 71.28087012 7.05859375 78.46484375 C2.56685173 87.94741024 -4.21080204 93.63836959 -13.94140625 97.46484375 C-19.90434128 99.38901774 -25.70853246 99.91964714 -31.94140625 99.46484375 C-33.15376953 99.37976563 -33.15376953 99.37976563 -34.390625 99.29296875 C-45.39806611 97.91086852 -57.44879867 92.24766688 -64.875 83.91015625 C-67.22055519 80.73119867 -67.40144995 78.37521522 -66.94140625 74.46484375 C-64.94140625 71.52734375 -64.94140625 71.52734375 -61.94140625 69.46484375 C-57.67040702 69.18477823 -55.3944117 69.33927614 -52 71.96875 C-50.68698351 73.19688461 -49.3825384 74.43423456 -48.0859375 75.6796875 C-41.9297521 80.80423527 -33.0165706 82.87644863 -25.125 82.7421875 C-19.64911943 82.0466821 -14.67335477 79.6767038 -10.94140625 75.58984375 C-8.78572834 72.22159701 -7.85988226 70.45951941 -7.94140625 66.46484375 C-10.57748195 59.63501125 -14.54483335 57.56216137 -20.94140625 54.46484375 C-26.65791147 51.99923731 -32.459347 49.75170809 -38.25585938 47.48242188 C-48.93223488 43.23444831 -56.11432197 39.29297068 -61.31640625 28.65234375 C-63.02107326 19.95854199 -62.41066056 12.22304485 -57.94140625 4.46484375 C-43.9835629 -14.52818977 -17.61250687 -10.90298044 0 0 Z " fill="#000000" transform="translate(306.94140625,86.53515625)"/>
<path d="M0 0 C3.70986231 3.05854471 5.01132787 6.01508949 6.53369141 10.52514648 C6.75539505 11.17118835 6.97709869 11.81723022 7.20552063 12.48284912 C7.93201347 14.608657 8.64175704 16.73966217 9.3515625 18.87109375 C9.85565275 20.35591796 10.36082695 21.84037458 10.86703491 23.32447815 C12.19503553 27.22683553 13.50908066 31.13374925 14.82000732 35.04187012 C16.41327645 39.78338298 18.02267274 44.51943956 19.62981224 49.25626469 C20.88038919 52.94311875 22.12853791 56.63073525 23.36929321 60.32090759 C23.59850967 61.00121536 23.82772614 61.68152313 24.06388855 62.38244629 C24.68126895 64.21533933 25.29730517 66.04868499 25.91323853 67.88206482 C26.8690512 70.62430589 27.89487174 73.31506398 29 76 C31.13285253 72.80072121 32.08814055 70.0424006 33.27490234 66.38891602 C33.49310135 65.72190674 33.71130035 65.05489746 33.93611145 64.36767578 C34.40887707 62.92125455 34.87966599 61.47418607 35.34870529 60.0265522 C36.09236176 57.73410236 36.8429127 55.44402143 37.59561157 53.15452576 C39.73477724 46.64542834 41.86574451 40.13370786 43.98144531 33.61694336 C45.27671343 29.62894706 46.58370654 25.64495628 47.89818192 21.66325188 C48.39620545 20.14689144 48.88975633 18.62905432 49.37870407 17.10974312 C50.06355319 14.98285973 50.76319954 12.86138337 51.46630859 10.74047852 C52.0568251 8.92870872 52.0568251 8.92870872 52.65927124 7.08033752 C54.05327629 3.87759719 55.25940609 2.14147082 58 0 C61.98452984 -0.56921855 64.05493748 -0.67149179 67.375 1.6875 C69.26565967 4.37805414 69.71316791 5.72295739 70 9 C69.32026142 11.79292695 68.55906097 14.39251583 67.6328125 17.1015625 C67.23361603 18.31607841 67.23361603 18.31607841 66.82635498 19.55513 C65.9375834 22.24911765 65.03171384 24.93700288 64.125 27.625 C63.49665538 29.51215068 62.86923181 31.39960825 62.24267578 33.28735352 C60.89336805 37.34762141 59.53705202 41.40547584 58.17773438 45.46240234 C56.28263067 51.13257582 54.42446667 56.81422679 52.5765686 62.49993896 C51.05675354 67.17358017 49.52668499 71.84382967 47.99505615 76.51361084 C47.24970456 78.79206913 46.50803066 81.07173385 45.77008057 83.3526001 C44.73054626 86.56056226 43.67574793 89.76311791 42.6171875 92.96484375 C42.31037048 93.92336746 42.00355347 94.88189117 41.68743896 95.86946106 C38.95452678 104.04466695 38.95452678 104.04466695 35 107 C31.28007834 108.3533711 27.97400195 108.33204612 24.25 107.0625 C17.8606216 101.2055698 15.77577268 90.99845143 13.078125 83.02734375 C12.61027089 81.65880709 12.1418964 80.29044824 11.67303467 78.92225647 C10.44151264 75.32429231 9.21662252 71.7241063 7.99328613 68.12335205 C6.53491359 63.83457755 5.06917962 59.54831441 3.60367584 55.26197243 C2.41334873 51.7796584 1.22568344 48.29648996 0.04431152 44.81112671 C-2.08507693 38.53738183 -4.24393945 32.28112129 -6.52148438 26.05908203 C-6.90298645 25.00596329 -7.28448853 23.95284454 -7.67755127 22.86781311 C-8.37722146 20.94583946 -9.08910405 19.02824432 -9.81610107 17.11643982 C-11.70875089 11.89096813 -12.38874126 8.4274726 -11 3 C-8.7860583 -1.03718781 -4.11975154 -1.00423886 0 0 Z " fill="#000000" transform="translate(98,78)"/>
<path d="M0 0 C0.72353306 -0.00623996 1.44706613 -0.01247993 2.19252443 -0.01890898 C4.61171548 -0.03483633 7.02989855 -0.02223651 9.44909668 -0.00964355 C11.18554776 -0.01506482 12.92199424 -0.0221875 14.65843201 -0.03088379 C19.37124597 -0.04911966 24.08370968 -0.04204854 28.79652977 -0.02936745 C33.72829508 -0.01924116 38.66003039 -0.0286321 43.59179688 -0.03491211 C51.87387476 -0.04218959 60.15580998 -0.03259815 68.43786621 -0.0135498 C78.01339098 0.00821912 87.58857508 0.00116782 97.16409159 -0.02085543 C105.38503896 -0.03900654 113.60588376 -0.04156916 121.82684469 -0.03110075 C126.73704201 -0.02486424 131.6470792 -0.02403454 136.55726624 -0.0372467 C141.17355359 -0.04880037 145.78940167 -0.04078837 150.40564156 -0.01766968 C152.09994846 -0.01237999 153.79429232 -0.01390082 155.48858452 -0.02272034 C157.80140131 -0.03364968 160.11281008 -0.01994564 162.42553711 0 C163.71969292 0.0015081 165.01384872 0.0030162 166.34722137 0.00457001 C170.27363588 0.59182011 171.93808008 1.72073061 174.71276855 4.50793457 C175.3416748 6.50793457 175.3416748 6.50793457 175.27526855 8.50793457 C175.27655762 9.16793457 175.27784668 9.82793457 175.2791748 10.50793457 C174.44029914 13.47003345 173.124808 14.60565427 170.71276855 16.50793457 C167.43624115 17.01129913 167.43624115 17.01129913 163.46313477 17.01586914 C162.73158346 17.0221091 162.00003215 17.02834907 161.24631262 17.03477812 C158.79404857 17.05073805 156.34277441 17.03809286 153.89050293 17.0255127 C152.13287272 17.03093251 150.37524705 17.03805437 148.61763 17.04675293 C143.84284413 17.06500604 139.06840353 17.05791057 134.29361153 17.04523659 C129.2999795 17.03511921 124.30637731 17.04449875 119.31274414 17.05078125 C110.92633753 17.05806134 102.54007176 17.04846047 94.15368652 17.02941895 C84.45376407 17.00764952 74.7541779 17.01470064 65.05426359 17.03672457 C56.73059314 17.05486827 48.407024 17.05744193 40.08334017 17.04696989 C35.11000333 17.04072929 30.13682464 17.03991488 25.16349792 17.05311584 C20.48813296 17.06465874 15.81320214 17.05667726 11.13788414 17.03353882 C9.42058216 17.02824336 7.70324374 17.02977978 5.98595619 17.03858948 C3.644276 17.04949603 1.30399311 17.03584237 -1.03759766 17.01586914 C-2.34872276 17.01436104 -3.65984787 17.01285294 -5.01070404 17.01129913 C-8.8176088 16.42645405 -9.99518163 15.54013318 -12.28723145 12.50793457 C-12.8536377 10.50793457 -12.8536377 10.50793457 -12.84973145 8.50793457 C-12.87164551 7.84793457 -12.89355957 7.18793457 -12.9161377 6.50793457 C-11.02654788 0.49880422 -5.47156491 0.00637611 0 0 Z " fill="#000000" transform="translate(265.2872314453125,295.4920654296875)"/>
<path d="M0 0 C1.24276199 -0.00379669 2.48552399 -0.00759338 3.76594543 -0.01150513 C7.16699944 -0.0176392 10.56707851 -0.00592035 13.96801686 0.01440096 C17.52956982 0.03199749 21.09110713 0.02844639 24.6526947 0.02767944 C30.63215933 0.02955106 36.61142065 0.046897 42.59082031 0.07421875 C49.50220606 0.1056825 56.41336934 0.11621436 63.32482153 0.11474764 C70.68677833 0.11339636 78.04864946 0.12727935 85.4105804 0.14564085 C87.5306161 0.14990156 89.65063797 0.15132294 91.77067757 0.15211868 C95.72089618 0.15450223 99.67093014 0.17393141 103.62109375 0.1953125 C105.38308105 0.19395294 105.38308105 0.19395294 107.18066406 0.19256592 C108.25594864 0.20109589 109.33123322 0.20962585 110.43910217 0.21841431 C111.37283692 0.221766 112.30657167 0.22511768 113.26860142 0.22857094 C115.89929911 0.50177599 117.51113796 1.09580959 119.74584961 2.48583984 C121.82743981 5.1621701 121.74172552 6.60337652 121.62084961 10.04833984 C120.74584961 13.48583984 120.74584961 13.48583984 119.02799988 15.17645359 C116.25883122 16.76526719 114.53890921 16.86537797 111.35644531 16.8735199 C110.26288727 16.88342453 109.16932922 16.89332916 108.04263306 16.90353394 C106.84770233 16.89903229 105.65277161 16.89453064 104.42163086 16.88989258 C102.5284462 16.90018745 102.5284462 16.90018745 100.59701538 16.91069031 C97.13834263 16.92863182 93.67992343 16.92745174 90.22121811 16.92174792 C87.33342441 16.9186579 84.44567955 16.92474633 81.5578928 16.93078667 C74.74582927 16.94483313 67.93389116 16.94326927 61.12182617 16.93188477 C54.09392178 16.92039911 47.06639879 16.93448612 40.03854465 16.96128124 C34.00360456 16.98342922 27.96878427 16.99007782 21.93380642 16.98420483 C18.32977095 16.98083235 14.72598006 16.98326946 11.12197876 17.00045586 C7.10442899 17.01877842 3.08762299 17.00474746 -0.92993164 16.98754883 C-2.72232773 17.00205078 -2.72232773 17.00205078 -4.55093384 17.0168457 C-5.64449188 17.00701157 -6.73804993 16.99717743 -7.86474609 16.98704529 C-9.28941948 16.98673136 -9.28941948 16.98673136 -10.74287415 16.98641109 C-13.99680522 16.33780688 -15.19237043 15.02722183 -17.25415039 12.48583984 C-17.82055664 10.48583984 -17.82055664 10.48583984 -17.81665039 8.48583984 C-17.83856445 7.82583984 -17.86047852 7.16583984 -17.88305664 6.48583984 C-15.4074344 -1.38694643 -6.61154552 -0.06336781 0 0 Z " fill="#000000" transform="translate(270.254150390625,447.51416015625)"/>
<path d="M0 0 C1.24276199 -0.00379669 2.48552399 -0.00759338 3.76594543 -0.01150513 C7.16699944 -0.0176392 10.56707851 -0.00592035 13.96801686 0.01440096 C17.52956982 0.03199749 21.09110713 0.02844639 24.6526947 0.02767944 C30.63215933 0.02955106 36.61142065 0.046897 42.59082031 0.07421875 C49.50220606 0.1056825 56.41336934 0.11621436 63.32482153 0.11474764 C70.68677833 0.11339636 78.04864946 0.12727935 85.4105804 0.14564085 C87.5306161 0.14990156 89.65063797 0.15132294 91.77067757 0.15211868 C95.72089618 0.15450223 99.67093014 0.17393141 103.62109375 0.1953125 C105.38308105 0.19395294 105.38308105 0.19395294 107.18066406 0.19256592 C108.25594864 0.20109589 109.33123322 0.20962585 110.43910217 0.21841431 C111.37283692 0.221766 112.30657167 0.22511768 113.26860142 0.22857094 C115.89929911 0.50177599 117.51113796 1.09580959 119.74584961 2.48583984 C121.82743981 5.1621701 121.74172552 6.60337652 121.62084961 10.04833984 C120.74584961 13.48583984 120.74584961 13.48583984 119.02799988 15.17645359 C116.25883122 16.76526719 114.53890921 16.86537797 111.35644531 16.8735199 C110.26288727 16.88342453 109.16932922 16.89332916 108.04263306 16.90353394 C106.84770233 16.89903229 105.65277161 16.89453064 104.42163086 16.88989258 C102.5284462 16.90018745 102.5284462 16.90018745 100.59701538 16.91069031 C97.13834263 16.92863182 93.67992343 16.92745174 90.22121811 16.92174792 C87.33342441 16.9186579 84.44567955 16.92474633 81.5578928 16.93078667 C74.74582927 16.94483313 67.93389116 16.94326927 61.12182617 16.93188477 C54.09392178 16.92039911 47.06639879 16.93448612 40.03854465 16.96128124 C34.00360456 16.98342922 27.96878427 16.99007782 21.93380642 16.98420483 C18.32977095 16.98083235 14.72598006 16.98326946 11.12197876 17.00045586 C7.10442899 17.01877842 3.08762299 17.00474746 -0.92993164 16.98754883 C-2.72232773 17.00205078 -2.72232773 17.00205078 -4.55093384 17.0168457 C-5.64449188 17.00701157 -6.73804993 16.99717743 -7.86474609 16.98704529 C-9.28941948 16.98673136 -9.28941948 16.98673136 -10.74287415 16.98641109 C-13.99680522 16.33780688 -15.19237043 15.02722183 -17.25415039 12.48583984 C-17.82055664 10.48583984 -17.82055664 10.48583984 -17.81665039 8.48583984 C-17.83856445 7.82583984 -17.86047852 7.16583984 -17.88305664 6.48583984 C-15.4074344 -1.38694643 -6.61154552 -0.06336781 0 0 Z " fill="#000000" transform="translate(270.254150390625,409.51416015625)"/>
<path d="M0 0 C3.1850357 1.76015131 3.83296972 2.49890916 5 6 C5.10208643 9.03739462 5.14682695 12.05193975 5.14526367 15.08959961 C5.14862228 16.01995529 5.1519809 16.95031097 5.15544128 17.90885925 C5.1649548 20.99003426 5.16689454 24.07115496 5.16796875 27.15234375 C5.17118084 29.29081749 5.17454488 31.42929101 5.17805481 33.56776428 C5.18404693 38.05258697 5.1858946 42.53739039 5.18530273 47.0222168 C5.18520106 52.77365334 5.19885844 58.52496657 5.21607494 64.27637386 C5.22718365 68.69353302 5.2292223 73.11066224 5.22869301 77.52783394 C5.22987463 79.64854927 5.23430657 81.76926535 5.24202538 83.88996696 C5.25180323 86.85373496 5.24895599 89.8172337 5.24291992 92.78100586 C5.24853943 93.65958252 5.25415894 94.53815918 5.25994873 95.44335938 C5.25575424 96.25228134 5.25155975 97.06120331 5.24723816 97.89463806 C5.24778293 98.59499145 5.24832769 99.29534483 5.24888897 100.01692104 C4.85375292 103.16525657 3.82186222 105.36077383 1.3125 107.3125 C-2.10740423 108.32922829 -4.57109774 107.87281149 -8 107 C-10.05568344 105.2208793 -10.8915489 103.76418079 -11.27471733 101.06425476 C-11.3996953 98.54530658 -11.41659716 96.04354551 -11.40405273 93.52148438 C-11.41091599 92.56172195 -11.41777924 91.60195953 -11.42485046 90.6131134 C-11.44315564 87.4398419 -11.43927595 84.26706298 -11.43359375 81.09375 C-11.43815343 78.88944334 -11.44345835 76.68513811 -11.44947815 74.48083496 C-11.45841632 69.86069972 -11.45597762 65.24073727 -11.44604492 60.62060547 C-11.4345485 54.69526854 -11.45477387 48.77052695 -11.48396206 42.84526825 C-11.50229235 38.29339805 -11.50203801 33.74167139 -11.49632454 29.18977356 C-11.49617097 27.00485905 -11.50224472 24.81993503 -11.51461601 22.63505554 C-11.5294658 19.58249345 -11.51889319 16.53104253 -11.50170898 13.47851562 C-11.51137695 12.57345779 -11.52104492 11.66839996 -11.53100586 10.73591614 C-11.45912998 4.64972587 -11.45912998 4.64972587 -9.18739319 1.43493652 C-5.99081167 -0.66203058 -3.73806845 -0.46725856 0 0 Z " fill="#000000" transform="translate(207,78)"/>
<path d="M0 0 C1.0447348 -0.01283524 2.0894696 -0.02567047 3.16586304 -0.03889465 C4.29400421 -0.04628159 5.42214539 -0.05366852 6.58447266 -0.0612793 C7.74475983 -0.06935104 8.905047 -0.07742279 10.10049438 -0.08573914 C12.55672716 -0.09957553 15.01297913 -0.11029967 17.46923828 -0.11816406 C21.22676892 -0.13539821 24.98342465 -0.1792924 28.74072266 -0.22338867 C31.12613285 -0.23351374 33.51155052 -0.24203042 35.89697266 -0.2487793 C37.02106537 -0.26628738 38.14515808 -0.28379547 39.30331421 -0.30183411 C47.10206892 -0.28012627 47.10206892 -0.28012627 51.08276367 2.07861328 C53.01484554 4.34258652 53.53352659 5.24078939 53.43603516 8.17700195 C53.43732422 8.83700195 53.43861328 9.49700195 53.43994141 10.17700195 C52.61886983 13.076234 51.18101703 14.27198218 48.87353516 16.17700195 C46.29345703 16.68493652 46.29345703 16.68493652 43.34228516 16.69458008 C42.23433594 16.70718872 41.12638672 16.71979736 39.98486328 16.73278809 C38.793125 16.72469116 37.60138672 16.71659424 36.37353516 16.70825195 C34.53178711 16.71399231 34.53178711 16.71399231 32.65283203 16.71984863 C30.05712057 16.72257037 27.4613818 16.71519107 24.86572266 16.69848633 C20.88853916 16.6770827 16.91316234 16.69828158 12.93603516 16.72387695 C10.41519783 16.72123373 7.89436163 16.71610886 5.37353516 16.70825195 C4.18179687 16.71634888 2.99005859 16.7244458 1.76220703 16.73278809 C0.1002832 16.71387512 0.1002832 16.71387512 -1.59521484 16.69458008 C-2.56910156 16.69139771 -3.54298828 16.68821533 -4.54638672 16.68493652 C-7.88149207 16.02836133 -9.07510146 14.84410196 -11.12646484 12.17700195 C-11.59565167 8.42350734 -11.65782865 6.13851742 -9.81396484 2.80200195 C-6.86189853 -0.04072857 -3.89754008 0.04171379 0 0 Z " fill="#000000" transform="translate(387.12646484375,371.822998046875)"/>
<path d="M0 0 C1.73618591 -0.00218285 1.73618591 -0.00218285 3.50744629 -0.00440979 C5.95176717 -0.00275165 8.39609859 0.00879992 10.84033203 0.02954102 C14.58020408 0.0584889 18.3186579 0.05014823 22.05859375 0.03710938 C24.43490272 0.04334712 26.81120721 0.05173833 29.1875 0.0625 C30.3053186 0.05956436 31.42313721 0.05662872 32.5748291 0.05360413 C33.61941284 0.0662883 34.66399658 0.07897247 35.74023438 0.09204102 C36.6555896 0.097444 37.57094482 0.10284698 38.51403809 0.1084137 C41.63820639 0.57791486 43.54115413 1.66320306 46.09375 3.49609375 C47.63961876 6.58783127 47.38734521 9.09038927 47.09375 12.49609375 C45.0502437 15.17491709 43.85188126 16.34684204 40.51367188 17.00402832 C39.53978516 17.00721069 38.56589844 17.01039307 37.5625 17.01367188 C36.45455078 17.02628052 35.34660156 17.03888916 34.20507812 17.05187988 C33.01333984 17.04378296 31.82160156 17.03568604 30.59375 17.02734375 C28.75200195 17.03308411 28.75200195 17.03308411 26.87304688 17.03894043 C24.27733541 17.04166217 21.68159664 17.03428286 19.0859375 17.01757812 C15.10875401 16.9961745 11.13337718 17.01737338 7.15625 17.04296875 C4.63541267 17.04032552 2.11457647 17.03520066 -0.40625 17.02734375 C-1.59798828 17.03544067 -2.78972656 17.0435376 -4.01757812 17.05187988 C-5.67950195 17.03296692 -5.67950195 17.03296692 -7.375 17.01367188 C-8.34888672 17.0104895 -9.32277344 17.00730713 -10.32617188 17.00402832 C-13.62776906 16.35404981 -14.82043812 15.07932399 -16.90625 12.49609375 C-17.47265625 10.49609375 -17.47265625 10.49609375 -17.46875 8.49609375 C-17.49066406 7.83609375 -17.51257813 7.17609375 -17.53515625 6.49609375 C-15.09426465 -1.26624475 -6.54059784 -0.06573243 0 0 Z " fill="#000000" transform="translate(269.90625,371.50390625)"/>
<path d="M0 0 C1.0447348 -0.01283524 2.0894696 -0.02567047 3.16586304 -0.03889465 C4.29400421 -0.04628159 5.42214539 -0.05366852 6.58447266 -0.0612793 C7.74475983 -0.06935104 8.905047 -0.07742279 10.10049438 -0.08573914 C12.55672716 -0.09957553 15.01297913 -0.11029967 17.46923828 -0.11816406 C21.22676892 -0.13539821 24.98342465 -0.1792924 28.74072266 -0.22338867 C31.12613285 -0.23351374 33.51155052 -0.24203042 35.89697266 -0.2487793 C37.02106537 -0.26628738 38.14515808 -0.28379547 39.30331421 -0.30183411 C47.10206892 -0.28012627 47.10206892 -0.28012627 51.08276367 2.07861328 C53.01484554 4.34258652 53.53352659 5.24078939 53.43603516 8.17700195 C53.43732422 8.83700195 53.43861328 9.49700195 53.43994141 10.17700195 C52.61886983 13.076234 51.18101703 14.27198218 48.87353516 16.17700195 C46.29345703 16.68493652 46.29345703 16.68493652 43.34228516 16.69458008 C42.23433594 16.70718872 41.12638672 16.71979736 39.98486328 16.73278809 C38.793125 16.72469116 37.60138672 16.71659424 36.37353516 16.70825195 C34.53178711 16.71399231 34.53178711 16.71399231 32.65283203 16.71984863 C30.05712057 16.72257037 27.4613818 16.71519107 24.86572266 16.69848633 C20.88853916 16.6770827 16.91316234 16.69828158 12.93603516 16.72387695 C10.41519783 16.72123373 7.89436163 16.71610886 5.37353516 16.70825195 C4.18179687 16.71634888 2.99005859 16.7244458 1.76220703 16.73278809 C0.1002832 16.71387512 0.1002832 16.71387512 -1.59521484 16.69458008 C-2.56910156 16.69139771 -3.54298828 16.68821533 -4.54638672 16.68493652 C-7.88149207 16.02836133 -9.07510146 14.84410196 -11.12646484 12.17700195 C-11.59565167 8.42350734 -11.65782865 6.13851742 -9.81396484 2.80200195 C-6.86189853 -0.04072857 -3.89754008 0.04171379 0 0 Z " fill="#000000" transform="translate(387.12646484375,333.822998046875)"/>
<path d="M0 0 C1.73618591 -0.00218285 1.73618591 -0.00218285 3.50744629 -0.00440979 C5.95176717 -0.00275165 8.39609859 0.00879992 10.84033203 0.02954102 C14.58020408 0.0584889 18.3186579 0.05014823 22.05859375 0.03710938 C24.43490272 0.04334712 26.81120721 0.05173833 29.1875 0.0625 C30.3053186 0.05956436 31.42313721 0.05662872 32.5748291 0.05360413 C33.61941284 0.0662883 34.66399658 0.07897247 35.74023438 0.09204102 C36.6555896 0.097444 37.57094482 0.10284698 38.51403809 0.1084137 C41.63820639 0.57791486 43.54115413 1.66320306 46.09375 3.49609375 C47.63961876 6.58783127 47.38734521 9.09038927 47.09375 12.49609375 C45.0502437 15.17491709 43.85188126 16.34684204 40.51367188 17.00402832 C39.53978516 17.00721069 38.56589844 17.01039307 37.5625 17.01367188 C36.45455078 17.02628052 35.34660156 17.03888916 34.20507812 17.05187988 C33.01333984 17.04378296 31.82160156 17.03568604 30.59375 17.02734375 C28.75200195 17.03308411 28.75200195 17.03308411 26.87304688 17.03894043 C24.27733541 17.04166217 21.68159664 17.03428286 19.0859375 17.01757812 C15.10875401 16.9961745 11.13337718 17.01737338 7.15625 17.04296875 C4.63541267 17.04032552 2.11457647 17.03520066 -0.40625 17.02734375 C-1.59798828 17.03544067 -2.78972656 17.0435376 -4.01757812 17.05187988 C-5.67950195 17.03296692 -5.67950195 17.03296692 -7.375 17.01367188 C-8.34888672 17.0104895 -9.32277344 17.00730713 -10.32617188 17.00402832 C-13.62776906 16.35404981 -14.82043812 15.07932399 -16.90625 12.49609375 C-17.47265625 10.49609375 -17.47265625 10.49609375 -17.46875 8.49609375 C-17.49066406 7.83609375 -17.51257813 7.17609375 -17.53515625 6.49609375 C-15.09426465 -1.26624475 -6.54059784 -0.06573243 0 0 Z " fill="#000000" transform="translate(269.90625,333.50390625)"/>
</svg>
